<svg xmlns="http://www.w3.org/2000/svg" viewBox="0 0 176.29 42.73"><g id="Layer_2" data-name="Layer 2"><g id="Layer_1-2" data-name="Layer 1"><path d="M12.12,17.9c-.72,0-1.16.24-1.33.71a11.12,11.12,0,0,0-.35,2.05,26.28,26.28,0,0,0-.17,2.78,1.21,1.21,0,0,0,.38,1,2.46,2.46,0,0,0,1.41.29,1.39,1.39,0,0,0,1-.33,2,2,0,0,0,.46-1.09q.36-2.19,1.47-2.19,1.91,0,1.91,5.88a13.46,13.46,0,0,1-.83,5.49,1.53,1.53,0,0,1-1.38,1.07c-.62,0-1-.54-1.06-1.6a9.22,9.22,0,0,0-.2-1.45,2.19,2.19,0,0,0-.45-.81,1.85,1.85,0,0,0-1.5-.62,1.19,1.19,0,0,0-1,.32,2,2,0,0,0-.22,1.23c0,.11,0,.73,0,1.88,0,2.32.19,3.74.57,4.25a1,1,0,0,0,.38.39,6.33,6.33,0,0,0,1,.26A1,1,0,0,1,13,38a2,2,0,0,1,.28,1.07,1.88,1.88,0,0,1-1.41,2,20.29,20.29,0,0,1-5.72.63,13.94,13.94,0,0,1-4.46-.48,1.87,1.87,0,0,1-.89-.81,2.5,2.5,0,0,1-.35-1.29,2,2,0,0,1,.51-1.43,5.47,5.47,0,0,1,.86-.51,2.4,2.4,0,0,0,1-2q.29-2.49.28-11.31a37.37,37.37,0,0,0-.2-4.94,2.12,2.12,0,0,0-1-1.57,3.52,3.52,0,0,1-1-.78,1.62,1.62,0,0,1-.24-1,1.89,1.89,0,0,1,.67-1.48A2.42,2.42,0,0,1,3,13.47c.41,0,1,0,1.83.12q2.55.25,6.12.26a47.82,47.82,0,0,0,7.67-.4,2.41,2.41,0,0,1,.4,0c.37,0,.72.26,1.06.8a9.41,9.41,0,0,1,1.38,5,3.84,3.84,0,0,1-.46,2,1.36,1.36,0,0,1-1.19.74,1.11,1.11,0,0,1-.83-.28,23.25,23.25,0,0,1-1.45-2,3.29,3.29,0,0,0-1.7-1.38A16.48,16.48,0,0,0,12.12,17.9Z" transform="translate(-0.42)" fill="#e7257d"/><path d="M29.89,21.17a7.4,7.4,0,0,1,5,1.91,10,10,0,0,1,2.49,3.57,12.15,12.15,0,0,1,1,4.8,10.06,10.06,0,0,1-3.12,7.44,9.45,9.45,0,0,1-6.82,2.92,7.57,7.57,0,0,1-6.07-2.74,10.4,10.4,0,0,1-2.26-6.94,11.1,11.1,0,0,1,2.76-7.78A9.13,9.13,0,0,1,29.89,21.17Zm-1.25,4.65a1.27,1.27,0,0,0-1.11.66,3.29,3.29,0,0,0-.41,1.74,20.33,20.33,0,0,0,.35,3.3,30.62,30.62,0,0,0,.84,3.7c.32,1.1.85,1.65,1.58,1.65.93,0,1.4-.76,1.4-2.28a24.72,24.72,0,0,0-.35-3.85,19.34,19.34,0,0,0-.86-3.51Q29.57,25.87,28.64,25.82Z" transform="translate(-0.42)" fill="#e7257d"/><path d="M49.23,21.17a7.42,7.42,0,0,1,5,1.91,10,10,0,0,1,2.49,3.57,12.15,12.15,0,0,1,1,4.8,10.06,10.06,0,0,1-3.12,7.44,9.47,9.47,0,0,1-6.82,2.92,7.57,7.57,0,0,1-6.07-2.74,10.35,10.35,0,0,1-2.26-6.94,11.1,11.1,0,0,1,2.76-7.78A9.11,9.11,0,0,1,49.23,21.17ZM48,25.82a1.27,1.27,0,0,0-1.11.66,3.2,3.2,0,0,0-.41,1.74,20.33,20.33,0,0,0,.35,3.3,28.82,28.82,0,0,0,.84,3.7c.32,1.1.85,1.65,1.58,1.65.93,0,1.4-.76,1.4-2.28a23.66,23.66,0,0,0-.36-3.85,19.43,19.43,0,0,0-.85-3.51Q48.9,25.87,48,25.82Z" transform="translate(-0.42)" fill="#e7257d"/><path d="M65.46,41.27H64.33c-.65,0-1.39,0-2.21.12-.51,0-.87.08-1.06.08a2.37,2.37,0,0,1-1.71-.63,2.13,2.13,0,0,1-.66-1.63,1.78,1.78,0,0,1,.29-1.1,2,2,0,0,1,1-.63,1.32,1.32,0,0,0,.84-.66,5.7,5.7,0,0,0,.35-1.76q.12-1.52.23-5.89c.06-2.92.1-5.81.1-8.69a7.79,7.79,0,0,0-.21-2.26,1.66,1.66,0,0,0-1-.9,1.84,1.84,0,0,1-1.08-1.8A1.8,1.8,0,0,1,60,14,3.43,3.43,0,0,1,62,13.43c.29,0,.64,0,1,0q1.32.06,1.92.06c1.49,0,3.18-.06,5.06-.19.4,0,.9,0,1.49,0a12.76,12.76,0,0,1,5.68,1.05,10,10,0,0,1,4.67,5.28,19.79,19.79,0,0,1,1.4,7.79A20.26,20.26,0,0,1,82.76,32a16.08,16.08,0,0,1-1.39,4,10.23,10.23,0,0,1-5,4.76,10.1,10.1,0,0,1-4,.81l-1.89-.08-1.64-.06C67.54,41.29,66.43,41.27,65.46,41.27Zm3.3-21.86V35a3,3,0,0,0,.42,1.8,1.68,1.68,0,0,0,1.41.53q4.59,0,4.58-9a21.56,21.56,0,0,0-1.07-7.66,4.09,4.09,0,0,0-4-3,1.31,1.31,0,0,0-1.06.38A2.15,2.15,0,0,0,68.76,19.41Z" transform="translate(-0.42)" fill="#e7257d"/><path d="M93.22,22.34V33.26c0,2.34.61,3.51,1.81,3.51a1.47,1.47,0,0,0,.89-.33,1.74,1.74,0,0,0,.61-.82,16.21,16.21,0,0,0,.35-4.31,39.75,39.75,0,0,0-.17-4.52,1.91,1.91,0,0,0-.22-.73,2.36,2.36,0,0,0-.6-.54A1.77,1.77,0,0,1,95,24c0-.83.51-1.41,1.53-1.73a18.94,18.94,0,0,1,5.76-.93c1,0,1.58.72,1.58,2.16,0,.14,0,.45,0,.9,0,.65,0,1.43,0,2.36v8.89a1.54,1.54,0,0,0,.91,1.25,1.57,1.57,0,0,1,.77,1.41c0,1.21-1.11,2.15-3.34,2.8a13.27,13.27,0,0,1-3.8.59,1.74,1.74,0,0,1-1-.22A1.22,1.22,0,0,1,97,40.6c0-.83-.25-1.25-.59-1.25a.63.63,0,0,0-.35.11c-.1.08-.42.35-1,.82a5.07,5.07,0,0,1-3.41,1.39,4.46,4.46,0,0,1-4.25-2.24q-1-1.87-1-6.31c0-1.1,0-2,0-2.82v-.93a9.38,9.38,0,0,0-.25-2.55,2.35,2.35,0,0,0-.88-1.28,3.08,3.08,0,0,1-.78-.64,1.21,1.21,0,0,1-.16-.67q0-1.53,1.8-2a22.87,22.87,0,0,1,6.15-.86C92.92,21.33,93.22,21.66,93.22,22.34Z" transform="translate(-0.42)" fill="#e7257d"/><path d="M113.72,21.31c.56,0,.89.1,1,.3a6.83,6.83,0,0,1,.33,1.94c0,.59.21.88.48.88s.41-.19.6-.58c.83-1.68,1.93-2.52,3.28-2.52a2.78,2.78,0,0,1,2.33,1.19,4.76,4.76,0,0,1,.72,1.5,5.55,5.55,0,0,1-.06,3.71,5.21,5.21,0,0,1-.89,1.64,3.07,3.07,0,0,1-2.46,1.23,2.38,2.38,0,0,1-1.35-.36,7.41,7.41,0,0,1-1.42-1.47c-.21-.29-.42-.43-.61-.43s-.48.22-.57.64a16.39,16.39,0,0,0-.13,2.67,31.54,31.54,0,0,0,.17,4.15,1.73,1.73,0,0,0,.31.84,2.19,2.19,0,0,0,.83.47,1.94,1.94,0,0,1,1.42,1.9,2.38,2.38,0,0,1-.46,1.44,2.15,2.15,0,0,1-1.21.82,18.66,18.66,0,0,1-4.42.4A11,11,0,0,1,107.4,41a2,2,0,0,1-1.28-1.95,2.45,2.45,0,0,1,.94-1.88,2.49,2.49,0,0,0,.62-.69,2.26,2.26,0,0,0,.24-.86,59.23,59.23,0,0,0,.25-6.79,3.66,3.66,0,0,0-.16-1.3,1.24,1.24,0,0,0-.62-.64,1.76,1.76,0,0,1-1.12-1.63,2.16,2.16,0,0,1,.77-1.66,8.12,8.12,0,0,1,2.57-1.38A12.15,12.15,0,0,1,113.72,21.31Z" transform="translate(-0.42)" fill="#e7257d"/><path d="M132.87,21.17a7.4,7.4,0,0,1,5,1.91,10,10,0,0,1,2.49,3.57,12.15,12.15,0,0,1,1,4.8,10.06,10.06,0,0,1-3.12,7.44,9.47,9.47,0,0,1-6.82,2.92,7.57,7.57,0,0,1-6.07-2.74,10.35,10.35,0,0,1-2.26-6.94,11.1,11.1,0,0,1,2.76-7.78A9.13,9.13,0,0,1,132.87,21.17Zm-1.25,4.65a1.27,1.27,0,0,0-1.11.66,3.2,3.2,0,0,0-.41,1.74,20.33,20.33,0,0,0,.35,3.3,28.82,28.82,0,0,0,.84,3.7c.32,1.1.85,1.65,1.58,1.65.93,0,1.4-.76,1.4-2.28a24.72,24.72,0,0,0-.35-3.85,20.21,20.21,0,0,0-.86-3.51C132.72,26.32,132.23,25.85,131.62,25.82Z" transform="translate(-0.42)" fill="#e7257d"/><path d="M175.7,3.5a11.72,11.72,0,0,0-8,5.39c-1.74,2.73-3,9.13-3.44,13l-1.17,9.82c-.38,3.21,3.27,4.37,4.68,4.54l-1,5a7.91,7.91,0,0,1,2.14-.55l.14-.07A7.73,7.73,0,0,1,171,39.53l1.33-1.3c.17-.17.37-.29.55-.44l3.89-32.6A8.54,8.54,0,0,1,175.7,3.5Z" transform="translate(-0.42)" fill="#e7257d"/><path d="M158.07,1.22,156.36,1l-1,15.81-2.8,1.66L153.79.71l-1.72-.2-3,17.57-2.33-2.27L149.5.2,147.79,0l-6,21.19c-.88,3.1,5.55,5.36,5.06,8.57l-2,12.94c.32,0,.65-.05,1-.05a9.94,9.94,0,0,1,1.24.08,10.1,10.1,0,0,1,1.25-.08,10.28,10.28,0,0,1,1.13.06,8.46,8.46,0,0,1,1.47-.17l1-12.17c.28-3.22,6.5-3.93,6.94-7.14Z" transform="translate(-0.42)" fill="#e7257d"/></g></g></svg>