<svg xmlns="http://www.w3.org/2000/svg" viewBox="0 0 889.73 609.81"><g style="isolation:isolate"><circle cx="827.02" cy="105.05" r="49.18" transform="translate(542.99 849.16) rotate(-80.9)" fill="#00558c"/><path d="M827,55.87v98.36a49.18,49.18,0,1,0,0-98.36Z" transform="translate(-49.45 -55.87)" fill="#0b4875"/><path d="M876.2,105.05A49.07,49.07,0,0,0,859,67.66h-.88a7.77,7.77,0,0,0-7.77,7.78h0a7.76,7.76,0,0,0,6.43,7.65H842.38a7.78,7.78,0,0,0-7.78,7.78h0a7.78,7.78,0,0,0,7.78,7.78h12.74a7.76,7.76,0,0,0-4.82,7.19h0a7.77,7.77,0,0,0,7.77,7.78h17.37A49.31,49.31,0,0,0,876.2,105.05Z" transform="translate(-49.45 -55.87)" fill="#6daa4e"/><path d="M814,118.9H792.37a9.33,9.33,0,0,0,0-17.14h12.19a9.34,9.34,0,0,0,0-18.67H783a49.14,49.14,0,0,0,7.12,54.48H814a9.34,9.34,0,0,0,0-18.67Z" transform="translate(-49.45 -55.87)" fill="#83be4f"/><path d="M855.4,123.84a3.43,3.43,0,0,1-3.42,3.43h-8.9a3.43,3.43,0,0,1-3.42-3.43h0a3.42,3.42,0,0,1,3.42-3.42H852a3.42,3.42,0,0,1,3.42,3.42Z" transform="translate(-49.45 -55.87)" fill="#83be4f"/><path d="M504,354.55l40-12.85a33.11,33.11,0,0,1,41.66,21.38l9.08,28.25a32.29,32.29,0,1,0,61.48-19.77l-2.88-9a33.1,33.1,0,0,1,21.38-41.66l19.09-6.14" transform="translate(-49.45 -55.87)" fill="none" stroke="#fff" stroke-linecap="round" stroke-miterlimit="10" stroke-width="4.83"/><path d="M408.73,213.51h31.44a4.33,4.33,0,0,1,4.33,4.33v9.28a0,0,0,0,1,0,0H404.4a0,0,0,0,1,0,0v-9.28a4.33,4.33,0,0,1,4.33-4.33Z" transform="translate(-96.52 84.66) rotate(-17.83)" fill="#53b5b6"/><path d="M488.41,240.28l6.49-2.09a6.37,6.37,0,0,1,8,4.11l15.89,49.39-17.29,5.55" transform="translate(-49.45 -55.87)" fill="none" stroke="#177d75" stroke-miterlimit="10" stroke-width="4.37"/><rect x="404.56" y="221.65" width="90.11" height="90.44" rx="6.98" transform="translate(-109.56 94.6) rotate(-17.83)" fill="#177d75"/><path d="M532.93,378.85l22.46-7.22-20.86-64.85a28.89,28.89,0,0,0-36.3-18.64l-28,9,7.22,22.46,28-9a5.27,5.27,0,0,1,6.62,3.4Z" transform="translate(-49.45 -55.87)" fill="#53b5b6"/><path d="M533.67,336.65a10,10,0,0,0,12.53,6.43l-6.09-19A10,10,0,0,0,533.67,336.65Z" transform="translate(-49.45 -55.87)" fill="#49999d"/><path d="M533,334.4a10,10,0,0,0,12.53,6.44l-6.1-19A10,10,0,0,0,533,334.4Z" transform="translate(-49.45 -55.87)" fill="#2e5d5f"/><path d="M521,342l22.35-7.19a3.53,3.53,0,1,0-2.16-6.73l-22.36,7.18Z" transform="translate(-49.45 -55.87)" fill="#8ad2d3"/><path d="M530.68,299a13.47,13.47,0,0,1-23.91-12.27A29,29,0,0,1,530.68,299Z" transform="translate(-49.45 -55.87)" fill="#fff"/><rect x="521.46" y="308.83" width="13.84" height="2.86" transform="translate(1076.92 387.98) rotate(162.17)" fill="#f6871f"/><rect x="522.9" y="313.32" width="13.84" height="2.86" transform="translate(1081.12 396.31) rotate(162.17)" fill="#f6871f"/><rect x="524.35" y="317.81" width="13.84" height="2.86" transform="translate(1085.31 404.63) rotate(162.17)" fill="#f6871f"/><rect x="404.09" y="243.41" width="84.14" height="27.13" rx="3.35" transform="translate(-106.7 93.07) rotate(-17.83)" fill="#53b5b6"/><circle cx="446.16" cy="256.97" r="37.89" transform="translate(-80.86 393.51) rotate(-51.88)" fill="#8ad2d3"/><circle cx="446.16" cy="256.97" r="29.5" transform="translate(72.09 600.75) rotate(-80.85)" fill="#82878c"/><circle cx="446.16" cy="256.97" r="25.19" transform="translate(105.73 625.87) rotate(-85.53)" fill="#51555b"/><path d="M460.79,236.46a25.19,25.19,0,0,1-35.39,34.78,25.19,25.19,0,1,0,35.39-34.78Z" transform="translate(-49.45 -55.87)" fill="#383c41"/><path d="M441.54,239.88a19.59,19.59,0,0,1,3.41-2.72,19.9,19.9,0,0,0-12.78,5.74Z" transform="translate(-49.45 -55.87)" fill="#82878c"/><path d="M428.68,247.59a19.8,19.8,0,0,0-1.78,14.15l9.37-3a19.75,19.75,0,0,1,1.78-14.15Z" transform="translate(-49.45 -55.87)" fill="#82878c"/><line x1="365.48" y1="247.23" x2="448.97" y2="220.37" fill="none" stroke="#8ad2d3" stroke-linecap="round" stroke-miterlimit="10" stroke-width="5.37"/><rect x="436.07" y="294.59" width="77.49" height="99.21" transform="translate(-132.03 106.03) rotate(-17.83)" fill="#53b5b6"/><rect x="465.17" y="385.87" width="31.74" height="104.82" transform="translate(-160.53 112.45) rotate(-17.83)" fill="#177d75"/><rect x="508.73" y="371.86" width="31.74" height="104.82" transform="translate(-154.15 125.11) rotate(-17.83)" fill="#177d75"/><path d="M448.05,406.15l-22.46,7.22-20.85-64.85a28.88,28.88,0,0,1,18.63-36.3l28-9,7.22,22.46-28,9a5.28,5.28,0,0,0-3.4,6.62Z" transform="translate(-49.45 -55.87)" fill="#53b5b6"/><rect x="447.34" y="314.69" width="50.45" height="48.75" transform="translate(-130.57 105.1) rotate(-17.83)" fill="#49999d"/><rect x="446.62" y="312.45" width="50.45" height="48.75" transform="translate(-129.91 104.77) rotate(-17.83)" fill="#fff"/><path d="M510,476.42a15.87,15.87,0,1,0-30.21,9.72L482,493l30.21-9.71Z" transform="translate(-49.45 -55.87)" fill="#8ad2d3"/><rect x="481.8" y="488.08" width="31.74" height="3.81" transform="translate(-175.56 120.03) rotate(-17.83)" fill="#51555b"/><path d="M496.93,435.59a16,16,0,1,1-20.11-10.33A16,16,0,0,1,496.93,435.59Z" transform="translate(-49.45 -55.87)" fill="#2e5d5f"/><circle cx="480.75" cy="437.49" r="15.99" transform="translate(-89.96 769.95) rotate(-78.99)" fill="#fff"/><line x1="416.08" y1="386.52" x2="446.52" y2="376.72" fill="none" stroke="#8ad2d3" stroke-linecap="round" stroke-miterlimit="10" stroke-width="4.83"/><rect x="446.41" y="372.13" width="77.64" height="9.44" transform="translate(-141.53 110.79) rotate(-17.83)" fill="#2e5d5f"/><rect x="448.78" y="322.53" width="20.37" height="11.27" transform="translate(-127.88 100.41) rotate(-17.83)" fill="#49999d"/><rect x="451.95" y="336.19" width="20.36" height="3.67" transform="translate(-130.75 101.85) rotate(-17.83)" fill="#51555b"/><path d="M466.7,351.46a5.21,5.21,0,1,1-6.56-3.37A5.21,5.21,0,0,1,466.7,351.46Z" transform="translate(-49.45 -55.87)" fill="#f6871f"/><path d="M483.59,346a6.59,6.59,0,1,1-8.29-4.25A6.59,6.59,0,0,1,483.59,346Z" transform="translate(-49.45 -55.87)" fill="#696e74"/><path d="M481.17,346.8a4,4,0,1,1-5.09-2.62A4,4,0,0,1,481.17,346.8Z" transform="translate(-49.45 -55.87)" fill="#8ad2d3"/><rect x="475.24" y="317.58" width="12.06" height="12.06" transform="translate(-125.42 107.02) rotate(-17.83)" fill="#f6871f"/><polygon points="439.4 271.63 427.92 275.33 435.71 260.16 439.4 271.63" fill="#f26a21"/><rect x="488.79" y="335.18" width="24.63" height="10.42" transform="translate(-129.6 113.89) rotate(-17.83)" fill="#2e5d5f"/><path d="M448.85,408.71a11.79,11.79,0,0,1-22.44,7.21L422,402.15l22.44-7.22Z" transform="translate(-49.45 -55.87)" fill="#8ad2d3"/><line x1="392.28" y1="344.05" x2="401.15" y2="350.84" fill="none" stroke="#8ad2d3" stroke-linecap="round" stroke-miterlimit="10" stroke-width="5.37"/><polygon points="473.91 313.67 399.94 337.47 433.88 337.7 447.22 333.41 473.91 313.67" fill="#8ad2d3"/><path d="M422.85,372.29a10,10,0,0,1-6.44,12.53l-6.1-19A10,10,0,0,1,422.85,372.29Z" transform="translate(-49.45 -55.87)" fill="#49999d"/><path d="M422.12,370.05a10,10,0,0,1-6.43,12.53l-6.1-19A10,10,0,0,1,422.12,370.05Z" transform="translate(-49.45 -55.87)" fill="#2e5d5f"/><path d="M436.2,369.24l-22.35,7.18a3.54,3.54,0,1,1-2.17-6.73L434,362.5Z" transform="translate(-49.45 -55.87)" fill="#8ad2d3"/><path d="M483.92,493.44h4.49a0,0,0,0,1,0,0V496a2,2,0,0,1-2,2h-2.53a0,0,0,0,1,0,0v-4.49A0,0,0,0,1,483.92,493.44Z" transform="translate(230.54 -223.17) rotate(27.17)" fill="#51555b"/><path d="M490,491.49h4.49a0,0,0,0,1,0,0V494a2,2,0,0,1-2,2H490a0,0,0,0,1,0,0v-4.49A0,0,0,0,1,490,491.49Z" transform="translate(230.33 -226.15) rotate(27.17)" fill="#51555b"/><path d="M496,489.55h4.49a0,0,0,0,1,0,0v2.53a2,2,0,0,1-2,2H496a0,0,0,0,1,0,0v-4.49A0,0,0,0,1,496,489.55Z" transform="translate(230.1 -229.12) rotate(27.17)" fill="#51555b"/><path d="M502.06,487.61h4.49a0,0,0,0,1,0,0v2.53a2,2,0,0,1-2,2h-2.53a0,0,0,0,1,0,0v-4.49A0,0,0,0,1,502.06,487.61Z" transform="translate(229.88 -232.1) rotate(27.17)" fill="#51555b"/><path d="M508.1,485.66h4.49a0,0,0,0,1,0,0v2.53a2,2,0,0,1-2,2H508.1a0,0,0,0,1,0,0v-4.49A0,0,0,0,1,508.1,485.66Z" transform="translate(229.66 -235.07) rotate(27.17)" fill="#51555b"/><path d="M491.07,470.28a13.34,13.34,0,0,1,2.31-1.84,13.24,13.24,0,0,0-3.3.62,13.52,13.52,0,0,0-5.38,3.27Z" transform="translate(-49.45 -55.87)" fill="#c0e6e7"/><path d="M482.33,475.52a13.49,13.49,0,0,0-1.21,9.62l6.36-2.05a13.41,13.41,0,0,1,1.22-9.61Z" transform="translate(-49.45 -55.87)" fill="#c0e6e7"/><path d="M440.46,420.68a8.82,8.82,0,0,0,2.06.1,9.43,9.43,0,0,1-2.13,1,9.31,9.31,0,0,1-4.36.33Z" transform="translate(-49.45 -55.87)" fill="#c0e6e7"/><path d="M433.39,421.26a9.34,9.34,0,0,1-4.57-4.94l4.42-1.43a9.36,9.36,0,0,0,4.58,4.94Z" transform="translate(-49.45 -55.87)" fill="#c0e6e7"/><rect x="418.67" y="390.85" width="26.74" height="7.86" transform="translate(-149.57 95.36) rotate(-17.83)" fill="#49999d"/><path d="M403.35,340a13.47,13.47,0,0,0,12.27-23.91A29,29,0,0,0,403.35,340Z" transform="translate(-49.45 -55.87)" fill="#fff"/><rect x="404.84" y="346.33" width="13.84" height="2.86" transform="translate(-136.15 86.9) rotate(-17.83)" fill="#f6871f"/><rect x="406.29" y="350.82" width="13.84" height="2.86" transform="translate(-137.45 87.56) rotate(-17.83)" fill="#f6871f"/><rect x="407.73" y="355.31" width="13.84" height="2.86" transform="translate(-138.76 88.21) rotate(-17.83)" fill="#f6871f"/><path d="M553.77,462.33a15.87,15.87,0,0,0-30.21,9.72l2.22,6.89L556,469.22Z" transform="translate(-49.45 -55.87)" fill="#8ad2d3"/><rect x="525.6" y="473.99" width="31.74" height="3.81" transform="translate(-169.15 132.76) rotate(-17.83)" fill="#51555b"/><circle cx="525.59" cy="426.37" r="15.99" transform="translate(-143.97 641.61) rotate(-62.66)" fill="#2e5d5f"/><path d="M509.41,428.27a16,16,0,1,0,10.32-20.12A16,16,0,0,0,509.41,428.27Z" transform="translate(-49.45 -55.87)" fill="#fff"/><line x1="490.4" y1="362.61" x2="459.96" y2="372.4" fill="none" stroke="#8ad2d3" stroke-linecap="round" stroke-miterlimit="10" stroke-width="4.83"/><path d="M533.77,381.4a11.79,11.79,0,0,0,22.44-7.22l-4.43-13.78-22.44,7.22Z" transform="translate(-49.45 -55.87)" fill="#8ad2d3"/><line x1="484.98" y1="314.23" x2="481.74" y2="324.93" fill="none" stroke="#8ad2d3" stroke-linecap="round" stroke-miterlimit="10" stroke-width="5.37"/><path d="M527.72,479.35h4.49a0,0,0,0,1,0,0v2.53a2,2,0,0,1-2,2h-2.53a0,0,0,0,1,0,0v-4.49A0,0,0,0,1,527.72,479.35Z" transform="translate(228.95 -244.73) rotate(27.17)" fill="#51555b"/><path d="M533.77,477.41h4.49a0,0,0,0,1,0,0v2.53a2,2,0,0,1-2,2h-2.53a0,0,0,0,1,0,0v-4.49A0,0,0,0,1,533.77,477.41Z" transform="translate(228.72 -247.7) rotate(27.17)" fill="#51555b"/><path d="M539.81,475.46h4.49a0,0,0,0,1,0,0V478a2,2,0,0,1-2,2h-2.53a0,0,0,0,1,0,0v-4.49A0,0,0,0,1,539.81,475.46Z" transform="translate(228.5 -250.68) rotate(27.17)" fill="#51555b"/><path d="M545.86,473.52h4.49a0,0,0,0,1,0,0V476a2,2,0,0,1-2,2h-2.53a0,0,0,0,1,0,0v-4.49A0,0,0,0,1,545.86,473.52Z" transform="translate(228.29 -253.65) rotate(27.17)" fill="#51555b"/><path d="M551.9,471.58h4.49a0,0,0,0,1,0,0v2.53a2,2,0,0,1-2,2H551.9a0,0,0,0,1,0,0v-4.49A0,0,0,0,1,551.9,471.58Z" transform="translate(228.09 -256.64) rotate(27.17)" fill="#51555b"/><path d="M534.87,456.2a13,13,0,0,1,2.31-1.85,13.62,13.62,0,0,0-3.3.62,13.43,13.43,0,0,0-5.38,3.28Z" transform="translate(-49.45 -55.87)" fill="#c0e6e7"/><path d="M526.13,461.44a13.46,13.46,0,0,0-1.21,9.61l6.36-2a13.43,13.43,0,0,1,1.22-9.62Z" transform="translate(-49.45 -55.87)" fill="#c0e6e7"/><path d="M547.57,386.23a9.59,9.59,0,0,1-1.61,1.29,9.48,9.48,0,0,0,6-2.71Z" transform="translate(-49.45 -55.87)" fill="#c0e6e7"/><path d="M553.65,382.59a9.39,9.39,0,0,0,.83-6.69l-4.42,1.42a9.39,9.39,0,0,1-.84,6.69Z" transform="translate(-49.45 -55.87)" fill="#c0e6e7"/><rect x="525.94" y="356.35" width="26.74" height="7.86" transform="translate(-133.86 126.55) rotate(-17.83)" fill="#49999d"/><line x1="362.89" y1="257.14" x2="456.86" y2="226.92" fill="none" stroke="#49999d" stroke-linecap="round" stroke-miterlimit="10" stroke-width="6.44"/><line x1="377.86" y1="252.33" x2="402.22" y2="244.5" fill="none" stroke="#53b5b6" stroke-linecap="round" stroke-miterlimit="10" stroke-width="6.44"/><line x1="378.95" y1="242.89" x2="395.83" y2="237.47" fill="none" stroke="#c0e6e7" stroke-linecap="round" stroke-miterlimit="10" stroke-width="5.37"/><circle cx="59.97" cy="214.71" r="59.97" fill="#cc5127"/><path d="M109.42,210.6V330.54a60,60,0,0,0,0-119.94Z" transform="translate(-49.45 -55.87)" fill="#a03d22"/><path d="M168.07,258a59.58,59.58,0,0,0-5-14.26h-53a7.13,7.13,0,0,0-7.13,7.13h0A7.13,7.13,0,0,0,110.1,258Z" transform="translate(-49.45 -55.87)" fill="#f26522"/><path d="M87.09,267.83H49.52c0,.91-.07,1.82-.07,2.74a59.92,59.92,0,0,0,1.12,11.52H87.09A7.13,7.13,0,0,0,94.22,275h0A7.13,7.13,0,0,0,87.09,267.83Z" transform="translate(-49.45 -55.87)" fill="#f26522"/><path d="M99.32,282.09H50.57a59.64,59.64,0,0,0,4.69,14.26H99.32a7.13,7.13,0,0,0,0-14.26Z" transform="translate(-49.45 -55.87)" fill="#f26522"/><path d="M99.84,306.82a7.13,7.13,0,0,0,0,14.26h41.9a60.49,60.49,0,0,0,15.45-14.26Z" transform="translate(-49.45 -55.87)" fill="#f26522"/><path d="M169.2,275.08H139.75a7.13,7.13,0,0,0-7.13,7.13h0a7.13,7.13,0,0,0,7.13,7.13h26.63A59.6,59.6,0,0,0,169.2,275.08Z" transform="translate(-49.45 -55.87)" fill="#f26522"/><path d="M103.76,221.19H75.4a60.35,60.35,0,0,0-14.57,14.26h42.93a7.13,7.13,0,0,0,0-14.26Z" transform="translate(-49.45 -55.87)" fill="#f26522"/><polygon points="221.7 503.42 247.35 461.09 243.78 458.93 218.65 500.37 221.7 503.42" fill="#a8dff4"/><polygon points="195.74 477.46 237.19 452.33 235.02 448.76 192.7 474.42 195.74 477.46" fill="#a8dff4"/><polygon points="222.54 493.96 218.65 500.37 221.7 503.42 225.58 497 222.54 493.96" fill="#f26a21"/><polygon points="199.11 470.53 192.7 474.42 195.74 477.46 202.15 473.57 199.11 470.53" fill="#f26a21"/><circle cx="254.71" cy="440.16" r="30.91" fill="#36c6f4"/><path d="M326.32,474.49l-43.69,43.69a30.9,30.9,0,0,0,43.69-43.69Z" transform="translate(-49.45 -55.87)" fill="#41a0d8"/><path d="M287,500.27c-1.94,1.18-5-.25-6.78-3.21s-1.69-6.31.26-7.5,5,.25,6.79,3.21S289,499.08,287,500.27Z" transform="translate(-49.45 -55.87)" fill="#f6871f"/><polygon points="167.58 478.85 235.88 440.32 233.83 436.68 164.52 475.78 167.58 478.85" fill="#a8dff4"/><path d="M301.16,514.41c-1.18,1.94.25,5,3.2,6.78s6.32,1.69,7.5-.26-.24-5-3.2-6.79S302.35,512.46,301.16,514.41Z" transform="translate(-49.45 -55.87)" fill="#f26a21"/><polygon points="220.33 531.6 259.43 462.28 255.79 460.23 217.26 528.53 220.33 531.6" fill="#a8dff4"/><polygon points="171.57 471.8 164.52 475.78 167.58 478.85 174.64 474.87 171.57 471.8" fill="#f6871f"/><polygon points="221.24 521.47 217.26 528.53 220.33 531.6 224.31 524.54 221.24 521.47" fill="#f6871f"/><line x1="232.86" y1="418.3" x2="276.57" y2="462.01" fill="none" stroke="#f26a21" stroke-linecap="round" stroke-miterlimit="10" stroke-width="5.91"/><path d="M826.56,288.23a.5.5,0,0,1,.46-.29.52.52,0,0,1,.46.29l2.23,5,5,2.24a.5.5,0,0,1,0,.92l-5,2.23-2.23,5a.53.53,0,0,1-.46.3.51.51,0,0,1-.46-.3l-2.24-5-5-2.23a.5.5,0,0,1,0-.92l5-2.24Z" transform="translate(-49.45 -55.87)" fill="#fff"/><path d="M753,214.77a.71.71,0,0,1,1.41,0l.8,5.2a2.87,2.87,0,0,0,2.39,2.38l5.19.8a.72.72,0,0,1,0,1.42l-5.19.8a2.85,2.85,0,0,0-2.39,2.38l-.8,5.2a.71.71,0,0,1-1.41,0l-.81-5.2a2.84,2.84,0,0,0-2.38-2.38l-5.19-.8a.72.72,0,0,1,0-1.42l5.19-.8a2.85,2.85,0,0,0,2.38-2.38Z" transform="translate(-49.45 -55.87)" fill="#fff"/><path d="M806,288.77a.51.51,0,0,1-.9.17l-1.48-2.14-2.52-.63a.5.5,0,0,1-.17-.9l2.14-1.48.62-2.52a.5.5,0,0,1,.4-.38.54.54,0,0,1,.51.21l1.47,2.14,2.53.62a.51.51,0,0,1,.37.4.49.49,0,0,1-.21.51l-2.14,1.48Z" transform="translate(-49.45 -55.87)" fill="#e64b55"/><path d="M842.51,255.48a.51.51,0,0,1-.92,0l-.94-2.42-2.3-1.2a.51.51,0,0,1,0-.92l2.42-.93,1.2-2.31a.5.5,0,0,1,.48-.27.49.49,0,0,1,.44.32l.93,2.43,2.31,1.19a.5.5,0,0,1,.27.48.49.49,0,0,1-.32.44l-2.43.94Z" transform="translate(-49.45 -55.87)" fill="#6ac9ca"/><circle cx="752.97" cy="211.93" r="2.42" fill="#fec411"/><path d="M809.14,262.49a1.3,1.3,0,1,1-1.29-1.3A1.29,1.29,0,0,1,809.14,262.49Z" transform="translate(-49.45 -55.87)" fill="#fec411"/><path d="M866.45,285a1.3,1.3,0,1,1-1.29-1.3A1.29,1.29,0,0,1,866.45,285Z" transform="translate(-49.45 -55.87)" fill="#fec411"/><path d="M882.24,280.4a1.69,1.69,0,1,1-3.37,0,1.69,1.69,0,0,1,3.37,0Z" transform="translate(-49.45 -55.87)" fill="#fec411"/><path d="M802.42,340.93a3.25,3.25,0,1,1-3.25-3.25A3.25,3.25,0,0,1,802.42,340.93Z" transform="translate(-49.45 -55.87)" fill="#fff"/><circle cx="761.67" cy="281.17" r="2.15" fill="#fff"/><circle cx="760.78" cy="291.87" r="2.39" fill="#fff"/><path d="M883.5,424.16a.51.51,0,0,1,.92,0l2.23,5,5,2.24a.51.51,0,0,1,0,.92l-5,2.23-2.23,5a.5.5,0,0,1-.92,0l-2.23-5-5-2.23a.5.5,0,0,1,0-.92l5-2.24Z" transform="translate(-49.45 -55.87)" fill="#fff"/><path d="M809.92,350.7a.71.71,0,0,1,1.41,0l.81,5.2a2.85,2.85,0,0,0,2.38,2.38l5.19.8a.72.72,0,0,1,0,1.42l-5.19.8a2.84,2.84,0,0,0-2.38,2.38l-.81,5.2a.71.71,0,0,1-1.41,0l-.8-5.2a2.85,2.85,0,0,0-2.39-2.38l-5.19-.8a.72.72,0,0,1,0-1.42l5.19-.8a2.87,2.87,0,0,0,2.39-2.38Z" transform="translate(-49.45 -55.87)" fill="#fff"/><path d="M862.94,424.7a.51.51,0,0,1-.4.37.5.5,0,0,1-.51-.2l-1.48-2.14L858,422.1a.5.5,0,0,1-.38-.4.51.51,0,0,1,.21-.5l2.14-1.48.62-2.52a.51.51,0,0,1,.91-.17l1.48,2.14,2.52.62a.53.53,0,0,1,.38.4.52.52,0,0,1-.21.51l-2.14,1.48Z" transform="translate(-49.45 -55.87)" fill="#e64b55"/><path d="M899.45,391.41a.48.48,0,0,1-.47.27.5.5,0,0,1-.45-.32l-.93-2.42-2.31-1.2a.52.52,0,0,1-.27-.48.5.5,0,0,1,.32-.44l2.43-.93,1.2-2.31a.49.49,0,0,1,.47-.27.51.51,0,0,1,.45.32l.93,2.43,2.31,1.19a.52.52,0,0,1,.27.48.5.5,0,0,1-.32.44l-2.43.94Z" transform="translate(-49.45 -55.87)" fill="#6ac9ca"/><circle cx="809.91" cy="347.86" r="2.42" fill="#fec411"/><path d="M866.09,398.42a1.3,1.3,0,1,1-1.3-1.3A1.3,1.3,0,0,1,866.09,398.42Z" transform="translate(-49.45 -55.87)" fill="#fec411"/><path d="M923.4,421a1.3,1.3,0,1,1-1.3-1.3A1.3,1.3,0,0,1,923.4,421Z" transform="translate(-49.45 -55.87)" fill="#fec411"/><path d="M939.18,416.33a1.69,1.69,0,1,1-1.68-1.68A1.69,1.69,0,0,1,939.18,416.33Z" transform="translate(-49.45 -55.87)" fill="#fec411"/><path d="M859.36,476.86a3.25,3.25,0,1,1-3.25-3.25A3.24,3.24,0,0,1,859.36,476.86Z" transform="translate(-49.45 -55.87)" fill="#fff"/><circle cx="818.61" cy="417.1" r="2.15" fill="#fff"/><circle cx="817.73" cy="427.8" r="2.39" fill="#fff"/><path d="M149.49,517.33A.52.52,0,0,1,150,517a.5.5,0,0,1,.46.29l2.24,5,5,2.24a.5.5,0,0,1,0,.92l-5,2.23-2.24,5a.51.51,0,0,1-.46.3.53.53,0,0,1-.46-.3l-2.23-5-5-2.23a.5.5,0,0,1,0-.92l5-2.24Z" transform="translate(-49.45 -55.87)" fill="#fff"/><path d="M75.91,443.87a.72.72,0,0,1,1.42,0l.8,5.19a2.86,2.86,0,0,0,2.39,2.39l5.19.8a.72.72,0,0,1,0,1.42l-5.19.8a2.85,2.85,0,0,0-2.39,2.38l-.8,5.2a.72.72,0,0,1-1.42,0l-.8-5.2a2.84,2.84,0,0,0-2.38-2.38l-5.2-.8a.72.72,0,0,1,0-1.42l5.2-.8a2.85,2.85,0,0,0,2.38-2.39Z" transform="translate(-49.45 -55.87)" fill="#fff"/><path d="M128.93,517.87a.49.49,0,0,1-.4.37A.5.5,0,0,1,128,518l-1.47-2.13-2.53-.63a.5.5,0,0,1-.16-.9l2.14-1.48.62-2.52a.5.5,0,0,1,.4-.38.51.51,0,0,1,.5.21l1.48,2.14,2.52.62a.52.52,0,0,1,.38.4.5.5,0,0,1-.21.51l-2.14,1.47Z" transform="translate(-49.45 -55.87)" fill="#e64b55"/><path d="M165.45,484.58a.49.49,0,0,1-.48.27.49.49,0,0,1-.44-.32l-.94-2.42-2.3-1.2a.51.51,0,0,1-.28-.48.5.5,0,0,1,.33-.44l2.42-.93,1.2-2.31a.5.5,0,0,1,.48-.27.49.49,0,0,1,.44.32l.93,2.43,2.31,1.19a.51.51,0,0,1-.05.92l-2.43.94Z" transform="translate(-49.45 -55.87)" fill="#6ac9ca"/><circle cx="75.9" cy="441.03" r="2.42" fill="#fec411"/><path d="M132.08,491.59a1.3,1.3,0,1,1-1.3-1.3A1.3,1.3,0,0,1,132.08,491.59Z" transform="translate(-49.45 -55.87)" fill="#fec411"/><path d="M189.39,514.12a1.3,1.3,0,1,1-1.3-1.3A1.3,1.3,0,0,1,189.39,514.12Z" transform="translate(-49.45 -55.87)" fill="#fec411"/><path d="M205.18,509.5a1.69,1.69,0,1,1-3.37,0,1.69,1.69,0,0,1,3.37,0Z" transform="translate(-49.45 -55.87)" fill="#fec411"/><path d="M125.35,570a3.25,3.25,0,1,1-3.24-3.25A3.24,3.24,0,0,1,125.35,570Z" transform="translate(-49.45 -55.87)" fill="#fff"/><circle cx="84.61" cy="510.27" r="2.15" fill="#fff"/><circle cx="83.72" cy="520.97" r="2.39" fill="#fff"/><path d="M641.31,591.76l-6.56-4.43,88.88-131.57a4,4,0,0,1,5.49-1.07h0a4,4,0,0,1,1.07,5.5Z" transform="translate(-49.45 -55.87)" fill="#696e74"/><path d="M760.63,550c-15.79-22.69-52.23-14.81-68-37.55a10.53,10.53,0,0,1,0-11.9l23.89-35.37A5.84,5.84,0,0,1,726,465c16.07,21.53,51.59,14.26,67.21,36.46a10.86,10.86,0,0,1,0,12.3L768.76,550A4.92,4.92,0,0,1,760.63,550Z" transform="translate(-49.45 -55.87)" fill="#f6871f"/><path d="M725.58,464.33l-.21-.26c-10.28,16.68-22,32.3-32.28,49a34.5,34.5,0,0,0,2.87,3.43l32.86-48.3A33.41,33.41,0,0,1,725.58,464.33Z" transform="translate(-49.45 -55.87)" fill="#f26a21"/><path d="M760.85,550.32c-16.2-23.87-54.9-14.44-69.75-40.3a7.3,7.3,0,0,1,.34-7.71l13.88-20.55c13.95,33.4,61.27,17.4,75.21,50.8l-12,17.75A4.64,4.64,0,0,1,760.85,550.32Z" transform="translate(-49.45 -55.87)" fill="#f26a21"/><path d="M758,517.75a18.43,18.43,0,1,1-5-25.58A18.42,18.42,0,0,1,758,517.75Z" transform="translate(-49.45 -55.87)" fill="#faa41a"/><rect x="327.82" y="467.88" width="227.87" height="53.23" rx="7.64" fill="#010101" opacity="0.16" style="mix-blend-mode:overlay"/><path d="M740.81,665.68c-48.39-82.78-138.19-138.4-241-138.4s-192.61,55.62-241,138.4Z" transform="translate(-49.45 -55.87)" fill="#9f9fa4"/><ellipse cx="595.48" cy="567.48" rx="33.88" ry="26.38" fill="#82878c"/><ellipse cx="349.79" cy="589.92" rx="19.76" ry="15.39" transform="translate(-241.03 113.01) rotate(-21.46)" fill="#82878c"/><path d="M350.69,643.16c.88,9.81-8.63,18.68-21.23,19.81s-23.53-5.91-24.41-15.72,8.62-18.69,21.23-19.82S349.81,633.34,350.69,643.16Z" transform="translate(-49.45 -55.87)" fill="#82878c"/><rect x="311.85" y="461.23" width="267.66" height="62.53" rx="7.64" fill="#fcc244"/></g></svg>