<svg xmlns="http://www.w3.org/2000/svg" viewBox="0 0 1022.11 586.81"><circle cx="911.14" cy="111.39" r="69.59" fill="#00558c"/><path d="M942.25,76.13V215.3a69.59,69.59,0,1,0,0-139.17Z" transform="translate(-31.07 -34.3)" fill="#0b4875"/><path d="M1011.87,145.72a69.47,69.47,0,0,0-24.34-52.91h-1.25a11,11,0,0,0-11,11h0a11,11,0,0,0,9.1,10.82H964a11,11,0,0,0-11,11h0a11,11,0,0,0,11,11h18a11,11,0,0,0-6.82,10.17h0a11,11,0,0,0,11,11h24.59A70.38,70.38,0,0,0,1011.87,145.72Z" transform="translate(-31.07 -34.3)" fill="#6daa4e"/><path d="M923.86,165.31H893.25a13.2,13.2,0,0,0,0-24.25H910.5a13.22,13.22,0,0,0,0-26.42H880a69.52,69.52,0,0,0,10.07,77.09h33.79a13.22,13.22,0,0,0,0-26.42Z" transform="translate(-31.07 -34.3)" fill="#83be4f"/><path d="M982.44,172.3a4.86,4.86,0,0,1-4.84,4.86H965a4.85,4.85,0,0,1-4.83-4.86h0a4.84,4.84,0,0,1,4.83-4.84h12.63a4.84,4.84,0,0,1,4.83,4.84Z" transform="translate(-31.07 -34.3)" fill="#83be4f"/><path d="M290.31,403l34.95-8.8a28.41,28.41,0,0,1,34.5,20.6h0L366,439.48a27.71,27.71,0,0,0,53.73-13.55h0l-2-7.86a28.4,28.4,0,0,1,20.58-34.49h0l16.68-4.2" transform="translate(-31.07 -34.3)" fill="none" stroke="#fff" stroke-linecap="round" stroke-miterlimit="10" stroke-width="4.83"/><path d="M215.07,281.3l26.16-6.6a3.71,3.71,0,0,1,4.51,2.69l1.95,7.73h0l-33.36,8.41h0l-2-7.72a3.71,3.71,0,0,1,2.69-4.51Z" transform="translate(-31.07 -34.3)" fill="#53b5b6"/><path d="M283.24,304.29l5.68-1.43a5.46,5.46,0,0,1,6.62,4L306.43,350l-15.11,3.8" transform="translate(-31.07 -34.3)" fill="none" stroke="#177d75" stroke-miterlimit="10" stroke-width="4.37"/><rect x="209.91" y="286.11" width="77.32" height="77.6" rx="5.99" transform="translate(-102.97 36.34) rotate(-14.15)" fill="#177d75"/><path d="M313.74,425.39l19.63-4.94-14.29-56.68a24.79,24.79,0,0,0-30.06-18L264.55,352l4.95,19.62L294,365.44a4.52,4.52,0,0,1,5.48,3.27Z" transform="translate(-31.07 -34.3)" fill="#53b5b6"/><path d="M316.7,389.3a8.57,8.57,0,0,0,10.37,6.19l-4.17-16.6A8.57,8.57,0,0,0,316.7,389.3Z" transform="translate(-31.07 -34.3)" fill="#49999d"/><path d="M316.25,387.33a8.58,8.58,0,0,0,10.37,6.21l-4.18-16.61A8.58,8.58,0,0,0,316.25,387.33Z" transform="translate(-31.07 -34.3)" fill="#2e5d5f"/><path d="M305.55,393.18l19.54-4.93a3,3,0,1,0-1.48-5.88h0l-19.54,4.92Z" transform="translate(-31.07 -34.3)" fill="#8ad2d3"/><path d="M316.21,356.89a11.56,11.56,0,0,1-19.8-11.82A24.9,24.9,0,0,1,316.21,356.89Z" transform="translate(-31.07 -34.3)" fill="#fff"/><rect x="307.67" y="365.2" width="11.88" height="2.45" transform="translate(-111.15 53.5) rotate(-14.15)" fill="#f6871f"/><rect x="308.67" y="369.13" width="11.88" height="2.45" transform="translate(-112.08 53.86) rotate(-14.15)" fill="#f6871f"/><rect x="309.65" y="373.05" width="11.88" height="2.45" transform="translate(-113.01 54.22) rotate(-14.15)" fill="#f6871f"/><rect x="210.06" y="304.61" width="72.2" height="23.28" rx="2.87" transform="translate(-100.92 35.48) rotate(-14.15)" fill="#53b5b6"/><circle cx="215.09" cy="281.98" r="32.51" fill="#8ad2d3"/><circle cx="215.1" cy="281.98" r="25.31" fill="#82878c"/><circle cx="215.06" cy="281.94" r="21.61" fill="#51555b"/><path d="M259.8,299.5a21.61,21.61,0,0,1-32.21,27.83A21.61,21.61,0,1,0,259.8,299.5Z" transform="translate(-31.07 -34.3)" fill="#383c41"/><path d="M243.13,301.37a16.24,16.24,0,0,1,3.07-2.14,17,17,0,0,0-11.26,4.21Z" transform="translate(-31.07 -34.3)" fill="#82878c"/><path d="M231.7,307.26a17,17,0,0,0-2.31,12l8.19-2a17,17,0,0,1,2.31-12Z" transform="translate(-31.07 -34.3)" fill="#82878c"/><line x1="185.8" y1="319.73" x2="258.77" y2="301.33" fill="none" stroke="#8ad2d3" stroke-linecap="round" stroke-miterlimit="10" stroke-width="5.37"/><rect x="232.65" y="349.94" width="66.49" height="85.13" transform="translate(-118.97 42.62) rotate(-14.15)" fill="#53b5b6"/><rect x="252.43" y="428.44" width="27.23" height="89.94" transform="translate(-138.75 45.12) rotate(-14.15)" fill="#177d75"/><rect x="290.5" y="418.84" width="27.23" height="89.94" transform="translate(-135.25 54.14) rotate(-14.15)" fill="#177d75"/><path d="M239.56,444.1,219.93,449l-14.29-56.67a24.8,24.8,0,0,1,18-30.06l24.48-6.17L253,375.77l-24.47,6.17a4.53,4.53,0,0,0-3.27,5.48Z" transform="translate(-31.07 -34.3)" fill="#53b5b6"/><rect x="242.6" y="367.08" width="43.29" height="41.83" transform="translate(-117.92 42.08) rotate(-14.15)" fill="#49999d"/><rect x="242.11" y="365.12" width="43.29" height="41.83" transform="translate(-117.45 41.91) rotate(-14.15)" fill="#fff"/><path d="M288.74,507.68a13.62,13.62,0,1,0-26.52,6.2c0,.15.07.3.12.46l1.51,6,26.4-6.65Z" transform="translate(-31.07 -34.3)" fill="#8ad2d3"/><rect x="263.83" y="516.96" width="27.23" height="3.27" transform="translate(-149.45 49.28) rotate(-14.15)" fill="#51555b"/><path d="M279.79,472a13.73,13.73,0,1,1-16.67-9.95h0A13.72,13.72,0,0,1,279.79,472Z" transform="translate(-31.07 -34.3)" fill="#2e5d5f"/><circle cx="234.76" cy="438.41" r="13.72" fill="#fff"/><line x1="221.46" y1="441.79" x2="248.07" y2="435.08" fill="none" stroke="#8ad2d3" stroke-linecap="round" stroke-miterlimit="10" stroke-width="4.83"/><rect x="239.7" y="416.99" width="66.62" height="8.1" transform="translate(-125.73 45.23) rotate(-14.15)" fill="#2e5d5f"/><rect x="244.46" y="373.07" width="17.48" height="9.67" transform="translate(-115.79 39.08) rotate(-14.15)" fill="#49999d"/><rect x="246.63" y="384.95" width="17.47" height="3.15" transform="translate(-117.83 39.87) rotate(-14.15)" fill="#51555b"/><path d="M258.54,398.29a4.47,4.47,0,1,1-5.43-3.24,4.48,4.48,0,0,1,5.43,3.24Z" transform="translate(-31.07 -34.3)" fill="#f6871f"/><path d="M273.3,394.55a5.65,5.65,0,1,1-6.87-4.1h0A5.66,5.66,0,0,1,273.3,394.55Z" transform="translate(-31.07 -34.3)" fill="#696e74"/><path d="M271.18,395.1a3.42,3.42,0,1,1,0-.08A.24.24,0,0,1,271.18,395.1Z" transform="translate(-31.07 -34.3)" fill="#8ad2d3"/><rect x="267.37" y="370.06" width="10.35" height="10.35" transform="translate(-114.55 43.73) rotate(-14.15)" fill="#f6871f"/><polygon points="247.75 344.7 237.72 347.23 245.22 334.67 247.75 344.7" fill="#f26a21"/><rect x="278.05" y="386.23" width="21.13" height="8.94" transform="translate(-117.84 48.13) rotate(-14.15)" fill="#2e5d5f"/><path d="M240.1,446.33a10.12,10.12,0,0,1-19.61,4.94l-3-12,19.62-4.95Z" transform="translate(-31.07 -34.3)" fill="#8ad2d3"/><line x1="203.42" y1="404.11" x2="210.64" y2="410.41" fill="none" stroke="#8ad2d3" stroke-linecap="round" stroke-miterlimit="10" stroke-width="5.37"/><polygon points="274.99 382.6 210.34 398.9 239.39 400.96 251.05 398.02 274.99 382.6" fill="#8ad2d3"/><path d="M219.84,413.72a8.57,8.57,0,0,1-6.2,10.37l-4.18-16.6A8.57,8.57,0,0,1,219.84,413.72Z" transform="translate(-31.07 -34.3)" fill="#49999d"/><path d="M219.34,411.76a8.57,8.57,0,0,1-6.19,10.37L209,405.53A8.57,8.57,0,0,1,219.34,411.76Z" transform="translate(-31.07 -34.3)" fill="#2e5d5f"/><path d="M231.44,411.84l-19.53,4.92a3,3,0,0,1-1.78-5.81l.29-.07L229.93,406Z" transform="translate(-31.07 -34.3)" fill="#8ad2d3"/><path d="M271.92,518.9l3.31,2h0l-1.1,1.85a1.72,1.72,0,0,1-2.36.59l-1.83-1.09h0l2-3.31Z" transform="translate(-31.07 -34.3)" fill="#51555b"/><path d="M277.16,517.55l3.31,2h0l-1.11,1.86A1.72,1.72,0,0,1,277,522l-1.83-1.09h0l2-3.31Z" transform="translate(-31.07 -34.3)" fill="#51555b"/><path d="M282.46,516.22l3.3,2h0l-1.11,1.86a1.72,1.72,0,0,1-2.35.6l-1.87-1.12h0l2-3.3Z" transform="translate(-31.07 -34.3)" fill="#51555b"/><path d="M287.74,514.89l3.31,2h0l-1.12,1.86a1.71,1.71,0,0,1-2.35.59l-1.83-1.09h0l2-3.31Z" transform="translate(-31.07 -34.3)" fill="#51555b"/><path d="M272.87,501.38a10.76,10.76,0,0,1,2.08-1.45,11,11,0,0,0-2.86.35,11.55,11.55,0,0,0-4.79,2.5Z" transform="translate(-31.07 -34.3)" fill="#c0e6e7"/><path d="M265.09,505.38a11.6,11.6,0,0,0-1.56,8.17l5.56-1.4a11.52,11.52,0,0,1,1.57-8.16Z" transform="translate(-31.07 -34.3)" fill="#c0e6e7"/><path d="M232.26,456.12a7.48,7.48,0,0,0,1.76.2,8.45,8.45,0,0,1-1.88.74,7.93,7.93,0,0,1-3.75,0Z" transform="translate(-31.07 -34.3)" fill="#c0e6e7"/><path d="M226.17,456.23a8.08,8.08,0,0,1-3.64-4.48l3.87-1a8,8,0,0,0,3.65,4.48Z" transform="translate(-31.07 -34.3)" fill="#c0e6e7"/><rect x="215.01" y="430.09" width="22.94" height="6.74" transform="translate(-130.18 34.23) rotate(-14.15)" fill="#49999d"/><path d="M204.92,385a11.56,11.56,0,0,0,11.83-19.8A24.87,24.87,0,0,0,204.92,385Z" transform="translate(-31.07 -34.3)" fill="#fff"/><rect x="206.33" y="388.97" width="11.87" height="2.45" transform="translate(-121.41 30.72) rotate(-14.4)" fill="#f6871f"/><rect x="206.76" y="394.79" width="11.88" height="2.45" transform="translate(-121.45 29.73) rotate(-14.15)" fill="#f6871f"/><rect x="207.75" y="398.71" width="11.88" height="2.45" transform="translate(-122.37 30.08) rotate(-14.15)" fill="#f6871f"/><path d="M327,498a13.62,13.62,0,0,0-26.4,6.66l1.52,6L328.52,504Z" transform="translate(-31.07 -34.3)" fill="#8ad2d3"/><rect x="302.11" y="507.31" width="27.23" height="3.27" transform="translate(-145.93 58.34) rotate(-14.15)" fill="#51555b"/><circle cx="273.79" cy="431.42" r="13.72" fill="#2e5d5f"/><path d="M290.88,466.41a13.73,13.73,0,1,0,10-16.66h0A13.73,13.73,0,0,0,290.88,466.41Z" transform="translate(-31.07 -34.3)" fill="#fff"/><line x1="286.42" y1="425.4" x2="259.81" y2="432.12" fill="none" stroke="#8ad2d3" stroke-linecap="round" stroke-miterlimit="10" stroke-width="4.83"/><path d="M314.32,427.62a10.12,10.12,0,0,0,19.61-4.95l-3-12-19.61,4.95Z" transform="translate(-31.07 -34.3)" fill="#8ad2d3"/><line x1="284.44" y1="383.68" x2="281.07" y2="392.66" fill="none" stroke="#8ad2d3" stroke-linecap="round" stroke-miterlimit="10" stroke-width="5.37"/><path d="M304.89,510.57l3.31,2h0l-1.11,1.86a1.72,1.72,0,0,1-2.36.59l-1.86-1.11h0l2-3.31Z" transform="translate(-31.07 -34.3)" fill="#51555b"/><path d="M310.17,509.24l3.31,2h0l-1.12,1.86a1.71,1.71,0,0,1-2.35.59l-1.86-1.11h0l2-3.31Z" transform="translate(-31.07 -34.3)" fill="#51555b"/><path d="M315.45,507.9l3.31,2h0l-1.12,1.87a1.72,1.72,0,0,1-2.35.6l-1.87-1.12h0l2-3.3Z" transform="translate(-31.07 -34.3)" fill="#51555b"/><path d="M320.74,506.57l3.31,2h0L323,510.38a1.71,1.71,0,0,1-2.35.59l-1.87-1.11h0l2-3.31Z" transform="translate(-31.07 -34.3)" fill="#51555b"/><path d="M326,505.23l3.31,2h0l-1.11,1.86a1.72,1.72,0,0,1-2.36.59l-1.83-1.09h0l2-3.31Z" transform="translate(-31.07 -34.3)" fill="#51555b"/><path d="M311.15,491.73a11.26,11.26,0,0,1,2.08-1.46,11.91,11.91,0,0,0-2.86.35,11.47,11.47,0,0,0-4.79,2.52Z" transform="translate(-31.07 -34.3)" fill="#c0e6e7"/><path d="M303.37,495.74a11.57,11.57,0,0,0-1.56,8.16l5.56-1.36a11.49,11.49,0,0,1,1.57-8.17Z" transform="translate(-31.07 -34.3)" fill="#c0e6e7"/><path d="M325.87,432.52a7.68,7.68,0,0,1-1.45,1,8.12,8.12,0,0,0,5.29-2Z" transform="translate(-31.07 -34.3)" fill="#c0e6e7"/><path d="M331.28,429.73a8.08,8.08,0,0,0,1.08-5.68l-3.87,1a8.06,8.06,0,0,1-1.08,5.69Z" transform="translate(-31.07 -34.3)" fill="#c0e6e7"/><rect x="308.76" y="406.45" width="22.94" height="6.74" transform="translate(-121.56 56.44) rotate(-14.15)" fill="#49999d"/><line x1="183.04" y1="328.08" x2="265.16" y2="307.37" fill="none" stroke="#49999d" stroke-linecap="round" stroke-miterlimit="10" stroke-width="6.44"/><line x1="196.12" y1="324.78" x2="217.41" y2="319.42" fill="none" stroke="#53b5b6" stroke-linecap="round" stroke-miterlimit="10" stroke-width="6.44"/><line x1="197.57" y1="316.76" x2="212.32" y2="313.04" fill="none" stroke="#c0e6e7" stroke-linecap="round" stroke-miterlimit="10" stroke-width="5.37"/><circle cx="58.39" cy="218.63" r="58.39" fill="#cc5127"/><path d="M89.46,194.54V311.32a58.42,58.42,0,0,0,0-116.78Z" transform="translate(-31.07 -34.3)" fill="#a03d22"/><path d="M146.56,240.69a58.41,58.41,0,0,0-4.87-13.88H90.09a6.94,6.94,0,0,0-6.94,6.94h0a6.94,6.94,0,0,0,6.94,6.94h56.47Z" transform="translate(-31.07 -34.3)" fill="#f26522"/><path d="M67.72,250.26H31.14c0,.89-.07,1.77-.07,2.67a58.59,58.59,0,0,0,1.09,11.21H67.72a6.94,6.94,0,0,0,6.94-6.9h0a7,7,0,0,0-6.91-7Z" transform="translate(-31.07 -34.3)" fill="#f26522"/><path d="M79.62,264.14H32.16A58,58,0,0,0,36.73,278H79.62a6.95,6.95,0,0,0,0-13.89Z" transform="translate(-31.07 -34.3)" fill="#f26522"/><path d="M80.13,288.22a6.95,6.95,0,0,0,0,13.89h40.79a58.87,58.87,0,0,0,15-13.89Z" transform="translate(-31.07 -34.3)" fill="#f26522"/><path d="M147.66,257.32H119a7,7,0,0,0-6.95,6.94h0A6.94,6.94,0,0,0,119,271.2h25.92A58.09,58.09,0,0,0,147.66,257.32Z" transform="translate(-31.07 -34.3)" fill="#f26522"/><path d="M84,204.85H56.33a58.82,58.82,0,0,0-14.18,13.89H84a6.95,6.95,0,0,0,0-13.89Z" transform="translate(-31.07 -34.3)" fill="#f26522"/><polygon points="308.89 28.25 301.84 32.23 304.91 35.3 311.96 31.32 308.89 28.25" fill="#f6871f"/><polygon points="229.62 90.27 274.53 63.19 272.24 59.41 228.26 85.92 229.62 90.27" fill="#a8dff4"/><polygon points="218.05 53.13 269.31 49.98 269.03 45.55 216.69 48.78 218.05 53.13" fill="#a8dff4"/><polygon points="235.06 81.82 228.26 85.92 229.62 90.27 236.41 86.17 235.06 81.82" fill="#f26a21"/><polygon points="224.62 48.29 216.69 48.78 218.05 53.13 225.97 52.65 224.62 48.29" fill="#f26a21"/><circle cx="291.74" cy="47.18" r="32.75" fill="#36c6f4"/><path d="M354.21,72.19,291.7,91.66a32.74,32.74,0,0,0,62.51-19.47Z" transform="translate(-31.07 -34.3)" fill="#41a0d8"/><path d="M304.67,77c-2.41.15-4.57-2.7-4.8-6.35s1.53-6.76,3.94-6.91,4.57,2.69,4.79,6.35S307.06,76.87,304.67,77Z" transform="translate(-31.07 -34.3)" fill="#f6871f"/><polygon points="190.96 40.57 274.01 38.06 273.87 33.63 189.59 36.18 190.96 40.57" fill="#a8dff4"/><path d="M311,97.26c-2.07,1.23-2.23,4.8-.33,7.93s5.08,4.7,7.16,3.45,2.23-4.81.34-7.94S313,96,311,97.26Z" transform="translate(-31.07 -34.3)" fill="#f26a21"/><polygon points="214.45 116.03 285.27 70.26 282.87 66.54 213.09 111.64 214.45 116.03" fill="#a8dff4"/><polygon points="220.3 106.98 213.09 111.64 214.45 116.03 221.66 111.37 220.3 106.98" fill="#f6871f"/><line x1="282.01" y1="15.91" x2="301.49" y2="78.45" fill="none" stroke="#f26a21" stroke-linecap="round" stroke-miterlimit="10" stroke-width="5.91"/><path d="M846.48,180.61a.71.71,0,0,1,.79-.62.69.69,0,0,1,.62.62l.8,5.2a2.9,2.9,0,0,0,2.39,2.38l5.19.8a.7.7,0,0,1,.59.83.72.72,0,0,1-.59.59l-5.19.8a2.85,2.85,0,0,0-2.39,2.38l-.8,5.2a.71.71,0,0,1-.79.62.72.72,0,0,1-.62-.62l-.81-5.2a2.82,2.82,0,0,0-2.38-2.38l-5.19-.8a.73.73,0,0,1-.59-.83.71.71,0,0,1,.59-.59l5.19-.8a2.85,2.85,0,0,0,2.38-2.38Z" transform="translate(-31.07 -34.3)" fill="#fff"/><path d="M719.31,84.19a.64.64,0,0,1,.58-.36.63.63,0,0,1,.57.36l2.79,6.11L729.5,93a.6.6,0,0,1,.33.8.61.61,0,0,1-.33.32l-6.25,2.73L720.46,103a.66.66,0,0,1-.57.37.67.67,0,0,1-.58-.37l-2.8-6.11-6.25-2.73a.6.6,0,0,1-.33-.8.58.58,0,0,1,.33-.32l6.25-2.74Z" transform="translate(-31.07 -34.3)" fill="#fff"/><path d="M693.6,84.85a.64.64,0,0,1-1.12.2l-1.85-2.61-3.15-.77a.62.62,0,0,1-.47-.74.55.55,0,0,1,.25-.36l2.68-1.81.77-3.08a.63.63,0,0,1,.5-.47.7.7,0,0,1,.64.26l1.84,2.61,3.16.76a.65.65,0,0,1,.47.49.61.61,0,0,1-.27.63l-2.67,1.8Z" transform="translate(-31.07 -34.3)" fill="#e64b55"/><path d="M739.26,44.15a.64.64,0,0,1-.85.29.6.6,0,0,1-.3-.29l-1.18-3-2.87-1.47a.61.61,0,0,1-.3-.83.57.57,0,0,1,.3-.29l3-1.14,1.5-2.82a.62.62,0,0,1,.6-.33.6.6,0,0,1,.55.39l1.17,3,2.88,1.45a.6.6,0,0,1,.34.59.62.62,0,0,1-.4.54l-3,1.15Z" transform="translate(-31.07 -34.3)" fill="#6ac9ca"/><ellipse cx="658.06" cy="24.9" rx="3.03" ry="2.96" fill="#fec411"/><path d="M697.53,52.72a1.63,1.63,0,1,1-1.63-1.59h0a1.59,1.59,0,0,1,1.61,1.57Z" transform="translate(-31.07 -34.3)" fill="#fec411"/><path d="M769.19,80.24a1.63,1.63,0,1,1-1.62-1.59h0a1.59,1.59,0,0,1,1.61,1.57Z" transform="translate(-31.07 -34.3)" fill="#fec411"/><path d="M788.94,74.61a2.11,2.11,0,0,1-4.21.32,1.71,1.71,0,0,1,0-.32,2.12,2.12,0,0,1,4.21,0Z" transform="translate(-31.07 -34.3)" fill="#fec411"/><path d="M912.12,297.05a3.25,3.25,0,1,1-3.25-3.25,3.26,3.26,0,0,1,3.25,3.25Z" transform="translate(-31.07 -34.3)" fill="#fff"/><circle cx="889.75" cy="258.86" r="2.15" fill="#fff"/><circle cx="888.86" cy="269.56" r="2.39" fill="#fff"/><path d="M904,322.63a.71.71,0,0,1,1.41,0l.81,5.2a2.84,2.84,0,0,0,2.38,2.38l5.19.8a.72.72,0,0,1,.59.83.71.71,0,0,1-.59.59l-5.19.8a2.85,2.85,0,0,0-2.38,2.38l-.81,5.2a.71.71,0,0,1-.79.62.69.69,0,0,1-.62-.62l-.8-5.2a2.85,2.85,0,0,0-2.39-2.38l-5.19-.8a.71.71,0,0,1-.59-.83.72.72,0,0,1,.59-.59l5.19-.8a2.87,2.87,0,0,0,2.39-2.38Z" transform="translate(-31.07 -34.3)" fill="#fff"/><path d="M977.74,484.64a.7.7,0,0,1,.93-.33.73.73,0,0,1,.32.33l3,6.77,6.78,3a.69.69,0,0,1,.32.92.71.71,0,0,1-.32.32l-6.78,3-3,6.78a.69.69,0,0,1-.89.36.7.7,0,0,1-.36-.36l-3-6.78-6.77-3a.67.67,0,0,1-.36-.89.65.65,0,0,1,.36-.35l6.77-3Z" transform="translate(-31.07 -34.3)" fill="#fff"/><path d="M949.89,485.37a.69.69,0,0,1-.54.5.66.66,0,0,1-.69-.27l-2-2.9-3.45-.85a.68.68,0,0,1-.23-1.22l2.9-2,.84-3.41a.68.68,0,0,1,.84-.5.7.7,0,0,1,.39.27l2,2.9,3.42.84a.7.7,0,0,1,.51.54.69.69,0,0,1-.28.69l-2.9,2Z" transform="translate(-31.07 -34.3)" fill="#e64b55"/><path d="M999.35,440.27a.63.63,0,0,1-.63.36.64.64,0,0,1-.61-.43l-1.26-3.28-3.13-1.62a.7.7,0,0,1-.37-.65.69.69,0,0,1,.43-.6l3.3-1.26,1.62-3.13a.66.66,0,0,1,.64-.36.69.69,0,0,1,.61.43l1.26,3.29,3.13,1.61a.7.7,0,0,1,.36.65.67.67,0,0,1-.43.6l-3.29,1.27Z" transform="translate(-31.07 -34.3)" fill="#6ac9ca"/><circle cx="913.97" cy="422.66" r="3.28" fill="#fec411"/><path d="M954.16,449.77A1.76,1.76,0,1,1,952.4,448h0A1.76,1.76,0,0,1,954.16,449.77Z" transform="translate(-31.07 -34.3)" fill="#fec411"/><path d="M1031.8,480.36a1.76,1.76,0,1,1-1.76-1.76h0A1.76,1.76,0,0,1,1031.8,480.36Z" transform="translate(-31.07 -34.3)" fill="#fec411"/><path d="M1053.18,474a2.29,2.29,0,1,1-2.31-2.28h0A2.31,2.31,0,0,1,1053.18,474Z" transform="translate(-31.07 -34.3)" fill="#fec411"/><path d="M969.06,433a3.25,3.25,0,1,1-3.25-3.25h0a3.25,3.25,0,0,1,3.25,3.23Z" transform="translate(-31.07 -34.3)" fill="#fff"/><circle cx="946.69" cy="394.79" r="2.15" fill="#fff"/><circle cx="945.81" cy="405.49" r="2.39" fill="#fff"/><path d="M156.93,501a.63.63,0,0,1,.61-.4.59.59,0,0,1,.55.35l2.69,6,6,2.69a.6.6,0,0,1,.32.79.57.57,0,0,1-.32.31l-6,2.68-2.69,6a.6.6,0,0,1-.55.36.62.62,0,0,1-.55-.36l-2.68-6-6-2.68a.6.6,0,0,1-.32-.78.59.59,0,0,1,.32-.32l6-2.69Z" transform="translate(-31.07 -34.3)" fill="#fff"/><path d="M68.61,412.79a.86.86,0,0,1,1.7,0l1,6.23a3.44,3.44,0,0,0,2.87,2.87l6.23,1a.86.86,0,0,1,0,1.7l-6.23,1a3.43,3.43,0,0,0-2.87,2.86l-1,6.24a.86.86,0,0,1-1.7,0l-1-6.24a3.43,3.43,0,0,0-2.86-2.86l-6.24-1a.86.86,0,0,1-.71-1,.85.85,0,0,1,.71-.71l6.24-1A3.43,3.43,0,0,0,67.65,419Z" transform="translate(-31.07 -34.3)" fill="#fff"/><path d="M132.25,501.62a.6.6,0,0,1-.48.44.61.61,0,0,1-.64-.29l-1.76-2.56-3-.75a.61.61,0,0,1-.44-.73.64.64,0,0,1,.25-.35l2.57-1.78.74-3a.6.6,0,0,1,1.08-.21l1.78,2.57,3,.75a.61.61,0,0,1,.21,1.09L133,498.54Z" transform="translate(-31.07 -34.3)" fill="#e64b55"/><path d="M176.09,461.66a.6.6,0,0,1-.58.32.59.59,0,0,1-.53-.38l-1.13-2.91-2.76-1.44a.62.62,0,0,1-.33-.58.58.58,0,0,1,.39-.52l2.91-1.12,1.44-2.77a.6.6,0,0,1,.57-.33.58.58,0,0,1,.53.39l1.12,2.91,2.77,1.43a.61.61,0,0,1,.25.83.65.65,0,0,1-.31.28l-2.92,1.12Z" transform="translate(-31.07 -34.3)" fill="#6ac9ca"/><circle cx="96.88" cy="442.14" r="2.9" fill="#fec411"/><path d="M136,470.07a1.56,1.56,0,1,1-1.56-1.56h0A1.56,1.56,0,0,1,136,470.07Z" transform="translate(-31.07 -34.3)" fill="#fec411"/><path d="M221.82,485.11a1.56,1.56,0,1,1-1.56-1.56h0A1.56,1.56,0,0,1,221.82,485.11Z" transform="translate(-31.07 -34.3)" fill="#fec411"/><path d="M240.78,479.57a2,2,0,1,1-4.05.31,1.61,1.61,0,0,1,0-.31,2,2,0,0,1,4.05,0Z" transform="translate(-31.07 -34.3)" fill="#fec411"/><path d="M173,549.19a3.9,3.9,0,1,1-3.9-3.9h0a3.89,3.89,0,0,1,3.89,3.89Z" transform="translate(-31.07 -34.3)" fill="#fff"/><circle cx="124.34" cy="513.25" r="2.58" fill="#fff"/><circle cx="151.27" cy="523.1" r="2.87" fill="#fff"/><path d="M707.53,547.24,701,542.81l88.88-131.57a4,4,0,0,1,5.49-1.07h0a4,4,0,0,1,1.07,5.5Z" transform="translate(-31.07 -34.3)" fill="#696e74"/><path d="M836.13,515.11c-18.34-26.36-60.66-17.2-79-43.61a12.24,12.24,0,0,1,0-13.82l27.76-41.08a6.76,6.76,0,0,1,11-.26c18.67,25,59.92,16.56,78.06,42.39A12.61,12.61,0,0,1,874,473l-28.46,42.13a5.71,5.71,0,0,1-9.42,0Z" transform="translate(-31.07 -34.3)" fill="#f6871f"/><path d="M787.8,418.81l-.21-.26c-10.29,16.68-22.05,32.3-32.28,49a33.63,33.63,0,0,0,2.87,3.43L791,422.68A33.37,33.37,0,0,1,787.8,418.81Z" transform="translate(-31.07 -34.3)" fill="#f26a21"/><path d="M836,515.41c-18.71-25.82-63.37-15.62-80.51-43.59a7.48,7.48,0,0,1,.39-8.35l16-22.23c16.16,36.14,70.72,18.83,86.81,55l-13.85,19.2a5.57,5.57,0,0,1-7.43,1.35A5.09,5.09,0,0,1,836,515.41Z" transform="translate(-31.07 -34.3)" fill="#f26a21"/><path d="M779.78,621.11c-48.39-82.78-138.19-138.4-241-138.4s-192.6,55.62-241,138.4Z" transform="translate(-31.07 -34.3)" fill="#9f9fa4"/><ellipse cx="652.83" cy="543.48" rx="33.88" ry="26.38" fill="#82878c"/><ellipse cx="388.75" cy="544.37" rx="19.76" ry="15.39" transform="translate(-203.28 145.66) rotate(-21.46)" fill="#82878c"/><path d="M389.66,597.59c.87,9.81-8.63,18.68-21.23,19.81S344.9,611.49,344,601.68s8.62-18.69,21.23-19.82S388.78,587.78,389.66,597.59Z" transform="translate(-31.07 -34.3)" fill="#82878c"/><text transform="translate(744.43 418.33) rotate(30.8) scale(0.78 1)" font-size="20.66" fill="#fff" font-family="CooperBlack, Cooper Black"><tspan letter-spacing="-0.05em">F</tspan><tspan x="12.6" y="0">ooDu</tspan><tspan x="68.04" y="0" letter-spacing="-0.01em">r</tspan><tspan x="78.83" y="0">o</tspan></text><path d="M860.69,481.43a5.83,5.83,0,0,0-4.8.27c-1.45.73-3.62,3.16-4.81,4.7l-3,3.92c-1,1.29.29,2.72.85,3.15l-1.72,1.9a4.42,4.42,0,0,1,1.06.32h.08a3.61,3.61,0,0,1,1.09,0l.9-.22.35,0,10-13A4.59,4.59,0,0,1,860.69,481.43Z" transform="translate(-31.07 -34.3)" fill="#fff"/><path d="M853.7,475.93l-.69-.53-4.48,6.54H846.9l5.09-7.32-.69-.52-5.77,6.79-.42-1.58,5.17-6-.69-.53-8,7.57c-1.17,1.11,1,3.73,0,5l-4.17,5.05.44.24a5.06,5.06,0,0,1,.51.35,3.74,3.74,0,0,1,.56.29,5.46,5.46,0,0,1,.47.31,4.93,4.93,0,0,1,.67.3l3.57-5c.94-1.32,3.79,0,4.81-1.29Z" transform="translate(-31.07 -34.3)" fill="#fff"/><path d="M92.46,58a.64.64,0,0,1-.18.65.67.67,0,0,1-.66.13l-6.2-2.6L79,58.43a.6.6,0,0,1-.76-.83l2.73-6.24L78.84,45a.66.66,0,0,1,.18-.66.65.65,0,0,1,.67-.12l6.2,2.59,6.44-2.24a.6.6,0,0,1,.79.36.61.61,0,0,1,0,.46l-2.73,6.26Z" transform="translate(-31.07 -34.3)" fill="#fff"/><path d="M110.89,40.07a.63.63,0,0,1,.28-.85.63.63,0,0,1,.4-.07l3.14.67,2.84-1.58a.62.62,0,0,1,.84.22.64.64,0,0,1,.06.45l-.74,3.14,1.52,2.79a.59.59,0,0,1,0,.68.66.66,0,0,1-.64.24l-3.13-.67-2.83,1.59a.62.62,0,0,1-.67,0,.59.59,0,0,1-.24-.64l.74-3.14Z" transform="translate(-31.07 -34.3)" fill="#e64b55"/><path d="M105,100.94a.64.64,0,0,1,.42-.79.67.67,0,0,1,.42,0l2.88,1.38,3.1-.88a.63.63,0,0,1,.79.41.67.67,0,0,1,0,.42l-1.45,2.89.81,3.09a.62.62,0,0,1-.21.65.63.63,0,0,1-.67.09l-2.87-1.4-3.11.9a.61.61,0,0,1-.72-.87l1.45-2.91Z" transform="translate(-31.07 -34.3)" fill="#6ac9ca"/><ellipse cx="131.58" cy="55.85" rx="3.03" ry="2.96" transform="translate(-34.02 69.87) rotate(-42.76)" fill="#fec411"/><path d="M129.82,66.32a1.62,1.62,0,1,1,2.27.07h0a1.58,1.58,0,0,1-2.25-.06Z" transform="translate(-31.07 -34.3)" fill="#fec411"/><path d="M58.52,94.77a1.62,1.62,0,1,1,2.27.07h0a1.58,1.58,0,0,1-2.25-.06Z" transform="translate(-31.07 -34.3)" fill="#fec411"/><path d="M47.84,112.31a2.12,2.12,0,0,1,2.88-3.1,2.29,2.29,0,0,1,.21.23,2.12,2.12,0,0,1-3.09,2.87Z" transform="translate(-31.07 -34.3)" fill="#fec411"/></svg>