<?xml version="1.0" encoding="utf-8"?>
<!-- Generator: Adobe Illustrator 24.3.0, SVG Export Plug-In . SVG Version: 6.00 Build 0)  -->
<svg version="1.1" id="Layer_1" xmlns="http://www.w3.org/2000/svg" xmlns:xlink="http://www.w3.org/1999/xlink" x="0px" y="0px"
	 viewBox="0 0 600 600" style="enable-background:new 0 0 600 600;" xml:space="preserve">
<style type="text/css">
	.st0{fill:#2E294D;}
	.st1{fill:#543C32;}
	.st2{fill:#F0C7B1;}
	.st3{fill:#FFE4D6;}
	.st4{fill:#E1AC8F;}
	.st5{fill:none;stroke:#C27B55;stroke-width:4.5;stroke-miterlimit:12;}
	.st6{fill:url(#SvgjsPath4276_1_);}
	.st7{fill:#EEFDFF;}
	.st8{fill:#FFFFFF;}
	.st9{fill:#C8EBF0;}
	.st10{fill:#A5D9E0;}
	.st11{fill:#84C8D1;}
	.st12{fill:#F0C7B1;stroke:#C27B55;stroke-width:4.5;stroke-miterlimit:12;}
	.st13{fill:#C27B55;}
	.st14{fill:#E8B9A0;}
	.st15{fill:url(#SvgjsPath4228_1_);}
	.st16{fill:#E0A4A0;}
	.st17{fill:#B2504A;}
	.st18{fill:#E8B4B1;}
	.st19{fill:#EFC6C3;}
	.st20{fill:url(#SvgjsPath4085_1_);}
	.st21{fill:#5C3835;}
	.st22{fill:#6B4B49;}
	.st23{fill:#3D1A17;}
	.st24{fill:#2E0F0D;}
	.st25{opacity:0.9;enable-background:new    ;}
	.st26{opacity:0.7;fill:#FFFFFF;enable-background:new    ;}
	.st27{opacity:0.9;fill:#FFFFFF;enable-background:new    ;}
	.st28{fill:url(#SvgjsPath4108_1_);}
	.st29{fill:url(#SvgjsPath4113_1_);}
	.st30{fill:url(#SvgjsPath4092_1_);}
	.st31{fill:url(#SvgjsPath4128_1_);}
	.st32{fill:url(#SvgjsPath4133_1_);}
	.st33{fill:url(#SvgjsPath4051_1_);}
	.st34{fill:url(#SvgjsPath4055_1_);}
	.st35{fill:#2A232B;}
	.st36{fill:#6B4E40;}
	.st37{fill:#351F15;}
	.st38{fill:#452C22;}
	.st39{fill:#634E45;}
	.st40{fill:#26130B;}
	.st41{fill:#26120B;}
	.st42{display:none;opacity:0.5;fill:#ECF0F1;enable-background:new    ;}
</style>
<g id="svga-group-backs-single">
	<g>
		<path id="SvgjsPath4305_9_" class="st0" d="M600,600H0V0h600V600z"/>
	</g>
</g>
<g id="svga-group-humanwrap-move" transform="matrix(1,0,0,1,0,0)">
	<g id="svga-group-humanwrap" transform="matrix(1,0,0,1,0,0)">
		<g id="svga-group-hair-back-move" transform="matrix(1,0,0,1,0,0)">
			<g id="svga-group-hair-back" transform="matrix(1,0,0,1,0,0)">
				<path id="SvgjsPath4291" class="st1" d="M310.4,282h-2.3v-2.3h2.3V282z"/>
			</g>
		</g>
		<g id="svga-group-humanbody-single">
			<path id="SvgjsPath4059" class="st2" d="M531.2,513c-5.1-11-19.1-27.4-34.6-31.9c-19.2-5.6-62.4-12.3-78.5-16.1
				c-12.9-3-38.8-26.3-47.8-34.1c-1.6-1.4-3-4.3-3-6.4c-0.3-25.3,9.8-92.4,9.8-92.4h-67.9h-67.9c0,0,10.1,67.1,9.8,92.4
				c0,2.1-1.4,5-3,6.4c-9.1,7.8-35,31.1-47.8,34.1c-16,3.8-59.3,10.7-78.5,16.3c-15.5,4.5-29.5,20.7-34.6,31.7
				c-8.6,18.6-10.7,52.3-10.7,81.4h232.7h232.7C541.9,565.4,539.8,531.6,531.2,513z"/>
			<path id="SvgjsPath4060" class="st3" d="M446.9,476.4c56.6,8.2,80.5,20.3,87.9,118h7.1c0-29.1-2-62.8-10.7-81.4
				c-5.1-11-19.1-27.4-34.6-31.9c-19.2-5.6-62.4-12.3-78.5-16.1c-12.9-3-42.4-28.1-50.4-38c7.8,10.9,29.8,36.3,49,42.9
				C426,473.1,433.7,474.5,446.9,476.4z M201.7,469.9c19.2-6.6,41.2-32,49-42.9c-7.9,10-37.5,35-50.4,38
				c-16,3.8-59.3,10.7-78.5,16.3c-15.5,4.5-29.5,20.7-34.6,31.7c-8.6,18.6-10.7,52.3-10.7,81.4h7.1c7.4-97.1,31.3-109.8,87.9-118
				C184.8,474.5,192.5,473.1,201.7,469.9z"/>
			<path id="SvgjsPath4061" class="st4" d="M299.1,508c0,0-11.8-3.7-16.5-5.5c-24.3-9.3-103.3-15.4-103.3-15.4s83.2,3.3,101.5,6.5
				c-1.1-11.1-7-46.5-7-46.5s12,39.1,14.9,49C290.3,501.3,299.1,508,299.1,508z M324.2,504.9c-0.2,0.2-0.4,0.4-0.7,0.6
				C323.8,505.3,324,505.1,324.2,504.9z M299.1,508c0,0,6.7,7,10.1,7c4.4,0.1,11.2-6.7,14.3-9.5c-2.9,2.2-9.7,3.2-12.4,3.3
				C308.1,509,299.1,508,299.1,508z M348,490.5c-3.6,0.6-10.2,1.8-10.2,1.8l5.3-34.6c-1.5,7.1-10.4,37.7-18.9,47.2
				c4.4-3.8,14.3-5.6,19.4-6.3c23.8-3.5,23.8-3.5,95.5-11.5C439.1,487.1,371.5,486.7,348,490.5z"/>
			<path id="SvgjsPath4062" class="st5" d="M531.2,513c-5.1-11-19.1-27.4-34.6-31.9c-19.2-5.6-62.4-12.3-78.5-16.1
				c-12.9-3-38.8-26.3-47.8-34.1c-1.6-1.4-3-4.3-3-6.4c-0.3-25.3,9.8-92.4,9.8-92.4h-67.9h-67.9c0,0,10.1,67.1,9.8,92.4
				c0,2.1-1.4,5-3,6.4c-9.1,7.8-35,31.1-47.8,34.1c-16,3.8-59.3,10.7-78.5,16.3c-15.5,4.5-29.5,20.7-34.6,31.7
				c-8.6,18.6-10.7,52.3-10.7,81.4h232.7h232.7C541.9,565.4,539.8,531.6,531.2,513z"/>
		</g>
		<g id="svga-group-chinshadow-single">
			
				<linearGradient id="SvgjsPath4276_1_" gradientUnits="userSpaceOnUse" x1="-336.2557" y1="611.8708" x2="-336.2557" y2="645.6053" gradientTransform="matrix(3 0 0 -3 1318 2284)">
				<stop  offset="0" style="stop-color:#E1AC8F;stop-opacity:0.8"/>
				<stop  offset="0.7" style="stop-color:#C27B55"/>
			</linearGradient>
			<path id="SvgjsPath4276" class="st6" d="M349.1,443.1c5.9-2.5,12.1-7,18.4-12.8c-1.1-1.7-1.9-3.9-2-5.8c-0.2-17,4.1-52,7.1-73.9
				c-36.7-4.5-90.2-4.5-126.9,0c3,21.8,7.3,56.9,7.1,73.8c0,1.8-0.8,4-2,5.8c6.3,5.8,12.6,10.4,18.5,12.9
				C286.7,450.5,331.8,450.5,349.1,443.1z"/>
		</g>
		<g id="svga-group-clothes-single">
			<path id="SvgjsPath4300" class="st7" d="M536.8,517.1c-24.4-47.2-71.3-40.5-116.3-53.1c-1.1,8.3-30.8,47.6-37.9,69.9
				c-4-3.3-8.7-7.7-12.1-11.8c-16.7-19.6-41.5-83.2-49.8-33.6c1.8-22.3,11.6-27.2,25.3-8.5c14.7,20.1,15.2,30.5,36.2,52.3
				c3.7-15.4,11.7-26.2,21-39.8c9-13.2,15.6-19.1,16.6-30.8c-3.4-5.6-2.6-8.1-8-11.7c-34.1-23.1-9.8-46.5-40.7-52
				c-0.2,2.8-0.5,5.9-0.8,8.3c6.6,3.4,8.6,16.6-1.6,26.3c-16.2,17.8-42.2,18.6-48.9,45.9l0,0c-2.2,8.1-3.9,20.5-4.7,27.7l-5.7,57.9
				l-5.7-56.9c-4.7-42.7-10.8-46.9-30.7-60.1c-13.2-8.7-34.8-21.9-27.7-36.9c0.8-1.7,1.8-2.8,3-3.6c-0.3-3.4-0.6-5.4-0.8-8.6
				c-25.5,1.1-21.6,37.2-40.9,50.5c-5.1,3.5-7.6,6.7-9.5,11.9c1.2,14.6,33.7,47.6,39.4,71.9c21.1-22.3,21.3-32.1,36.1-52.3
				c12.7-17.4,23.1-15.6,25.3,7.9c-1.2-7.1-4-17.9-10.2-17.9c-5.1,0-10.4,7.5-13,11.1c-14.7,20.2-17,34.6-38.7,52.7
				c-1.5-4.5-3.3-9.1-5.4-13.3c-8.6-17.4-31.9-52.5-34.6-55.9c-10.3,2.9-26,6.1-35.4,7.7c-61.7,10.3-85.6,30.2-94.7,123.4
				c226.1-2.3,318.3-1.3,486.7-1.3C550.4,573.8,546.3,535.5,536.8,517.1z"/>
			<path id="SvgjsPath4301" class="st8" d="M402.2,492.1c-8.1,11.8-14.4,21.6-18.4,34c4.6-25.5,33.6-49.7,30.4-65
				c-1.3-6.5-24.5-21.1-25.7-42.8c6.4,19.9,30.2,34,30.3,43.6C418.9,477.4,418.4,468.4,402.2,492.1z M552.3,592.7
				c0.8-20.2-6-59.5-14.4-75.8c-24.4-47.2-73.4-41.2-118.4-53.8c-0.4,0.5,1.1,3.9,0.1,5.3C524.7,487.7,536.6,510.8,552.3,592.7z
				 M206.4,448.6c12.9-10.7,16.8-21.1,19.7-30.3c-6.6,37.9-16.5,23.6-23.8,42.5c-4.1,10.8,27.9,40.5,32.3,65.3
				c-5.7-9.7-11.8-21.7-19.8-33.4c-6.3-9.2-10.3-17.5-16.5-24.6C195.4,452.5,201.5,452.6,206.4,448.6z M198.3,468.1
				c-1.1-1.4-2.1-2.8-2.5-3.3c-44.9,12.7-89.8,4.9-114.2,52.1c-8.4,16.3-12.6,49.7-14.9,69.9c4.5-24.6,11.2-55.6,25.5-74.3
				C116.6,479.6,161.4,473.2,198.3,468.1z"/>
			<path id="SvgjsPath4302" class="st9" d="M355.4,447c-11.3,6.6-20.9,13-27.3,22.1c15.3,0.8,26.6,28.1,29.6,31.9
				c-28.7-39.9-39.6-12.8-43,12.6c1-8.2,1.8-22.3,3.5-28.4c0.5-2.4,1-4.7,1.5-6.7l0,0c6.8-27.3,32.8-28.1,48.9-45.9
				c10.2-9.7,8.2-22.9,1.6-26.3c0.3-2.3,0.6-5.5,0.8-8.3c1.7,0.3,3.2,0.7,4.6,1.1C396.5,417.4,369.6,440.6,355.4,447z M260.3,447
				c11.3,6.6,25.2,14.3,31.5,22.6c-11.2-2-23.6,14.6-29.8,29.4c26.8-34.1,34.9-14.7,43.4,14.6c-1-8.2-3.5-22.3-5.2-28.4
				c-0.5-2.4-1-4.7-1.5-6.7l0,0c-6.8-27.3-31.8-28.1-48-45.9c-10.2-9.7-8.4-22.9-1.8-26.3c-0.3-2.3-0.6-5.5-0.8-8.3
				c-1.7,0.3-3.2,0.7-4.6,1.1C226,420.4,247.5,439.2,260.3,447z"/>
			<path id="SvgjsPath4303" class="st10" d="M369.4,428.2c0.1-13.3-0.4-5.9,1-20.9C375.6,410.1,376.2,421.5,369.4,428.2z
				 M249.1,426.9c-5.4-7.1-6.1-14.3-0.8-19.8C249.5,419,248.9,417.5,249.1,426.9z"/>
			<path id="SvgjsPath4304" class="st11" d="M420,459.8c-0.5-8.2-18.2-15.1-26-33c-5.6-12.7-0.3-27.3-23.4-29.6
				c-1.3,7.4-2.4,23.7-2.1,31.6c-11.7,12.6-29.9,15.9-41.4,29.4c-12.3,14.5-17.6,45.8-17.8,110.9l2.9-1.9c0,0,3.2-61.6,3.2-61.8
				c7.2-61.5,30-47,53.5-72.7c10.5-10.1,8-23.4,1.7-26.7c0.3-2.6,0.5-5.2,0.8-7.8c19.9,3.7,14.2,15.4,20.4,29.7
				c8.3,19,24,23.2,25,32.4c1.6,14.6-7.1,20.8-15.9,33.6c-13.8,19.9-16.9,30.1-18.8,37.9c-20.9-21.9-20.9-31.5-35.8-52
				c-15.9-21.8-26.4-11.6-30.8,25.6c0.5-6.1,8.8-40,18.7-34.1c11.5,6.7,22.8,35.1,36.2,50.9c3.6,4.2,8.2,8.5,12.4,12.1
				c7.9-27.7,37.2-56.9,38.2-70.3c45.8,12.9,124.3-0.3,131.3,130.2c-95.7,0.5-199.6-1.6-486.2,1.3c4.2-42.9,11.2-84.9,36.6-103.9
				c10.9-8.2,23.5-12.4,36.6-15.1c18.1-3.8,38.4-6.2,56.4-11c1.8,2.3,33,49.3,40.1,68.9c25.3-19.8,35.4-56.9,49.3-63.3
				c9.7-4.5,17.6,27.8,18,33.9c-3.8-39.3-16.2-52.2-39.6-11.5c-11.5,20.1-14.6,25.5-26.9,38.4c-4.9-20.9-39.3-60.4-37.8-71.3
				c1.5-10.8,14.7-7.8,23.5-30.8c4.9-12.9,3.8-27.1,24.9-31.3c0.2,2.7,0.5,5.4,0.8,8.1c-5.8,3.8-7.2,16.5,2,25.5
				c8.3,9.5,23.3,14.9,33.2,22.5c11.7,9,16.3,18.2,20,50.4c0.1,0.7,3.2,62.7,3.2,62.7l3.1,1.6c-1.6-64.8-7.8-103.7-20.3-114.6
				c-10.8-9.7-29.7-15.8-38.9-26.6c0.3-8.1-1.3-24.5-2.3-30.6c-21,2.1-21.6,15.4-26,27.1c-12,31.1-23.6,22.2-25.5,35
				c-0.2,1.2,0.1,2.1,0.4,3.7c-17.6,3.6-39.6,6-57.3,9.2c-26.4,4.8-51.3,18.7-62.6,45.3c-8.6,20.1-11.1,56-11.8,78
				c0,0.2,0,0.3,0,0.5c0.4,0,0.7,0,1.1,0c303.6,3.2,485-1.3,487.5-1.3C554.4,470.6,486.5,476.1,420,459.8z M369.7,427.5
				c0-6.8,0.2-14.7,0.7-20.2C374.1,409.9,377,418.8,369.7,427.5z M248.9,426.5c-6.2-8.1-3.7-15.9-0.9-18.6
				C248.6,413.3,248.8,421,248.9,426.5z"/>
		</g>
		<g id="svga-group-head" transform="matrix(1,0,0,1,0,0)">
			<g id="svga-group-ears-left-move" transform="matrix(1,0,0,1,0,0)">
				<g id="svga-group-ears-left" transform="matrix(1,0,0,1,0,0)">
					<path id="SvgjsPath4287" class="st12" d="M182.3,240.7c-3.4-5.7-15.5-17.6-24-15.4c-6.9,1.8-14,7.5-14,17.4
						c0,15.2,3.5,21.7,5.8,28.6c2,5.9,9.1,16.7,13.4,20.9c5.3,5.1,13.9,21.8,14.9,23.4c1.6,2.7,4.4,7,9.4,7.1
						c7.7,0.2,16.5-4.9,17-8.1C207.8,297.2,191.2,255.4,182.3,240.7z"/>
					<path id="SvgjsPath4288" class="st13" d="M178,278.8c-0.3-1.3,0-3.5,0.4-5.6c0.3-1.9,0.6-3.7,0.4-5c-0.7-4.8-4.4-13.9-6.8-18.9
						c-2.8-5.7-9.6-12.9-15.3-14.7c-2.4-0.8-3.9,0.1-4.8,1.1c-0.7,0.7-0.8,1.5-0.6,1.6c0.2,0.1,0.7-0.6,1.4-1.2
						c0.6-0.5,1.4-0.9,2.6-0.9c-0.5,2.4-7.3,9.8-3.2,24.2c1.9,6.7,4.6,12.1,5.1,12.9c0.1,0.8,0.2,1.6,0.4,2.4
						c2.3,10.1,17,26.8,20.4,30.6c0.6,0.7,1.3,1.1,1.5,0.9c0.2-0.2-0.2-0.9-0.9-1.6c-3.4-3.7-18-20.4-20.2-30.2
						c-4.1-17.9,4.5-18.2,10.5-29c0.9,1.5,1.7,3,2.3,4.2c0.5,1,1,2.1,1.5,3.3c-1.1,1.7-11.8,14.1-9,24c1,3.7,8.8,8.4,11.8,9.7
						c1.7,0.7,2.3,1.8,3,3c0.8,1.4,1.8,6.5,4.5,7.7c0.6,0.2,1.1,0.3,1.5,0.3c0.8,0,1.4-0.3,1.8-0.7c0,0.6,0,1.4,0,2.2
						c0,1,0.1,1.7,0.3,1.8c0.2,0,0.5-0.7,0.5-1.7c0-1.2,0-2.6-0.2-3.3c-0.6-2-2.5-4.4-4.5-6.8C180.5,286.7,178.5,280.8,178,278.8z
						 M157.1,269.8c-5.4-15.9,2.3-29.6,3.5-31.8c2.1,1.8,6.2,4.3,7.7,6.7C161.1,257.2,157.6,248.4,157.1,269.8z M183.3,296.5
						c-2.5-1.1-3.3-5.9-4.1-7.3c-0.7-1.2-1.5-2.5-3.4-3.4c-0.4-0.2-0.9-0.5-1.3-0.8c-9-13.4,0.7-20.1,2.4-21.3
						c0.5,1.7,0.9,3.3,1.1,4.5c0.2,1.2-0.1,3-0.4,4.8c-0.3,2.2-0.7,4.5-0.3,5.9c0.6,2.2,2.7,8.2,4.7,10.7c1.8,2.2,3.6,4.5,4.3,6.3
						C185.9,296.3,185,297.2,183.3,296.5z"/>
				</g>
			</g>
			<g id="svga-group-ears-right-move" transform="matrix(1,0,0,1,0,0)">
				<g id="svga-group-ears-right" transform="matrix(1,0,0,1,0,0)">
					<path id="SvgjsPath4289" class="st12" d="M435.5,240.7c3.4-5.7,15.5-17.6,24-15.4c6.9,1.8,14,7.5,14,17.4
						c0,15.2-3.5,21.7-5.8,28.6c-2,5.9-9.1,16.7-13.4,20.9c-5.3,5.1-13.9,21.8-14.9,23.4c-1.6,2.7-4.4,7-9.4,7.1
						c-7.7,0.2-16.5-4.9-17-8.1C410,297.2,426.7,255.4,435.5,240.7z"/>
					<path id="SvgjsPath4290" class="st13" d="M435.3,289.1c-2,2.4-3.9,4.7-4.5,6.8c-0.2,0.7-0.2,2.1-0.2,3.3c0,1,0.3,1.7,0.5,1.7
						c0.2,0,0.4-0.8,0.3-1.8c0-0.7,0-1.5,0-2.2c0.4,0.4,1,0.7,1.8,0.7c0.4,0,1-0.1,1.5-0.3c2.8-1.2,3.7-6.2,4.5-7.7
						c0.7-1.2,1.3-2.3,3-3c3-1.3,10.8-6,11.8-9.7c2.7-9.9-8-22.3-9-24c0.5-1.2,1.1-2.3,1.5-3.3c0.6-1.2,1.4-2.7,2.3-4.2
						c6,10.8,14.5,11.1,10.5,29c-2.2,9.8-16.8,26.5-20.2,30.2c-0.6,0.7-1,1.4-0.9,1.6c0.2,0.2,0.8-0.2,1.5-0.9
						c3.5-3.8,18.1-20.5,20.4-30.6c0.2-0.8,0.3-1.6,0.4-2.4c0.5-0.8,3.2-6.2,5.1-12.9c4.1-14.4-2.7-21.8-3.2-24.2
						c1.2-0.1,2,0.3,2.6,0.9c0.7,0.6,1.2,1.3,1.4,1.2c0.2-0.1,0.1-0.9-0.6-1.6c-0.9-0.9-2.5-1.8-4.8-1.1c-5.7,1.8-12.5,9-15.3,14.7
						c-2.4,4.9-6.2,14.1-6.8,18.9c-0.2,1.3,0.1,3.1,0.4,5c0.3,2.1,0.7,4.3,0.4,5.6C439.3,280.8,437.3,286.7,435.3,289.1z
						 M449.5,244.6c1.5-2.4,5.6-4.8,7.7-6.7c1.2,2.2,8.9,15.9,3.5,31.8C460.3,248.4,456.7,257.2,449.5,244.6z M431.7,296
						c0.6-1.8,2.5-4.1,4.3-6.3c2-2.5,4.1-8.5,4.7-10.7c0.4-1.5,0-3.7-0.3-5.9c-0.3-1.8-0.6-3.6-0.4-4.8c0.2-1.3,0.6-2.8,1.1-4.5
						c1.7,1.2,11.4,7.9,2.4,21.3c-0.5,0.3-0.9,0.6-1.3,0.8c-1.9,0.8-2.7,2.1-3.4,3.4c-0.8,1.4-1.6,6.3-4.1,7.3
						C432.8,297.2,432,296.3,431.7,296z"/>
				</g>
			</g>
			<g id="svga-group-faceshape-wrap" transform="matrix(1,0,0,1,0,0)">
				<g id="svga-group-faceshape-single">
					<path id="SvgjsPath4273" class="st2" d="M413.3,344.1c-10.6,23-40.9,65.8-64.2,75.8c-17.3,7.4-62.4,7.4-79.7,0
						c-23.3-9.9-53.6-52.8-64.2-75.8c-12.3-26.7-32.8-113.1-32.9-113.2c-3-11.6-4.6-23.8-4.7-36.4C167.5,115.2,230.8,50.9,309,50.8
						c78.2-0.1,141.7,64,141.8,143.2c0,12.6-1.6,24.8-4.5,36.4C446.3,230.5,425.7,317.3,413.3,344.1z"/>
					<path id="SvgjsPath4274" class="st14" d="M332.8,52.8c62.8,14.8,109.6,71.8,109.5,139.9c0,12.6-1.6,24.8-4.7,36.4
						c0,0.1-21.3,86.6-33.5,113.2c-10.3,22.5-37.8,63.4-60.2,74c-7.4,3.5-26.6,4.3-34.7,4.3c-8.1,0-27.4-0.8-34.7-4.3
						c-22.4-10.6-49.9-51.6-60.2-74c-12.2-26.7-33.5-113.1-33.5-113.2c-3-11.6-4.6-23.8-4.7-36.4c-0.1-68.1,46.7-125.1,109.5-139.9
						c-67.1,11.4-118.1,70.5-118,141.6c0,12.6,1.6,24.8,4.7,36.4c0,0.1,20.4,86.6,32.9,113.2c10.7,22.9,41.3,64.9,64.2,75.8
						c8.5,4,30.4,5.5,39.9,5.5c9.4,0,31.3-1.5,39.9-5.5c22.9-10.8,53.5-52.8,64.2-75.8c12.4-26.7,32.8-113.1,32.9-113.2
						c3-11.6,4.6-23.8,4.7-36.4C451,123.3,399.9,64.2,332.8,52.8z"/>
					<path id="SvgjsPath4275" class="st5" d="M413.3,344.1c-10.6,23-40.9,65.8-64.2,75.8c-17.3,7.4-62.4,7.4-79.7,0
						c-23.3-9.9-53.6-52.8-64.2-75.8c-12.3-26.7-32.8-113.1-32.9-113.2c-3-11.6-4.6-23.8-4.7-36.4C167.5,115.2,230.8,50.9,309,50.8
						c78.2-0.1,141.7,64,141.8,143.2c0,12.6-1.6,24.8-4.5,36.4C446.3,230.5,425.7,317.3,413.3,344.1z"/>
				</g>
			</g>
			<g id="svga-group-mouth-single-move" transform="matrix(1,0,0,1,0,0)">
				<g id="svga-group-mouth-single" transform="matrix(1,0,0,1,0,0)">
					
						<linearGradient id="SvgjsPath4228_1_" gradientUnits="userSpaceOnUse" x1="-336.2553" y1="636.687" x2="-336.2553" y2="638.238" gradientTransform="matrix(3 0 0 -3 1318 2284)">
						<stop  offset="0.1" style="stop-color:#E8B9A0"/>
						<stop  offset="1" style="stop-color:#E1AC8F"/>
					</linearGradient>
					<path id="SvgjsPath4228" class="st15" d="M309.2,374.4c-12.1,0-15-5.2-15-5.2c16.1,3.3,30-0.2,30-0.2S319.9,374.4,309.2,374.4z
						"/>
					<path id="SvgjsPath4232" class="st16" d="M270.7,360.1c12.9-0.9,20.4-4.1,26.8-4.3c3.3-0.1,6.9,1.3,10.4,1.8
						c2.5,0.3,9.5-1.8,12.1-1.8c6.6,0,16.4,3.3,27.7,4.3c0.4,0,0,0,0,0s-16.9,10.7-38.5,10.7C284.8,370.8,270.7,360.1,270.7,360.1
						S270.3,360.1,270.7,360.1z"/>
					<path id="SvgjsPath4233" class="st17" d="M348.8,359.8c-0.1-0.3-1.4-0.6-1.9-0.6c-0.9,0-2,0.6-3.8,0.6
						c-2.2,0-13.7,0.9-16.7,0.8c-6.2-0.2-11.2,1-17.1,1c-5.9,0-11.3-1.4-17.5-1.1c-3.1,0.1-14.2-0.7-16.3-0.7
						c-1.9,0-2.6-0.6-3.4-0.7c-0.6-0.1-1.9,0.3-2.2,0.5c-0.2,0.2,0.3,1,0.6,1.2c0.8,0.5,3.3,0.4,5,0.4c2.3,0,13.4,0.8,16.5,0.7
						c6.1-0.2,11.5,1.3,17.4,1.3c5.9,0,10.9-1.4,17-1.1c3.1,0.1,14.6-0.8,16.9-0.8c1.6,0,4-0.1,4.8-0.4
						C348.3,360.6,348.9,360,348.8,359.8z"/>
					<path id="SvgjsPath4234" class="st18" d="M282.2,363.3c22.9-0.7,14.6,0.5,25.5,0.9c5.5,0.2,22.8-2.1,29.7-2
						C316.3,370.7,297.1,369.8,282.2,363.3z M336.3,359.1c-13.9-3.9-24.6-0.6-27.2-0.4c-8.9,0.6-4.1-4.8-25.6,0.6
						c20.8-0.3,15.1,1.1,24.9,1.3C312.4,360.6,332.2,358.9,336.3,359.1z"/>
					<path id="SvgjsPath4235" class="st19" d="M292.4,363.9c11.6-0.6,10.2,2.4,23.3,0.6c3.6-0.5,5.1-0.7,8.9-0.5
						C313.4,368.3,301.5,367.6,292.4,363.9z"/>
				</g>
			</g>
			<g id="svga-group-eyes-left-move" transform="matrix(1,0,0,1,0,0)">
				<g id="svga-group-eyes-left" transform="matrix(1,0,0,1,0,0)">
					<g id="svga-group-eyesback-left">
						
							<radialGradient id="SvgjsPath4085_1_" cx="-749.4747" cy="656.8502" r="11.7233" gradientTransform="matrix(-2.9835 0.3126 -0.3126 -2.9835 -1783.7456 2438.7371)" gradientUnits="userSpaceOnUse">
							<stop  offset="0" style="stop-color:#FFFFFF"/>
							<stop  offset="0.315" style="stop-color:#FCFDFD"/>
							<stop  offset="0.504" style="stop-color:#F4F7F8"/>
							<stop  offset="0.66" style="stop-color:#E5ECEF"/>
							<stop  offset="0.76" style="stop-color:#D8E2E7"/>
						</radialGradient>
						<path id="SvgjsPath4085" class="st20" d="M220.2,240.2c-1.2-5.3,12.1-9.2,29.6-7.1c17.5,2.1,29.6,12.9,28,18.2
							c-0.9,3-24.8,7.5-33.2,6.6C236.2,257.1,223.1,253.1,220.2,240.2z"/>
					</g>
					<g id="svga-group-eyesiriswrapper-left" transform="matrix(1,0,0,1,0.25,0.25)">
						<g id="svga-group-eyesiriscontrol-left" transform="matrix(1,0,0,1,0,0)">
							<g id="svga-group-eyesiris-left" transform="matrix(1,0,0,1,0,0)">
								<path id="SvgjsPath4206" class="st21" d="M263,244c0,7.7-6.3,14-14,14c-7.7,0-14-6.2-14-14c0-7.7,6.3-14,14-14
									C256.8,230,263,236.3,263,244z"/>
								<path id="SvgjsPath4207" class="st22" d="M241,250.5c2-0.2,0.2-0.7,0.2-0.7c-1-0.5-2.9-1.4-2.9-2.1c0-2.4,3.3-3-0.1-4
									c-3.5-3.2,2.7-3.1,2.7-3.3c-2.3-5.5,0.7-2.5,1.9-4.1c4.6-6,1.3,0.6,3.8,0c0.9-0.2-1.8-3.6,0.1-3.1c1.3,0.3,1.5,1.3,1.5,1.3
									c0.9-0.2,2.3-1.6,2.3-1.6c1.7,0.5,3,3,2.4,2.5c0.9-0.1,2.1-0.5,3-0.8c0,0,0.2-0.6,0.3-0.1c2.1,6.2,7.6,5.7,1.3,7.5
									c0,0-0.4,0,0.9,1c6.3,5-4.9,3.5,1,5.8c0.2-0.2-3.6,2.2-3.6,2.9c0,1.2-2.4,4.2-4.5,3c-1.2-0.7-1.4,1.4-2,0.4
									c-1.4-1.9-4.1-0.1-3.1-1.8c1.5-1.2-1.5,0.5-2.1,0.5c-1.9,0,2.5-6.5,9.1-1.7c1.9,1.4-2-3.3,1.5-3.3c0.3,0.1,0.2-1.2,0.2-1.6
									c-1.8-0.4,3.2,0,3.2-2.9c0.3,0.1,1.2-0.8-3.8,0c0,0-0.2-1.7-0.1-2.1c0.3-1,2.8-0.7,2.1-1.7c0,0-1.9-3.7-1.9-3.7
									c-6-1-2.6-1.6-6.3-0.8c-0.2,0.9-8,4.6-7.8,6.3c0.2,1.6,4.9,2.2,0.5,5.1C247.7,260.4,236.1,247.4,241,250.5z"/>
								<path id="SvgjsPath4208" class="st23" d="M249.1,231.8l0.4,10.2l4.3-9.3l-3.5,9.6l7.5-6.9l-6.9,7.5l9.6-3.5l-9.3,4.3
									l10.2,0.4l-10.2,0.4l9.3,4.3l-9.6-3.5l6.9,7.5l-7.5-6.9l3.5,9.6l-4.3-9.3l-0.4,10.2l-0.4-10.2l-4.3,9.3l3.5-9.6l-7.5,6.9
									l6.9-7.5l-9.6,3.5l9.3-4.3l-10.2-0.4l10.2-0.4l-9.3-4.3l9.6,3.5l-6.9-7.5l7.5,6.9l-3.5-9.6l4.3,9.3L249.1,231.8z"/>
								<path id="SvgjsPath4209" class="st24" d="M250.9,234.8l-1.3,7.7l4.6-6.3l-4.1,6.6l6.7-4.1l-6.3,4.6l7.7-1.2l-7.6,1.8
									l7.6,1.8l-7.7-1.3l6.3,4.6l-6.6-4.1l4.1,6.7l-4.6-6.3l1.2,7.7l-1.8-7.6l-1.8,7.6l1.3-7.7l-4.6,6.3l4.1-6.6l-6.7,4.1l6.3-4.6
									l-7.7,1.2l7.6-1.8l-7.6-1.8l7.7,1.2l-6.3-4.6l6.6,4.1l-4.1-6.7l4.6,6.3l-1.2-7.7l1.8,7.6L250.9,234.8z"/>
								<path id="SvgjsPath4210" class="st25" d="M254.3,244c0,2.9-2.3,5.2-5.2,5.2c-2.9,0-5.2-2.3-5.2-5.2s2.3-5.2,5.2-5.2
									C252,238.8,254.3,241.1,254.3,244z"/>
								<path id="SvgjsPath4211" class="st26" d="M243.6,254c-0.8,0.8-2.3,0.5-3.4-0.6c-1.1-1.1-1.4-2.6-0.6-3.4
									c0.8-0.8,2.3-0.5,3.4,0.6C244.1,251.7,244.3,253.2,243.6,254z"/>
								<path id="SvgjsPath4212" class="st27" d="M260.3,241.2c-1.2,1.2-3.9,0.2-6.2-2.1c-2.3-2.3-3.2-5.1-2.1-6.2s3.9-0.2,6.2,2.1
									C260.5,237.3,261.4,240.1,260.3,241.2z"/>
							</g>
						</g>
					</g>
					<g id="svga-group-eyesfront-left">
						<path id="SvgjsPath4107" class="st2" d="M200.6,241.3c1.9,25.4,27.1,54.9,47.7,51.7c24.4,0.2,48.5-18.3,48.5-51.9
							s-11.8-61.7-49.2-61.7C220.9,179.4,200.6,207.7,200.6,241.3z M220.2,240.2c-1.2-5.3,12.1-9.2,29.6-7.1
							c17.5,2.1,29.6,12.9,28,18.2c-0.9,3-24.8,7.5-33.2,6.6C236.2,257.1,223.1,253.1,220.2,240.2z"/>
						
							<radialGradient id="SvgjsPath4108_1_" cx="-307.7849" cy="849.0945" r="12.4104" fx="-299.0582" fy="849.1186" gradientTransform="matrix(2.9994 6.240000e-02 -4.980000e-02 2.3994 1223.528 -1777.9552)" gradientUnits="userSpaceOnUse">
							<stop  offset="0" style="stop-color:#E1AC8F"/>
							<stop  offset="0.7" style="stop-color:#E1AC8F;stop-opacity:0.3"/>
							<stop  offset="1" style="stop-color:#F0C7B1;stop-opacity:0"/>
						</radialGradient>
						<path id="SvgjsPath4108" class="st28" d="M244.7,258c8.4,0.9,32.3-3.6,33.2-6.6c1.6-5.4-10.5-16.1-28-18.2
							c-15-1.8-26.9,0.8-29.2,5c2.1-14.9,17.9-26.5,37.2-26.6c20.7-0.1,37.6,13.2,37.6,29.7c0,16.5-16.7,29.9-37.4,30
							c-20.7,0.1-37.6-13.2-37.6-29.7c0-0.2,0-0.5,0-0.7C223.5,253.2,236.3,257.1,244.7,258z"/>
						
							<radialGradient id="SvgjsPath4113_1_" cx="-367.9569" cy="666.4555" r="22.896" gradientTransform="matrix(3.1008 0 0 -3.1008 1379.3883 2372.7109)" gradientUnits="userSpaceOnUse">
							<stop  offset="0.95" style="stop-color:#000000;stop-opacity:0"/>
							<stop  offset="1" style="stop-color:#000000;stop-opacity:0.2"/>
						</radialGradient>
						<path id="SvgjsPath4113" class="st29" d="M220.2,240.2c-1.2-5.3,12.1-9.2,29.6-7.1c17.5,2.1,29.6,12.9,28,18.2
							c-0.9,3-24.8,7.5-33.2,6.6C236.2,257.1,223.1,253.1,220.2,240.2z"/>
						<path id="SvgjsPath4117" class="st13" d="M221.2,228.3c9.8-4.6,21.8-5,32.2-2.3c5.6,1.3,11.6,3,16.4,6.1
							c4.5,2.6,8.2,5.8,11.6,9.7c-3.1-4-6.5-7.3-10.8-9.9c-5.3-3.3-11.1-5.3-17.1-6.8C242.9,222.5,230.9,223.1,221.2,228.3z"/>
						<path id="SvgjsPath4118" d="M222.6,229.7c2-0.8,9.5-2.3,12.7-2.5c3.9-0.2,11.8,0.3,15.7,1c7.8,1.4,21.5,5.8,27.2,16.7
							c1.7,3.4,0.2,5.7-0.3,6.2c0.7-5.6-11.3-15.7-28-17.7c-17.5-2.1-30.7,1.7-29.6,6.9c2.8,12.4,15.9,16.3,24.5,17.2
							c9.5,1,27.2-3.6,29.5-4.1c-4.7,2.3-17.5,4.9-22.7,5.4c-1.7,0.2-5.2,0.2-6.9,0.2c-13.8-0.4-23.7-7.4-27.3-16.9
							C214.9,236.1,217.5,231.8,222.6,229.7z"/>
					</g>
				</g>
			</g>
			<g id="svga-group-eyes-right-move" transform="matrix(1,0,0,1,0,0)">
				<g id="svga-group-eyes-right" transform="matrix(1,0,0,1,0,0)">
					<g id="svga-group-eyesback-right">
						
							<radialGradient id="SvgjsPath4092_1_" cx="-306.6981" cy="703.2432" r="11.7225" gradientTransform="matrix(2.9835 0.3126 0.3126 -2.9835 1065.7512 2438.7371)" gradientUnits="userSpaceOnUse">
							<stop  offset="0" style="stop-color:#FFFFFF"/>
							<stop  offset="0.316" style="stop-color:#FCFDFD"/>
							<stop  offset="0.505" style="stop-color:#F4F7F8"/>
							<stop  offset="0.661" style="stop-color:#E5ECEF"/>
							<stop  offset="0.76" style="stop-color:#D8E2E7"/>
						</radialGradient>
						<path id="SvgjsPath4092" class="st30" d="M397.3,240.2c1.2-5.3-12.1-9.2-29.6-7.1c-17.5,2.1-29.6,12.9-28,18.2
							c0.9,3,24.8,7.5,33.2,6.6C381.4,257.1,394.4,253.1,397.3,240.2z"/>
					</g>
					<g id="svga-group-eyesiriswrapper-right" transform="matrix(1,0,0,1,-0.25,0.25)">
						<g id="svga-group-eyesiriscontrol-right" transform="matrix(1,0,0,1,0,0)">
							<g id="svga-group-eyesiris-right" transform="matrix(1,0,0,1,0,0)">
								<path id="SvgjsPath4213" class="st21" d="M383.3,244c0,7.7-6.2,14-14,14c-7.7,0-14-6.2-14-14s6.2-14,14-14
									C377.1,230,383.3,236.3,383.3,244z"/>
								<path id="SvgjsPath4214" class="st22" d="M361.3,250.5c2-0.2,0.2-0.7,0.2-0.7c-1-0.5-2.9-1.4-2.9-2.2c0-2.4,3.3-3-0.1-4
									c-3.5-3.2,2.7-3.1,2.6-3.2c-2.3-5.5,0.7-2.5,2-4.1c4.6-6,1.3,0.6,3.8,0c0.9-0.2-1.8-3.6,0.1-3.1c1.3,0.3,1.5,1.3,1.5,1.3
									c0.9-0.2,2.3-1.6,2.3-1.6c1.7,0.5,3,3,2.4,2.5c0.9-0.1,2.1-0.5,3-0.8c0,0,0.2-0.6,0.3-0.1c2.1,6.2,7.6,5.8,1.3,7.5
									c0,0-0.4,0,0.9,1c6.3,5-4.9,3.5,1.1,5.8c0.2-0.2-3.6,2.2-3.6,2.9c0,1.2-2.4,4.2-4.5,3c-1.2-0.7-1.4,1.4-2,0.4
									c-1.3-1.9-4.1-0.1-3.1-1.8c1.5-1.2-1.5,0.5-2.1,0.5c-1.9,0,2.5-6.5,9.1-1.7c1.9,1.4-2-3.3,1.5-3.3c0.3,0.1,0.2-1.2,0.2-1.6
									c-1.8-0.4,3.2,0,3.2-2.9c0.3,0.1,1.2-0.8-3.8,0c0,0-0.2-1.7-0.1-2.1c0.2-1,2.8-0.7,2.1-1.7L375,237c-6-1-2.6-1.6-6.3-0.8
									c-0.2,0.9-8,4.6-7.8,6.4c0.2,1.6,4.9,2.2,0.5,5.1C368,260.4,356.4,247.4,361.3,250.5z"/>
								<path id="SvgjsPath4215" class="st23" d="M369.4,231.8l0.4,10.2l4.3-9.3l-3.5,9.6l7.5-7l-7,7.5l9.6-3.5l-9.3,4.3l10.2,0.4
									l-10.2,0.4l9.3,4.3l-9.6-3.5l7,7.5l-7.5-7l3.5,9.6l-4.3-9.3l-0.4,10.2L369,246l-4.3,9.3l3.5-9.6l-7.5,7l7-7.5l-9.6,3.5
									l9.3-4.3l-10.2-0.4l10.2-0.4l-9.3-4.3l9.6,3.5l-7-7.5l7.5,7l-3.5-9.6l4.3,9.3L369.4,231.8z"/>
								<path id="SvgjsPath4216" class="st24" d="M371.2,234.8l-1.3,7.7l4.6-6.3l-4.1,6.7l6.7-4.1l-6.3,4.6l7.7-1.2l-7.6,1.8
									l7.6,1.9l-7.7-1.3l6.3,4.6l-6.7-4.1l4.1,6.7l-4.6-6.3l1.2,7.7l-1.8-7.6l-1.9,7.6l1.3-7.7l-4.6,6.3l4.1-6.7l-6.7,4.1l6.3-4.6
									l-7.7,1.2l7.6-1.8l-7.6-1.9l7.7,1.3l-6.3-4.6l6.7,4.1l-4.1-6.7l4.6,6.3l-1.2-7.7l1.8,7.6L371.2,234.8z"/>
								<path id="SvgjsPath4217" class="st25" d="M374.6,244c0,2.9-2.3,5.2-5.2,5.2c-2.9,0-5.2-2.3-5.2-5.2c0-2.9,2.3-5.2,5.2-5.2
									C372.3,238.7,374.6,241.1,374.6,244z"/>
								<path id="SvgjsPath4218" class="st26" d="M363.9,254c-0.8,0.8-2.3,0.5-3.4-0.6c-1.1-1.1-1.4-2.6-0.6-3.4
									c0.8-0.8,2.3-0.5,3.4,0.6C364.4,251.7,364.7,253.2,363.9,254z"/>
								<path id="SvgjsPath4219" class="st27" d="M380.6,241.2c-1.1,1.2-4,0.2-6.2-2.1c-2.3-2.3-3.2-5.1-2-6.2
									c1.1-1.2,3.9-0.2,6.2,2.1C380.8,237.3,381.7,240.1,380.6,241.2z"/>
							</g>
						</g>
					</g>
					<g id="svga-group-eyesfront-right">
						<path id="SvgjsPath4127" class="st2" d="M369.9,179.4c-37.3,0-49.2,28.1-49.2,61.7s24.1,52.1,48.5,51.9
							c20.6,3.1,45.8-26.4,47.7-51.7C417,207.7,396.6,179.4,369.9,179.4z M372.8,258c-8.4,0.9-32.3-3.6-33.2-6.6
							c-1.6-5.4,10.5-16.1,28-18.2c17.5-2.1,30.7,1.8,29.6,7.1C394.4,253.1,381.4,257.1,372.8,258z"/>
						
							<radialGradient id="SvgjsPath4128_1_" cx="-753.6567" cy="860.6797" r="12.4104" fx="-744.9307" fy="860.7038" gradientTransform="matrix(-2.9994 6.240000e-02 4.980000e-02 2.3994 -1943.9241 -1777.9303)" gradientUnits="userSpaceOnUse">
							<stop  offset="0" style="stop-color:#E1AC8F"/>
							<stop  offset="0.7" style="stop-color:#E1AC8F;stop-opacity:0.3"/>
							<stop  offset="1" style="stop-color:#F0C7B1;stop-opacity:0"/>
						</radialGradient>
						<path id="SvgjsPath4128" class="st31" d="M372.8,258c-8.4,0.9-32.3-3.6-33.2-6.6c-1.6-5.4,10.5-16.1,28-18.2
							c15-1.8,26.9,0.8,29.2,5c-2.1-14.9-17.9-26.5-37.2-26.6c-20.7-0.1-37.6,13.2-37.6,29.7c0,16.5,16.7,29.9,37.4,30
							c20.7,0.1,37.6-13.2,37.6-29.7c0-0.2,0-0.5,0-0.7C394,253.2,381.2,257.1,372.8,258z"/>
						
							<radialGradient id="SvgjsPath4133_1_" cx="-798.6628" cy="666.4555" r="22.896" gradientTransform="matrix(-3.1008 0 0 -3.1008 -2097.3884 2372.7109)" gradientUnits="userSpaceOnUse">
							<stop  offset="0.95" style="stop-color:#000000;stop-opacity:0"/>
							<stop  offset="1" style="stop-color:#000000;stop-opacity:0.2"/>
						</radialGradient>
						<path id="SvgjsPath4133" class="st32" d="M397.3,240.2c1.2-5.3-12.1-9.2-29.6-7.1c-17.5,2.1-29.6,12.9-28,18.2
							c0.9,3,24.8,7.5,33.2,6.6C381.4,257.1,394.4,253.1,397.3,240.2z"/>
						<path id="SvgjsPath4137" class="st13" d="M396.4,228.3c-9.8-4.6-21.8-5-32.2-2.3c-5.6,1.3-11.6,3-16.4,6.1
							c-4.5,2.6-8.2,5.8-11.6,9.7c3.1-4,6.5-7.3,10.8-9.9c5.3-3.3,11.1-5.3,17.1-6.8C374.7,222.5,386.6,223.1,396.4,228.3z"/>
						<path id="SvgjsPath4138" d="M394.9,229.7c-2-0.8-9.5-2.3-12.7-2.5c-3.9-0.2-11.8,0.3-15.7,1c-7.8,1.4-21.5,5.8-27.2,16.7
							c-1.7,3.4-0.2,5.7,0.3,6.2c-0.7-5.6,11.3-15.7,28-17.7c17.5-2.1,30.7,1.7,29.6,6.9c-2.8,12.4-15.9,16.3-24.5,17.2
							c-9.5,1-27.2-3.6-29.5-4.1c4.7,2.3,17.5,4.9,22.7,5.4c1.7,0.2,5.2,0.2,6.9,0.2c13.8-0.4,23.7-7.4,27.3-16.9
							C402.6,236.1,400.1,231.8,394.9,229.7z"/>
					</g>
				</g>
			</g>
			<g id="svga-group-facehighlight-single">
				
					<radialGradient id="SvgjsPath4051_1_" cx="-336.2573" cy="656.8509" r="31.7959" gradientTransform="matrix(3 0 0 -3 1318 2284)" gradientUnits="userSpaceOnUse">
					<stop  offset="0" style="stop-color:#FFE4D6;stop-opacity:0.5"/>
					<stop  offset="0.9" style="stop-color:#F0C7B1;stop-opacity:0"/>
				</radialGradient>
				<path id="SvgjsPath4051" class="st33" d="M404.6,313.4c0.1,52.6-42.6,95.4-95.2,95.4c-52.7,0.1-95.5-42.5-95.5-95.2
					c-0.1-52.6,42.6-95.5,95.2-95.6C361.8,218,404.5,260.8,404.6,313.4z"/>
				
					<radialGradient id="SvgjsPath4055_1_" cx="-336.2569" cy="703.3811" r="28.6933" gradientTransform="matrix(3 0 0 -3 1318 2284)" gradientUnits="userSpaceOnUse">
					<stop  offset="0" style="stop-color:#FFE4D6;stop-opacity:0.5"/>
					<stop  offset="0.9" style="stop-color:#F0C7B1;stop-opacity:0"/>
				</radialGradient>
				<path id="SvgjsPath4055" class="st34" d="M396.5,173.9c0,48.2-39.1,87.2-87.2,87.2c-48.2,0-87.2-39.1-87.2-87.2
					s39.1-87.2,87.2-87.2C357.4,86.6,396.5,125.7,396.5,173.9z"/>
			</g>
			<g id="svga-group-eyebrows-left-move" transform="matrix(1,0,0,1,0,0)">
				<g id="svga-group-eyebrows-left-rotate" transform="matrix(1,0,0,1,0,0)">
					<g id="svga-group-eyebrows-left" transform="matrix(1,0,0,1,0,0)">
						<path id="SvgjsPath4222" class="st35" d="M202.7,225c49.5-41.4,101.3-10.5,85.4-3C281.9,225,258.4,199.4,202.7,225z"/>
					</g>
				</g>
			</g>
			<g id="svga-group-eyebrows-right-move" transform="matrix(1,0,0,1,0,0)">
				<g id="svga-group-eyebrows-right-rotate" transform="matrix(1,0,0,1,0,0)">
					<g id="svga-group-eyebrows-right" transform="matrix(1,0,0,1,0,0)">
						<path id="SvgjsPath4223" class="st35" d="M415.8,225c-49.5-41.4-101.3-10.5-85.4-3C336.6,225,360.1,199.4,415.8,225z"/>
					</g>
				</g>
			</g>
			<g id="svga-group-nose-single-move" transform="matrix(1,0,0,1,0,0)">
				<g id="svga-group-nose-single" transform="matrix(1,0,0,1,0,0)">
					<path id="SvgjsPath4284" class="st4" d="M301.9,254.2c0,0-3.3,25.9-4.7,30.9c-3.2,11.1-14.3,26.6-12.2,33.6
						c4.3,14,17.5,10.5,24.5,10.4c6.4-0.1,18.8,3.6,21.3-5.5c0.8-2.9-1-10.4-1-10.4s-6.2,7.2-20.6,6.4c-4.1-0.2-10.9-4.9-10.9-11.4
						c-0.1-8.9,4.2-16.4,5.1-25.2C304,276.3,301.9,254.2,301.9,254.2z"/>
					<path id="SvgjsPath4285" class="st13" d="M321.3,325c2.5,0,3.2,0.8,3.2,1.7c0,0.9-0.8,2.4-3.2,1.7c-2.6-0.8-7.2-0.4-7.2-0.4
						S318.8,325,321.3,325z M297.4,325c-2.5,0-3.2,0.8-3.2,1.7c0,0.9,0.8,2.3,3.2,1.7c2.7-0.7,7.2-0.4,7.2-0.4S299.9,325,297.4,325z
						 M329.7,313.1c0,0,3.5,4.5,2.7,9.2c-0.7,4.6-7.7,6.7-7.7,6.7s4.9-3.5,5.4-7.8C330.5,319.2,329.7,313.1,329.7,313.1z M287,308.5
						c0,0-2.5,6.3-1.8,10.1c1.3,6.9,8.6,9.7,8.6,9.7s-4.5-4.7-6.2-8.9C285.8,314.8,287,308.5,287,308.5z"/>
					<path id="SvgjsPath4286" class="st3" d="M321.2,316.5c2.4-2.1,2.7-3.2,2.2-4c-0.5-0.8-2-1.3-4,1.2c-2.2,2.7-7.1,4.8-7.1,4.8
						S318.8,318.6,321.2,316.5z"/>
				</g>
			</g>
			<g id="svga-group-beardwrap" transform="matrix(1,0,0,1,0,0)">
				<g id="svga-group-beard-single-move" transform="matrix(1,0,0,1,0,0)">
					<g id="svga-group-beard-single" transform="matrix(1,0,0,1,0,0)">
						<path id="SvgjsPath4242" class="st35" d="M243.4,347.3c0.6,2.7,0.2,3.8-0.8,5.8C243.3,350,243.4,350,243.4,347.3z M305.9,415
							c0-2.8-1-4.3-3.6-5.2C304.4,411.3,305.4,412.5,305.9,415z M297.1,412.5c-0.1-2.4-0.7-3.9-2.6-5.4
							C295.9,408.9,296.4,410.1,297.1,412.5z M288,409.4c0.2,1.1,1.7,3,3.1,3.5C289.9,412.2,288,409.4,288,409.4z M279.5,405.5
							c0.2,0.6,1.6,4.4,1.9,3.9C281.4,409.4,279.2,404.7,279.5,405.5z M285.3,398.9c-0.6,2.3-0.7,3.7-0.4,6.2
							C285.1,403.7,285.3,400.1,285.3,398.9z M290.3,392.3c-0.2,1.8-0.2,3.7,0,5.4C290.5,396.2,290.6,394.4,290.3,392.3z M293,403.6
							c1.5-2,2.1-3,2.7-5.4C295.3,398.9,293.4,402.7,293,403.6z M301.6,398.1c-0.2,3,0.1,4.3,1.2,6.6
							C301.9,400.8,302.2,402.2,301.6,398.1z M298.1,394.6c1-1.9,1.3-3,1.6-5C299.2,390.6,298.3,393.7,298.1,394.6z M307,391.2
							c-0.2,1.4,0.1,4.1,1.6,3.9C307.5,395.2,307.1,392.2,307,391.2z M298.1,385.3c0.7-1.7,1.3-3.7,1.6-5.4
							C298.9,381.7,298.3,383.5,298.1,385.3z M281.8,389.6c-0.7,2-0.9,3.4-0.8,5.8C281.2,394.4,281.7,390.8,281.8,389.6z
							 M275.2,404.3c1.2-2.3,1.6-3.8,1.9-6.2C276.6,399.4,275.5,402.8,275.2,404.3z M269.8,398.5c-1.3,1.4,0.4,3.9,0.4,3.9
							C270.1,400.7,269.2,399.9,269.8,398.5z M272.1,385.1c0-0.1-0.3,0.5,0.4,6c0.1-5.9-0.4-6.8-0.4-5.8
							C272.1,385.3,272.1,385.2,272.1,385.1z M263.2,390c0.2,3.4,0.1,4.8,0.8,7C263.7,392,263.8,392.3,263.2,390z M257.3,390.4
							c-0.4,1.9-0.5,3.1,0.8,4.7C257.3,393.3,257.3,392.4,257.3,390.4z M247.7,385.3c0-1.2,0-2.6-0.3-3.9
							C247.3,381.2,247.2,383,247.7,385.3z M251.7,386.7l1.4-6.8C252.1,381.6,251.7,386.7,251.7,386.7z M259.7,378.4
							c-1.3,1.2-2,3.9-1.9,5.4C258,382.8,259,379.4,259.7,378.4z M265.9,385c0.6-2.5,0.7-4,0.4-6.6C266,379.9,265.9,383.7,265.9,385
							z M265.5,365.2c-0.5,1.5-0.6,2.2-0.4,3.9C265.1,368.9,265.5,365.3,265.5,365.2z M259.3,371.4c1.1-1.5,0-5.4,0-5.4
							S259.6,370.7,259.3,371.4z M250.8,368.7c0.4,1.9,1.1,4,1.9,5.8C252.3,372.6,251.6,370.5,250.8,368.7z M243,368.7
							c-0.7,4.2-0.1,5.4,0.8,7.7C243.2,373,243.1,372.5,243,368.7z M237.2,364c-0.9,1.5-1.3,5,0.4,7
							C236.6,369.2,236.7,365.4,237.2,364z M239.1,352c0,0-1.2,2.2-1.2,5.4C238.4,355.6,238.9,353.5,239.1,352z M246.5,357.8
							c0,0-1.9,0.1-1.2,5.8C246.2,356.5,246.5,357.8,246.5,357.8z M256.2,360.1c0.6-2,1-4.1,1.2-6.2
							C256.7,355.9,256.3,358,256.2,360.1z M251.5,345.8c-1.1,2.4-1.3,3.4-1.2,5.8L251.5,345.8z M260.8,341.9c-1.6,1.3-2,4.9-1.9,7
							C260,342.6,260.8,341.9,260.8,341.9z M271.3,342.3c-1.9,1.5-2.6,2.6-3.1,5.4C269.1,345.5,269.3,344.7,271.3,342.3z
							 M277.9,348.5c1.5-1.5,3.5-7.7,3.5-7.7C281,339.9,278.4,347.7,277.9,348.5z M289.5,340.8c-1.3,0.3-3.3,6.1-3.9,7.4
							C286.4,347.1,289.5,340.8,289.5,340.8z M296.9,340.4c-1.1,2.3-1.7,3.5-2.3,6.2C295.7,344.4,296.2,342.6,296.9,340.4z
							 M306.2,339.2c-1.8,4-1,2.8-3.1,7C304.4,344.5,305.4,343.1,306.2,339.2z M375.1,347.3c-0.6,2.7-0.2,3.8,0.8,5.8
							C375.1,350,375.1,350,375.1,347.3z M317.3,409.4c-2.6,0.9-3.5,1.6-3.5,4.4C314.3,411.3,315.2,410.8,317.3,409.4z M323.9,408.2
							c-1.9,1.5-2.7,3.5-2.8,5.9C321.9,411.7,322.7,410,323.9,408.2z M327.4,412.9c1.4-0.4,2.9-2.4,3.1-3.5
							C330.5,409.4,328.5,412.2,327.4,412.9z M337.1,409.4c0.3,0.5,1.7-3.3,1.9-3.9C339.3,404.7,337.1,409.4,337.1,409.4z
							 M333.6,405.1c0.3-2.5,0.2-3.9-0.4-6.2C333.2,400.1,333.4,403.7,333.6,405.1z M328.1,397.8c0.2-1.8,0.2-3.7,0-5.4
							C327.9,394.4,327.9,396.2,328.1,397.8z M322.7,398.1c0.7,2.4,1.2,3.5,2.7,5.4C325.1,402.7,323.2,398.9,322.7,398.1z
							 M315.7,404.7c1.1-2.3,1.3-3.6,1.2-6.6C316.3,402.2,316.6,400.8,315.7,404.7z M318.8,389.6c0.2,2,0.6,3.1,1.6,5
							C320.2,393.7,319.3,390.6,318.8,389.6z M312.3,392.7c1.4,0.2,1.7-2.4,1.6-3.9C313.6,389.9,313.3,392.9,312.3,392.7z
							 M318.8,379.9c0.3,1.7,0.8,3.7,1.6,5.4C320.1,383.5,319.6,381.7,318.8,379.9z M337.4,395.4c0.1-2.4-0.1-3.8-0.8-5.8
							C336.8,390.8,337.2,394.4,337.4,395.4z M341.3,398.1c0.3,2.4,0.8,3.9,1.9,6.2C342.9,402.8,341.9,399.4,341.3,398.1z
							 M348.3,402.4c0,0,1.7-2.5,0.4-3.9C349.2,399.9,348.3,400.7,348.3,402.4z M346.4,385.3c0-1-0.5-0.1-0.4,5.8
							c0.7-5.5,0.4-6.2,0.4-6C346.4,385.2,346.4,385.3,346.4,385.3z M354.5,397c0.7-2.2,0.6-3.6,0.8-7
							C354.7,392.3,354.8,392,354.5,397z M360.3,395c1.3-1.5,1.2-2.7,0.8-4.7C361.1,392.4,361.2,393.3,360.3,395z M371.1,381.5
							c-0.3,1.3-0.4,2.7-0.3,3.9C371.3,383,371.1,381.2,371.1,381.5z M365.4,379.9l1.4,6.8C366.8,386.7,366.3,381.6,365.4,379.9z
							 M360.7,383.8c0.1-1.6-0.7-4.2-1.9-5.4C359.5,379.4,360.5,382.8,360.7,383.8z M352.2,378.4c-0.3,2.6-0.2,4.1,0.4,6.6
							C352.6,383.7,352.4,379.9,352.2,378.4z M353.3,369.1c0.2-1.7,0.1-2.4-0.4-3.9C353,365.3,353.3,368.9,353.3,369.1z M359.2,366
							c0,0-1.1,4,0,5.4C358.9,370.7,359.2,366,359.2,366z M365.8,374.5c0.9-1.8,1.6-3.9,1.9-5.8
							C366.8,370.5,366.1,372.6,365.8,374.5z M374.7,376.4c0.9-2.3,1.5-3.6,0.8-7.7C375.4,372.5,375.2,373,374.7,376.4z M380.9,371
							c1.7-2,1.3-5.5,0.4-7C381.7,365.4,381.8,369.2,380.9,371z M380.5,357.4c0-3.3-1.2-5.4-1.2-5.4
							C379.6,353.5,380.1,355.6,380.5,357.4z M373.1,363.6c0.8-5.7-1.2-5.8-1.2-5.8S372.3,356.5,373.1,363.6z M361.1,353.9
							c0.1,2.1,0.5,4.3,1.2,6.2C362.1,358,361.8,355.9,361.1,353.9z M368.1,351.6c0.1-2.4-0.1-3.4-1.2-5.8
							C366.9,345.8,368.1,351.6,368.1,351.6z M359.6,348.9c0.1-2.1-0.4-5.6-1.9-7C357.6,341.9,358.5,342.6,359.6,348.9z
							 M350.2,347.7c-0.5-2.9-1.2-4-3.1-5.4C349.1,344.7,349.3,345.5,350.2,347.7z M337.1,340.8c0,0,2,6.3,3.5,7.7
							C340.1,347.7,337.5,339.9,337.1,340.8z M332.8,348.1c-0.6-1.2-2.6-7.1-3.9-7.4C328.9,340.8,332.1,347.1,332.8,348.1z
							 M323.9,346.6c-0.6-2.7-1.2-3.9-2.3-6.2C322.2,342.6,322.8,344.4,323.9,346.6z M315.3,346.2c-2.1-4.1-1.3-3-3.1-7
							C313,343.1,314,344.5,315.3,346.2z M310.4,401.1c-2.4,3.7-2.3,5.3-2.2,7.6C308.9,405.3,308.8,405.4,310.4,401.1z M304.4,380.8
							c1.2,3.3,1.3,3.7,1.9,6C306.3,384.3,305.7,382.9,304.4,380.8z M311.1,385.8c0.6-2.4,1.8-1.7,3-5
							C312.7,382.9,311.1,383.2,311.1,385.8z"/>
					</g>
				</g>
			</g>
			<g id="svga-group-mustache-single-move" transform="matrix(1,0,0,1,0,0)">
				<g id="svga-group-mustache-single" transform="matrix(1,0,0,1,0,0)">
					<path id="SvgjsPath4243" class="st36" d="M309.2,90.4L309.2,90.4L309.2,90.4L309.2,90.4z"/>
				</g>
			</g>
			<g id="svga-group-hair-front" transform="matrix(1,0,0,1,0,0)">
				<path id="SvgjsPath4293" class="st1" d="M430.6,271.6c-10.1-26.6-5.6-46.6-7.5-86.6c-3-61.5-17.4-53.9-50.6-56.3
					c-51.3-3.7-69.1-27.5-107.3-27.5c-20.7,0-44.8,9.4-63.2,25.6c-14.8,101.2,6.1,92.8-15.7,143.9c-13.8-14.5-15.6-36.9-25.9-66.3
					c-8.2-24.3-6.2-25.6-15.2-37.3c5.8,1,6.4,1,8.9,1c-4.6-10-10.4-27.8-12.6-35.5c5.4-2.6,11.3-9.1,15.1-13.8
					c-2.2-5-3.8-10.6-4.8-15.4c0.2-0.1,1-0.4,1-0.4l0,0c13.2-5.6,15.9-37.1,25.1-45.1c4.5-4.2,8.9-5.9,12.9-8
					c0.5-4.4,0.7-5.3,1.3-8.4c21.9-5.9,28.5-2.8,59.4-11.4c10.6-3,17.9-5,40.3-4.1c8.2,4.1,37.4,24.4,59.3,3.7
					c16.9,10.5,31.6,11.9,52.6,23.9c35.3,20.7,40.1,35.2,38,68.8c24.4,32.5,19,71.1,8.3,109.9C443.3,256.2,436.9,264,430.6,271.6z"
					/>
				<path id="SvgjsPath4294" class="st37" d="M430.2,239c-2.3-18.6,7-34.9,9.3-51.2c-2.3,4.7-7,7-7,11.6c0-16.3,7-30.2,4.7-46.5
					c-2.3,4.7-4.7,7-9.3,9.3c7-16.3,0-34.9-11.6-48.9c2.3,7,4.7,11.6,4.7,18.6c-14-20.9-46.5-23.3-69.8-34.9
					c4.7,7,14,11.6,20.9,16.3c-32.6-11.6-62.8-25.6-93.1-39.6c5.1,5.1,9,14,15.3,17.4c2.7,0.4,2.3,1.2,0,0c-27.9-4-57.3-7-82.8-19.8
					c0,9.3,7,16.3,14,20.9c-7,0-14-7-18.6-4.7c-7,4.7,7,9.3,4.7,14c-7,4.7-14-2.3-20.9-2.3c4.7,7,0,18.6,4.7,25.6
					c-4.7-2.3-9.3-7-9.3-4.7c-2.3,9.3-7,11.6-7,18.6c0,11.6,7,23.3,7,34.9c0-3.7-4.5-3-6.3-4.9c11.7,32.5,11.1,66.8,6.1,101.2
					c0.2,0.2,0.4,0.4,0.6,0.6c21.8-51.1,0.9-42.7,15.7-143.9c18.5-16.2,42.5-25.6,63.2-25.6c38.2,0,56.1,23.7,107.3,27.5
					c33.2,2.4,47.6-5.2,50.6,56.3c1.9,39.9-2.6,59.9,7.5,86.6c0,0,0,0,0,0c1.5-17.2,6.5-33.1,6.5-48.9
					C434.9,227.4,432.5,232,430.2,239z"/>
				<path id="SvgjsPath4295" class="st38" d="M447.1,214.5c-0.7,1.5-5.3,2-5.3,3.5c0-7,8.2-12.2,6.8-23.9c0,0.9-7.3,6.9-8.1,7.8
					c-0.5,2.3,10-24.8,10-33.8c-3.4,5.7-6.4,5.7-6.4,10.4c0-9.3,0-22.9,0-32.2c0,4.7-4.6,11.5-4.6,16.2c2.2-17.4-7.9-37.4-10-54.7
					c-1.2,4.2-3.4,9-1.7,12.6c-7-9.3-4.7-25.6-16.3-32.6c-2.3,4.7-2.3,9.3-4.7,14c-7-9.3-16.3-16.3-20.9-25.6c0,4.7,0,7,0,11.6
					c-11.6-9.3-27.9-14-34.9-27.9c0,4.7,0,11.6,0,16.3c-9.3-2.3-24.4-10.7-29.1-17.7c0,7,8.1,17.7,8.1,24.7
					c-18.6-9.3-32.6-23.3-51.2-32.6c0,4.7,4.7,9.3,2.3,14c-9.3-4.7-27.4-4.7-32-14c0,7,7.2,14,7.2,20.9
					c-20.9-2.3-25.6-8.9-44.8-17.7c-2.3,4.7-4.9,10.7-7.2,15.3c-4.7-4.7-7-9.3-14-9.3c0,7,7,16.3,2.3,23.3c-2.3,2.3-11.6-7-11.6-4.7
					c-4.7,9.3,0,23.3-4.7,32.6c0,2.3-7-4.7-11.6-2.3c9,13.5,2.8,29.2,8.7,42.8c0.2,0.4,0.4,0.9,0.6,1.4c-0.2-0.4-0.4-0.9-0.6-1.4
					c-3-5.6-11.2-6.1-13.4-12.6c0,17,9.7,32,13.1,48.7c1.2,0.7,1.8,2,0.8,4.8c-0.2-1.6-0.5-3.2-0.8-4.8c-1.7-1-4.8-0.8-6.2-2.2
					c11,22,14.4,59.7,18.4,84.6c8.2-35.8,4-73.2-6.1-101.2c-0.4-0.5-0.7-1.1-0.7-2c0.3,0.7,0.5,1.4,0.7,2c1.8,2,6.3,1.2,6.3,4.9
					c0-11.6-7-23.3-7-34.9c0-7,4.7-9.3,7-18.6c0-2.3,4.7,2.3,9.3,4.7c-4.7-7,0-18.6-4.7-25.6c7,0,14,7,20.9,2.3
					c2.3-4.7-11.6-9.3-4.7-14c4.7-2.3,11.6,4.7,18.6,4.7c-7-4.7-14-11.6-14-20.9c25.5,12.7,54.9,15.8,82.8,19.8
					C288,87.8,284.1,79,279,73.8c30.2,14,60.5,27.9,93.1,39.6c-7-4.7-16.3-9.3-20.9-16.3c23.3,11.6,55.8,14,69.8,34.9
					c0-7-2.3-11.6-4.7-18.6c11.6,14,18.6,32.6,11.6,48.9c4.7-2.3,7-4.7,9.3-9.3c2.3,16.3-4.7,30.2-4.7,46.5c0-4.7,4.7-7,7-11.6
					c-2.3,16.3-11.6,32.6-9.3,51.2c2.3-7,4.7-11.6,7-16.3c0,15.8-5,31.6-6.5,48.9c1.9-2.3,3.8-4.6,5.7-7.4
					C436.1,247,443,232.8,447.1,214.5z"/>
				<path id="SvgjsPath4296" class="st1" d="M293.2,90.7c-2.6,0.2-5.7,0.6-11.5-0.2c-15.6-2.2-66.6-4.2-69.4-20.1
					c2.5,7.8,17.2,10,28.4,12.1c0,0,7.9,1.5,20.3,2.9C284.3,88,279.4,89.8,293.2,90.7z M346.2,103.5c-55.6-24.1-51.6-21.4-64.6-29.7
					c17.1,14.3,22.9,14.4,52.6,28c13.8,6.2,16.5,6,35.2,10.4C356.3,107,354.7,107.1,346.2,103.5z M352.5,96.5
					c23.1,19,51.2,14.2,69.2,34.9C407.3,108.5,375.6,110.8,352.5,96.5z M215.9,88.5c-6.2-1.9-9.3-1-12.3,0.9
					c9.8-4.6,20.1,6.8,32,3.5C230.1,93.6,215.9,89,215.9,88.5z M209.3,103.9c-5.4-1.7-12.1-4.6-16.6-4.5c-2.4,0.1-3,1.1-3,1.1
					c2.3-2.6,13,2.6,19.5,3.8c1.8,0.4,3.2,0.3,3.2,0.3S211,104.5,209.3,103.9z M182.8,131.2c1.6-4.4,3.4-8.7,2.9-12.8
					c-0.2-1.5-0.7-2.2-0.7-2.2c1.1,4.6-0.7,7.4-3.9,14.3c-7,15,2.1,26.7,5.7,42.7C185.6,154.9,177,146.8,182.8,131.2z M435.7,155.2
					c0.7,5,0.5,8.4-0.4,16.5c0,0-1.6,13.4-4.9,26.6C435.3,187,439.4,167.8,435.7,155.2z M439.2,191.3c-7.9,21.8-9.2,29.9-10.5,47.1
					C437.4,198.3,433.2,218.4,439.2,191.3z"/>
				<path id="SvgjsPath4297" class="st39" d="M343.8,44.1c-14.3,2.2-29.1,4-55.8-12.2C313.8,43.6,326.3,44.7,343.8,44.1z
					 M375.3,48.7c-14.1-5.1-15.1-11.1-25.7-14.4c9.7,4.4,9.6,10,22.2,15.7c6.1,2.9,27.5,8.8,40.6,17.3
					C400.9,57.1,393.1,55.3,375.3,48.7z M217.6,43.5c27,0.6,31.3-6.3,62.2-9.9C252,33.3,249.1,39.9,217.6,43.5z M288,44.1
					c10.9,1.3,26.5,11,31.4,22.1C315.8,53.8,300.4,44.2,288,44.1z M348.5,47.6c10.8,5.8,14.7,17.9,27.9,20.4
					C363.4,63.7,360.8,52.4,348.5,47.6z M329.9,49.9c2.8,4.7,6.8,9.6,17.4,16.3C334.9,56,332.8,53.9,329.9,49.9z M384,61
					c11.9,1.5,24.3,13.2,25.6,26.2C410.1,74.4,398.6,61.2,384,61z M424.3,80.8c-5.4-6.9-10.1-8.5-12.4-9.4c3.3,1.7,7,4,11.3,10.2
					c0,0,8,10.6,11.4,22.4C432.2,89.9,424.3,80.8,424.3,80.8z M203.1,47.6c0.4-0.9,12.4,4.3,13.3,4.7c2.9,1.1,17.2,6.9,22.1,7.5
					C236.2,59.2,203.2,44.9,203.1,47.6z M183.3,62.2c1.6,2.1,3.4,5.3,4.7,7.5c0,0,0.7,1.2,1.3,2.5c0.6,1.2,1.2,2.5,1.2,2.5
					c1.6,3.6,2.3,5.8,2.4,8.4C193.5,76.2,187.6,66.5,183.3,62.2z M176.3,69.1c-5.9,14.3-5.8,22.6,0,37.2
					C172.7,91.7,171.9,84.7,176.3,69.1z"/>
				<path id="SvgjsPath4298" class="st40" d="M442.4,122.1c0.5-8.1,0.8-13.2,0-21.3c-2.6-23.6-16.8-35.2-38.5-47.9
					c-21.3-12.1-36.1-13.4-53.1-24.1c-21.7,21-51,0.4-59-3.5c-39-1.7-33,5.9-76.2,11.1c-15.9,1.8-22.5,4-22.5,4
					c-0.6,0.2-1.2,0.3-1.8,0.5c-0.5,2.3-0.9,3.8-1.4,8.6c-3.5,1.9-8.1,3.7-12.7,7.9c-9.4,8.2-12.1,40-25.2,45.1v0
					c-0.3,0.1-1,0.4-1.3,0.4c1,4.9,2.8,11.1,4.8,15.8c-3.7,4.6-9.7,11.2-15.1,13.5c1.3,4.6,7.7,25,12.4,35.2c-2.6,0-4.7-0.5-9.5-1.3
					c10.2,13,7.6,13.2,16.2,38.6c10.4,29.8,12.1,52.6,26.7,67.2c13.1-24.8,12-36.3,12.1-45.2c0.3-12.2-5.7-43,4.5-99.6
					c21.5-18.9,52.1-29.7,81-23.1c30.2,6.8,45.4,22.2,88.5,25.3c33.5,2.4,47-5.1,50,55.7c2,40.4-2.7,60.5,8,87.9
					c6.2-7.5,13.1-14.9,20.3-40.6C461.1,194.3,467,155.1,442.4,122.1z M451.2,212.8c-8.1,38.6-12.8,45.6-21.1,58.1
					c-6.7-20.7-4.9-40.6-4.2-61.9c3.5-91.3-19.6-81-53.2-83.6c-41.2-2.8-57.3-18.4-87.8-24.5c-27.9-5.7-58.7,1.8-84.6,26
					c-14.1,63.1,1.3,96.8-11.1,128.8c-2.7,6.8-1,8.6-3,13.6c-10.8-16.2-13.7-39.2-17.2-50.7c-11.1-28.3-10.8-37.6-22.9-51.1
					c3,0.6,6.8,1.1,9.8,0.6c0,0,0,0,0,0c-0.8-2.3-10.5-29-13.4-35.7c5.6-2.7,11-8.7,14.8-13.6c-3-9.5,0.7,4.4-4.9-15.5
					c17.1-5.2,15.4-37.5,32.8-49.3c2.3-1.5,4.4-2.8,6.7-4.3c0.5-4.4,0.2-1.8,1.2-8.4c20.5-4.2,28.8-0.1,58.6-9.4
					c22.5-5.5,38.7-5.3,41-5c14.3,9,22.5,14,39.3,12.9c7.7-0.6,13.9-4.4,19.3-9.9c9.3,7,19.7,11.2,32.5,17.1
					c51.8,23.7,56.4,42.9,56.4,74.9c3.3,4.6,6.8,11.9,8.6,16.7C459.5,164.8,456,190.2,451.2,212.8z"/>
			</g>
			<g id="svga-group-glasses-single-move" transform="matrix(1,0,0,1,0,0)">
				<g id="svga-group-glasses-single" transform="matrix(1,0,0,1,0,0)">
					<path id="SvgjsPath4187" class="st41" d="M309.2,90.4L309.2,90.4L309.2,90.4L309.2,90.4z"/>
				</g>
			</g>
		</g>
	</g>
</g>
<rect id="svga-credit-rect" y="555" class="st42" width="600" height="45"/>
</svg>
