<?xml version="1.0" encoding="utf-8"?>
<!-- Generator: Adobe Illustrator 24.3.0, SVG Export Plug-In . SVG Version: 6.00 Build 0)  -->
<svg version="1.1" id="Layer_1" xmlns="http://www.w3.org/2000/svg" xmlns:xlink="http://www.w3.org/1999/xlink" x="0px" y="0px"
	 viewBox="0 0 600 600" style="enable-background:new 0 0 600 600;" xml:space="preserve">
<style type="text/css">
	.st0{display:none;opacity:0.5;fill:#ECF0F1;enable-background:new    ;}
	.st1{fill:#2F2A4B;}
	.st2{fill:#F0C7B1;stroke:#C27B55;stroke-width:4.5;stroke-miterlimit:12;}
	.st3{fill:#C27B55;}
	.st4{fill:#2A232B;}
	.st5{fill:#F0C7B1;}
	.st6{fill:#FFE4D6;}
	.st7{fill:#E1AC8F;}
	.st8{fill:none;stroke:#C27B55;stroke-width:4.5;stroke-miterlimit:12;}
	.st9{fill:url(#SvgjsPath3438_1_);}
	.st10{fill:#F3F1F3;}
	.st11{fill:#131111;}
	.st12{fill:#F3F1F4;}
	.st13{fill:#CFC8D7;}
	.st14{fill:#E1E0E1;}
	.st15{fill:#0F0F0F;}
	.st16{fill:#E8B9A0;}
	.st17{fill:url(#SvgjsPath3471_1_);}
	.st18{fill:#E0A4A0;}
	.st19{fill:#B2504A;}
	.st20{fill:#E8B4B1;}
	.st21{fill:#EFC6C3;}
	.st22{fill:url(#SvgjsPath3770_1_);}
	.st23{fill:#5C3532;}
	.st24{fill:#6B4845;}
	.st25{fill:#3D1815;}
	.st26{fill:#2E0E0B;}
	.st27{opacity:0.9;enable-background:new    ;}
	.st28{opacity:0.7;fill:#FFFFFF;enable-background:new    ;}
	.st29{opacity:0.9;fill:#FFFFFF;enable-background:new    ;}
	.st30{fill:url(#SvgjsPath3796_1_);}
	.st31{fill:url(#SvgjsPath3801_1_);}
	.st32{fill:url(#SvgjsPath3778_1_);}
	.st33{fill:url(#SvgjsPath3817_1_);}
	.st34{fill:url(#SvgjsPath3822_1_);}
	.st35{fill:url(#SvgjsPath3280_1_);}
	.st36{fill:url(#SvgjsPath3284_1_);}
	.st37{fill:#3A353A;}
	.st38{fill:#26120B;}
</style>
<rect id="svga-credit-rect" y="555" class="st0" width="600" height="45"/>
<g id="rAASm2.tif">
	
		<image style="overflow:visible;" width="301" height="51" id="Layer_0" xlink:href="3810C209B6696A8C.png"  transform="matrix(1 0 0 1 -677.7927 -79.1443)">
	</image>
</g>
<rect y="-1.4" class="st1" width="603.5" height="601.4"/>
<g>
	<g id="svga-group-ears-left-move" transform="matrix(1,0,0,1,0,0)">
		<g id="svga-group-ears-left" transform="matrix(1,0,0,1,0,0)">
			<path id="SvgjsPath3426" class="st2" d="M181.3,244.9c-3.4-5.6-14.4-21-22.9-18.8c-6.9,1.8-6.8,11.3-7.3,17
				c-0.8,8.3-1.1,22.8,1.2,28.7c2.2,5.6,9,16.6,13.3,20.7c5.2,5.1,13.6,21.4,14.7,23c1.6,2.7,4.9,6.5,9.9,6.2
				c7-0.4,13.1-7,13.6-10.2C206.7,294.1,190.1,259.5,181.3,244.9z"/>
			<path id="SvgjsPath3427" class="st3" d="M177.9,279.1c-0.3-1.3,0-3.5,0.4-5.5c0.3-1.9,0.6-3.7,0.4-5c-0.7-4.8-4.4-13.8-6.8-18.7
				c-2.8-5.7-7.3-12.8-13-14.6c-2.3-0.8-3.9,0.1-4.8,1.1c-0.7,0.7-0.8,1.5-0.6,1.6c0.2,0.1,0.7-0.6,1.4-1.2c0.6-0.5-1.2-0.1,0,0
				c-0.5,2.4-2,14.4-0.9,23.1c0.8,6.9,2.4,12,2.9,12.8c0.1,0.8,0.2,1.6,0.4,2.4c2.3,10.1,17.2,23.2,20.6,27c0.6,0.7,1.3,1.1,1.5,0.9
				c0.2-0.2-0.2-0.9-0.9-1.5c-3.4-3.7-18.2-16.8-20.4-26.6c-2.3-10.3,8.9-25.6,10.7-28.8c0.9,1.5,1.7,3,2.3,4.2c0.5,1,1,2.1,1.5,3.3
				c-1.1,1.7-11.7,14-9,23.8c1,3.6,8.7,8.3,11.7,9.6c1.6,0.7,2.3,1.8,3,3c0.8,1.4,0.1,5.1,2.8,6.3c0.6,0.2,1.1,0.3,1.5,0.3
				c0.8,0,1.4-0.3,1.8-0.6c0,0.6,0,1.4,0,2.1c0,1,0.1,1.4,0.3,1.4c0.2,0,0.5-0.4,0.5-1.3c0-1.2,0-2.6-0.2-3.3
				c-0.6-2-2.5-4.3-4.5-6.7C178.7,285.6,178.4,281.1,177.9,279.1z M156.8,270.2c-5.4-15.8,2.9-30.2,4.1-32.4c2.3,0.9,5.8,5,7.4,7.4
				C167.2,247.1,157.1,259.6,156.8,270.2z M181.5,295.4c-2.5-1.1-1.6-4.5-2.4-5.9c-0.7-1.2-1.5-2.5-3.4-3.3
				c-0.4-0.2-0.9-0.4-1.3-0.8c-6.1-13.9,0.7-19.9,2.4-21.2c0.5,1.7,0.9,3.2,1.1,4.5c0.2,1.1-0.1,3-0.4,4.7c-0.3,2.2-0.7,4.4-0.3,5.9
				c0.6,2.2,0.9,6.8,2.9,9.2c1.8,2.2,3.6,4.4,4.2,6.3C184,295.2,183.2,296.1,181.5,295.4z"/>
		</g>
	</g>
	<g>
		<g id="svga-group-hair-back-move" transform="matrix(1,0,0,1,0,0)">
			<g id="svga-group-hair-back" transform="matrix(1,0,0,1,0,0)">
				<path id="SvgjsPath3909" class="st4" d="M306.4,281.8h-2.3v-2.3h2.3V281.8z"/>
			</g>
		</g>
		<g id="svga-group-humanbody-single">
			<path id="SvgjsPath3288" class="st5" d="M523,508.4c-5-10.8-18.7-26.9-33.9-31.3c-18.8-5.5-61.3-12.1-77-15.8
				c-12.6-3-38-25.8-46.9-33.4c-1.6-1.4-2.9-4.2-2.9-6.3c-0.3-24.8,9.6-90.7,9.6-90.7h-66.6h-66.6c0,0,9.9,65.9,9.6,90.7
				c0,2.1-1.3,4.9-2.9,6.3c-8.9,7.7-34.3,30.5-46.9,33.4c-15.7,3.7-58.2,10.5-77,16c-15.2,4.4-28.9,20.3-33.9,31.1
				C79,526.6,77,559.7,77,588.2h228.2h228.2C533.5,559.7,531.5,526.6,523,508.4z"/>
			<path id="SvgjsPath3289" class="st6" d="M440.3,472.5c55.6,8.1,78.9,19.9,86.3,115.8h7c0-28.5-2-61.6-10.5-79.9
				c-5-10.8-18.7-26.9-33.9-31.3c-18.8-5.5-61.3-12.1-77-15.8c-12.6-3-41.6-27.5-49.4-37.3c7.7,10.7,29.2,35.6,48.1,42.1
				C419.8,469.2,427.3,470.6,440.3,472.5z M199.7,466.1c18.9-6.5,40.4-31.4,48.1-42.1c-7.8,9.8-36.8,34.4-49.4,37.3
				c-15.7,3.7-58.2,10.5-77,16c-15.2,4.4-28.9,20.3-33.9,31.1C79,526.6,77,559.7,77,588.2h7c7.3-95.3,30.8-107.7,86.3-115.8
				C183.2,470.6,190.7,469.2,199.7,466.1z"/>
			<path id="SvgjsPath3290" class="st7" d="M295.3,503.4c0,0-11.6-3.7-16.2-5.4c-23.8-9.1-101.3-15.1-101.3-15.1s81.6,3.2,99.6,6.3
				c-1-10.9-6.9-45.7-6.9-45.7s11.8,38.4,14.6,48.1C286.7,496.8,295.3,503.4,295.3,503.4z M320,500.4c-0.2,0.2-0.4,0.4-0.7,0.6
				C319.5,500.8,319.8,500.6,320,500.4z M295.3,503.4c0,0,6.6,6.8,9.9,6.9c4.4,0.1,11-6.6,14-9.4c-2.9,2.2-9.5,3.2-12.1,3.3
				C304.1,504.4,295.3,503.4,295.3,503.4z M343.3,486.3c-3.5,0.6-10,1.8-10,1.8l5.2-34c-1.5,7-10.2,37-18.5,46.3
				c4.4-3.7,14.1-5.5,19-6.2c23.4-3.4,23.4-3.4,93.7-11.3C432.7,482.9,366.3,482.6,343.3,486.3z"/>
			<path id="SvgjsPath3291" class="st8" d="M523,508.4c-5-10.8-18.7-26.9-33.9-31.3c-18.8-5.5-61.3-12.1-77-15.8
				c-12.6-3-38-25.8-46.9-33.4c-1.6-1.4-2.9-4.2-2.9-6.3c-0.3-24.8,9.6-90.7,9.6-90.7h-66.6h-66.6c0,0,9.9,65.9,9.6,90.7
				c0,2.1-1.3,4.9-2.9,6.3c-8.9,7.7-34.3,30.5-46.9,33.4c-15.7,3.7-58.2,10.5-77,16c-15.2,4.4-28.9,20.3-33.9,31.1
				C79,526.6,77,559.7,77,588.2h228.2h228.2C533.5,559.7,531.5,526.6,523,508.4z"/>
		</g>
		<g id="svga-group-chinshadow-single">
			
				<linearGradient id="SvgjsPath3438_1_" gradientUnits="userSpaceOnUse" x1="-337.5815" y1="613.0124" x2="-337.5815" y2="650.2907" gradientTransform="matrix(3 0 0 -3 1318 2284)">
				<stop  offset="0" style="stop-color:#E1AC8F;stop-opacity:0.8"/>
				<stop  offset="0.7" style="stop-color:#C27B55"/>
			</linearGradient>
			<path id="SvgjsPath3438" class="st9" d="M249.4,424.5c15.9,10.4,37.2,20.1,55.9,20.1c17.9,0,39.6-9.8,55.8-20.2
				c-0.3-1-0.5-2-0.5-2.9c-0.3-22.5,7.6-77.6,9.3-89H240.7c1.7,11.3,9.6,66.4,9.3,89C250,422.5,249.7,423.5,249.4,424.5z"/>
		</g>
		<g id="svga-group-clothes-single">
			<path id="SvgjsPath3973" class="st10" d="M371.1,595.5H238.4V467.3c50.8,10.7,84.2,9.9,132.7,0L371.1,595.5L371.1,595.5z"/>
			<path id="SvgjsPath3974" class="st11" d="M322.2,594.9c-6.3,0-24.5,0.5-37.7-0.5l0-0.4c-1.9-42.6,2.6-70.1,10.4-89.7l0.1-0.3
				l-0.2-0.2c-2.1-2.1-5.5-4.4-9.2-6.9c-3.7-2.5-7.5-5.1-9.9-7.4c1.4-1.7,3.2-3.3,5.4-5c0.6-0.3,2.7-1.9,13.6-11.3
				c0.5-0.4,0.8-0.7,0.8-0.7c1.9-0.4,4.9-0.7,8.5-0.7c5,0,10.8,0.5,14.9,1.3c3.6,3.3,7.9,12.2,9.5,16.4c-2.2,5.2-4.9,7.1-8.5,9.8
				c-1.8,1.3-3.8,2.7-6.1,4.8l-0.2,0.2l0,0.3c9.2,46.4,9.2,57.2,9.2,67.7c0,4.6,0,15.1,0.8,22.8
				C323.3,594.9,322.8,594.9,322.2,594.9z"/>
			<path id="SvgjsPath3975" d="M328.9,489.5c-1.7-4.6-6.2-13.5-9.8-16.8c-6.6-1.3-18.2-1.9-23.9-0.5c-0.2,0.2-14.3,12.3-14.4,12
				c-2.1,1.6-4.1,3.4-5.8,5.5c4.7,4.7,15.2,10.4,19.4,14.6c-8.3,21-12.2,49.3-10.4,89.9c0,0.3,0,0.5,0,0.8
				c15.4,1.2,37.8,0.8,40.1,0.5c-2.6-25.8,3.3-23.9-10-91C321.2,498,325.5,497.5,328.9,489.5z M316.9,532.9c0-0.1-0.1-0.2-0.1-0.3
				c4.6,24.1,3.1,42.5,6.6,61.6c-10.8-0.7-27.4-0.1-38.3-0.1c0.8-16.4,2.7-72.3,10.8-90.7c0.4-0.1,0.8-0.2,1.2-0.3l-2.4,79.3l6.3-80
				c0,0,0.1,0,0.1,0l4.1,74.4l1-74.7c0.1,0,0.1,0,0.2,0l9.6,83l-5.2-82.5c0.7,0.1,1.4,0.3,2.1,0.5c0.1,0,0.2,0,0.2,0.1
				C313.3,505.4,315.2,522.3,316.9,532.9z M314.9,501.4c-6.3-2.9-14.5-2.3-20.8,0.5c-3.8-4.1-9.3-7-17.2-12.3c1.3-1.1,2.9-2.4,5-4.1
				c0.2,0,7.9-6.3,8.1-6.5c2.1-1.9,4-4.1,5.8-6c6.7-0.3,16.5,0,22.4,0.3c3.4,4.3,6.7,10.7,9.2,15.8
				C322.8,495.8,318.4,498.7,314.9,501.4z"/>
			<path id="SvgjsPath3976" class="st12" d="M255.5,538.7c-26.3-91.5-14.4-67.5-21.5-103.4c4.6-11,9-23.8,11.5-26.5l0.2-0.2
				c5.2,54.8,20.4,31.1,54.3,63.3C280.7,484.8,262.7,518.3,255.5,538.7z M376.4,435.3c-3.3-8.4-9.3-20.8-11.9-23.6
				c3.3,47.2-34.6,37.8-55.6,59.8c20.1,13,39.2,47.2,46,67.2C385,439.4,368.8,483,376.4,435.3z"/>
			<path id="SvgjsPath3977" class="st13" d="M364.1,410.7c0,11.7-1,20.9-2.9,23.6c-5.6,13.3-29.9,22.5-37.4,26.3
				c-5.7,2.8-11.3,6.4-15.6,11.1c8.7,5.7,13,7.7,29.5,33c9.7,16.2,14.9,28.4,17.3,35.7c30.5-101.2,14.2-57,21.9-105
				C373.3,425.9,366.4,412.7,364.1,410.7z M372.5,455.2c-4.5,41.3-8,33.1-17.7,78c-6.2-19.7-25.3-52.3-44.3-61.8
				c9-6.7,11.5-7.1,22.2-12c32.9-14.7,34.2-28.3,32.3-46.3c2.8,3.2,7.1,14.1,10.7,21.7C373.7,442,372.8,452.3,372.5,455.2z
				 M257.8,444.7c-10.1-8.3-7.2-18.6-11.8-37c-2.1,2.3-7.2,15.1-12.4,27.5c1.3,6.4,1.6,16.9,1.7,20.2c1.3,27.8,4,29.1,20.2,84.8
				c6.9-20.3,26.4-55.6,46.2-68.5C285.8,457.3,265.9,451.8,257.8,444.7z M270.2,502.9c-5.1,8.4-10.3,17.1-14.5,30.3
				c-10.1-46.3-13.7-38.7-17.6-78c-0.7-6.8-1.4-13.8-3.2-20.4c3.7-8.2,9.1-23.5,10.8-25.1c3.1,16.2,0.2,30.7,12.9,38.8
				c6,4.6,25.3,12.1,40,23.6C289.7,477.5,284.9,480.6,270.2,502.9z"/>
			<path id="SvgjsPath3978" class="st14" d="M351.6,531.3l-2.8-6.1c0,0,20.9-64.3,24.5-82.7C375.5,461.6,351.6,531.3,351.6,531.3z
				 M257.1,528.8l3.3-7.4c0,0-19.6-60.4-23.2-78.8C235,461.6,257.1,528.8,257.1,528.8z"/>
			<path id="SvgjsPath3979" d="M361.8,498.8c16.1-47.6,6.3-51.5,14.4-67.3c0.3-0.6,3.2,2.4,3.5,3.7c3,12.9,121.8,39.6,125.5,42.4
				c3.3,2.4,12.9,7.2,12.9,7.2c11.3,20.7,17.7,24.4,20.9,79.8c0.3,7-0.1,26.9-0.1,32.3l-195.3-1.5
				C344.1,577.7,346.3,545.7,361.8,498.8z M248.7,498.8c-16.1-47.6-6.3-51.5-14.4-67.3c-0.3-0.6-3.2,2.4-3.5,3.7
				c-3,12.9-121.8,39.6-125.5,42.4c-3.3,2.4-12.9,7.2-12.9,7.2c-11.3,20.7-17.7,24.4-20.9,79.8c-0.3,7,0.1,26.9,0.1,32.3l195.3-1.5
				C266.4,577.7,264.2,545.7,248.7,498.8z"/>
			<path id="SvgjsPath3980" d="M374.4,486c-10.4,37.4-24.6,71-30.8,109.5c-2,0,3.4-51.8,18.2-96.7c16.1-47.6,6.3-51.5,14.4-67.3
				c0.2-0.3-1.4,4.5-0.5,5.6C375.4,454.8,379.7,468.4,374.4,486z M236.1,486c10.4,37.4,24.6,71,30.8,109.5c2,0-3.4-51.8-18.2-96.7
				c-16.1-47.6-6.3-51.5-14.4-67.3c-0.2-0.3,1.4,4.5,0.5,5.6C235.1,454.8,230.8,468.4,236.1,486z"/>
			<path id="SvgjsPath3981" d="M424.9,477c0,0-5.2,5.8-19.7,15.8c12.1-13.4,17.7-18.8,17.7-18.8L424.9,477z M429.9,504.1l-3.5-3.1
				c-10.4,31.5-17.3,47-29.3,83.6C414.3,551.8,418.5,540.2,429.9,504.1z M187.6,474c0,0,5.6,5.4,17.7,18.8
				c-14.5-10-19.7-15.8-19.7-15.8L187.6,474z M213.4,584.5c-12-36.6-18.9-52.1-29.3-83.6l-3.5,3.1
				C192.1,540.2,196.2,551.8,213.4,584.5z"/>
			<path id="SvgjsPath3982" class="st15" d="M486.5,553c0-26.5,7.1-41.9,21.9-64.2c1.4,0.8,2.1,1.2,3.1,2
				C495.7,510.4,492.6,528.6,486.5,553z M399.5,578.9c14-38.1,18.4-53,27.6-78.5c-2.6-0.8-19.8-6.8-22.4-7.6
				c0.9,2.3,7.1,4.2,17.9,10.7C422.6,503.6,411,538.7,399.5,578.9z M418.3,473.7c0,0-7.7,9.4-15.2,19c7.7-6.1,13.1-12.9,19.8-18.7
				c-9.1-7.7-24-19.5-33.6-27.6C396.9,454.5,418.3,473.7,418.3,473.7z M538.2,597l0.7,0c0-5.3,0.4-25.2,0.1-32.3
				c-3.2-55.4-9.6-59.1-20.9-79.8c0,0-9.6-4.7-12.9-7.2c-3-2.3-88.5-22.6-119.8-36.2c36.5,25,105.6,34.3,126.1,49.2
				C521.4,498,534.7,559.8,538.2,597z M99,490.7c1.2-0.9,1.4-0.8,2.7-1.7c14.8,22.3,22.4,37.5,22.4,64
				C117.9,528.6,113.7,509.6,99,490.7z M187.9,503.6c10.7-6.6,16.9-8.5,17.9-10.7c-2.6,0.8-19.8,6.8-22.4,7.6
				c9.2,25.5,13.7,40.4,27.6,78.5C199.5,538.7,187.9,503.6,187.9,503.6z M221.2,446.4c-9.6,8.1-24.5,19.9-33.6,27.6
				c6.7,5.8,12.1,12.6,19.8,18.7c-7.6-9.6-15.2-19-15.2-19S213.6,454.5,221.2,446.4z M99,490.8c20.4-14.9,89.5-24.2,126.1-49.2
				c-31.3,13.6-116.8,33.9-119.8,36.2c-3.3,2.4-12.9,7.2-12.9,7.2c-11.3,20.7-17.7,24.4-20.9,79.8c-0.3,7,0.1,26.9,0.1,32.3l0.7,0
				C75.8,559.8,89.1,498,99,490.8z"/>
			<path id="SvgjsPath3983" d="M378.9,432.1c-0.1-0.7-1-1.4-1.7-1.5c-0.7-0.1-1,1-1.3,1.6c-8.1,15.8,0.9,19-15.2,66.6
				c-15.5,46.9-17.3,79.6-17.8,97.3l196,0.9c0-5.3,1.1-25.2,0.8-32.3c-3.2-55.4-9.8-59.6-21.1-80.3c0,0-10-5-13.4-7.4
				c-11.2-8.5-1.3,0.1-50.3-13.7c-40.1-11.7-42.3-15-56.8-19.1c-2.9-0.8-9.3-1.9-15.9-6.5C381.7,437.4,379.1,433.4,378.9,432.1z
				 M344,594c8.5-53.8,13.9-67.9,25.8-107.9c8-25.3,3.6-39.7,7.4-51.4c0.2-0.6,1.1-0.6,1.3,0c5.6,14.2,21.1,17.5,43,38.9
				c-13.3,13.3-16.7,16.8-18.4,19.1c2,1,12.7,5.1,22.6,8.9c-0.6,1.8-30.6,86.8-31,87.9c22.8-49.2,25.8-64.4,32.5-89
				c-1.9-1.4-18-7.3-20.7-8.3c9.8-10.1,12.6-12.3,17.2-18.2c3.7,0-36.2-30.4-38.2-32.4c1.1,0.8,6.3,3.2,6.9,3.4
				c33.5,11.8,7,6.5,80.3,27.4c7,1.8,16.8,3.6,24,4.3c0.5,0,12.3,6.2,19.1,9.1c-16.4,17.1-26.9,39.1-29.2,67.3
				c7.3-28.9,11.3-44,30-65.8c17.4,35.2,15.4,30.1,21.1,108.9C490.5,594.3,418.4,593.8,344,594z M228.3,437.8
				c-6.6,4.6-12.9,5.7-15.9,6.5c-14.5,4-16.7,7.3-56.8,19.1c-48.9,13.7-39.1,5.2-50.3,13.7c-3.3,2.4-13.4,7.4-13.4,7.4
				c-11.3,20.7-17.9,24.9-21.1,80.3c-0.3,7,0.8,26.9,0.8,32.3l196-0.9c-0.5-17.8-2.3-50.5-17.8-97.3c-16.1-47.6-7.1-50.8-15.2-66.6
				c-0.3-0.6-0.6-1.7-1.3-1.6c-0.7,0.1-1.6,0.8-1.7,1.5C231.4,433.4,228.9,437.4,228.3,437.8z M73,596.1
				c5.7-78.8,3.7-73.7,21.1-108.9c18.7,21.7,22.6,36.9,30,65.8c-2.3-28.2-12.8-50.3-29.2-67.3c6.7-2.8,18.6-9,19.1-9.1
				c7.2-0.7,17-2.5,24-4.3c73.3-20.9,46.8-15.6,80.3-27.4c0.6-0.2,5.8-2.6,6.9-3.4c-2,2-41.9,32.4-38.2,32.4
				c4.6,5.9,7.4,8.1,17.2,18.2c-2.7,1-18.9,6.9-20.7,8.3c6.7,24.6,9.6,39.8,32.5,89c-0.4-1.1-30.4-86.2-31-87.9
				c9.9-3.8,20.6-7.9,22.6-8.9c-1.7-2.3-5.1-5.9-18.4-19.1c21.9-21.4,37.4-24.7,43-38.9c0.2-0.6,1.1-0.6,1.3,0
				c3.8,11.7-0.6,26.1,7.4,51.4c11.9,40,17.3,54.1,25.8,107.9C192.1,593.8,120,594.3,73,596.1z"/>
		</g>
		<g id="svga-group-ears-right-move" transform="matrix(1,0,0,1,0,0)">
			<g id="svga-group-ears-right" transform="matrix(1,0,0,1,0,0)">
				<path id="SvgjsPath3428" class="st2" d="M428.7,244.9c3.4-5.6,14.4-21,22.9-18.8c6.9,1.8,6.8,11.3,7.3,17
					c0.8,8.3,1.1,22.8-1.2,28.7c-2.2,5.6-9,16.6-13.3,20.7c-5.2,5.1-13.6,21.4-14.7,23c-1.6,2.7-4.9,6.5-9.9,6.2
					c-7-0.4-13.1-7-13.6-10.2C403.3,294.1,419.8,259.5,428.7,244.9z"/>
				<path id="SvgjsPath3429" class="st3" d="M429.2,288c-2,2.4-3.9,4.7-4.5,6.7c-0.2,0.7-0.2,2.1-0.2,3.3c0,0.9,0.3,1.4,0.5,1.3
					c0.2,0,0.4-0.5,0.3-1.4c0-0.7,0-1.5,0-2.1c0.4,0.4,1,0.6,1.8,0.6c0.4,0,0.9-0.1,1.5-0.3c2.7-1.2,2-4.8,2.8-6.3
					c0.7-1.2,1.3-2.3,3-3c3-1.3,10.7-6,11.7-9.6c2.7-9.8-7.9-22.1-9-23.8c0.5-1.2,1.1-2.3,1.5-3.3c0.6-1.2,1.4-2.7,2.3-4.2
					c1.8,3.2,13.1,18.5,10.7,28.8c-2.2,9.7-17,22.8-20.4,26.6c-0.6,0.7-1,1.4-0.9,1.5c0.2,0.2,0.8-0.2,1.5-0.9
					c3.5-3.7,18.3-16.9,20.6-27c0.2-0.8,0.3-1.6,0.4-2.4c0.5-0.8,2.1-5.9,2.9-12.8c1-8.8-0.5-20.8-0.9-23.1c1.2-0.1-0.6-0.5,0,0
					c0.7,0.6,1.2,1.3,1.4,1.2c0.2-0.1,0.1-0.9-0.6-1.6c-0.9-0.9-2.4-1.8-4.8-1.1c-5.7,1.8-10.2,9-13,14.6c-2.4,4.9-6.1,14-6.8,18.7
					c-0.2,1.3,0.1,3.1,0.4,5c0.3,2.1,0.7,4.3,0.4,5.5C431.5,281.1,431.2,285.6,429.2,288z M441.6,245.2c1.5-2.4,5-6.5,7.4-7.4
					c1.2,2.2,9.5,16.6,4.1,32.4C452.9,259.6,442.7,247.1,441.6,245.2z M425.6,294.9c0.6-1.8,2.5-4.1,4.2-6.3c2-2.5,2.4-7.1,2.9-9.2
					c0.4-1.5,0-3.7-0.3-5.9c-0.3-1.8-0.6-3.6-0.4-4.7c0.2-1.2,0.6-2.8,1.1-4.5c1.7,1.2,8.5,7.3,2.4,21.2c-0.5,0.3-0.9,0.6-1.3,0.8
					c-1.9,0.8-2.6,2.1-3.4,3.3c-0.8,1.4,0.1,4.8-2.4,5.9C426.8,296.1,425.9,295.2,425.6,294.9z"/>
			</g>
		</g>
		<g id="svga-group-faceshape-wrap" transform="matrix(1,0,0,1,0,0)">
			<g id="svga-group-faceshape-single">
				<path id="SvgjsPath3435" class="st5" d="M305.3,54.4c-76.7,0.1-139,63.2-138.9,140.8c0,12.3,1.6,24.3,4.6,35.7h0
					c0,0.1,23.5,71.7,29.6,100.5c5.4,25.8,29.6,46.7,40.4,58.1c12.5,13.1,28.1,32.5,64.4,32.3c36.3,0.2,51.9-19.2,64.4-32.3
					c10.9-11.4,35-32.3,40.4-58.1c6.1-28.8,29.5-100.4,29.5-100.5h0c3-11.4,4.6-23.4,4.6-35.7C444.3,117.5,382,54.5,305.3,54.4z"/>
				<path id="SvgjsPath3436" class="st16" d="M381.6,77.6c33.3,25.6,55.1,67.3,55,114.5c0,12.3-1.5,24.3-4.3,35.7h0
					c0,0.1-22.2,71.7-27.9,100.5c-5.1,25.8-28,46.7-38.3,58.1c-11.8,13.1-26.6,32.5-60.9,32.3c-34.3,0.2-49.1-19.2-60.9-32.3
					c-10.3-11.4-33.1-32.3-38.2-58.1c-5.7-28.8-27.9-100.4-28-100.5h0c-2.8-11.4-4.3-23.4-4.3-35.7c-0.1-47.2,21.7-88.9,55-114.5
					c-37.7,25.2-62.6,68.4-62.5,117.5c0,12.3,1.6,24.3,4.6,35.7h0c0,0.1,23.5,71.7,29.6,100.5c5.4,25.8,29.6,46.7,40.4,58.1
					c12.5,13.1,28.1,32.5,64.4,32.3c36.3,0.2,51.9-19.2,64.4-32.3c10.9-11.4,35-32.3,40.4-58.1c6.1-28.8,29.5-100.4,29.5-100.5h0
					c3-11.4,4.6-23.4,4.6-35.7C444.3,146.1,419.4,102.8,381.6,77.6z"/>
				<path id="SvgjsPath3437" class="st8" d="M305.3,54.4c-76.7,0.1-139,63.2-138.9,140.8c0,12.3,1.6,24.3,4.6,35.7h0
					c0,0.1,23.5,71.7,29.6,100.5c5.4,25.8,29.6,46.7,40.4,58.1c12.5,13.1,28.1,32.5,64.4,32.3c36.3,0.2,51.9-19.2,64.4-32.3
					c10.9-11.4,35-32.3,40.4-58.1c6.1-28.8,29.5-100.4,29.5-100.5h0c3-11.4,4.6-23.4,4.6-35.7C444.3,117.5,382,54.5,305.3,54.4z"/>
			</g>
		</g>
		<g id="svga-group-mouth-single-move" transform="matrix(1,0,0,1,0,0)">
			<g id="svga-group-mouth-single" transform="matrix(1,0,0,1,0,0)">
				
					<linearGradient id="SvgjsPath3471_1_" gradientUnits="userSpaceOnUse" x1="-337.268" y1="636.5974" x2="-337.268" y2="639.6405" gradientTransform="matrix(3 0 0 -3 1318 2284)">
					<stop  offset="0.1" style="stop-color:#E8B9A0"/>
					<stop  offset="1" style="stop-color:#E1AC8F"/>
				</linearGradient>
				<path id="SvgjsPath3471" class="st17" d="M306.8,374.2c-13,0-18.2-9.1-18.2-9.1c15.6,5.6,35.2,0.6,35.2,0.6
					S319.8,374.2,306.8,374.2z"/>
				<path id="SvgjsPath3475" class="st18" d="M263.7,350.4c8.1-0.3,24.2-1.4,30.2-1c3.1,0.2,8.1,2.3,11.3,3c2.3,0.5,11-1.9,13.3-1.9
					c6.1,0,19.4,2.9,26.6,4.1c0.4,0.1,0,0,0,0s-17.6,15-40.1,14C279.5,367.4,263.7,350.4,263.7,350.4S263.3,350.4,263.7,350.4z"/>
				<path id="SvgjsPath3476" class="st19" d="M345.8,354.1c-0.2-0.3-1.5-0.6-1.9-0.5c-0.9,0.1-1.5,0.9-3.3,1c-2.1,0.2-13,1.9-16,1.8
					c-6-0.1-12.9,1.3-18.6,1c-5.7-0.3-14.8-2.6-20.7-3.1c-3-0.2-15.1-3-17.1-3.4c-1.7-0.3-1.9-1.2-2.6-1.4c-0.5-0.2-1.9-0.1-2.3,0.2
					c-0.3,0.2-0.2,1.3,0,1.6c0.6,0.7,2.7,1,4.2,1.3c2.1,0.4,14.5,3.3,17.5,3.5c5.9,0.4,15,3,20.8,3.2c5.8,0.3,12.8-1.3,18.7-1.2
					c3.1,0.1,14.1-1.6,16.3-1.8c1.6-0.1,3.6-0.4,4.3-0.9C345.5,355.2,345.9,354.4,345.8,354.1z"/>
				<path id="SvgjsPath3477" class="st20" d="M305.3,365.6c-10.1-0.4-25.9-4.4-32-9.5c3.7,0.4,11.8,1.1,15.5,1.6
					c4.6,0.6,10.9,2.3,15.5,2.7c5,0.5,11.9-0.5,16.8-1c4.1-0.3,10.4-1.5,14.5-1.6C328.6,361.9,315,366.1,305.3,365.6z M321.6,355.1
					c3.7-0.2,9.4-1.4,13-1.5c-4.1-1.1-10.3-1.1-14.6-1.6c-3.8-0.4-9.5,1.6-13.2,1.8c-4.2,0.3-9.2-2.7-13.1-3
					c-4.2-0.3-13.1,0.6-17.2,1.4c3.6,0.4,11.3,1,14.8,1.6c4.3,0.7,10.4,2.2,14.9,2.4C310.6,356.3,317.1,355.3,321.6,355.1z"/>
				<path id="SvgjsPath3478" class="st21" d="M305.3,363.8c-6-0.3-16-2.4-20.3-5.4c1.1,0.1,4.3,0.3,5.4,0.4c0.3,0,0.7,0.1,1,0.1
					c1.7,0.2,3.4,0.7,5.2,1.2c1.7,0.5,5.7,1.1,7.6,1.3c0.4,0,0.8,0.1,1.1,0.1c2.4,0.1,6.8-0.1,9-0.5c1.4-0.2,2.7-0.4,4-0.6
					c0.7-0.1,1.5-0.1,2.4-0.1c0.8,0,1.6,0,2.4,0C319.1,362.4,311.4,364.1,305.3,363.8z"/>
				<path id="SvgjsPath3479" class="st3" d="M258.2,352.5c0,0-1.6-2.7-1.4-3.7c0.3-1.4,4.4-4.2,4.4-4.2s-2.5,3.2-2.8,4.3
					C258,349.8,258.2,352.5,258.2,352.5z"/>
			</g>
		</g>
		<g id="svga-group-eyes-left-move" transform="matrix(1,0,0,1,0,0)">
			<g id="svga-group-eyes-left" transform="matrix(1,0,0,1,0,0)">
				<g id="svga-group-eyesback-left">
					
						<radialGradient id="SvgjsPath3770_1_" cx="-776.5215" cy="667.5637" r="11.5479" gradientTransform="matrix(-2.7444 0.1437 -0.1569 -2.9958 -1782.3082 2355.3623)" gradientUnits="userSpaceOnUse">
						<stop  offset="0" style="stop-color:#FFFFFF"/>
						<stop  offset="0.544" style="stop-color:#FDFEFE"/>
						<stop  offset="0.74" style="stop-color:#F6F8F9"/>
						<stop  offset="0.879" style="stop-color:#EAEFF2"/>
						<stop  offset="0.992" style="stop-color:#D9E3E8"/>
						<stop  offset="1" style="stop-color:#D8E2E7"/>
					</radialGradient>
					<path id="SvgjsPath3770" class="st22" d="M214.9,237.2c2.8-2.7,20.7-6.1,31.1-4.7c16.4,2.2,29.7,16.6,29.7,16.6s-11,7-31.1,8.1
						C231.5,257.9,218.2,249.4,214.9,237.2z"/>
				</g>
				<g id="svga-group-eyesiriswrapper-left" transform="matrix(1,0,0,1,0.25,0)">
					<g id="svga-group-eyesiriscontrol-left" transform="matrix(1,0,0,1,0,0)">
						<g id="svga-group-eyesiris-left" transform="matrix(1,0,0,1,0,0)">
							<path id="SvgjsPath3936" class="st23" d="M259.9,244.1c0,7.6-6.1,13.7-13.7,13.7c-7.6,0-13.7-6.1-13.7-13.7
								c0-7.6,6.1-13.7,13.7-13.7C253.8,230.4,259.9,236.6,259.9,244.1z"/>
							<path id="SvgjsPath3937" class="st24" d="M238.3,250.5c2-0.2,0.2-0.7,0.2-0.7c-1-0.5-2.8-1.4-2.8-2.1c0-2.4,3.2-3-0.1-3.9
								c-3.4-3.1,2.7-3.1,2.6-3.2c-2.2-5.4,0.7-2.4,1.9-4c4.5-5.9,1.3,0.6,3.7,0c0.9-0.2-1.8-3.5,0.1-3c1.2,0.3,1.5,1.3,1.5,1.3
								c0.9-0.2,2.3-1.6,2.3-1.6c1.7,0.5,2.9,2.9,2.4,2.5c0.8-0.1,2-0.5,2.9-0.8c0,0,0.2-0.5,0.3-0.1c2.1,6.1,7.5,5.6,1.3,7.4
								c0,0-0.4,0,0.9,1c6.2,4.9-4.8,3.4,1,5.7c0.2-0.2-3.5,2.2-3.5,2.9c0,1.1-2.4,4.1-4.4,3c-1.2-0.7-1.3,1.4-2,0.4
								c-1.3-1.8-4-0.1-3-1.8c1.4-1.2-1.5,0.5-2.1,0.5c-1.9,0,2.5-6.4,8.9-1.6c1.9,1.4-2-3.3,1.4-3.3c0.3,0.1,0.2-1.2,0.2-1.6
								c-1.8-0.3,3.2,0,3.2-2.9c0.3,0.1,1.2-0.8-3.7,0c0,0-0.2-1.7-0.1-2c0.3-1,2.8-0.7,2.1-1.7c0,0-1.8-3.7-1.8-3.7
								c-5.9-0.9-2.5-1.5-6.2-0.8c-0.2,0.9-7.9,4.5-7.6,6.2c0.2,1.6,4.8,2.1,0.5,5C244.9,260.2,233.5,247.4,238.3,250.5z"/>
							<path id="SvgjsPath3938" class="st25" d="M246.2,232.1l0.4,10l4.2-9.1l-3.5,9.4l7.4-6.8l-6.8,7.4l9.4-3.5l-9.1,4.2l10,0.4
								l-10,0.4l9.1,4.2l-9.4-3.5l6.8,7.4l-7.4-6.8l3.5,9.4l-4.2-9.1l-0.4,10l-0.4-10l-4.2,9.1l3.5-9.4l-7.4,6.8l6.8-7.4l-9.4,3.5
								l9.1-4.2l-10-0.4l10-0.4l-9.1-4.2l9.4,3.5l-6.8-7.4l7.4,6.8l-3.5-9.4l4.2,9.1L246.2,232.1z"/>
							<path id="SvgjsPath3939" class="st26" d="M248.1,235.1l-1.2,7.6l4.5-6.2l-4,6.5l6.6-4l-6.2,4.5l7.6-1.2l-7.5,1.8l7.5,1.8
								l-7.6-1.2l6.2,4.5l-6.5-4l4,6.5l-4.5-6.2l1.2,7.6l-1.8-7.5l-1.8,7.4l1.2-7.6l-4.5,6.2l4-6.5l-6.5,4l6.2-4.5l-7.6,1.2l7.5-1.8
								l-7.4-1.8l7.6,1.2l-6.2-4.5l6.5,4l-4-6.5l4.5,6.2l-1.2-7.6l1.8,7.5L248.1,235.1z"/>
							<path id="SvgjsPath3940" class="st27" d="M251.4,244.1c0,2.8-2.3,5.1-5.1,5.1c-2.8,0-5.1-2.3-5.1-5.1c0-2.8,2.3-5.1,5.1-5.1
								C249.1,239,251.4,241.3,251.4,244.1z"/>
							<path id="SvgjsPath3941" class="st28" d="M240.8,254c-0.8,0.8-2.2,0.5-3.3-0.6c-1.1-1.1-1.4-2.6-0.6-3.3
								c0.8-0.8,2.2-0.5,3.3,0.6C241.3,251.7,241.6,253.2,240.8,254z"/>
							<path id="SvgjsPath3942" class="st29" d="M257.2,241.4c-1.1,1.1-3.9,0.2-6.1-2c-2.3-2.3-3.2-5-2-6.1c1.1-1.1,3.9-0.2,6.1,2
								C257.4,237.5,258.3,240.3,257.2,241.4z"/>
						</g>
					</g>
				</g>
				<g id="svga-group-eyesfront-left">
					<path id="SvgjsPath3795" class="st5" d="M202.9,246.4c0,31.5,28.9,47.9,41.1,47.9c22.7,0,41.1-16.4,41.1-47.9
						c0-31.5-18.4-57.1-41.1-57.1S202.9,214.9,202.9,246.4z M214.9,237.2c2.8-2.7,20.7-6.1,31.1-4.7c16.4,2.2,29.7,16.6,29.7,16.6
						s-11,7-31.1,8.1C231.5,257.9,218.2,249.4,214.9,237.2z"/>
					
						<radialGradient id="SvgjsPath3796_1_" cx="-300.6422" cy="819.1959" r="12.8739" fx="-290.2542" fy="818.9173" gradientTransform="matrix(2.97 0.4233 -0.3255 2.2824 1412.7889 -1506.4076)" gradientUnits="userSpaceOnUse">
						<stop  offset="0" style="stop-color:#E1AC8F"/>
						<stop  offset="0.7" style="stop-color:#E1AC8F;stop-opacity:0.3"/>
						<stop  offset="1" style="stop-color:#F0C7B1;stop-opacity:0"/>
					</radialGradient>
					<path id="SvgjsPath3796" class="st30" d="M245.9,266c21.5,5.1,42.1-3.7,46.1-19.5c4-15.9-10.2-32.9-31.7-37.9
						c-21.5-5.1-42.1,3.7-46.1,19.5C210.2,243.9,224.4,260.9,245.9,266z M214.9,237.2c2.8-2.7,20.7-6.1,31.1-4.7
						c16.4,2.2,29.7,16.6,29.7,16.6s-11,7-31.1,8.1C231.5,257.9,218.2,249.4,214.9,237.2z"/>
					
						<radialGradient id="SvgjsPath3801_1_" cx="-367.8938" cy="666.8379" r="22.4507" gradientTransform="matrix(3.1008 0 0 -3.1008 1378.6033 2372.5378)" gradientUnits="userSpaceOnUse">
						<stop  offset="0.95" style="stop-color:#000000;stop-opacity:0"/>
						<stop  offset="1" style="stop-color:#000000;stop-opacity:0.2"/>
					</radialGradient>
					<path id="SvgjsPath3801" class="st31" d="M214.9,237.2c2.8-2.7,20.7-6.1,31.1-4.7c16.4,2.2,29.7,16.6,29.7,16.6s-11,7-31.1,8.1
						C231.5,257.9,218.2,249.4,214.9,237.2z"/>
					<path id="SvgjsPath3805" class="st3" d="M274.7,240.6c-14.8-9.7-9.3-7.1-37-15.3c7.6,1.1,21.8,4.7,26.7,7.6
						C267.1,234.4,272.5,238.6,274.7,240.6z"/>
					<path id="SvgjsPath3806" d="M211.3,237c4.4,11.2,22.2,31.9,66.8,12.6c-7.1-7.7-25.1-20.8-41.4-20.7
						C223.1,229,215.4,233.3,211.3,237z M214.9,237.4c2.8-2.6,20.7-5.9,31.1-4.6c16.4,2.1,29.7,16,29.7,16s-11,6.8-31.1,7.8
						C231.5,257.4,218.2,249.2,214.9,237.4z"/>
				</g>
			</g>
		</g>
		<g id="svga-group-eyes-right-move" transform="matrix(1,0,0,1,0,0)">
			<g id="svga-group-eyes-right" transform="matrix(1,0,0,1,0,0)">
				<g id="svga-group-eyesback-right">
					
						<radialGradient id="SvgjsPath3778_1_" cx="-294.0956" cy="690.7034" r="11.5479" gradientTransform="matrix(2.7444 0.1437 0.1569 -2.9958 1064.3082 2355.3623)" gradientUnits="userSpaceOnUse">
						<stop  offset="0" style="stop-color:#FFFFFF"/>
						<stop  offset="0.544" style="stop-color:#FDFEFE"/>
						<stop  offset="0.74" style="stop-color:#F6F8F9"/>
						<stop  offset="0.879" style="stop-color:#EAEFF2"/>
						<stop  offset="0.992" style="stop-color:#D9E3E8"/>
						<stop  offset="1" style="stop-color:#D8E2E7"/>
					</radialGradient>
					<path id="SvgjsPath3778" class="st32" d="M394.7,237.2c-2.8-2.7-20.7-6.1-31.1-4.7c-16.4,2.2-29.7,16.6-29.7,16.6
						s11,7,31.1,8.1C378.1,257.9,391.4,249.4,394.7,237.2z"/>
				</g>
				<g id="svga-group-eyesiriswrapper-right" transform="matrix(1,0,0,1,-0.25,0)">
					<g id="svga-group-eyesiriscontrol-right" transform="matrix(1,0,0,1,0,0)">
						<g id="svga-group-eyesiris-right" transform="matrix(1,0,0,1,0,0)">
							<path id="SvgjsPath3943" class="st23" d="M378,244.1c0,7.6-6.1,13.7-13.7,13.7s-13.7-6.1-13.7-13.7s6.1-13.7,13.7-13.7
								C371.8,230.4,378,236.5,378,244.1z"/>
							<path id="SvgjsPath3944" class="st24" d="M356.3,250.5c2-0.2,0.2-0.7,0.2-0.7c-1-0.5-2.9-1.4-2.9-2.1c0-2.4,3.2-3-0.1-3.9
								c-3.5-3.1,2.6-3.1,2.6-3.2c-2.2-5.4,0.7-2.4,1.9-4.1c4.5-5.9,1.3,0.6,3.7,0c0.9-0.2-1.8-3.5,0.1-3c1.2,0.3,1.5,1.3,1.5,1.3
								c0.9-0.2,2.3-1.6,2.3-1.6c1.7,0.5,2.9,2.9,2.4,2.5c0.9-0.1,2-0.5,2.9-0.8c0,0,0.2-0.5,0.3-0.1c2.1,6.1,7.5,5.6,1.3,7.4
								c0,0-0.4,0,0.9,1c6.2,4.9-4.8,3.4,1,5.7c0.2-0.2-3.5,2.2-3.5,2.9c0,1.1-2.4,4.1-4.4,3c-1.2-0.7-1.3,1.4-2,0.4
								c-1.3-1.8-4-0.1-3-1.8c1.4-1.2-1.5,0.5-2.1,0.5c-1.9,0,2.5-6.4,8.9-1.6c1.9,1.4-2-3.3,1.4-3.3c0.3,0.1,0.2-1.2,0.2-1.6
								c-1.8-0.3,3.2,0,3.2-2.9c0.3,0.1,1.2-0.8-3.7,0c0,0-0.2-1.7-0.1-2c0.2-1,2.8-0.7,2.1-1.7l-1.8-3.7c-5.9-0.9-2.5-1.5-6.2-0.8
								c-0.2,0.9-7.9,4.5-7.6,6.2c0.2,1.6,4.8,2.1,0.5,5C362.9,260.2,351.6,247.4,356.3,250.5z"/>
							<path id="SvgjsPath3945" class="st25" d="M364.3,232.1l0.4,10l4.2-9.1l-3.5,9.4l7.4-6.8l-6.8,7.4l9.4-3.5l-9.1,4.2l10,0.4
								l-10,0.4l9.1,4.2l-9.4-3.5l6.8,7.4l-7.4-6.8l3.5,9.4l-4.2-9.1l-0.4,10l-0.4-10l-4.2,9.1l3.5-9.4l-7.4,6.8l6.8-7.4l-9.4,3.5
								l9.1-4.2l-10-0.4l10-0.4l-9.1-4.2l9.4,3.5l-6.8-7.4l7.4,6.8l-3.5-9.4l4.2,9.1L364.3,232.1z"/>
							<path id="SvgjsPath3946" class="st26" d="M366.1,235.1l-1.2,7.6l4.5-6.2l-4,6.5l6.6-4l-6.2,4.5l7.6-1.2l-7.5,1.8l7.5,1.8
								l-7.6-1.2l6.2,4.5l-6.5-4l4,6.6l-4.5-6.2l1.2,7.6l-1.8-7.5l-1.8,7.4l1.2-7.6l-4.5,6.2l4-6.5l-6.6,4l6.2-4.5l-7.6,1.2l7.5-1.8
								l-7.5-1.8l7.6,1.2l-6.2-4.5l6.5,4l-4-6.6l4.5,6.2l-1.2-7.6l1.8,7.5L366.1,235.1z"/>
							<path id="SvgjsPath3947" class="st27" d="M369.4,244.1c0,2.8-2.3,5.1-5.1,5.1s-5.1-2.3-5.1-5.1s2.3-5.1,5.1-5.1
								S369.4,241.3,369.4,244.1z"/>
							<path id="SvgjsPath3948" class="st28" d="M358.9,254c-0.7,0.7-2.2,0.5-3.3-0.6c-1.1-1.1-1.4-2.6-0.6-3.3
								c0.7-0.7,2.2-0.5,3.3,0.6C359.4,251.7,359.6,253.2,358.9,254z"/>
							<path id="SvgjsPath3949" class="st29" d="M375.2,241.4c-1.1,1.1-3.9,0.2-6.1-2c-2.2-2.2-3.2-5-2-6.1c1.1-1.1,3.9-0.2,6.1,2
								C375.5,237.5,376.4,240.3,375.2,241.4z"/>
						</g>
					</g>
				</g>
				<g id="svga-group-eyesfront-right">
					<path id="SvgjsPath3816" class="st5" d="M365.7,189.3c-22.7,0-41.1,25.5-41.1,57.1s18.4,47.9,41.1,47.9
						c16.4,0,41.1-16.4,41.1-47.9C406.7,214.9,388.4,189.3,365.7,189.3z M364.9,257.2c-20-1.1-31.1-8.1-31.1-8.1
						s13.3-14.5,29.7-16.6c10.4-1.4,28.3,2,31.1,4.7C391.4,249.4,378.1,257.9,364.9,257.2z"/>
					
						<radialGradient id="SvgjsPath3817_1_" cx="-739.535" cy="900.5201" r="12.8738" fx="-729.147" fy="900.2416" gradientTransform="matrix(-2.97 0.4233 0.3255 2.2824 -2133.1733 -1506.2384)" gradientUnits="userSpaceOnUse">
						<stop  offset="0" style="stop-color:#E1AC8F"/>
						<stop  offset="0.7" style="stop-color:#E1AC8F;stop-opacity:0.3"/>
						<stop  offset="1" style="stop-color:#F0C7B1;stop-opacity:0"/>
					</radialGradient>
					<path id="SvgjsPath3817" class="st33" d="M395.4,228.1c-4-15.9-24.6-24.6-46.1-19.5c-21.5,5.1-35.7,22.1-31.7,37.9
						c4,15.9,24.6,24.6,46.1,19.5C385.2,260.9,399.4,243.9,395.4,228.1z M364.9,257.2c-20-1.1-31.1-8.1-31.1-8.1
						s13.3-14.5,29.7-16.6c10.4-1.4,28.3,2,31.1,4.7C391.4,249.4,378.1,257.9,364.9,257.2z"/>
					
						<radialGradient id="SvgjsPath3822_1_" cx="-796.0408" cy="666.8379" r="22.4507" gradientTransform="matrix(-3.1008 0 0 -3.1008 -2096.6033 2372.5378)" gradientUnits="userSpaceOnUse">
						<stop  offset="0.95" style="stop-color:#000000;stop-opacity:0"/>
						<stop  offset="1" style="stop-color:#000000;stop-opacity:0.2"/>
					</radialGradient>
					<path id="SvgjsPath3822" class="st34" d="M394.7,237.2c-2.8-2.7-20.7-6.1-31.1-4.7c-16.4,2.2-29.7,16.6-29.7,16.6
						s11,7,31.1,8.1C378.1,257.9,391.4,249.4,394.7,237.2z"/>
					<path id="SvgjsPath3826" class="st3" d="M334.9,240.6c14.8-9.7,9.3-7.1,37-15.3c-7.6,1.1-21.8,4.7-26.7,7.6
						C342.5,234.4,337.1,238.6,334.9,240.6z"/>
					<path id="SvgjsPath3827" d="M372.9,229c-16.3-0.1-34.4,13-41.4,20.7c44.6,19.2,62.4-1.4,66.8-12.6
						C394.2,233.3,386.5,229,372.9,229z M364.9,256.7c-20-1-31.1-7.8-31.1-7.8s13.3-14,29.7-16c10.4-1.3,28.3,2,31.1,4.6
						C391.4,249.2,378.1,257.4,364.9,256.7z"/>
				</g>
			</g>
		</g>
		<g id="svga-group-facehighlight-single">
			
				<radialGradient id="SvgjsPath3280_1_" cx="-337.5818" cy="657.1385" r="31.1923" gradientTransform="matrix(3 0 0 -3 1318 2284)" gradientUnits="userSpaceOnUse">
				<stop  offset="0" style="stop-color:#FFE4D6;stop-opacity:0.5"/>
				<stop  offset="0.9" style="stop-color:#F0C7B1;stop-opacity:0"/>
			</radialGradient>
			<path id="SvgjsPath3280" class="st35" d="M398.8,312.5c0.1,51.6-41.7,93.6-93.4,93.6c-51.7,0.1-93.6-41.7-93.7-93.3
				c-0.1-51.6,41.7-93.7,93.4-93.8C356.8,218.9,398.8,260.9,398.8,312.5z"/>
			
				<radialGradient id="SvgjsPath3284_1_" cx="-337.5815" cy="702.7855" r="28.1486" gradientTransform="matrix(3 0 0 -3 1318 2284)" gradientUnits="userSpaceOnUse">
				<stop  offset="0" style="stop-color:#FFE4D6;stop-opacity:0.5"/>
				<stop  offset="0.9" style="stop-color:#F0C7B1;stop-opacity:0"/>
			</radialGradient>
			<path id="SvgjsPath3284" class="st36" d="M390.8,175.6c0,47.3-38.3,85.6-85.6,85.6c-47.3,0-85.6-38.3-85.6-85.6
				s38.3-85.6,85.6-85.6C352.5,90.1,390.8,128.4,390.8,175.6z"/>
		</g>
		<g id="svga-group-eyebrows-left-move" transform="matrix(1,0,0,1,0,0)">
			<g id="svga-group-eyebrows-left-rotate" transform="matrix(1,0,0,1,0,0)">
				<g id="svga-group-eyebrows-left" transform="matrix(1,0,0,1,0,0)">
					<path id="SvgjsPath3828" class="st4" d="M196.8,221c17.1-21.4,46.4-17.9,70.5-14.4c6.1,0.9,12.4,1.5,18.4,3
						c4.3,1.1,7.7,6,4.2,9.9c-1.6,1.9-5.1,1.5-7.3,1.5C253.8,220.5,221.2,203.9,196.8,221z"/>
				</g>
			</g>
		</g>
		<g id="svga-group-eyebrows-right-move" transform="matrix(1,0,0,1,0,0)">
			<g id="svga-group-eyebrows-right-rotate" transform="matrix(1,0,0,1,0,0)">
				<g id="svga-group-eyebrows-right" transform="matrix(1,0,0,1,0,0)">
					<path id="SvgjsPath3829" class="st4" d="M413.8,220.1c-4.9-3.3-10.2-5.6-16.1-6.6c-21.7-3.5-63,10.9-73.8,7.9
						c-6.6-1.9-5.3-8.5-2.4-10.2c1.8-1,2.3-1,18.1-3.7C366.5,202.9,396.5,199.3,413.8,220.1z"/>
				</g>
			</g>
		</g>
		<g id="svga-group-nose-single-move" transform="matrix(1,0,0,1,0,0)">
			<g id="svga-group-nose-single" transform="matrix(1,0,0,1,0,0)">
				<path id="SvgjsPath3452" class="st7" d="M293.4,257.8c0,0,1.5,5.1,1.6,6.7c0.1,2.6-0.2,4.7-0.4,6.7c-1.3,13.1-8.2,32.2-7.8,41.2
					c0.2,3.9,2.6,9.6,2.6,9.6s-5.8-1.6-7.1-12.7c-0.5-4.6,3.9-13.4,5.5-17.7c1.5-4.1,4.4-17.3,5.4-21.5c0.4-1.8,1.2-3.9,1.2-5.8
					C294.2,262.7,293.4,257.8,293.4,257.8z M292.7,323.1c0,0,0.7,6.1,7.4,7.6c6.3,1.4,9.8-5.5,9.8-5.5s-5.2,3.5-9.3,2.3
					C298.6,326.8,292.7,323.1,292.7,323.1z M316.9,310c0,1.5-0.5,5.7-0.5,5.7s2.1-3.4,2.2-4.7c0.2-2.4-2.4-9.3-2.4-9.3
					S317,307.9,316.9,310z"/>
				<path id="SvgjsPath3453" class="st3" d="M288.1,299.9c-2.8,9.5-4.8,19.6,3.4,24c1.1,0.6,2.2,1,3.4,1.3c0.6,0.1,1.1,0.7,1.7,1.1
					c1.3,0.9,3.4,1,4.8,1.3c5.6,1,11.3-1.4,12.7-7.2c-3.5,5-6.6,6.4-11.3,6c-5.7-0.5-10.5-5.6-12-11.6c-0.9-3.6-1.2-7.1-1-10.9
					c0.2-3.2,1.1-6.3,1.6-9.5c0.9-5.7,3.2-17.6,3.2-23.5c-0.9,4.1-2.6,13.9-3.2,16.3c-0.5,1.8-1.5,5.4-1.9,7.2
					C289.2,295.8,288.5,298.6,288.1,299.9z M287.4,315.8c-0.4-2.8,0.1-5.7,0.7-8.5c0.2,5.4,1.6,11.7,4.9,15.7
					C290.2,321.8,287.9,319.3,287.4,315.8C287.1,313.3,288,320.1,287.4,315.8z"/>
				<path id="SvgjsPath3454" class="st6" d="M295.1,310.7c0.4,1.7,0.1,3.3-0.6,3.5c-0.7,0.2-1.5-0.9-1.8-2.6
					c-0.4-1.7-0.2-3.5,0.5-3.7C293.9,307.7,294.8,309,295.1,310.7z"/>
			</g>
		</g>
		<g id="svga-group-mustache-single-move" transform="matrix(1,0,0,1,0,0)">
			<g id="svga-group-mustache-single" transform="matrix(1,0,0,1,0,0)">
				<path id="SvgjsPath3296" class="st4" d="M305.3,93.8L305.3,93.8L305.3,93.8L305.3,93.8z"/>
			</g>
		</g>
		<g id="svga-group-hair-front" transform="matrix(1,0,0,1,0,0)">
			<path id="SvgjsPath3911" class="st4" d="M179.7,269c-5.5-20.1-8.5-37.7-12.6-56.1l0.2,0c-1.6-3.9-7.2-34.4-7.3-34.7
				c-5.8-40.6,11.4-42.9,11-59.8c7.2,3.6,14.2,1.8,20.6-3.1c-6.7-3.4-4.6-4-13.4-9.3c6.2-1.1,9.9,0.4,15.2,1
				c-4.5-4.5-13.4-13.8-19.2-12.5l-0.4-0.8c8.4-6.5,19.5,7.1,29.6,3.4c0.3-37.4,54.9-45.1,68.2-50.7c17.7-6.7,36.2-21.5,49.2-22.9
				c-7.4,7.4-11.9,19.3-12.2,28.2c10.7-10.2,11.5-9.9,27.7-28c0,14.5-4,16.3-9.2,24.9c14.2-9.3,31.9-35.4,59.1-39.3l0.3,0.8
				c-9.8,5.8-17.4,15.5-22.6,29c5.2-6.2,12.4-13,20.5-14.2l0.3,0.8c-5.1,3-15,13.1-17.2,30c10-11.2,25.9-20.4,36.8-23.9l0.4,0.8
				c-10,8.2-14,22.4-16.3,34.6c7-10.5,11.1-12.8,20-17.2c-2.8,4.3-2.7,3.5-4.9,8.1c5.5,14,23.5,14.5,26.6,38.9
				c3.7-3.3,5.2-4.1,9.5-7.1l0.6,0.6c-3.2,5-5.9,13.8-7.6,19.7c6.3-4.8,16.1-8.4,23-10.9l0.5,0.7c-5.8,5.9-12.9,14.9-14.1,24.7
				c2.3-1.4,2.4-1.2,5.4-3.3c0,7,0.2,6.1,0.3,9.4c2.9-2.6,3.3-2.9,5.2-5c-0.4,73.9-4.2,59.1-14.4,110.6c-1.8,9-5,24.8-7,32.4
				l-13.8,2.4c4.3-51.1-0.2-40,2.9-72.1c4.6-47.4-33.8-86.3-84.5-73.6c-10.3,2.6-51.2,2.6-61.5,0c-56-14.1-76.2,18.7-82.2,76
				c-2.9,28.1-3.7,18.6,0.6,69.8L179.7,269z"/>
			<path id="SvgjsPath3912" class="st37" d="M447.6,130.8c0-3.2-0.3-2.3-0.3-9.4c-3,2.1-3.1,2-5.4,3.3c1.2-9.8,8.2-18.8,14.1-24.7
				l-0.5-0.7c-6.9,2.5-16.7,6.1-23,10.9c1.8-5.9,4.4-14.8,7.6-19.7l-0.6-0.6c-4.3,3-5.8,3.8-9.5,7.1c-3.1-24.4-21.2-25-26.6-38.9
				c2.3-4.6,2.1-3.9,4.9-8.1c-8.8,4.4-12.9,6.8-20,17.2c2.3-12.1,6.3-26.4,16.3-34.6l-0.4-0.8c-10.9,3.5-26.8,12.8-36.8,23.9
				c2.3-16.9,12.2-27,17.2-30l-0.3-0.8c-8.1,1.2-15.4,8-20.5,14.2c5.2-13.5,12.8-23.2,22.6-29l-0.3-0.8c-27.2,4-44.9,30-59.1,39.3
				c5.2-8.5,9.2-10.4,9.2-24.9c-16.3,18.1-17,17.8-27.7,28c0.3-8.9,4.8-20.8,12.2-28.2c-13,1.3-31.5,16.1-49.2,22.9
				c-13.3,5.6-67.9,13.3-68.2,50.7c-10.1,3.7-21.2-9.9-29.6-3.4l0.4,0.8c5.8-1.2,14.7,8,19.2,12.5c-5.3-0.7-8.9-2.1-15.2-1
				c8.8,5.4,6.7,5.9,13.4,9.3c-6.3,4.9-13.4,6.7-20.6,3.1c0.3,16.9-16.8,19.2-11,59.8c0.1,0.3,5.7,30.8,7.3,34.7l-0.2,0
				c4.1,18.4,7.1,36,12.6,56.1l0.1,0c-1.5-37.5-25.2-90.9-11.3-125c1.8-4.5,8.8-16.2,8.8-16.2s22-2.9,23-11.4c0,0-4.6-2.3-6.8-4.6
				c4.6,2.3,4.6-4.6,9.1-2.3c0-4.6-6.8-2.3-6.8-6.8c4.6,0,9.1,0,13.7,4.6c-2.3-11.4,0-22.8,9.1-29.7c22.8-18.3,52.5-16,75.3-34.2
				c-2.3,11.4-4.6,22.8-4.6,34.2c13.7-6.8,18.3-20.5,29.7-29.7c2.3,9.1-2.3,20.5-2.3,29.7c6.8-16,16-32,36.5-36.5
				c-9.1,9.1-9.1,22.8-9.1,34.2c0-9.1,9.1-13.7,11.4-20.5c0,9.1,0,18.3,0,27.4c4.6-13.7,13.7-20.5,25.1-25.1
				c-9.1,9.1-6.8,18.3-9.1,29.7c6.8-6.8,16-9.1,22.8-16c6.8,13.7,2.3,25.1,2.3,38.8c2.3-11.4,13.7-18.3,20.5-27.4
				c2.3,11.4,2.3,22.8,0,34.2c2.3-6.8,6.8-11.4,9.1-18.3c0,11.1-1.5,20.7-4.5,30c2.9-3.3,7.5-4.8,9.1-9.5c0,9.9,0,18,0,27.4
				c1.3-2.7,5.2-3.7,6.8-6.9c-1.9,7.8-0.6,13.9-0.1,21.2c0.8-4.5,5.2-7.2,6.7-11.3c0.1-1.8,0.2-3.6,0.3-5.3c0.5,2.1,0.3,3.8-0.3,5.3
				c-2.1,40.6-5.9,81.1-14.3,120.1l1.5-0.3c2-7.6,5.2-23.4,7-32.4c10.2-51.5,14-36.8,14.4-110.6
				C450.9,127.9,450.5,128.3,447.6,130.8z"/>
			<path id="SvgjsPath3913" d="M460,97.4c-11.3,1.9-19.2,5.6-25.2,9.7c0.9-2.3,5-15.2,9.4-20.7c-6.8,3-10.8,6.3-13.1,8
				c0-2.4-0.9-5.1-1.3-6.5c-0.4-1.2-0.8-2.5-2.9-6c-11.8-16.7-12.5-9.7-22.2-22.4c1.8-4.1,4.3-8.2,7.5-11.5
				c-8.9,1.3-13.6,4.7-19.3,10.3c-0.1,0.1-0.2,0.2-0.2,0.3c3.5-14,10.5-26.1,24.1-30.7c-16.9-0.6-37.7,11.8-48.2,24.3
				c4.5-14.6,10.6-21.5,19.6-28c-6.5-1-12.9,1.7-17.9,5.9c5.8-10,14.4-18,21.3-21.8c-1,0-2.1-0.1-3.4,0c-1.8-0.5-12.5,1.3-16.3,2.9
				c-19,7.4-32.8,24.7-38.8,30.3c4.4-7.1,4.6-12.1,3.8-19.4c-1.5,1.3-26.5,25.2-26.8,25.5c1.8-9.8,5.1-15.8,11.5-24.6
				C310.3,21,282,39.6,264.5,44.6c-18.4,5-63.9,15.3-61.8,51.8c-9.8,1.9-24.2-13.9-31.7-0.7c6-3.6,14,5,19.6,10
				c-2.3-0.4-9.9-2.2-13.6,0.3c4.3,1.7,8.1,6.7,13.4,9.4c0.1,0,0.1,0,0.2,0.1c-4.9,2.6-10.7,4.6-16,3.2c-0.8-0.2-1.3-0.4-1.3-0.4
				c-0.6-0.3-1.3-0.5-2-0.9h0l0,0c-0.3-0.2-0.6-0.3-0.9-0.5c1.6,12.8-17.8,23.2-15.7,50.3c0.9,16.7,11.3,67.3,24.4,101.7l1.1,0.3
				c-5.5-19.7-8.6-38.2-12.7-56.4c-0.4,0-7-34.3-7.1-34.7c-5.7-40.2,11.4-43.2,11.1-59c7.1,3.6,14.9,1,21-3.9c-7.1-3.5-5.6-4.5-13-9
				c4.9-0.9,11,1.1,15.1,1.4c-5.4-5.4-14.4-14.9-20.5-13.6c8.1-6.4,19.4,7.5,29.7,3.3c0-37.4,54.1-44.8,67.9-50.6
				c16.6-6.3,37.2-21.6,47.8-22.7c-5.6,5.6-11.5,18-11.5,28.7c11-10.6,12.1-10.5,27.8-27.9c0,13.7-5.1,16.2-10.1,25
				c14.6-8.4,32.4-36.1,60.5-40.2c-11.8,6.9-19.3,19-23.8,31.9c5.4-7,13.2-14.9,22-16.2c-4.6,2.7-15.7,13.2-17.6,31.8
				c9.9-11.7,26.4-21.3,37.6-24.9c-10.5,8.6-14.5,23.7-16.9,37c3.9-5.9,7.7-11.2,13.6-14.9c0,0,0.1,0,0.1,0c2.3-1.6,1.7-1.2,5.8-3.2
				c-1.5,2.3-1.7,2-4.1,6.9c5.5,14.6,24,14.6,26.8,39.9c4.2-3.8,5.6-4.4,10.1-7.6c-3.5,5.5-6.4,15.4-8.1,21.3
				c6.6-5.7,18.9-9.9,24.1-11.8c-6.8,7-13.5,16.2-14.3,25.9c1.4-0.9,3.2-1.7,5.5-3.3c0,6.2,0.3,5.4,0.3,9.5c1.2-1.1,3.9-3.4,5.2-4.8
				c-0.4,72.4-4.3,58.3-14.4,109.3c-3.8,19.1-5.8,28-7,32.6l1-0.2c8.2-24.5,24.5-80,23.8-108.7c-0.1-10.7-2.4-33.1-2.5-35.4
				c0,0-4.8,4.5-4.8,4.5c0-1.2-0.5-6.1-0.5-8.8c-0.8,0.6-2.5,1.8-4.8,3.1C446.2,114,451,108.1,460,97.4z"/>
		</g>
		<g id="svga-group-glasses-single-move" transform="matrix(1,0,0,1,0,0)">
			<g id="svga-group-glasses-single" transform="matrix(1,0,0,1,0,0)">
				<path id="SvgjsPath3416" class="st38" d="M305.3,93.8L305.3,93.8L305.3,93.8L305.3,93.8z"/>
			</g>
		</g>
	</g>
</g>
</svg>
