<?xml version="1.0" encoding="utf-8"?>
<!-- Generator: Adobe Illustrator 24.3.0, SVG Export Plug-In . SVG Version: 6.00 Build 0)  -->
<svg version="1.1" id="Layer_1" xmlns="http://www.w3.org/2000/svg" xmlns:xlink="http://www.w3.org/1999/xlink" x="0px" y="0px"
	 viewBox="0 0 600 600" style="enable-background:new 0 0 600 600;" xml:space="preserve">
<style type="text/css">
	.st0{fill:#2F294D;}
	.st1{fill:#543C32;}
	.st2{fill:#F0C7B1;}
	.st3{fill:#FFE4D6;}
	.st4{fill:#E1AC8F;}
	.st5{fill:none;stroke:#C27B55;stroke-width:4.5;stroke-miterlimit:12;}
	.st6{fill:url(#SvgjsPath3445_1_);}
	.st7{fill:#CDE6EA;}
	.st8{fill:#F3F8F9;}
	.st9{fill:#AAD4DB;}
	.st10{fill:#8AC2CB;}
	.st11{fill:#6CB1BC;}
	.st12{fill:#F0C7B1;stroke:#C27B55;stroke-width:4.5;stroke-miterlimit:12;}
	.st13{fill:#C27B55;}
	.st14{fill:#E8B9A0;}
	.st15{fill:url(#SvgjsPath3418_1_);}
	.st16{fill:url(#SvgjsPath3565_1_);}
	.st17{fill:#8197C6;}
	.st18{fill:#A0B1D5;}
	.st19{fill:#4C69A7;}
	.st20{fill:#355598;}
	.st21{opacity:0.9;enable-background:new    ;}
	.st22{opacity:0.7;fill:#FFFFFF;enable-background:new    ;}
	.st23{opacity:0.9;fill:#FFFFFF;enable-background:new    ;}
	.st24{fill:url(#SvgjsPath3591_1_);}
	.st25{fill:url(#SvgjsPath3596_1_);}
	.st26{fill:url(#SvgjsPath3573_1_);}
	.st27{fill:url(#SvgjsPath3612_1_);}
	.st28{fill:url(#SvgjsPath3617_1_);}
	.st29{fill:url(#SvgjsPath3280_1_);}
	.st30{fill:url(#SvgjsPath3284_1_);}
	.st31{opacity:0.2;fill:#FFF5EF;enable-background:new    ;}
	.st32{fill:#2A232B;}
	.st33{fill:#634E45;}
	.st34{fill:#26130B;}
	.st35{fill:#26120B;}
	.st36{display:none;opacity:0.5;fill:#ECF0F1;enable-background:new    ;}
</style>
<g id="svga-group-backs-single">
	<path id="SvgjsPath3268" class="st0" d="M600,600H0V0h600V600z"/>
</g>
<g id="svga-group-humanwrap-move" transform="matrix(1,0,0,1,0,0)">
	<g id="svga-group-humanwrap" transform="matrix(1,0,0,1,0,0)">
		<g id="svga-group-hair-back-move" transform="matrix(1,0,0,1,0,0)">
			<g id="svga-group-hair-back" transform="matrix(1,0,0,1,0,0)">
				<path id="SvgjsPath3651" class="st1" d="M309.9,281.2h-2.3v-2.3h2.3V281.2z"/>
			</g>
		</g>
		<g id="svga-group-humanbody-single">
			<path id="SvgjsPath3288" class="st2" d="M529.8,511.2c-5.1-11-19-27.3-34.4-31.8c-19.1-5.6-62.2-12.3-78.1-16
				c-12.8-3-38.6-26.2-47.6-33.9c-1.6-1.4-2.9-4.3-3-6.4c-0.3-25.2,9.7-92,9.7-92h-67.6h-67.6c0,0,10,66.8,9.7,92c0,2.1-1.4,5-3,6.4
				c-9,7.8-34.8,30.9-47.6,33.9c-16,3.7-59,10.7-78.1,16.3c-15.4,4.5-29.3,20.6-34.4,31.6c-8.6,18.5-10.6,52.1-10.6,81.1h231.6
				h231.6C540.4,563.3,538.3,529.7,529.8,511.2z"/>
			<path id="SvgjsPath3289" class="st3" d="M445.8,474.8c56.4,8.2,80.1,20.2,87.5,117.5h7.1c0-29-2-62.5-10.6-81.1
				c-5.1-11-19-27.3-34.4-31.8c-19.1-5.6-62.2-12.3-78.1-16c-12.8-3-42.3-28-50.1-37.9c7.8,10.9,29.6,36.1,48.8,42.8
				C425,471.4,432.6,472.8,445.8,474.8z M201.7,468.2c19.1-6.6,41-31.9,48.8-42.8c-7.9,9.9-37.3,34.9-50.1,37.9
				c-16,3.7-59,10.7-78.1,16.3c-15.4,4.5-29.3,20.6-34.4,31.6c-8.6,18.5-10.6,52.1-10.6,81.1h7.1c7.4-96.7,31.2-109.3,87.5-117.5
				C184.9,472.8,192.5,471.4,201.7,468.2z"/>
			<path id="SvgjsPath3290" class="st4" d="M298.7,506.2c0,0-11.8-3.7-16.4-5.5c-24.2-9.3-102.8-15.3-102.8-15.3s82.8,3.3,101.1,6.4
				c-1.1-11-7-46.3-7-46.3s11.9,38.9,14.8,48.8C289.9,499.5,298.7,506.2,298.7,506.2z M323.7,503.1c-0.2,0.2-0.4,0.4-0.7,0.6
				C323.2,503.5,323.5,503.3,323.7,503.1z M298.7,506.2c0,0,6.7,6.9,10.1,7c4.4,0.1,11.2-6.7,14.2-9.5c-2.9,2.2-9.6,3.2-12.3,3.3
				C307.6,507.1,298.7,506.2,298.7,506.2z M347.3,488.8c-3.6,0.6-10.2,1.8-10.2,1.8l5.3-34.5c-1.5,7.1-10.4,37.5-18.8,47
				c4.4-3.7,14.3-5.5,19.3-6.3c23.7-3.4,23.7-3.4,95.1-11.4C438.1,485.4,370.7,485,347.3,488.8z"/>
			<path id="SvgjsPath3291" class="st5" d="M529.8,511.2c-5.1-11-19-27.3-34.4-31.8c-19.1-5.6-62.2-12.3-78.1-16
				c-12.8-3-38.6-26.2-47.6-33.9c-1.6-1.4-2.9-4.3-3-6.4c-0.3-25.2,9.7-92,9.7-92h-67.6h-67.6c0,0,10,66.8,9.7,92c0,2.1-1.4,5-3,6.4
				c-9,7.8-34.8,30.9-47.6,33.9c-16,3.7-59,10.7-78.1,16.3c-15.4,4.5-29.3,20.6-34.4,31.6c-8.6,18.5-10.6,52.1-10.6,81.1h231.6
				h231.6C540.4,563.3,538.3,529.7,529.8,511.2z"/>
		</g>
		<g id="svga-group-chinshadow-single">
			
				<linearGradient id="SvgjsPath3445_1_" gradientUnits="userSpaceOnUse" x1="-336.4152" y1="613.1619" x2="-336.4152" y2="646.3596" gradientTransform="matrix(3 0 0 -3 1318 2284)">
				<stop  offset="0" style="stop-color:#E1AC8F;stop-opacity:0.8"/>
				<stop  offset="0.7" style="stop-color:#C27B55"/>
			</linearGradient>
			<path id="SvgjsPath3445" class="st6" d="M365,424.2c-0.1-0.4-0.1-0.8-0.1-1.2c-0.2-17.1,4.2-52.6,7.2-74.3
				c-36.4-4.6-90.2-4.6-126.5,0c3,21.7,7.4,57.2,7.2,74.3c0,0.3,0,0.6-0.1,0.9c8.9,8.3,17.8,15.1,25.6,18.9
				c12.3,5.9,48.7,5.6,61.1,0C347.2,439.2,356.1,432.5,365,424.2z"/>
		</g>
		<g id="svga-group-clothes-single">
			<path id="SvgjsPath3675" class="st7" d="M535.3,515.3c-24.3-47-71-40.3-115.7-52.9c-1.1,8.3-30.7,47.4-37.7,69.6
				c-3.9-3.3-8.7-7.7-12.1-11.7c-16.6-19.6-41.3-82.8-49.6-33.4c1.8-22.2,11.6-27.1,25.2-8.5c14.6,20,15.2,30.3,36,52.1
				c3.7-15.3,11.7-26.1,20.9-39.6c9-13.1,15.5-19,16.5-30.7c-3.3-5.6-2.5-8.1-8-11.7c-33.9-23-9.7-46.3-40.5-51.8
				c-0.2,2.8-0.5,5.9-0.8,8.2c6.6,3.4,8.5,16.6-1.6,26.2c-16.1,17.7-42,18.6-48.7,45.7l0,0c-2.1,8.1-3.9,20.4-4.7,27.6l-5.7,57.7
				l-5.7-56.6c-4.6-42.5-10.7-46.7-30.5-59.8c-13.1-8.7-34.6-21.8-27.6-36.7c0.8-1.7,1.8-2.8,3-3.6c-0.3-3.4-0.6-5.4-0.8-8.5
				c-25.4,1.1-21.5,37-40.7,50.2c-5,3.5-7.6,6.7-9.4,11.9c1.2,14.5,33.6,47.4,39.2,71.6c21-22.2,21.2-31.9,35.9-52
				c12.7-17.3,23-15.5,25.2,7.9c-1.2-7-4-17.8-10.2-17.8c-5.1,0-10.3,7.5-12.9,11.1c-14.6,20.1-16.9,34.5-38.6,52.4
				c-1.5-4.5-3.3-9-5.3-13.2c-8.6-17.3-31.8-52.2-34.4-55.6c-10.3,2.9-25.9,6.1-35.3,7.6c-61.4,10.2-85.2,30-94.2,122.8
				c225.1-2.3,316.9-1.3,484.6-1.3C548.8,571.7,544.7,533.6,535.3,515.3z"/>
			<path id="SvgjsPath3676" class="st8" d="M401.3,490.3c-8,11.7-14.4,21.5-18.3,33.9c4.6-25.4,33.4-49.5,30.3-64.7
				c-1.3-6.5-24.4-21-25.6-42.6c6.4,19.8,30.1,33.9,30.1,43.4C417.9,475.7,417.5,466.7,401.3,490.3z M550.8,590.5
				c0.8-20.1-6-59.3-14.3-75.5c-24.3-47-73.1-41-117.8-53.6c-0.4,0.5,1.1,3.8,0.1,5.3C523.2,486,535.1,508.9,550.8,590.5z
				 M206.4,447c12.8-10.6,16.7-21,19.6-30.1c-6.6,37.7-16.5,23.4-23.7,42.3c-4.1,10.8,27.8,40.3,32.1,65
				c-5.7-9.7-11.7-21.6-19.7-33.3c-6.2-9.1-10.2-17.5-16.4-24.5C195.4,450.9,201.5,451.1,206.4,447z M198.4,466.4
				c-1.1-1.4-2.1-2.8-2.5-3.3c-44.7,12.6-89.4,4.9-113.7,51.8c-8.4,16.2-12.6,49.5-14.9,69.6c4.5-24.5,11.1-55.3,25.4-74
				C117,477.9,161.6,471.5,198.4,466.4z"/>
			<path id="SvgjsPath3677" class="st9" d="M354.7,445.4c-11.3,6.5-20.8,12.9-27.1,22c15.2,0.8,26.5,28,29.5,31.7
				c-28.6-39.8-39.4-12.7-42.8,12.6c1-8.2,1.8-22.2,3.4-28.2c0.5-2.4,1-4.7,1.5-6.7l0,0c6.7-27.1,32.6-28,48.7-45.7
				c10.1-9.6,8.2-22.8,1.6-26.2c0.3-2.3,0.6-5.4,0.8-8.2c1.7,0.3,3.2,0.7,4.6,1.1C395.6,416,368.9,439.1,354.7,445.4z M260,445.4
				c11.3,6.5,25,14.3,31.4,22.5c-11.1-2-23.5,14.6-29.6,29.2c26.6-34,34.7-14.7,43.2,14.5c-1-8.2-3.5-22.2-5.2-28.2
				c-0.5-2.4-1-4.7-1.5-6.7l0,0c-6.7-27.1-31.7-28-47.8-45.7c-10.1-9.6-8.4-22.8-1.8-26.2c-0.3-2.3-0.6-5.4-0.8-8.2
				c-1.7,0.3-3.2,0.7-4.6,1.1C225.9,419,247.3,437.7,260,445.4z"/>
			<path id="SvgjsPath3678" class="st10" d="M368.7,426.7c0.1-13.2-0.4-5.9,1-20.8C374.8,408.7,375.5,420,368.7,426.7z M248.9,425.5
				c-5.4-7-6-14.2-0.8-19.7C249.3,417.5,248.7,416.1,248.9,425.5z"/>
			<path id="SvgjsPath3679" class="st11" d="M419.1,458.2c-0.5-8.2-18.1-15-25.9-32.8c-5.6-12.7-0.3-27.2-23.3-29.5
				c-1.3,7.4-2.4,23.6-2,31.5c-11.7,12.6-29.7,15.8-41.2,29.3c-12.2,14.4-17.6,45.6-17.8,110.4l2.9-1.9c0,0,3.2-61.3,3.2-61.5
				c7.1-61.2,29.9-46.8,53.2-72.4c10.5-10,8-23.3,1.7-26.5c0.3-2.6,0.5-5.2,0.8-7.8c19.8,3.6,14.1,15.3,20.3,29.5
				c8.2,18.9,23.8,23.1,24.9,32.2c1.6,14.5-7.1,20.7-15.8,33.4c-13.7,19.8-16.9,29.9-18.8,37.8c-20.8-21.8-20.8-31.4-35.7-51.7
				c-15.9-21.7-26.3-11.5-30.6,25.5c0.4-6.1,8.7-39.8,18.6-33.9c11.4,6.7,22.7,35,36,50.7c3.6,4.2,8.2,8.5,12.4,12
				c7.9-27.6,37.1-56.7,38-70c45.6,12.9,123.8-0.3,130.7,129.6c-95.3,0.5-198.8-1.6-484,1.3c4.1-42.7,11.1-84.6,36.4-103.4
				c10.9-8.1,23.4-12.4,36.4-15.1c18.1-3.7,38.3-6.1,56.2-11c1.8,2.3,32.9,49.1,39.9,68.6c25.2-19.7,35.2-56.6,49.1-63
				c9.6-4.4,17.5,27.6,18,33.7c-3.8-39.1-16.1-51.9-39.4-11.4c-11.5,20-14.5,25.4-26.8,38.2c-4.9-20.8-39.1-60.1-37.6-71
				c1.5-10.8,14.6-7.8,23.4-30.7c4.9-12.8,3.8-27,24.8-31.2c0.2,2.7,0.5,5.4,0.8,8.1c-5.7,3.8-7.2,16.5,2,25.3
				c8.3,9.5,23.2,14.9,33,22.4c11.6,9,16.2,18.1,19.9,50.2c0.1,0.7,3.2,62.4,3.2,62.4l3.1,1.5c-1.5-64.5-7.7-103.2-20.2-114.1
				c-10.8-9.6-29.6-15.7-38.7-26.5c0.3-8.1-1.3-24.4-2.3-30.5c-20.9,2.1-21.5,15.4-25.9,26.9c-12,30.9-23.5,22.1-25.4,34.9
				c-0.2,1.2,0.1,2.1,0.4,3.7c-17.6,3.6-39.5,5.9-57.1,9.2c-26.3,4.8-51.1,18.7-62.4,45.1c-8.6,20-11.1,55.7-11.7,77.7
				c0,0.2,0,0.3,0,0.5c0.4,0,0.7,0,1.1,0c302.2,3.2,482.8-1.3,485.3-1.3C552.8,469,485.2,474.4,419.1,458.2z M368.9,426
				c0-6.8,0.2-14.7,0.7-20.1C373.4,408.6,376.2,417.3,368.9,426z M248.7,425c-6.1-8-3.7-15.8-0.9-18.5
				C248.4,411.9,248.6,419.6,248.7,425z"/>
		</g>
		<g id="svga-group-head" transform="matrix(1,0,0,1,0,0)">
			<g id="svga-group-ears-left-move" transform="matrix(1,0,0,1,0,0)">
				<g id="svga-group-ears-left" transform="matrix(1,0,0,1,0,0)">
					<path id="SvgjsPath3670" class="st12" d="M182.4,240.1c-3.4-5.6-15.4-17.5-23.9-15.3c-6.9,1.8-14,7.5-14,17.3
						c0,15.2,3.5,21.6,5.8,28.5c2,5.9,9.1,16.6,13.3,20.8c5.3,5.1,13.8,21.7,14.8,23.3c1.6,2.7,4.3,6.9,9.4,7.1
						c7.6,0.2,16.4-4.9,17-8.1C207.8,296.3,191.2,254.7,182.4,240.1z"/>
					<path id="SvgjsPath3671" class="st13" d="M178.1,278c-0.3-1.3,0-3.5,0.4-5.6c0.3-1.9,0.6-3.7,0.4-5c-0.7-4.8-4.4-13.9-6.8-18.8
						c-2.8-5.7-9.5-12.8-15.2-14.6c-2.3-0.8-3.9,0.1-4.8,1.1c-0.7,0.7-0.8,1.5-0.6,1.6s0.7-0.6,1.4-1.2c0.6-0.5,1.4-0.9,2.6-0.9
						c-0.5,2.4-7.3,9.8-3.2,24.1c1.9,6.7,4.6,12.1,5.1,12.9c0.1,0.8,0.2,1.6,0.4,2.4c2.3,10.1,16.9,26.7,20.3,30.5
						c0.6,0.7,1.3,1.1,1.5,0.9c0.2-0.2-0.2-0.9-0.9-1.6c-3.4-3.7-17.9-20.3-20.1-30.1c-4.1-17.8,4.4-18.1,10.4-28.9
						c0.9,1.5,1.7,3,2.3,4.2c0.5,1,1,2.1,1.5,3.3c-1.1,1.7-11.7,14-9,23.9c1,3.6,8.8,8.3,11.7,9.6c1.6,0.7,2.3,1.8,3,3
						c0.8,1.4,1.8,6.5,4.5,7.6c0.6,0.2,1.1,0.3,1.5,0.3c0.8,0,1.4-0.3,1.8-0.6c0,0.6,0,1.4,0,2.2c0,1,0.1,1.7,0.3,1.8
						c0.2,0,0.5-0.7,0.5-1.7c0-1.2,0-2.6-0.2-3.3c-0.6-2-2.5-4.3-4.5-6.8C180.6,285.9,178.6,279.9,178.1,278z M157.3,269
						c-5.4-15.8,2.3-29.5,3.5-31.7c2.1,1.8,6.2,4.3,7.7,6.6C161.3,256.5,157.8,247.8,157.3,269z M183.4,295.6
						c-2.5-1.1-3.3-5.9-4.1-7.3c-0.7-1.2-1.5-2.5-3.4-3.3c-0.4-0.2-0.9-0.4-1.3-0.8c-8.9-13.3,0.7-20,2.4-21.2
						c0.5,1.7,0.9,3.3,1.1,4.5c0.2,1.1-0.1,3-0.4,4.7c-0.3,2.2-0.7,4.4-0.3,5.9c0.6,2.2,2.6,8.2,4.7,10.6c1.8,2.2,3.6,4.4,4.3,6.3
						C185.9,295.5,185.1,296.3,183.4,295.6z"/>
				</g>
			</g>
			<g id="svga-group-ears-right-move" transform="matrix(1,0,0,1,0,0)">
				<g id="svga-group-ears-right" transform="matrix(1,0,0,1,0,0)">
					<path id="SvgjsPath3672" class="st12" d="M434.5,240.1c3.4-5.6,15.4-17.5,23.9-15.3c6.9,1.8,14,7.5,14,17.3
						c0,15.2-3.5,21.6-5.8,28.5c-2,5.9-9.1,16.6-13.3,20.8c-5.3,5.1-13.8,21.7-14.8,23.3c-1.6,2.7-4.3,6.9-9.4,7.1
						c-7.6,0.2-16.4-4.9-17-8.1C409.1,296.3,425.7,254.7,434.5,240.1z"/>
					<path id="SvgjsPath3673" class="st13" d="M434.3,288.3c-2,2.4-3.9,4.7-4.5,6.8c-0.2,0.7-0.2,2.1-0.2,3.3c0,0.9,0.3,1.7,0.5,1.7
						c0.2,0,0.4-0.8,0.3-1.8c0-0.7,0-1.5,0-2.2c0.4,0.4,1,0.6,1.8,0.6c0.4,0,0.9-0.1,1.5-0.3c2.7-1.2,3.7-6.2,4.5-7.6
						c0.7-1.2,1.3-2.3,3-3c3-1.3,10.7-6,11.7-9.6c2.7-9.9-7.9-22.2-9-23.9c0.5-1.2,1.1-2.3,1.5-3.3c0.6-1.2,1.4-2.7,2.3-4.2
						c6,10.7,14.5,11.1,10.4,28.9c-2.2,9.7-16.7,26.3-20.1,30.1c-0.6,0.7-1,1.4-0.9,1.6c0.2,0.2,0.8-0.2,1.5-0.9
						c3.5-3.8,18.1-20.4,20.3-30.5c0.2-0.8,0.3-1.6,0.4-2.4c0.5-0.8,3.2-6.2,5.1-12.9c4.1-14.3-2.7-21.7-3.2-24.1
						c1.2-0.1,2,0.3,2.6,0.9c0.7,0.6,1.2,1.3,1.4,1.2c0.2-0.1,0.1-0.9-0.6-1.6c-0.9-0.9-2.4-1.8-4.8-1.1c-5.7,1.8-12.4,9-15.2,14.6
						c-2.4,4.9-6.2,14-6.8,18.8c-0.2,1.3,0.1,3.1,0.4,5c0.3,2.1,0.7,4.3,0.4,5.6C438.3,279.9,436.3,285.9,434.3,288.3z M448.4,244
						c1.5-2.4,5.6-4.8,7.7-6.6c1.2,2.2,8.9,15.8,3.5,31.7C459.1,247.8,455.6,256.5,448.4,244z M430.7,295.1c0.6-1.8,2.5-4.1,4.3-6.3
						c2-2.5,4.1-8.5,4.7-10.6c0.4-1.5,0-3.7-0.3-5.9c-0.3-1.8-0.6-3.6-0.4-4.7c0.2-1.2,0.6-2.8,1.1-4.5c1.7,1.2,11.3,7.9,2.4,21.2
						c-0.5,0.3-0.9,0.6-1.3,0.8c-1.9,0.8-2.7,2.1-3.4,3.3c-0.8,1.4-1.6,6.2-4.1,7.3C431.8,296.3,431,295.5,430.7,295.1z"/>
				</g>
			</g>
			<g id="svga-group-faceshape-wrap" transform="matrix(1,0,0,1,0,0)">
				<g id="svga-group-faceshape-single">
					<path id="SvgjsPath3442" class="st2" d="M410.7,342.6c-11.6,23.7-46.4,65.9-71.3,77c-12.4,5.6-48.8,5.9-61.1,0
						c-24.7-11.7-59.7-53.4-71.3-77c-13-26.3-34.4-112.5-34.4-112.6c-3-11.6-4.6-23.7-4.6-36.2C167.7,115.1,230.7,51.2,308.5,51
						c77.9-0.1,141.1,63.6,141.2,142.3c0,12.5-1.5,24.6-4.5,36.2C445.2,229.7,423.6,316.1,410.7,342.6z"/>
					<path id="SvgjsPath3443" class="st14" d="M332.3,53c62.5,14.7,109.1,71.4,109,139.1c0,12.5-1.6,24.6-4.6,36.2
						c0,0.1-19.9,86.3-32.7,112.6c-11.3,23.2-45.6,63.6-69.6,75.3c-5,2.4-20.1,3.6-25.5,3.6c-5.3,0-20.5-1.2-25.5-3.6
						c-24-11.7-58.4-52.2-69.6-75.3c-12.8-26.3-32.7-112.5-32.7-112.6c-3-11.6-4.6-23.7-4.6-36.2c-0.1-67.7,46.5-124.4,109-139.1
						c-66.8,11.3-117.6,70.1-117.5,140.8c0,12.5,1.6,24.6,4.6,36.2c0,0.1,21.4,86.3,34.4,112.6c11.7,23.6,46.8,65,71.3,77
						c6.2,3,21.6,4.3,30,4.3c8.4,0,25-1.3,31.1-4.3c24.5-12,59.6-53.4,71.3-77c13-26.3,34.4-112.5,34.4-112.6
						c3-11.6,4.6-23.7,4.6-36.2C449.8,123.1,399,64.4,332.3,53z"/>
					<path id="SvgjsPath3444" class="st5" d="M410.7,342.6c-11.6,23.7-46.4,65.9-71.3,77c-12.4,5.6-48.8,5.9-61.1,0
						c-24.7-11.7-59.7-53.4-71.3-77c-13-26.3-34.4-112.5-34.4-112.6c-3-11.6-4.6-23.7-4.6-36.2C167.7,115.1,230.7,51.2,308.5,51
						c77.9-0.1,141.1,63.6,141.2,142.3c0,12.5-1.5,24.6-4.5,36.2C445.2,229.7,423.6,316.1,410.7,342.6z"/>
				</g>
			</g>
			<g id="svga-group-mouth-single-move" transform="matrix(1,0,0,1,0,0)">
				<g id="svga-group-mouth-single" transform="matrix(1,0,0,1,0,0)">
					
						<linearGradient id="SvgjsPath3418_1_" gradientUnits="userSpaceOnUse" x1="-336.1256" y1="635.5511" x2="-336.1256" y2="637.8672" gradientTransform="matrix(3 0 0 -3 1318 2284)">
						<stop  offset="0.1" style="stop-color:#E8B9A0"/>
						<stop  offset="1" style="stop-color:#E1AC8F"/>
					</linearGradient>
					<path id="SvgjsPath3418" class="st15" d="M300,370.9l19.2-0.5C317,380.8,301.5,379.3,300,370.9z"/>
					<path id="SvgjsPath3422" class="st13" d="M300.3,371.6c-0.9-0.1-0.7-1.3,0.2-1.3c0.1,0,10,1.3,18.2-0.5
						c0.9-0.2,1.2,1.1,0.3,1.2C312.5,372.5,304.2,372.1,300.3,371.6z M308.9,363.3c-3.5,0-6.9-1.2-10.2-1.8
						c-3.8-0.7-7.6-0.1-11.4,0.2c-3.9,0.3-12.4,0-14.7-1.5c-1.3-0.9-1.1-2.8,0.4-3.4c1.4-0.5,3.6,0.5,5.1,0.8
						c6.7,1.2,10.2-0.1,16-0.3c8.9-0.3,9.9,3.5,21,1.2c12-2.4,17.4-0.6,25.9-3.2c1.2-0.4,2.6-1.3,3.8-0.7c1.4,0.7,1.4,2.7-0.1,3.4
						c-7.9,3.5-16.6,2.1-25.4,3.5C315.9,362.3,312.4,363.3,308.9,363.3z"/>
				</g>
			</g>
			<g id="svga-group-eyes-left-move" transform="matrix(1,0,0,1,0,0)">
				<g id="svga-group-eyes-left" transform="matrix(1,0,0,1,0,0)">
					<g id="svga-group-eyesback-left">
						
							<radialGradient id="SvgjsPath3565_1_" cx="-749.4615" cy="675.3284" r="9.913" gradientTransform="matrix(-3.1776 1.200000e-03 1.200000e-03 -2.7954 -2134.5142 2128.2524)" gradientUnits="userSpaceOnUse">
							<stop  offset="0" style="stop-color:#FFFFFF"/>
							<stop  offset="0.544" style="stop-color:#FDFEFE"/>
							<stop  offset="0.74" style="stop-color:#F6F8F9"/>
							<stop  offset="0.879" style="stop-color:#EAEFF2"/>
							<stop  offset="0.992" style="stop-color:#D9E3E8"/>
							<stop  offset="1" style="stop-color:#D8E2E7"/>
						</radialGradient>
						<path id="SvgjsPath3565" class="st16" d="M269.5,254.9c-7.6-1.8-11.5,2.5-22.7,2.7c-18.7,0.4-23-1.4-25.9-6.1
							c-1.2-1.9-2.4-4.5-2.9-6l-0.2-9.6c3.1-9.1,45.3-10.1,60,4.1c0.7,1.5,1,3,1.1,4.3c-0.4,2.2-1.2,4.3-2.2,6.4
							C275,252.5,272.5,254,269.5,254.9z"/>
					</g>
					<g id="svga-group-eyesiriswrapper-left" transform="matrix(1,0,0,1,0.25,0.25)">
						<g id="svga-group-eyesiriscontrol-left" transform="matrix(1,0,0,1,0,0)">
							<g id="svga-group-eyesiris-left" transform="matrix(1,0,0,1,0,0)">
								<path id="SvgjsPath3633" class="st17" d="M262.8,243.3c0,7.7-6.2,13.9-13.9,13.9S235,251,235,243.3
									c0-7.7,6.2-13.9,13.9-13.9S262.8,235.7,262.8,243.3z"/>
								<path id="SvgjsPath3634" class="st18" d="M240.8,249.8c2-0.2,0.2-0.7,0.2-0.7c-1-0.5-2.9-1.4-2.9-2.1c0-2.4,3.3-3-0.1-3.9
									c-3.5-3.2,2.7-3.1,2.7-3.2c-2.3-5.5,0.7-2.5,1.9-4.1c4.6-6,1.3,0.6,3.8,0c0.9-0.2-1.8-3.5,0.1-3.1c1.2,0.3,1.5,1.3,1.5,1.3
									c0.9-0.2,2.3-1.6,2.3-1.6c1.7,0.5,3,3,2.4,2.5c0.9-0.1,2-0.5,3-0.8c0,0,0.2-0.6,0.3-0.1c2.1,6.2,7.6,5.7,1.3,7.5
									c0,0-0.4,0,0.9,1c6.3,5-4.9,3.5,1,5.8c0.2-0.2-3.5,2.2-3.5,2.9c0,1.2-2.4,4.2-4.5,3c-1.2-0.7-1.3,1.4-2,0.4
									c-1.3-1.9-4-0.1-3-1.8c1.5-1.2-1.5,0.5-2.1,0.5c-1.9,0,2.5-6.4,9-1.7c1.9,1.4-2-3.3,1.4-3.3c0.3,0.1,0.2-1.2,0.2-1.6
									c-1.8-0.3,3.2,0,3.2-2.9c0.3,0.1,1.2-0.8-3.8,0c0,0-0.2-1.7-0.1-2.1c0.3-1,2.8-0.7,2.1-1.7c0,0-1.9-3.7-1.9-3.7
									c-6-1-2.6-1.6-6.3-0.8c-0.2,0.9-8,4.6-7.7,6.3c0.2,1.6,4.9,2.2,0.5,5.1C247.5,259.7,236,246.7,240.8,249.8z"/>
								<path id="SvgjsPath3635" class="st19" d="M248.9,231.2l0.4,10.2l4.3-9.2l-3.5,9.5l7.5-6.9l-6.9,7.5l9.6-3.5l-9.2,4.3
									l10.2,0.4l-10.2,0.4l9.2,4.3l-9.6-3.5l6.9,7.5L250,245l3.5,9.5l-4.3-9.2l-0.4,10.2l-0.4-10.2l-4.3,9.2l3.5-9.5l-7.5,6.9
									l6.9-7.5l-9.6,3.5l9.2-4.3l-10.2-0.4l10.2-0.4l-9.2-4.3l9.6,3.5l-6.9-7.5l7.5,6.9l-3.5-9.5l4.3,9.2L248.9,231.2z"/>
								<path id="SvgjsPath3636" class="st20" d="M250.7,234.2l-1.2,7.7l4.6-6.3l-4.1,6.6l6.6-4l-6.3,4.5l7.7-1.2l-7.6,1.8l7.6,1.8
									l-7.7-1.2l6.3,4.6l-6.6-4.1l4,6.6l-4.5-6.3l1.2,7.7l-1.8-7.6l-1.8,7.6l1.2-7.7l-4.6,6.3l4.1-6.6l-6.6,4l6.3-4.5l-7.7,1.2
									l7.6-1.8l-7.6-1.8l7.7,1.2l-6.3-4.6l6.6,4.1l-4-6.6l4.5,6.3l-1.2-7.7l1.8,7.6L250.7,234.2z"/>
								<path id="SvgjsPath3637" class="st21" d="M254.1,243.3c0,2.9-2.3,5.2-5.2,5.2c-2.9,0-5.2-2.3-5.2-5.2c0-2.9,2.3-5.2,5.2-5.2
									C251.7,238.1,254.1,240.5,254.1,243.3z"/>
								<path id="SvgjsPath3638" class="st22" d="M243.4,253.3c-0.8,0.8-2.3,0.5-3.4-0.6c-1.1-1.1-1.4-2.6-0.6-3.4
									c0.8-0.8,2.3-0.5,3.4,0.6C243.9,251,244.2,252.6,243.4,253.3z"/>
								<path id="SvgjsPath3639" class="st23" d="M260,240.6c-1.1,1.1-3.9,0.2-6.2-2.1c-2.3-2.3-3.2-5.1-2.1-6.2
									c1.1-1.1,3.9-0.2,6.2,2.1C260.2,236.7,261.1,239.5,260,240.6z"/>
							</g>
						</g>
					</g>
					<g id="svga-group-eyesfront-left">
						<path id="SvgjsPath3590" class="st2" d="M201.6,243.2c-0.9,7.7,22.8,51,46.5,51s45.2-12.3,45.2-51c0-41.2-21.5-51-45.2-51
							S206,205.3,201.6,243.2z M218,245.5l-0.2-9.6c3.1-9.1,45.3-10.1,60,4.1c3.2,7.5-0.9,12.7-8.2,14.9c-7.6-1.8-11.5,2.5-22.7,2.7
							c-18.7,0.4-23-1.4-25.9-6.1C219.7,249.5,218.5,247,218,245.5z"/>
						
							<radialGradient id="SvgjsPath3591_1_" cx="-306.1375" cy="863.5818" r="13.818" fx="-297.9662" fy="860.5717" gradientTransform="matrix(2.9994 5.490000e-02 -4.980000e-02 2.1114 1216.2101 -1568.6318)" gradientUnits="userSpaceOnUse">
							<stop  offset="0" style="stop-color:#E1AC8F"/>
							<stop  offset="0.7" style="stop-color:#E1AC8F;stop-opacity:0.3"/>
							<stop  offset="1" style="stop-color:#F0C7B1;stop-opacity:0"/>
						</radialGradient>
						<path id="SvgjsPath3591" class="st24" d="M215.4,239.3c0.1,17.4,17.7,31.5,39.5,31.4c21.7-0.1,39.3-14.3,39.3-31.8
							c-0.1-17.4-17.7-31.5-39.5-31.4C232.9,207.7,215.4,221.9,215.4,239.3z M218,245.5l-0.2-9.6c3.1-9.1,45.3-10.1,60,4.1
							c3.2,7.5-0.9,12.7-8.2,14.9c-7.6-1.8-11.5,2.5-22.7,2.7c-18.7,0.4-23-1.4-25.9-6.1C219.7,249.5,218.5,247,218,245.5z"/>
						
							<radialGradient id="SvgjsPath3596_1_" cx="-375.3054" cy="672.7164" r="17.9175" gradientTransform="matrix(3.2913 -0.1497 -0.1728 -2.8629 1594.8019 2153.7825)" gradientUnits="userSpaceOnUse">
							<stop  offset="0.9" style="stop-color:#000000;stop-opacity:0"/>
							<stop  offset="1" style="stop-color:#000000;stop-opacity:0.2"/>
						</radialGradient>
						<path id="SvgjsPath3596" class="st25" d="M220.9,251.5c-1.2-1.9-2.4-4.5-2.9-6l-0.2-9.6c3.1-9.1,45.3-10.1,60,4.1
							c3.2,7.5-0.9,12.7-8.2,14.9c-7.6-1.8-11.5,2.5-22.7,2.7C228.2,258,223.8,256.2,220.9,251.5z"/>
						<path id="SvgjsPath3600" class="st13" d="M284.4,236.5c-22.3-13.3-38.7-14.2-65.1-12.5C241.3,220.5,266.7,223.1,284.4,236.5z"
							/>
						<path id="SvgjsPath3601" d="M281.5,246c-7.5-19.3-60.1-19.4-63.5-9.7v9c-2.4-3.6-2.4-3.8-3.4-7.9l-5.1,1.7
							c0,0,6.4-9,12.3-10.1C273.1,218.8,281.1,242.9,281.5,246z M273.4,255.6c-10.7-4.6-13.8,0.9-26.8,1.1
							c-18.5,0.4-22.2-1.8-25.8-5.7c1.9,4.8,3.2,7.1,25.2,7C258.5,257.9,265.3,252.8,273.4,255.6z"/>
					</g>
				</g>
			</g>
			<g id="svga-group-eyes-right-move" transform="matrix(1,0,0,1,0,0)">
				<g id="svga-group-eyes-right" transform="matrix(1,0,0,1,0,0)">
					<g id="svga-group-eyesback-right">
						
							<radialGradient id="SvgjsPath3573_1_" cx="-329.4654" cy="675.5088" r="9.9138" gradientTransform="matrix(3.1776 1.200000e-03 -1.200000e-03 -2.7954 1416.514 2128.2524)" gradientUnits="userSpaceOnUse">
							<stop  offset="0" style="stop-color:#FFFFFF"/>
							<stop  offset="0.544" style="stop-color:#FDFEFE"/>
							<stop  offset="0.74" style="stop-color:#F6F8F9"/>
							<stop  offset="0.879" style="stop-color:#EAEFF2"/>
							<stop  offset="0.992" style="stop-color:#D9E3E8"/>
							<stop  offset="1" style="stop-color:#D8E2E7"/>
						</radialGradient>
						<path id="SvgjsPath3573" class="st26" d="M347,254.9c7.6-1.8,11.5,2.5,22.7,2.7c18.7,0.4,23-1.4,25.9-6.1
							c1.2-1.9,2.4-4.5,2.9-6l0.2-9.6c-3.1-9.1-45.3-10.1-60,4.1c-0.7,1.5-1,3-1.1,4.3c0.4,2.2,1.2,4.3,2.2,6.4
							C341.6,252.5,344.1,254,347,254.9z"/>
					</g>
					<g id="svga-group-eyesiriswrapper-right" transform="matrix(1,0,0,1,-0.25,0.25)">
						<g id="svga-group-eyesiriscontrol-right" transform="matrix(1,0,0,1,0,0)">
							<g id="svga-group-eyesiris-right" transform="matrix(1,0,0,1,0,0)">
								<path id="SvgjsPath3640" class="st17" d="M382.5,243.3c0,7.7-6.2,13.9-13.9,13.9s-13.9-6.2-13.9-13.9s6.2-13.9,13.9-13.9
									S382.5,235.7,382.5,243.3z"/>
								<path id="SvgjsPath3641" class="st18" d="M360.6,249.8c2-0.2,0.2-0.7,0.2-0.7c-1-0.5-2.9-1.4-2.9-2.1c0-2.4,3.3-3-0.1-3.9
									c-3.5-3.2,2.7-3.1,2.6-3.2c-2.3-5.5,0.7-2.5,2-4.1c4.6-6,1.3,0.6,3.8,0c0.9-0.2-1.8-3.5,0.1-3.1c1.2,0.3,1.5,1.3,1.5,1.3
									c0.9-0.2,2.3-1.6,2.3-1.6c1.7,0.5,3,3,2.4,2.5c0.9-0.1,2.1-0.5,3-0.8c0,0,0.2-0.6,0.3-0.1c2.1,6.2,7.6,5.7,1.3,7.5
									c0,0-0.4,0,0.9,1c6.3,5-4.9,3.5,1.1,5.8c0.2-0.2-3.6,2.2-3.6,2.9c0,1.2-2.4,4.2-4.5,3c-1.2-0.7-1.4,1.4-2,0.4
									c-1.3-1.9-4-0.1-3-1.8c1.5-1.2-1.5,0.5-2.1,0.5c-1.9,0,2.5-6.4,9-1.7c1.9,1.4-2-3.3,1.5-3.3c0.3,0.1,0.2-1.2,0.2-1.6
									c-1.8-0.4,3.2,0,3.2-2.9c0.3,0.1,1.2-0.8-3.8,0c0,0-0.2-1.7-0.1-2c0.2-1,2.8-0.7,2.1-1.7l-1.8-3.7c-6-0.9-2.6-1.5-6.3-0.8
									c-0.2,0.9-8,4.6-7.7,6.3c0.2,1.6,4.9,2.2,0.5,5C367.3,259.7,355.8,246.7,360.6,249.8z"/>
								<path id="SvgjsPath3642" class="st19" d="M368.6,231.2l0.4,10.2l4.2-9.3l-3.5,9.6l7.5-6.9l-6.9,7.5l9.6-3.5l-9.3,4.3
									l10.2,0.4l-10.2,0.4l9.3,4.3l-9.6-3.5l6.9,7.5l-7.5-6.9l3.5,9.6l-4.2-9.3l-0.4,10.2l-0.4-10.2l-4.3,9.3l3.5-9.6l-7.5,6.9
									l6.9-7.5l-9.6,3.5l9.3-4.3l-10.2-0.4l10.2-0.4l-9.3-4.3l9.6,3.5l-6.9-7.5l7.5,6.9l-3.5-9.6l4.3,9.3L368.6,231.2z"/>
								<path id="SvgjsPath3643" class="st20" d="M370.5,234.2l-1.2,7.7l4.6-6.3l-4.1,6.6l6.6-4.1l-6.3,4.6l7.7-1.2l-7.6,1.8
									l7.6,1.8l-7.7-1.2l6.3,4.6l-6.6-4.1l4,6.6l-4.5-6.3l1.2,7.7l-1.8-7.6l-1.8,7.6l1.2-7.7l-4.6,6.3l4.1-6.6l-6.6,4.1l6.3-4.6
									l-7.7,1.2l7.6-1.8l-7.6-1.8l7.7,1.2l-6.3-4.6l6.6,4.1l-4-6.6l4.5,6.3l-1.2-7.7l1.8,7.6L370.5,234.2z"/>
								<path id="SvgjsPath3644" class="st21" d="M373.9,243.3c0,2.9-2.3,5.2-5.2,5.2s-5.2-2.3-5.2-5.2s2.3-5.2,5.2-5.2
									S373.9,240.5,373.9,243.3z"/>
								<path id="SvgjsPath3645" class="st22" d="M363.2,253.3c-0.8,0.8-2.3,0.5-3.4-0.6c-1.1-1.1-1.4-2.6-0.6-3.4
									c0.8-0.8,2.3-0.5,3.4,0.6C363.7,251,363.9,252.6,363.2,253.3z"/>
								<path id="SvgjsPath3646" class="st23" d="M379.8,240.6c-1.1,1.2-3.9,0.2-6.2-2c-2.3-2.3-3.2-5.1-2-6.2
									c1.1-1.2,3.9-0.2,6.2,2C380,236.7,380.9,239.5,379.8,240.6z"/>
							</g>
						</g>
					</g>
					<g id="svga-group-eyesfront-right">
						<path id="SvgjsPath3611" class="st2" d="M368.5,192.3c-23.7,0-45.2,9.8-45.2,51c0,38.7,21.5,51,45.2,51s46.1-41.8,46.5-51
							C416.7,205.1,392.2,192.3,368.5,192.3z M395.7,251.5c-2.9,4.7-7.3,6.5-25.9,6.1c-11.2-0.2-15.1-4.5-22.7-2.7
							c-7.2-2.2-11.4-7.4-8.2-14.9c14.7-14.2,56.9-13.3,60-4.1l-0.2,9.6C398.1,247,396.9,249.5,395.7,251.5z"/>
						
							<radialGradient id="SvgjsPath3612_1_" cx="-751.6942" cy="875.1567" r="13.818" fx="-743.5229" fy="872.1465" gradientTransform="matrix(-2.9994 5.490000e-02 4.980000e-02 2.1114 -1936.6062 -1568.61)" gradientUnits="userSpaceOnUse">
							<stop  offset="0" style="stop-color:#E1AC8F"/>
							<stop  offset="0.7" style="stop-color:#E1AC8F;stop-opacity:0.3"/>
							<stop  offset="1" style="stop-color:#F0C7B1;stop-opacity:0"/>
						</radialGradient>
						<path id="SvgjsPath3612" class="st27" d="M361.9,207.6c-21.8-0.1-39.4,14-39.5,31.4c-0.1,17.5,17.5,31.7,39.3,31.8
							c21.8,0.1,39.4-14,39.5-31.4C401.2,221.9,383.6,207.7,361.9,207.6z M395.7,251.5c-2.9,4.7-7.3,6.5-25.9,6.1
							c-11.2-0.2-15.1-4.5-22.7-2.7c-7.2-2.2-11.4-7.4-8.2-14.9c14.7-14.2,56.9-13.3,60-4.1l-0.2,9.6
							C398.1,247,396.9,249.5,395.7,251.5z"/>
						
							<radialGradient id="SvgjsPath3617_1_" cx="-779.683" cy="693.8651" r="17.9175" gradientTransform="matrix(-3.2913 -0.1497 0.1728 -2.8629 -2312.8025 2153.7937)" gradientUnits="userSpaceOnUse">
							<stop  offset="0.9" style="stop-color:#000000;stop-opacity:0"/>
							<stop  offset="1" style="stop-color:#000000;stop-opacity:0.2"/>
						</radialGradient>
						<path id="SvgjsPath3617" class="st28" d="M395.7,251.5c1.2-1.9,2.4-4.5,2.9-6l0.2-9.6c-3.1-9.1-45.3-10.1-60,4.1
							c-3.2,7.5,0.9,12.7,8.2,14.9c7.6-1.8,11.5,2.5,22.7,2.7C388.4,258,392.8,256.2,395.7,251.5z"/>
						<path id="SvgjsPath3621" class="st13" d="M332.2,236.5c22.3-13.3,38.7-14.2,65.1-12.5C375.3,220.5,349.9,223.1,332.2,236.5z"
							/>
						<path id="SvgjsPath3622" d="M394.9,229c5.9,1.2,12.3,10.1,12.3,10.1l-5.1-1.7c-1,4.1-1.1,4.3-3.4,7.9v-9
							c-3.4-9.7-56-9.6-63.5,9.7C335.5,242.9,343.5,218.8,394.9,229z M370.5,258c22,0.1,23.3-2.2,25.2-7c-3.6,4-7.2,6.1-25.8,5.7
							c-13-0.3-16.1-5.7-26.8-1.1C351.3,252.8,358.1,257.9,370.5,258z"/>
					</g>
				</g>
			</g>
			<g id="svga-group-facehighlight-single">
				
					<radialGradient id="SvgjsPath3280_1_" cx="-336.416" cy="657.1689" r="31.6539" gradientTransform="matrix(3 0 0 -3 1318 2284)" gradientUnits="userSpaceOnUse">
					<stop  offset="0" style="stop-color:#FFE4D6;stop-opacity:0.5"/>
					<stop  offset="0.9" style="stop-color:#F0C7B1;stop-opacity:0"/>
				</radialGradient>
				<path id="SvgjsPath3280" class="st29" d="M403.7,312.4c0.1,52.4-42.4,94.9-94.8,95c-52.4,0.1-95-42.3-95.1-94.7
					c-0.1-52.4,42.4-95.1,94.8-95.2C361,217.5,403.6,260,403.7,312.4z"/>
				
					<radialGradient id="SvgjsPath3284_1_" cx="-336.4156" cy="703.4913" r="28.5651" gradientTransform="matrix(3 0 0 -3 1318 2284)" gradientUnits="userSpaceOnUse">
					<stop  offset="0" style="stop-color:#FFE4D6;stop-opacity:0.5"/>
					<stop  offset="0.9" style="stop-color:#F0C7B1;stop-opacity:0"/>
				</radialGradient>
				<path id="SvgjsPath3284" class="st30" d="M395.6,173.5c0,48-38.9,86.9-86.9,86.9c-48,0-86.9-38.9-86.9-86.9s38.9-86.9,86.9-86.9
					C356.7,86.7,395.6,125.6,395.6,173.5z"/>
			</g>
			<g id="svga-group-eyebrows-left-move" transform="matrix(1,0,0,1,0,0)">
				<g id="svga-group-eyebrows-left-rotate" transform="matrix(1,0,0,1,0,0)">
					<g id="svga-group-eyebrows-left" transform="matrix(1,0,0,1,0,0)">
						<path id="SvgjsPath3649" class="st1" d="M198.7,219.5c17.3-21.7,47.1-18.1,71.5-14.6c6.2,0.9,12.6,1.6,18.7,3.1
							c4.4,1.1,7.8,6.1,4.3,10.1c-1.6,1.9-5.2,1.6-7.4,1.5C256.5,219,223.5,202.2,198.7,219.5z"/>
					</g>
				</g>
			</g>
			<g id="svga-group-eyebrows-right-move" transform="matrix(1,0,0,1,0,0)">
				<g id="svga-group-eyebrows-right-rotate" transform="matrix(1,0,0,1,0,0)">
					<g id="svga-group-eyebrows-right" transform="matrix(1,0,0,1,0,0)">
						<path id="SvgjsPath3650" class="st1" d="M418.9,218.7c-5-3.4-10.3-5.7-16.3-6.7c-22-3.6-63.9,11.1-74.9,8
							c-6.7-1.9-5.4-8.7-2.4-10.3c1.8-1,2.3-1,18.3-3.7C370.9,201.2,401.4,197.5,418.9,218.7z"/>
					</g>
				</g>
			</g>
			<g id="svga-group-nose-single-move" transform="matrix(1,0,0,1,0,0)">
				<g id="svga-group-nose-single" transform="matrix(1,0,0,1,0,0)">
					<path id="SvgjsPath3423" class="st4" d="M288.2,316c-2,4.8,13.7,9.9,19.7,10.3c6.5,0.3,24.7-6.7,21.6-11.6
						c-3.2-5.1-15.4-0.7-20.6-0.7C303.6,314,290.9,309.6,288.2,316z"/>
					<path id="SvgjsPath3424" class="st13" d="M313.1,319.6c-0.5-1.8,4.3-3.7,6.2-3.9c2.6-0.4,7.8,1.9,7.3,3.7c-0.4,1.6-5-1.2-6.6-1
						C318.2,318.6,313.6,321.2,313.1,319.6z M297.1,319c2.2,0,5.6,1.4,6.2,0.2c0.7-1.5-5-3.4-6.6-3.2c-1.4,0.2-6.3,3-5.6,4.3
						C291.7,321.4,294.2,319,297.1,319z"/>
					<path id="SvgjsPath3425" class="st31" d="M309,307.9c1.4,0,4-1.7,4.2-5.2c0.5-13.9-2.2-55.2-4.2-55.1
						c-1.8,0.1-5.3,40.8-4.5,55.1C304.6,306.2,307.4,307.9,309,307.9z"/>
				</g>
			</g>
			<g id="svga-group-beardwrap" transform="matrix(1,0,0,1,0,0)">
				<g id="svga-group-beard-single-move" transform="matrix(1,0,0,1,0,0)">
					<g id="svga-group-beard-single" transform="matrix(1,0,0,1,0,0)">
						<path id="SvgjsPath3657" class="st32" d="M243.2,346.2c0.6,2.7,0.2,3.8-0.8,5.8C243.2,348.9,243.2,348.9,243.2,346.2z
							 M305.5,413.6c0-2.8-1-4.3-3.6-5.1C304,409.9,305,411.1,305.5,413.6z M296.7,411.1c-0.1-2.4-0.6-3.9-2.5-5.4
							C295.5,407.5,296,408.8,296.7,411.1z M287.6,408c0.2,1.1,1.7,3,3.1,3.5C289.6,410.8,287.6,408,287.6,408z M279.1,404.1
							c0.2,0.6,1.6,4.4,1.9,3.9C281.1,408,278.8,403.3,279.1,404.1z M284.9,397.6c-0.6,2.3-0.7,3.7-0.4,6.2
							C284.7,402.3,284.9,398.7,284.9,397.6z M289.9,391c-0.2,1.8-0.2,3.6,0,5.4C290.1,394.9,290.2,393.1,289.9,391z M292.6,402.2
							c1.5-2,2.1-3,2.7-5.4C294.9,397.6,293,401.4,292.6,402.2z M301.1,396.8c-0.2,3,0.1,4.3,1.2,6.6
							C301.4,399.4,301.7,400.8,301.1,396.8z M297.6,393.3c1-1.9,1.3-3,1.6-5C298.8,389.3,297.9,392.4,297.6,393.3z M306.5,389.9
							c-0.2,1.4,0.1,4.1,1.6,3.9C307,393.9,306.7,390.9,306.5,389.9z M297.6,384.1c0.7-1.7,1.3-3.7,1.6-5.4
							C298.4,380.4,297.9,382.3,297.6,384.1z M281.4,388.3c-0.7,2-0.9,3.4-0.8,5.8C280.9,393.1,281.4,389.5,281.4,388.3z M274.9,403
							c1.2-2.3,1.6-3.8,1.9-6.2C276.3,398.1,275.2,401.4,274.9,403z M269.5,397.2c-1.3,1.4,0.4,3.9,0.4,3.9
							C269.8,399.4,268.9,398.6,269.5,397.2z M271.8,383.8c0-0.1-0.3,0.5,0.4,6c0.1-5.9-0.4-6.8-0.4-5.8
							C271.8,384.1,271.8,384,271.8,383.8z M262.9,388.7c0.2,3.4,0.1,4.8,0.8,6.9C263.4,390.7,263.5,391,262.9,388.7z M257.1,389.1
							c-0.4,1.9-0.5,3.1,0.8,4.6C257,392,257.1,391.1,257.1,389.1z M247.5,384.1c0-1.2,0-2.6-0.3-3.9
							C247.1,380,247,381.7,247.5,384.1z M251.5,385.4l1.4-6.8C251.9,380.3,251.5,385.4,251.5,385.4z M259.4,377.1
							c-1.3,1.2-2,3.8-1.9,5.4C257.8,381.5,258.7,378.1,259.4,377.1z M265.6,383.7c0.6-2.5,0.7-3.9,0.4-6.6
							C265.7,378.7,265.6,382.4,265.6,383.7z M265.2,364c-0.5,1.5-0.6,2.2-0.4,3.9C264.9,367.7,265.2,364.1,265.2,364z M259,370.2
							c1.1-1.5,0-5.4,0-5.4S259.4,369.5,259,370.2z M250.5,367.5c0.4,1.9,1.1,4,1.9,5.8C252.1,371.3,251.4,369.3,250.5,367.5z
							 M242.8,367.5c-0.7,4.2-0.1,5.4,0.8,7.7C243,371.8,242.9,371.3,242.8,367.5z M237,362.8c-0.9,1.5-1.3,5,0.4,6.9
							C236.5,368,236.6,364.2,237,362.8z M239,350.9c0,0-1.2,2.2-1.2,5.4C238.2,354.4,238.7,352.3,239,350.9z M246.3,356.7
							c0,0-1.9,0.1-1.2,5.8C246,355.4,246.3,356.7,246.3,356.7z M255.9,359c0.6-1.9,1-4.1,1.2-6.2
							C256.5,354.8,256.1,356.9,255.9,359z M251.3,344.7c-1.1,2.4-1.3,3.4-1.2,5.8L251.3,344.7z M260.6,340.8
							c-1.6,1.3-2,4.9-1.9,6.9C259.7,341.5,260.6,340.8,260.6,340.8z M271,341.2c-1.9,1.5-2.6,2.5-3.1,5.4
							C268.8,344.4,269,343.6,271,341.2z M277.6,347.4c1.5-1.5,3.5-7.7,3.5-7.7C280.6,338.9,278.1,346.6,277.6,347.4z M289.2,339.7
							c-1.3,0.3-3.3,6.1-3.9,7.3C286,346,289.2,339.7,289.2,339.7z M296.5,339.3c-1.1,2.3-1.7,3.5-2.3,6.2
							C295.3,343.3,295.8,341.5,296.5,339.3z M305.7,338.1c-1.8,4-1,2.8-3.1,6.9C304,343.4,305,342,305.7,338.1z M374.3,346.2
							c-0.6,2.7-0.2,3.8,0.8,5.8C374.3,348.9,374.3,348.9,374.3,346.2z M316.8,408c-2.6,0.9-3.5,1.6-3.5,4.4
							C313.8,409.9,314.7,409.4,316.8,408z M323.4,406.8c-1.9,1.5-2.6,3.5-2.8,5.9C321.3,410.3,322.1,408.6,323.4,406.8z
							 M326.8,411.5c1.4-0.4,2.9-2.4,3.1-3.5C329.9,408,328,410.8,326.8,411.5z M336.5,408c0.3,0.5,1.7-3.3,1.9-3.9
							C338.7,403.3,336.5,408,336.5,408z M333,403.8c0.3-2.5,0.2-3.9-0.4-6.2C332.6,398.7,332.8,402.3,333,403.8z M327.6,396.4
							c0.2-1.8,0.2-3.6,0-5.4C327.3,393.1,327.4,394.9,327.6,396.4z M322.2,396.8c0.6,2.4,1.2,3.5,2.7,5.4
							C324.5,401.4,322.7,397.6,322.2,396.8z M315.2,403.4c1.1-2.3,1.3-3.6,1.2-6.6C315.8,400.8,316.1,399.4,315.2,403.4z
							 M318.3,388.3c0.2,2,0.6,3.1,1.6,5C319.6,392.4,318.7,389.3,318.3,388.3z M311.8,391.4c1.4,0.2,1.7-2.4,1.6-3.9
							C313.2,388.6,312.8,391.6,311.8,391.4z M318.3,378.7c0.3,1.7,0.8,3.7,1.6,5.4C319.6,382.3,319.1,380.4,318.3,378.7z
							 M336.8,394.1c0.1-2.4-0.1-3.8-0.8-5.8C336.2,389.5,336.6,393.1,336.8,394.1z M340.7,396.8c0.3,2.4,0.8,3.9,1.9,6.2
							C342.3,401.4,341.2,398.1,340.7,396.8z M347.7,401.1c0,0,1.6-2.5,0.4-3.9C348.6,398.6,347.7,399.4,347.7,401.1z M345.7,384.1
							c0-1-0.5-0.1-0.4,5.8c0.6-5.5,0.4-6.2,0.4-6C345.7,384,345.7,384.1,345.7,384.1z M353.8,395.6c0.7-2.2,0.6-3.5,0.8-6.9
							C354,391,354.1,390.7,353.8,395.6z M359.6,393.7c1.3-1.5,1.2-2.7,0.8-4.6C360.4,391.1,360.5,392,359.6,393.7z M370.4,380.2
							c-0.3,1.3-0.4,2.7-0.3,3.9C370.5,381.7,370.4,380,370.4,380.2z M364.6,378.7l1.4,6.8C366.1,385.4,365.6,380.3,364.6,378.7z
							 M360,382.5c0.1-1.6-0.7-4.2-1.9-5.4C358.8,378.1,359.8,381.5,360,382.5z M351.5,377.1c-0.3,2.6-0.2,4.1,0.4,6.6
							C351.9,382.4,351.8,378.7,351.5,377.1z M352.7,367.9c0.2-1.7,0.1-2.4-0.4-3.9C352.3,364.1,352.6,367.7,352.7,367.9z
							 M358.5,364.8c0,0-1.1,3.9,0,5.4C358.2,369.5,358.5,364.8,358.5,364.8z M365,373.3c0.9-1.8,1.6-3.9,1.9-5.8
							C366.1,369.3,365.4,371.3,365,373.3z M373.9,375.2c0.9-2.3,1.5-3.5,0.8-7.7C374.6,371.3,374.5,371.8,373.9,375.2z
							 M380.1,369.8c1.6-1.9,1.3-5.5,0.4-6.9C380.9,364.2,381,368,380.1,369.8z M379.7,356.3c0-3.2-1.2-5.4-1.2-5.4
							C378.8,352.3,379.3,354.4,379.7,356.3z M372.4,362.5c0.8-5.7-1.2-5.8-1.2-5.8S371.5,355.4,372.4,362.5z M360.4,352.8
							c0.1,2.1,0.5,4.2,1.2,6.2C361.4,356.9,361.1,354.8,360.4,352.8z M367.4,350.5c0.1-2.4-0.1-3.4-1.2-5.8
							C366.2,344.7,367.4,350.5,367.4,350.5z M358.9,347.8c0.1-2.1-0.4-5.6-1.9-6.9C356.9,340.8,357.8,341.5,358.9,347.8z
							 M349.6,346.6c-0.5-2.9-1.2-3.9-3.1-5.4C348.5,343.6,348.7,344.4,349.6,346.6z M336.5,339.7c0,0,2,6.3,3.5,7.7
							C339.4,346.6,336.9,338.9,336.5,339.7z M332.2,347c-0.6-1.2-2.5-7-3.9-7.3C328.3,339.7,331.5,346,332.2,347z M323.3,345.5
							c-0.6-2.7-1.2-3.9-2.3-6.2C321.7,341.5,322.2,343.3,323.3,345.5z M314.8,345.1c-2.1-4.1-1.3-3-3.1-6.9
							C312.5,342,313.5,343.4,314.8,345.1z M309.9,399.7c-2.4,3.7-2.3,5.3-2.2,7.6C308.4,404,308.4,404,309.9,399.7z M304,379.5
							c1.2,3.3,1.3,3.6,1.9,6C305.8,383,305.3,381.7,304,379.5z M310.6,384.5c0.6-2.4,1.8-1.6,3-4.9
							C312.2,381.7,310.6,382,310.6,384.5z"/>
					</g>
				</g>
			</g>
			<g id="svga-group-mustache-single-move" transform="matrix(1,0,0,1,0,0)">
				<g id="svga-group-mustache-single" transform="matrix(1,0,0,1,0,0)">
					<path id="SvgjsPath3296" class="st32" d="M308.8,90.4L308.8,90.4L308.8,90.4L308.8,90.4z"/>
				</g>
			</g>
			<g id="svga-group-hair-front" transform="matrix(1,0,0,1,0,0)">
				<path id="SvgjsPath3653" class="st1" d="M181.3,268.2c-5.6-20.4-8.6-38.3-12.8-56.9l0.2,0c-1.6-3.9-7.3-34.9-7.4-35.2
					c-5.8-41.2,11.6-43.5,11.2-60.7c7.3,3.7,14.5,1.9,20.9-3.2c-6.8-3.5-4.6-4-13.6-9.5c6.3-1.1,10,0.4,15.4,1.1
					c-4.6-4.6-13.6-14-19.5-12.7l-0.4-0.8c8.5-6.6,19.8,7.2,30,3.4c0.3-37.9,55.7-45.8,69.2-51.4c18-6.8,36.7-21.9,49.9-23.2
					c-7.5,7.5-12,19.6-12.4,28.6c10.9-10.4,11.7-10.1,28.1-28.4c0,14.7-4.1,16.6-9.4,25.2c14.4-9.4,32.3-35.9,59.9-39.9l0.3,0.9
					c-10,5.9-17.7,15.8-22.9,29.4c5.2-6.3,12.6-13.2,20.8-14.4l0.3,0.9c-5.1,3.1-15.2,13.3-17.5,30.4C382,40.4,398.1,31,409.2,27.5
					l0.4,0.8c-10.2,8.3-14.3,22.8-16.6,35.1c7.1-10.6,11.3-13,20.3-17.5c-2.9,4.3-2.7,3.6-5,8.3c5.5,14.2,23.9,14.7,27,39.5
					c3.8-3.3,5.3-4.1,9.6-7.2l0.7,0.6c-3.3,5.1-6,14-7.7,20c6.4-4.9,16.4-8.5,23.4-11.1l0.5,0.8c-5.9,6-13.1,15.2-14.3,25.1
					c2.3-1.4,2.4-1.2,5.4-3.4c0,7.1,0.2,6.2,0.3,9.5c2.9-2.6,3.4-3,5.3-5.1c-0.4,75-4.3,60-14.6,112.3c-1.8,9.2-5,25.2-7.1,32.9
					l-14,2.4c4.3-51.9-0.2-40.6,2.9-73.2c4.7-48.1-34.3-87.6-85.8-74.7c-10.4,2.6-52,2.6-62.4,0c-56.9-14.3-77.3,18.9-83.4,77.1
					c-3,28.5-3.7,18.9,0.6,70.8L181.3,268.2z"/>
				<path id="SvgjsPath3654" class="st33" d="M453.2,128c0-3.3-0.3-2.4-0.3-9.5c-3,2.2-3.1,2-5.4,3.4c1.2-9.9,8.4-19.1,14.3-25.1
					l-0.5-0.8c-7,2.5-16.9,6.1-23.4,11.1c1.8-6,4.5-15,7.7-20l-0.7-0.6c-4.3,3-5.8,3.9-9.6,7.2c-3.1-24.8-21.5-25.3-27-39.5
					c2.3-4.7,2.1-3.9,5-8.3c-9,4.5-13.1,6.9-20.3,17.5c2.3-12.3,6.4-26.8,16.6-35.1l-0.4-0.8C398.1,31,382,40.4,371.8,51.7
					c2.3-17.1,12.3-27.4,17.5-30.4l-0.3-0.9c-8.2,1.2-15.6,8.1-20.8,14.4c5.3-13.7,13-23.6,22.9-29.4l-0.3-0.9
					c-27.6,4-45.6,30.5-59.9,39.9c5.3-8.7,9.4-10.5,9.4-25.2c-16.5,18.3-17.3,18-28.1,28.4c0.3-9.1,4.9-21.1,12.4-28.6
					c-13.2,1.3-32,16.4-49.9,23.2c-13.5,5.6-68.9,13.5-69.2,51.4c-10.2,3.7-21.5-10-30-3.4l0.4,0.8c5.9-1.2,14.9,8.1,19.5,12.7
					c-5.4-0.7-9.1-2.1-15.4-1.1c9,5.5,6.8,6,13.6,9.5c-6.4,5-13.6,6.8-20.9,3.2c0.4,17.2-17.1,19.5-11.2,60.7
					c0.1,0.3,5.8,31.3,7.4,35.2l-0.2,0c4.2,18.6,7.2,36.5,12.8,56.9l0.1,0c-1.5-38.1-25.5-92.2-11.4-126.9
					c1.8-4.5,8.9-16.5,8.9-16.5s22.3-2.9,23.3-11.6c0,0-4.6-2.3-6.9-4.6c4.6,2.3,4.6-4.6,9.3-2.3c0-4.6-6.9-2.3-6.9-6.9
					c4.6,0,9.3,0,13.9,4.6c-2.3-11.6,0-23.2,9.3-30.1c23.2-18.5,53.3-16.2,76.4-34.7c-2.3,11.6-4.6,23.2-4.6,34.7
					c13.9-6.9,18.5-20.8,30.1-30.1c2.3,9.3-2.3,20.8-2.3,30.1c6.9-16.2,16.2-32.4,37.1-37.1c-9.3,9.3-9.3,23.2-9.3,34.7
					c0-9.3,9.3-13.9,11.6-20.8c0,9.3,0,18.5,0,27.8c4.6-13.9,13.9-20.8,25.5-25.5c-9.3,9.3-6.9,18.5-9.3,30.1
					c6.9-6.9,16.2-9.3,23.2-16.2c6.9,13.9,2.3,25.5,2.3,39.4c2.3-11.6,13.9-18.5,20.8-27.8c2.3,11.6,2.3,23.2,0,34.7
					c2.3-6.9,6.9-11.6,9.3-18.5c0,11.3-1.5,21-4.6,30.4c2.9-3.4,7.7-4.9,9.2-9.6c0,10,0,18.3,0,27.9c1.3-2.8,5.3-3.7,6.9-7
					c-2,7.9-0.6,14.1-0.1,21.5c0.9-4.5,5.2-7.3,6.8-11.5c0.1-1.8,0.2-3.6,0.3-5.4c0.5,2.1,0.3,3.9-0.3,5.4
					c-2.1,41.2-6,82.3-14.5,121.9l1.5-0.3c2.1-7.7,5.3-23.7,7.1-32.9c10.4-52.2,14.2-37.3,14.6-112.3
					C456.6,125.1,456.1,125.4,453.2,128z"/>
				<path id="SvgjsPath3655" class="st34" d="M465.7,94.1c-11.5,1.9-19.5,5.6-25.6,9.8c0.9-2.3,5.1-15.4,9.6-21
					c-6.9,3.1-10.9,6.4-13.2,8.1c0-2.4-0.9-5.2-1.4-6.6c-0.4-1.2-0.8-2.6-2.9-6.1c-12-16.9-12.7-9.8-22.5-22.8
					c1.8-4.2,4.4-8.3,7.6-11.7c-9.1,1.3-13.8,4.8-19.5,10.4c-0.1,0.1-0.2,0.2-0.2,0.3c3.6-14.2,10.6-26.5,24.5-31.1
					c-17.1-0.6-38.3,12-48.9,24.6c4.6-14.8,10.8-21.8,19.9-28.4c-6.6-1-13.1,1.7-18.2,6c5.9-10.2,14.6-18.3,21.7-22.1
					c-1,0-2.2-0.1-3.5,0c-1.8-0.5-12.7,1.3-16.6,3c-19.3,7.5-33.3,25.1-39.4,30.8c4.4-7.2,4.7-12.3,3.8-19.7
					c-1.5,1.3-26.9,25.6-27.2,25.9c1.8-10,5.2-16.1,11.6-25c-11.5-2.1-40.1,16.7-57.9,21.7c-18.6,5-64.9,15.6-62.7,52.6
					c-9.9,1.9-24.5-14.1-32.1-0.7c6.1-3.6,14.2,5.1,19.9,10.1c-2.3-0.4-10.1-2.2-13.8,0.3c4.4,1.7,8.2,6.8,13.6,9.5
					c0.1,0,0.1,0,0.2,0.1c-5,2.6-10.8,4.7-16.2,3.2c-0.8-0.2-1.3-0.4-1.3-0.4c-0.6-0.3-1.3-0.6-2-0.9h0l0,0
					c-0.3-0.2-0.6-0.3-0.9-0.5c1.6,13-18.1,23.5-15.9,51c0.9,16.9,11.5,68.3,24.8,103.2l1.1,0.3c-5.5-20-8.7-38.8-12.9-57.2
					c-0.4,0-7.1-34.8-7.2-35.2c-5.8-40.8,11.6-43.8,11.2-59.8c7.2,3.6,15.1,1,21.3-4c-7.2-3.6-5.7-4.6-13.2-9.1
					c5-0.9,11.1,1.1,15.3,1.4c-5.4-5.4-14.6-15.1-20.8-13.8c8.3-6.5,19.7,7.6,30.2,3.4c0-37.9,54.9-45.5,69-51.3
					c16.8-6.4,37.7-21.9,48.5-23c-5.7,5.7-11.6,18.3-11.6,29.1c11.2-10.7,12.3-10.7,28.2-28.3c0,13.9-5.2,16.4-10.3,25.4
					c14.9-8.6,32.8-36.7,61.4-40.8c-11.9,7-19.5,19.3-24.1,32.4c5.4-7.1,13.4-15.1,22.3-16.5c-4.7,2.8-15.9,13.4-17.9,32.3
					c10.1-11.8,26.8-21.6,38.1-25.3c-10.7,8.7-14.7,24-17.1,37.6c3.9-6,7.8-11.3,13.8-15.1c0,0,0.1,0,0.1,0c2.4-1.6,1.8-1.2,5.8-3.2
					c-1.5,2.3-1.7,2-4.1,7c5.6,14.8,24.4,14.9,27.2,40.5c4.3-3.8,5.7-4.5,10.2-7.7c-3.6,5.5-6.4,15.7-8.2,21.6
					c6.7-5.8,19.2-10,24.4-11.9c-6.9,7.1-13.7,16.4-14.5,26.3c1.4-1,3.2-1.7,5.5-3.4c0,6.3,0.3,5.5,0.3,9.6c1.2-1.1,4-3.5,5.3-4.9
					c-0.5,73.5-4.4,59.2-14.6,111c-3.8,19.4-5.9,28.4-7.1,33.1l1-0.2c8.3-24.9,24.9-81.2,24.1-110.3c-0.1-10.9-2.5-33.6-2.6-35.9
					c0,0-4.8,4.6-4.9,4.6c0-1.2-0.5-6.2-0.5-9c-0.8,0.6-2.5,1.8-4.8,3.1C451.8,110.9,456.7,105,465.7,94.1z"/>
			</g>
			<g id="svga-group-glasses-single-move" transform="matrix(1,0,0,1,0,0)">
				<g id="svga-group-glasses-single" transform="matrix(1,0,0,1,0,0)">
					<path id="SvgjsPath3416" class="st35" d="M308.8,90.4L308.8,90.4L308.8,90.4L308.8,90.4z"/>
				</g>
			</g>
		</g>
	</g>
</g>
<rect id="svga-credit-rect" y="555" class="st36" width="600" height="45"/>
</svg>
