<?xml version="1.0" encoding="utf-8"?>
<!-- Generator: Adobe Illustrator 24.1.0, SVG Export Plug-In . SVG Version: 6.00 Build 0)  -->
<svg version="1.1" id="Livello_1" xmlns="http://www.w3.org/2000/svg" xmlns:xlink="http://www.w3.org/1999/xlink" x="0px" y="0px"
	 viewBox="0 0 512 512" style="enable-background:new 0 0 512 512;" xml:space="preserve">
<g id="Layer_1_copy">
</g>
<g>
	<path d="M414.3,334.7l-61.6-122.6H363c3.2,0,5.9-2.6,5.9-5.9v-45.9c0-3.2-2.6-5.9-5.9-5.9h-27c-13.7,0-24.8,11.1-24.8,24.8v8
		c0,5.3,1.7,10.1,4.4,14.1c-2.2,2.9-8.6,8.4-26.3,12.1c-3.2,0.7-5.2,3.8-4.6,6.9c0.6,2.8,3,4.7,5.7,4.7c2,0,15-3,24.2-8.1l16.5,66.1
		c6.2,24.9,0.7,50.9-15.1,71.2c-15.8,20.3-39.7,31.9-65.4,31.9h-20.6c-10.5,0-20.4-4.5-27.3-12.4c-6.9-7.9-10-18.4-8.5-28.8
		l3.7-26.1h2.8c14.6,0,26.4-11.9,26.4-26.4v-8.7c0-14.6-11.9-26.4-26.4-26.4h-55.4V150.4c0-3.2-2.6-5.9-5.9-5.9
		c-57,0-68.4,0-128.1,0c-3.2,0-5.9,2.6-5.9,5.9v112.7c0,3.2,2.6,5.9,5.9,5.9H38c-2.8,4.2-4.5,9.3-4.5,14.7v8.7
		c0,10.6,6.3,19.7,15.3,23.9l-17,56.2c-8.1,26.9,9.6,53.9,36.1,58.4c-1.1,4.7-1.7,9.5-1.7,14.4c0,34.2,27.8,62,62,62
		c34.2,0,62-27.8,62-62c0-4.7-0.5-9.3-1.5-13.8h138.4c0,4.9,0.4,9.8,1.2,14.6c3,19,27.5,24.2,38.4,8.8c0.8-1.1,1.6-2.2,2.4-3.2
		c3.2,31.3,29.6,55.7,61.7,55.7c34.2,0,62-27.8,62-62c0-14-4.7-27.4-13.1-38.2c22.5,3.5,33-18.7,22.6-33.1
		C481.9,345.9,448.2,331.3,414.3,334.7z M323,179.2c0-7.2,5.9-13,13-13h21.1v34.1c-16.1,0-34.1,3-34.1-13V179.2z M70.2,156.3h16.3
		v13.6H70.2V156.3z M17.2,257.3v-101h41.3v19.4c0,3.2,2.6,5.9,5.9,5.9h28.1c3.2,0,5.9-2.6,5.9-5.9v-19.4h35.3v101H60H17.2z
		 M45.3,292.4v-8.7c0-8.1,6.6-14.7,14.7-14.7c19.8,0,121.1,0,140.8,0c8.1,0,14.7,6.6,14.7,14.7v8.7c0,8.1-6.6,14.7-14.7,14.7H60
		C51.9,307.1,45.3,300.5,45.3,292.4z M128.4,495.7c-27.7,0-50.3-22.6-50.3-50.3c0-4.7,0.7-9.3,1.9-13.8h96.7
		c1.3,4.5,1.9,9.1,1.9,13.8C178.7,473.1,156.1,495.7,128.4,495.7z M327.9,419.9c-9.9,0-240.5,0-252.1,0C53,419.9,36.6,398,43.2,376
		l17.2-57.1h125.7l-3.4,24.5c-1.9,13.7,2.2,27.6,11.3,38.1c9.1,10.5,22.3,16.5,36.2,16.5h20.6c29.4,0,56.6-13.3,74.6-36.4
		c18.1-23.1,24.3-52.7,17.2-81.2c-0.2-0.9-17.5-70.1-17.8-70.9c6,3,10.6,2.7,14.7,2.7l62.6,124.7
		C362.7,345.9,332.6,379.3,327.9,419.9z M481.3,445.4c0,27.7-22.6,50.3-50.3,50.3s-50.3-22.6-50.3-50.3c0-3.2,0.4-5.3,0-6.7
		c21.5-20.9,50.6-33,81.5-32.9C463.8,407.8,481.3,420,481.3,445.4z M483.6,395.9c-48.4-8.4-97.8,11.8-126.4,52.2
		c-4.9,6.9-15.9,4.8-17.2-3.8c-13.7-87.3,100.4-135.6,152.9-63.3C497.9,387.9,492,397.4,483.6,395.9z"/>
</g>
</svg>
