<?xml version="1.0" encoding="utf-8"?>
<!-- Generator: Adobe Illustrator 24.3.0, SVG Export Plug-In . SVG Version: 6.00 Build 0)  -->
<svg version="1.1" id="Layer_1" xmlns="http://www.w3.org/2000/svg" xmlns:xlink="http://www.w3.org/1999/xlink" x="0px" y="0px"
	 viewBox="0 0 600 600" style="enable-background:new 0 0 600 600;" xml:space="preserve">
<style type="text/css">
	.st0{fill:#2F294E;}
	.st1{fill:#543C32;}
	.st2{fill:#452C22;}
	.st3{fill:#26130B;}
	.st4{display:none;opacity:0.5;fill:#ECF0F1;enable-background:new    ;}
	.st5{fill:#F0C7B1;}
	.st6{fill:#FFE4D6;}
	.st7{fill:#E1AC8F;}
	.st8{fill:none;stroke:#C27B55;stroke-width:4.5;stroke-miterlimit:12;}
	.st9{fill:url(#SvgjsPath3568_1_);}
	.st10{fill:#335529;}
	.st11{fill:#24461B;}
	.st12{fill:#44643A;}
	.st13{fill:#0E2707;}
	.st14{fill:#F0C7B1;stroke:#C27B55;stroke-width:4.5;stroke-miterlimit:12;}
	.st15{fill:#C27B55;}
	.st16{fill:#E8B9A0;}
	.st17{fill:url(#SvgjsPath3576_1_);}
	.st18{fill:#E28C7C;}
	.st19{fill:#B4422D;}
	.st20{fill:#EA9B8C;}
	.st21{fill:#F1AA9D;}
	.st22{fill:url(#SvgjsPath3855_1_);}
	.st23{fill:#574022;}
	.st24{fill:#665032;}
	.st25{fill:#38250B;}
	.st26{fill:#291904;}
	.st27{opacity:0.9;enable-background:new    ;}
	.st28{opacity:0.7;fill:#FFFFFF;enable-background:new    ;}
	.st29{opacity:0.9;fill:#FFFFFF;enable-background:new    ;}
	.st30{fill:url(#SvgjsPath3881_1_);}
	.st31{fill:url(#SvgjsPath3886_1_);}
	.st32{fill:#150905;}
	.st33{fill:url(#SvgjsPath3863_1_);}
	.st34{fill:url(#SvgjsPath3902_1_);}
	.st35{fill:url(#SvgjsPath3907_1_);}
	.st36{fill:url(#SvgjsPath3280_1_);}
	.st37{fill:url(#SvgjsPath3284_1_);}
	.st38{fill:#2A232B;}
	.st39{fill:#26120B;}
	.st40{opacity:0.96;fill:#543C32;}
</style>
<rect x="-0.6" y="-1.7" class="st0" width="601.4" height="601.4"/>
<g id="svga-group-beardwrap" transform="matrix(1,0,0,1,0,0)">
	<g id="svga-group-beard-single-move" transform="matrix(1,0,0,1,0,0)">
		<g id="svga-group-beard-single" transform="matrix(1,0,0,1,0,0)">
			<path id="SvgjsPath3597" class="st1" d="M-292.5,394.5c-9.2,5.2-15.9,8.9-21.5,12.8c-34,22.7-37.4,75.7-43.3,125.6
				c-17.8-31.5-15.1-36.8-38.6-41.6c-28.8-6.3-38.4-9.1-49,4.9c-8.2-8.3-11.1-12.7-30.8-8.4c-35.1,6.9-36.8,6-47.3,28.5
				c-0.8,1.8-8.5,15-9.4,16.7c-1.7-11.9,0.2-12.3-4.7-38.6c-5.2-27.2-7.3-48.7-20.8-69.9c-13-18.1-41.3-31.6-55.2-36.3
				c0,22.8,2.2,56.9,2.6,61.3c5.2,53.6,26.2,137.2,63.5,172.3c31.2,28.2,65.9,26.2,102.3,26.2c18.8,0,54.2,1.3,75.8-9.2
				c29.3-11.3,49.6-43.3,61.2-72.6c20.2-49.3,31.2-98.6,31.2-178.2C-287.2,392-289.2,392.5-292.5,394.5z M-432.9,572.7
				c0.4-2.1,1.5-5.1,1.9-5.9c3.2-6.8,17.8-26.7,19.5-28.2c-19.4,5.8-42.2,6.5-66.2,0.8c5.7,6.8,19.2,24.4,20.8,33.3
				c-21.2-9.2-48.9-13.4-46-36.1c1.5-16.6,20.6-17.4,33.2-18.2c50.3-1,80.7-3.5,82.9,18.2C-384,559.3-411.3,563.5-432.9,572.7z"/>
			<path id="SvgjsPath3598" class="st2" d="M-276.5,388c0,79.6-11.1,128.9-31.2,178.2c-11.6,29.2-31.9,61.2-61.2,72.6
				c-21.6,10.5-57,9.2-75.8,9.2c-36.4,0-71.1,1.9-102.3-26.2c-37.3-35.1-58.2-118.8-63.5-172.3c-0.4-4.4-2.6-38.5-2.6-61.3
				c3,1,6.6,2.4,10.6,4.2c19.9,89.6,24.9,213.8,124.7,249.1c-3-6-12-18-12-18s18,12,27,18c0-3-2.9-14.6-2.9-14.6
				s14.3,10.3,23.3,13.3c0-3-3-12.2-3-12.2l15.7,10.4l23.9-20.8c0,0-7.5,15.8-10.5,21.8c10.8-2.9,28.4-15.9,28.4-15.9
				s-2.9,9.2-2.9,12.2C-303.2,586-303,481.6-290,393.1C-287.6,392-284.4,391-276.5,388z M-477.6,539.5c0.8,1,1.8,2.2,2.9,3.6
				c19.2,12.2,41,11.7,59.4,0.2c1.9-2.5,3.3-4.3,3.8-4.7C-430.8,544.4-453.7,545.1-477.6,539.5z M-442.6,631.7
				c-1.2-2.2-2.9-5.2-3.4-7.7c0,0-0.9-3.7-0.9-3.7c-0.1-0.3-1.1-7.7-0.9-7.7c-0.2-4-0.7-9.4-1-12.4
				C-451.1,620.7-447.9,625.6-442.6,631.7z M-431.7,555.3c0,0,0,0.3-0.1,0.8c-0.9,4.3-8,13.1-8.7,18.4
				C-440.8,565.6-432.2,558.3-431.7,555.3z M-369.4,544.5c4.3,9.8,0.8,16.6-3.8,26.2C-369.4,557.1-367.4,553.7-369.4,544.5z
				 M-385.9,515.2c4.3,6.6,5.9,7.8,11.2,27.8C-379.6,532-380.1,529-385.9,515.2z M-381.4,507c5.9,4.9,10,9.3,14.2,25.5
				C-372.6,520.5-376.1,513.4-381.4,507z M-433.2,622.5c1.6-17.8,6.9-27.8,18.8-41.2C-423.1,594.8-428.7,607.1-433.2,622.5z
				 M-414.4,615.7c6.4-9.9,13.4-25.7,26.2-29.2c-4.6,2.2-6.8,4.7-11,9.8c0,0-2.3,2.7-5.6,7.6C-407.3,607.4-411.4,612.7-414.4,615.7z
				 M-401.7,628.5c7.3-11.3,6.8-14.7,14.2-21.8C-394.4,616.3-393.9,620.6-401.7,628.5z M-406.9,591.7c3.8-12.1,9.7-23,21.8-29.2
				C-394.3,569.5-401.4,581.5-406.9,591.7z M-437.7,599.9c-2.9-8.7-1.1-16.4,0.8-25.5C-437.4,586.1-438.8,592.2-437.7,599.9z
				 M-349.2,585c-8.6,11.6-16.5,17-27,21C-366.3,600.1-362.1,596.3-349.2,585z M-336.4,549.7c-4.6,21.9-21.6,35.7-41.2,46.5
				c20.7-16.9,28.4-26.6,28.4-26.6C-345,564.7-339.7,557.2-336.4,549.7z M-354.4,568.5c-0.1-18.8,3.1-30.1,13.5-46.5
				C-347.4,538-352,554.8-354.4,568.5z M-317.7,491.2c-0.1,8,0.1,22.9-21,51.8c0.1-0.2,14.5-31.7,14.3-31.7
				C-320.4,501.8-319.3,498.1-317.7,491.2z M-340.9,507c-0.4-16.6,3.8-19.7,10.5-38.2C-333.8,486.3-338.1,489.3-340.9,507z
				 M-304.9,431.2c-3.5,20.9-7.6,26.2-21.8,57C-320.7,462.6-314.4,456-304.9,431.2z M-516.5,570.7c-4.8-9.9-7.9-16.1-3.8-26.2
				c-0.8,3.5-1.4,5.2,0,13.2C-520.2,557.7-516.5,570.7-516.5,570.7z M-515,543c4.5-18.9,8.3-23.2,11.2-27.8
				C-511.6,533.4-507.9,527.8-515,543z M-522.5,532.5c3.5-14.2,7.5-19.7,14.2-25.5C-514.4,514.3-517.6,522.1-522.5,532.5z
				 M-475.2,581.2c13.1,14.2,17,25.5,18.8,41.2C-460.7,606.9-466.2,596.1-475.2,581.2z M-501.5,586.5c4.3,1.1,8.2,3.2,12.6,8.5
				c0,0,3.9,4.3,10.8,16.1c1.5,2.7,2.8,4.6,2.8,4.6c-3.9-4-15.3-19.4-15.2-19.4C-495.9,589.9-497.6,588.4-501.5,586.5z
				 M-505.2,606.7c8.2,7.7,7.4,11.4,14.2,21.8C-498.5,620.9-498.6,616-505.2,606.7z M-504.5,562.5c5.7,2.9,9.1,6,11.1,8.8
				c0,0,1.4,1.8,2.7,3.6c4.6,7.1,5.5,9.3,8,16.8c-2.2-4.1-3.4-6.4-9.5-15.8c-1.3-1.8-2.6-3.5-2.6-3.5
				C-498.4,567.4-501.7,564.6-504.5,562.5z M-452.7,574.5c2,10.4,1.2,13.3-0.8,19.5C-452.3,586.6-452.4,587.5-452.7,574.5z
				 M-454.2,556.5c3,2.1,6.5,5,8.6,11.7c0,0,4,9.7,1.1,23.6C-444.3,587.4-444.9,566.4-454.2,556.5z M-513.5,606
				c-11.6-3.9-19.5-11.2-27-21C-530.6,593.9-524.2,599.5-513.5,606z M-512,596.2c-19.5-10.8-36.3-24.1-41.2-46.5
				c2.8,6.7,6.3,12.7,12.8,19.9C-540.4,569.6-532.3,579-512,596.2z M-548.7,522c9,14.2,13.7,25.7,13.5,46.5
				C-537.9,553.5-542.7,536.8-548.7,522z M-551,543c-11.6-15.5-20.5-32.1-21-51.7C-568.2,507.8-561.8,518.4-551,543z M-559.2,468.7
				c7.3,19.5,11,22.7,10.5,38.2C-551,489.9-555.8,487.6-559.2,468.7z M-563,488.2c-11.4-24.8-17.9-33.9-21.8-57
				C-574.2,458.7-568.6,464-563,488.2z"/>
			<path id="SvgjsPath3599" class="st3" d="M-292.5,394.5c-9.2,5.2-15.9,8.9-21.5,12.8c-34,22.7-37.4,75.7-43.3,125.6
				c-17.8-31.5-15.1-36.8-38.6-41.6c-28.8-6.3-38.4-9.1-49,4.9c-8.2-8.3-11.1-12.7-30.8-8.4c-35.1,6.9-36.8,6-47.3,28.5
				c-0.8,1.8-8.5,15-9.4,16.7c-1.7-11.9,0.2-12.3-4.7-38.6c-5.2-27.2-7.3-48.7-20.8-69.9c-13-18.1-41.3-31.6-55.2-36.3
				c0,22.8,2.2,56.9,2.6,61.3c5.2,53.6,26.2,137.2,63.5,172.3c31.2,28.2,65.9,26.2,102.3,26.2c18.8,0,54.2,1.3,75.8-9.2
				c29.3-11.3,49.6-43.3,61.2-72.6c20.2-49.3,31.2-98.6,31.2-178.2C-287.2,392-289.2,392.5-292.5,394.5z M-334.6,605.3
				c-14.3,21.8-46.5,36-59.9,36.8c-4.6,0.5-26.7,4.4-77.6,2.2c-8.8-0.1-33.9-2.6-47-9.5c-50.8-21.2-74.1-106.7-84.5-161.1
				c-3.1-14.5-7-52.6-8.8-84.7c19.9,8.7,44.1,23.9,55.1,43.5c9.6,18.3,11.8,39.9,17,62.4c6.6,29.2,3.3,20.2,7,39.1
				c0.1,0.5,0.2,1,0.3,1.4c27.7-43.1,13.9-36.5,57.6-45.5c13.5-3.3,21-4,30.3,7.2c11.6-13.7,18.8-9.8,48.4-3.6
				c23.4,5.2,17.8,8.7,37,37.9c0.8,1.1,2.3,3.6,2.5,4c1.7-6.8,2.6-17.9,4.5-28.4c0.6-3,10.3-49.2,13.8-59.6
				c9.1-28.9,23.6-36.6,47-51.6c3.1-2.2,5.9-3.1,14.3-6.9C-281.7,459.2-293.2,547.7-334.6,605.3z M-414.8,516.2
				c-14.7-0.2-17.5,1.2-54.8-0.1c-11.3,0.2-22.7,0.4-30,7.5c-8.8,8-13.3,31.7,17.3,42.1c9.9,3.1,24.4,7.6,26.8,8.6
				c0-9.7-17.2-30.8-19.9-33.9c27.6,6.9,52.3,3,61.8-0.8c-4.2,4.6-20.6,25.2-20.6,34.7c26.2-8.8,41.2-10.9,48-24.4
				C-379.9,538.4-383.2,515.7-414.8,516.2z M-432.9,572.7c0.4-2.1,1.5-5.1,1.9-5.9c3.2-6.8,17.8-26.7,19.5-28.2
				c-19.4,5.8-42.2,6.5-66.2,0.8c5.7,6.8,19.2,24.4,20.8,33.3c-21.2-9.2-48.9-13.4-46-36.1c1.5-16.6,20.6-17.4,33.2-18.2
				c50.3-1,80.7-3.5,82.9,18.2C-384,559.3-411.3,563.5-432.9,572.7z"/>
		</g>
	</g>
</g>
<rect id="svga-credit-rect" y="555" class="st4" width="600" height="45"/>
<g>
	<g id="svga-group-hair-back-move" transform="matrix(1,0,0,1,0,0)">
		<g id="svga-group-hair-back" transform="matrix(1,0,0,1,0,0)">
			<path id="SvgjsPath3585" class="st1" d="M295.2,282.3h-2.3V280h2.3V282.3z"/>
		</g>
	</g>
	<g id="svga-group-humanbody-single">
		<path id="SvgjsPath3288" class="st5" d="M513.7,509.9c-5.1-10.9-18.9-27.1-34.2-31.6c-19-5.5-61.8-12.2-77.7-15.9
			c-12.7-3-38.4-26-47.3-33.7c-1.6-1.4-2.9-4.2-3-6.4c-0.3-25,9.7-91.4,9.7-91.4H294h-67.1c0,0,10,66.4,9.7,91.4c0,2.1-1.4,5-3,6.4
			c-9,7.7-34.6,30.7-47.3,33.7c-15.9,3.7-58.7,10.6-77.7,16.2c-15.3,4.5-29.2,20.4-34.2,31.4c-8.5,18.4-10.6,51.8-10.6,80.6H294
			h230.2C524.2,561.7,522.2,528.3,513.7,509.9z"/>
		<path id="SvgjsPath3289" class="st6" d="M430.2,473.7c56,8.2,79.6,20,87,116.8h7c0-28.8-2-62.1-10.6-80.6
			c-5.1-10.9-18.9-27.1-34.2-31.6c-19-5.5-61.8-12.2-77.7-15.9c-12.7-3-42-27.8-49.8-37.6c7.7,10.8,29.4,35.9,48.5,42.5
			C409.6,470.4,417.1,471.8,430.2,473.7z M187.6,467.2c19-6.6,40.7-31.7,48.5-42.5c-7.8,9.9-37.1,34.7-49.8,37.6
			c-15.9,3.7-58.7,10.6-77.7,16.2c-15.3,4.5-29.2,20.4-34.2,31.4c-8.5,18.4-10.6,51.8-10.6,80.6h7c7.3-96.1,31-108.6,87-116.8
			C170.9,471.8,178.5,470.4,187.6,467.2z"/>
		<path id="SvgjsPath3290" class="st7" d="M284,504.9c0,0-11.7-3.7-16.3-5.5c-24.1-9.2-102.2-15.2-102.2-15.2s82.3,3.3,100.5,6.4
			c-1.1-11-6.9-46.1-6.9-46.1s11.9,38.7,14.8,48.5C275.3,498.3,284,504.9,284,504.9z M308.9,501.8c-0.2,0.2-0.4,0.4-0.7,0.6
			C308.4,502.2,308.7,502,308.9,501.8z M284,504.9c0,0,6.7,6.9,10,7c4.4,0.1,11.1-6.7,14.2-9.4c-2.9,2.2-9.6,3.2-12.2,3.3
			C292.9,505.9,284,504.9,284,504.9z M332.4,487.6c-3.6,0.6-10.1,1.8-10.1,1.8l5.3-34.3c-1.5,7.1-10.3,37.3-18.7,46.7
			c4.4-3.7,14.2-5.5,19.2-6.2c23.6-3.4,23.6-3.4,94.5-11.4C422.6,484.2,355.6,483.9,332.4,487.6z"/>
		<path id="SvgjsPath3291" class="st8" d="M513.7,509.9c-5.1-10.9-18.9-27.1-34.2-31.6c-19-5.5-61.8-12.2-77.7-15.9
			c-12.7-3-38.4-26-47.3-33.7c-1.6-1.4-2.9-4.2-3-6.4c-0.3-25,9.7-91.4,9.7-91.4H294h-67.1c0,0,10,66.4,9.7,91.4c0,2.1-1.4,5-3,6.4
			c-9,7.7-34.6,30.7-47.3,33.7c-15.9,3.7-58.7,10.6-77.7,16.2c-15.3,4.5-29.2,20.4-34.2,31.4c-8.5,18.4-10.6,51.8-10.6,80.6H294
			h230.2C524.2,561.7,522.2,528.3,513.7,509.9z"/>
	</g>
	<g id="svga-group-chinshadow-single">
		
			<linearGradient id="SvgjsPath3568_1_" gradientUnits="userSpaceOnUse" x1="-339.5168" y1="614.7316" x2="-339.5168" y2="644.5769" gradientTransform="matrix(3 0 0 -3 1318 2284)">
			<stop  offset="0" style="stop-color:#E1AC8F;stop-opacity:0.8"/>
			<stop  offset="0.7" style="stop-color:#C27B55"/>
		</linearGradient>
		<path id="SvgjsPath3568" class="st9" d="M308.2,440.3c12.5-3.7,31.4-16.5,48.6-30.3c0.8-15.6,3.4-37.4,5.6-54.9
			c-35.2-5.8-90.6-5.7-125.9,0.2c2.2,17.2,4.7,38.6,5.6,54.1c16.6,13.7,34.8,26.8,48.7,30.8C292.7,440.8,306.3,440.8,308.2,440.3z"
			/>
	</g>
	<g id="svga-group-clothes-single">
		<path id="SvgjsPath3619" class="st10" d="M55.1,595.8c-6.9-57.2,18.9-111,81.3-128.7c18.3-5.2,13.4-7.9,16.2-8
			c-0.1-0.5-0.1-0.5-0.1-1.5h-0.1c0.2-18.9,21.3-15.2,27.3-16.5c23.8-5.1,31.9-30.1,59.2-23.5c0.7,5.7,0.2,12.4-3.2,36.9
			c25.7,55.3,53.5,50.5,63.4,81.5c9-27.7,40.9-32.1,64.3-81.5c-1.5-13.9-4.9-26-3.5-37.5l0.1-0.1c18.2-6.1,26.2,2.1,33.5,9.1
			c22.1,21.4,33.9,7.8,45,17.6c4.4,3.9,6,9.4,6,15.4c50.5,7.3,108.3,23.3,96.8,135.4l0.2,0.2C490.5,594.5,199.4,607.3,55.1,595.8z"
			/>
		<path id="SvgjsPath3620" class="st11" d="M300.1,533.3c10-25.1,39.9-30.9,62.5-77.2c0.2-0.3,0.8-1.4,1.5-2.9
			c-0.4-4.3-0.9-8.8-2.9-13.6c-1.2-7.9-2.2-15.3-1.4-22.5c4.7,1.4,9.1,3,12.1,6.3c4.4,4.8,1.1,13.2-3.2,21.3
			C360.8,479.5,340.9,504.6,300.1,533.3z M462.7,507.8c6.9,24.4,11.5,63.4,6,88.2c4.6-0.1,6.3-0.2,10.6-0.3
			C481.2,569.7,476.5,528.1,462.7,507.8z M388,512.2c-30.2,17.6-60.5,24.4-87.9,47.8c-27.4-23.3-58.1-27.4-88.2-45
			c-13.8-5.6-35-25.2-48-39c40.8,61.9,70,44.4,135.3,86.1c65.4-41.7,94.7-27.5,135.5-89.5C421.7,486.4,401.9,506.7,388,512.2z
			 M299,536.3c-10-25.1-38.8-33.9-61.4-80.1c-0.2-0.3-0.8-1.4-1.5-2.9c0.4-4.3-0.6-9.1,1.4-13.8c1.2-7.9,1.8-14.4,0.9-21.5
			c-4.6,1.4-7.1,2.3-10.1,5.6c-4.4,4.8-1.1,13.2,3.2,21.3C239.4,479.5,258.2,507.5,299,536.3z M127.8,505
			c-10.1,22.1-10.2,64.6-8.3,90.7c4.3,0.1,6,0.2,10.6,0.3C124.6,571.3,126,530,127.8,505z M299.2,541
			c38.6-11.6,79.7-32.7,113.8-84.5c-30.8,41.6-76.6,66.1-112.9,81.2c-37.4-13.6-82.3-40.6-108.4-76.9
			C222.3,511,260.6,529.5,299.2,541z"/>
		<path id="SvgjsPath3621" class="st12" d="M541.6,594.5c-0.3,0-0.6,0-0.9,0c-1-114.5-64.8-119.2-100.1-126.6
			c-5.5,0-8.4-15.3-12.5-19.4c-3.5-3.5-30.1-3.5-38.5-26.3c1.4,1.2,2.7,2.5,3.9,3.7c22.1,21.4,33.9,7.8,45,17.6
			c4.4,3.9,6,9.4,6,15.4c50.5,7.3,108.3,23.3,96.8,135.4L541.6,594.5z M54.5,597.3c0.3,0,0.6,0,0.9,0
			c11.2-91,37.8-119.7,102.6-130.4c8.1-3.1,3.9-9,7.9-13.1c3.5-3.5,22.7-3.5,49.3-31.5c-1.4,1.2-7.2,2.5-8.5,3.7
			c-22.1,21.4-38.8,15.3-45,17.6c-7.6,2.8-8.7,9.5-8.7,15.4c-50.5,7.3-104.1,35.3-98.3,138.1L54.5,597.3z"/>
		<path id="SvgjsPath3622" class="st13" d="M444.8,458.6c0-23.2-21.8-18.6-31.9-20.8c-22.2-4.8-21.5-30.4-53.2-21.2
			c-1.4,11,1.2,20.6,3.5,37.7c-23.3,48.9-55.6,54.4-64.1,80.7c-9.3-29.2-37.8-26.2-63.2-80.5c3.5-25.5,3.9-31.5,3.2-37.2
			c-24.2-5.5-29.7,10.2-51.5,20.7c-13.3,6.2-17,0.6-28.4,6.2c-4.7,2.3-7.1,8.5-6.9,13.6c0,0,0,0,0,0c0,0.3,0,0.6,0.1,0.9
			c-2.8,0.2,1.3,0.2-17.3,3.2c-59.8,9.7-86.3,60.2-80.1,134.1c28,0,2.4,10.3,431.5-0.2c19.9-0.5,53.7-1.1,55.1-1.1
			C554.7,485.2,499.3,467.1,444.8,458.6z M55.3,595.4c6.1-84.8,18.9-117.9,96.7-135.1c42.4,70.3,94.2,60.1,146.6,99.4
			c-47.5-39.5-97.3-34.3-145.2-100.3c-0.5-5.5,2.4-11.6,8.3-14c4.2-1.7,8.8-1.2,13.2-1.1c16.7,0.1,29.6-13,41.9-22.6
			c5.9-3.9,14.7-4.1,21.7-3c0.5,9.1-3,22.9-4.2,32.6c-2.5-5.4-4.8-11-7.1-16.5c29.4,86.3,58.7,66.8,71.8,102.6
			c-2.8-0.8-49.5-17.6-86.8-54.6c-7.9-7.8-23.6-25.1-24.8-26.7c46.1,62.5,75.6,65.6,111.7,81.7c0,0,0,0.1,0,0.1
			c0,0.1,0.2,0.5,0.2,0.6c0.2-0.1,0.4-0.2,0.6-0.2c0.1-0.1,0.1-0.1,0.2-0.1c5-2.5,37.9-13.9,62.9-31.1
			c25.7-17.7,55.1-56.1,52.9-53.3c-43,43.8-49.7,53.7-116,84c-0.1,0-0.1,0-0.2,0c-0.1-0.3-0.2-0.6-0.3-0.9c0-0.1,0.1-0.3,0.1-0.4
			c11.7-32,45.9-19.6,74.2-107.3c-2.9,7.6-6,15-9.4,22.4c-1.1-12.9-4.8-23-4.4-33.6c4.9-1.6,18.2-2.4,21.9,1.3
			c15.4,13.2,16.6,22.8,41.7,22.8c8,0,18.5,1.1,19.7,15.8c-1.5,2.2-12.5,15.2-22.9,25.5c-36.4,36.2-68.9,36.9-119.3,75.4
			c1.2,0,3.8-2.7,4.8-3.3c39.4-28,67.7-27.5,103.9-57.1c16.7-13.6,32.7-35.4,34.5-38.2c0.1,0,0.1,0,0.2,0
			c66.4,11.4,99.7,36.4,96,134.5C243,592.4,202.6,600.4,55.3,595.4z"/>
	</g>
	<g id="svga-group-ears-left-move" transform="matrix(1,0,0,1,0,0)">
		<g id="svga-group-ears-left" transform="matrix(1,0,0,1,0,0)">
			<path id="SvgjsPath3572" class="st14" d="M173.1,238.8c-2.2-5.8-18.7-13.9-25.9-12.6c-8.2,1.5-11.2,10.1-10.1,16.5
				c2.6,15,9.2,21.3,12.3,33.1c2.5,9.9,7.9,15.6,10.6,19.8c3.3,5.2,6.3,17,7,18.7c1.1,2.7,4.9,9.4,11.6,9
				c7.7-0.4,17.5-15.5,17.6-18.8C197,286.2,178.9,253.8,173.1,238.8z"/>
			<path id="SvgjsPath3573" class="st15" d="M174.8,300c0,0,1-2.5-0.2-4.7c-1.6-2.8-5.6-8-6.5-11.1c-0.8-2.5-0.4-8-0.5-10.6
				c-0.2-4.7-3.5-7.9-4.5-10.6c-6.7-18-15.7-29.2-20.8-31.5c-3.8,9.2-0.8,16,4.5,30.2c-3.2-19.3-0.1-25.3-0.1-25.3s9.3,8,13.9,25.8
				c0.8,3.2-2.6,9.9-1.9,13.2c0.8,4.1,9.7,12,12.2,15.4C172.7,293.2,174.8,300,174.8,300z"/>
		</g>
	</g>
	<g id="svga-group-ears-right-move" transform="matrix(1,0,0,1,0,0)">
		<g id="svga-group-ears-right" transform="matrix(1,0,0,1,0,0)">
			<path id="SvgjsPath3574" class="st14" d="M423.2,232.3c2.3-5.9,19-14.1,26.4-12.8c8.3,1.5,11.4,10.3,10.3,16.8
				c-2.6,15.3-9.4,21.7-12.5,33.7c-2.6,10.1-8.1,15.9-10.8,20.1c-3.3,5.2-6.4,17.3-7.1,19.1c-1.1,2.8-5,9.5-11.8,9.2
				c-7.9-0.4-17.8-15.8-17.9-19.2C398.9,280.6,417.3,247.5,423.2,232.3z"/>
			<path id="SvgjsPath3575" class="st15" d="M421.5,294.6c0,0-1-2.5,0.2-4.8c1.6-2.9,5.7-8.2,6.6-11.3c0.8-2.6,0.4-8.1,0.5-10.8
				c0.2-4.8,3.5-8.1,4.5-10.8c6.9-18.4,16-29.7,21.2-32.1c3.8,9.4,0.8,16.3-4.6,30.7c3.2-19.7,0.1-25.8,0.1-25.8s-9.5,8.2-14.1,26.3
				c-0.8,3.3,2.6,10.1,2,13.4c-0.8,4.2-9.9,12.3-12.4,15.6C423.6,287.8,421.5,294.6,421.5,294.6z"/>
		</g>
	</g>
	<g id="svga-group-faceshape-wrap" transform="matrix(1,0,0,1,0,0)">
		<g id="svga-group-faceshape-single">
			<path id="SvgjsPath3565" class="st5" d="M382.1,360.6c-17.4,17.9-58.2,51.8-79.6,58.1c-1.9,0.5-15.1,0.6-17,0
				c-23.9-7-61.1-41.4-79.5-58.2c-1.6-1.5-4.3-4.9-5.3-6.8c-15.8-29.4-42.5-126.5-42.5-126.6c-3-11.3-4.6-23.2-4.6-35.4
				C153.5,114.6,216.1,52.1,293.5,52c77.4-0.1,140.2,62.2,140.3,139.3c0,12.2-1.5,24.1-4.5,35.4c0,0.1-27,97-42.1,126.7
				C386.2,355.4,383.7,359,382.1,360.6z"/>
			<path id="SvgjsPath3566" class="st16" d="M346.8,62.3c44.7,21.9,75.8,70.4,75.8,126.9c0,12.2-1.4,24.1-4.1,35.4
				c0,0.1-24.8,97-38.7,126.7c-0.9,2-3.3,5.6-4.7,7.2c-16,17.9-53.5,51.8-73.2,58.1c-1.7,0.5-13.9,0.6-15.6,0
				c-22-7-56.2-41.4-73.2-58.2c-1.5-1.5-4-4.9-4.9-6.8c-14.6-29.4-39.1-126.5-39.1-126.6c-2.8-11.3-4.2-23.2-4.2-35.4
				c-0.1-56.6,31-105.4,75.8-127.3c-51.1,20.9-87.1,70.9-87,129.3c0,12.2,1.6,24.1,4.6,35.4c0,0.1,26.7,97.2,42.5,126.6
				c1,1.9,3.7,5.4,5.3,6.8c18.5,16.8,55.6,51.2,79.5,58.2c1.9,0.5,15.1,0.5,17,0c21.4-6.3,62.2-40.3,79.6-58.1
				c1.5-1.6,4.1-5.2,5.1-7.2c15.1-29.8,42.1-126.6,42.1-126.7c3-11.3,4.5-23.2,4.5-35.4C433.8,133,397.8,83.1,346.8,62.3z"/>
			<path id="SvgjsPath3567" class="st8" d="M382.1,360.6c-17.4,17.9-58.2,51.8-79.6,58.1c-1.9,0.5-15.1,0.6-17,0
				c-23.9-7-61.1-41.4-79.5-58.2c-1.6-1.5-4.3-4.9-5.3-6.8c-15.8-29.4-42.5-126.5-42.5-126.6c-3-11.3-4.6-23.2-4.6-35.4
				C153.5,114.6,216.1,52.1,293.5,52c77.4-0.1,140.2,62.2,140.3,139.3c0,12.2-1.5,24.1-4.5,35.4c0,0.1-27,97-42.1,126.7
				C386.2,355.4,383.7,359,382.1,360.6z"/>
		</g>
	</g>
	<g id="svga-group-mouth-single-move" transform="matrix(1,0,0,1,0,0)">
		<g id="svga-group-mouth-single" transform="matrix(1,0,0,1,0,0)">
			
				<linearGradient id="SvgjsPath3576_1_" gradientUnits="userSpaceOnUse" x1="-341.0091" y1="636.48" x2="-341.0091" y2="639.5495" gradientTransform="matrix(3 0 0 -3 1318 2284)">
				<stop  offset="0.1" style="stop-color:#E8B9A0"/>
				<stop  offset="1" style="stop-color:#E1AC8F"/>
			</linearGradient>
			<path id="SvgjsPath3576" class="st17" d="M295.6,374.6c-13.1,0-18.3-9.2-18.3-9.2c15.8,5.6,35.5,0.6,35.5,0.6
				S308.7,374.6,295.6,374.6z"/>
			<path id="SvgjsPath3580" class="st18" d="M252.1,350.5c8.2-0.3,24.5-1.4,30.4-1.1c3.1,0.2,8.1,2.3,11.4,3
				c2.3,0.5,11.1-1.9,13.4-1.9c6.2,0,19.6,2.9,26.8,4.1c0.4,0.1,0,0,0,0s-17.7,15.1-40.4,14.1C268.1,367.7,252.1,350.5,252.1,350.5
				S251.7,350.5,252.1,350.5z"/>
			<path id="SvgjsPath3581" class="st19" d="M334.9,354.3c-0.2-0.3-1.5-0.6-1.9-0.5c-0.9,0.1-1.5,0.9-3.3,1.1
				c-2.1,0.2-13.1,1.9-16.1,1.8c-6.1-0.1-13,1.3-18.8,1c-5.8-0.3-14.9-2.7-20.9-3.1c-3-0.2-15.2-3.1-17.3-3.5
				c-1.7-0.3-1.9-1.2-2.6-1.4c-0.5-0.2-1.9-0.1-2.3,0.2c-0.3,0.2-0.2,1.3,0,1.6c0.6,0.7,2.7,1,4.2,1.3c2.1,0.4,14.6,3.3,17.7,3.5
				c6,0.4,15.2,3,21,3.3c5.8,0.3,12.9-1.4,18.9-1.2c3.1,0.1,14.3-1.6,16.5-1.8c1.6-0.1,3.6-0.4,4.3-0.9
				C334.6,355.4,335.1,354.6,334.9,354.3z"/>
			<path id="SvgjsPath3582" class="st20" d="M294,365.9c-10.2-0.4-26.2-4.4-32.3-9.6c3.8,0.4,11.9,1.1,15.6,1.6
				c4.6,0.6,11,2.3,15.6,2.7c5.1,0.5,12-0.5,16.9-1c4.1-0.4,10.5-1.5,14.6-1.7C317.6,362.2,303.8,366.3,294,365.9z M310.5,355.2
				c3.7-0.2,9.4-1.4,13.1-1.6c-4.1-1.1-10.4-1.1-14.7-1.6c-3.8-0.4-9.6,1.6-13.3,1.9c-4.2,0.3-9.3-2.8-13.2-3.1
				c-4.3-0.3-13.2,0.7-17.4,1.4c3.6,0.4,11.4,1,14.9,1.6c4.3,0.7,10.5,2.2,15,2.4C299.5,356.4,306,355.5,310.5,355.2z"/>
			<path id="SvgjsPath3583" class="st21" d="M294,364.1c-6-0.3-16.1-2.4-20.4-5.4c1.1,0.1,4.3,0.3,5.4,0.4c0.3,0,0.7,0.1,1,0.1
				c1.7,0.2,3.4,0.7,5.2,1.2c1.7,0.5,5.7,1.1,7.7,1.3c0.4,0,0.8,0.1,1.2,0.1c2.4,0.1,6.9-0.1,9.1-0.5c1.4-0.2,2.7-0.4,4.1-0.6
				c0.7-0.1,1.5-0.1,2.4-0.1c0.8,0,1.6,0,2.4,0C308,362.7,300.3,364.4,294,364.1z"/>
			<path id="SvgjsPath3584" class="st15" d="M246.6,352.6c0,0-1.6-2.7-1.4-3.8c0.3-1.4,4.4-4.3,4.4-4.3s-2.5,3.3-2.9,4.3
				C246.3,349.9,246.6,352.6,246.6,352.6z"/>
		</g>
	</g>
	<g id="svga-group-eyes-left-move" transform="matrix(1,0,0,1,0,0)">
		<g id="svga-group-eyes-left" transform="matrix(1,0,0,1,0,0)">
			<g id="svga-group-eyesback-left">
				
					<radialGradient id="SvgjsPath3855_1_" cx="-756.8302" cy="679.5041" r="7.8369" gradientTransform="matrix(-3 0 0 -3 -2036 2284)" gradientUnits="userSpaceOnUse">
					<stop  offset="0" style="stop-color:#FFFFFF"/>
					<stop  offset="0.544" style="stop-color:#FDFEFE"/>
					<stop  offset="0.74" style="stop-color:#F6F8F9"/>
					<stop  offset="0.879" style="stop-color:#EAEFF2"/>
					<stop  offset="0.992" style="stop-color:#D9E3E8"/>
					<stop  offset="1" style="stop-color:#D8E2E7"/>
				</radialGradient>
				<path id="SvgjsPath3855" class="st22" d="M204.1,242.4c-0.5,6.4,3.9,13.9,28.8,16c22,1.9,31.4-1.7,32-9s-7.8-16.1-29.7-17.2
					C215.8,231.2,204.7,235.1,204.1,242.4z"/>
			</g>
			<g id="svga-group-eyesiriswrapper-left" transform="matrix(1,0,0,1,0.5,0.25)">
				<g id="svga-group-eyesiriscontrol-left" transform="matrix(1,0,0,1,0,0)">
					<g id="svga-group-eyesiris-left" transform="matrix(1,0,0,1,0,0)">
						<path id="SvgjsPath3551" class="st23" d="M248.6,244.7c0,7.6-6.2,13.8-13.8,13.8c-7.6,0-13.8-6.2-13.8-13.8
							c0-7.6,6.2-13.8,13.8-13.8C242.4,230.9,248.6,237,248.6,244.7z"/>
						<path id="SvgjsPath3552" class="st24" d="M226.8,251.1c2-0.2,0.2-0.7,0.2-0.7c-1-0.5-2.9-1.4-2.9-2.1c0-2.4,3.3-3-0.1-3.9
							c-3.5-3.2,2.7-3.1,2.6-3.2c-2.2-5.5,0.7-2.5,1.9-4.1c4.6-6,1.3,0.6,3.8,0c0.9-0.2-1.8-3.5,0.1-3.1c1.2,0.3,1.5,1.3,1.5,1.3
							c0.9-0.2,2.3-1.6,2.3-1.6c1.7,0.5,2.9,3,2.4,2.5c0.8-0.1,2-0.5,3-0.8c0,0,0.2-0.6,0.3-0.1c2.1,6.1,7.6,5.7,1.3,7.5
							c0,0-0.4,0,0.9,1c6.2,5-4.8,3.4,1,5.7c0.2-0.2-3.5,2.2-3.5,2.9c0,1.2-2.4,4.2-4.5,3c-1.2-0.7-1.3,1.4-2,0.4
							c-1.3-1.8-4-0.1-3-1.8c1.5-1.2-1.5,0.5-2.1,0.5c-1.9,0,2.5-6.4,9-1.6c1.9,1.4-2-3.3,1.4-3.3c0.3,0.1,0.2-1.2,0.2-1.6
							c-1.8-0.3,3.2,0,3.2-2.9c0.3,0.1,1.2-0.8-3.8,0c0,0-0.2-1.7-0.1-2c0.3-1,2.8-0.7,2.1-1.7c0,0-1.8-3.7-1.8-3.7
							c-5.9-1-2.5-1.5-6.2-0.8c-0.2,0.9-7.9,4.6-7.7,6.3c0.2,1.6,4.9,2.2,0.5,5C233.5,260.9,222,248,226.8,251.1z"/>
						<path id="SvgjsPath3553" class="st25" d="M234.8,232.6l0.4,10.1l4.2-9.2l-3.5,9.5l7.4-6.9l-6.9,7.4l9.5-3.5l-9.2,4.2l10.1,0.4
							l-10.1,0.4l9.2,4.2l-9.5-3.5l6.9,7.4l-7.4-6.9l3.5,9.5l-4.2-9.2l-0.4,10.1l-0.4-10.1l-4.2,9.2l3.5-9.5l-7.4,6.9l6.9-7.4
							l-9.5,3.5l9.2-4.2l-10.1-0.4l10.1-0.4l-9.2-4.2l9.5,3.5l-6.9-7.4l7.4,6.9l-3.5-9.5l4.2,9.2L234.8,232.6z"/>
						<path id="SvgjsPath3554" class="st26" d="M236.7,235.6l-1.2,7.6l4.6-6.2l-4.1,6.6l6.6-4l-6.3,4.5l7.6-1.2l-7.5,1.8l7.5,1.8
							l-7.6-1.2l6.2,4.6l-6.6-4.1l4,6.6l-4.5-6.3l1.2,7.6l-1.8-7.5l-1.8,7.5l1.2-7.6l-4.6,6.2l4.1-6.6l-6.6,4l6.3-4.5l-7.6,1.2
							l7.5-1.8l-7.5-1.8l7.6,1.2l-6.2-4.6l6.6,4.1l-4-6.6l4.5,6.3l-1.2-7.6l1.8,7.5L236.7,235.6z"/>
						<path id="SvgjsPath3555" class="st27" d="M240,244.7c0,2.9-2.3,5.2-5.2,5.2c-2.9,0-5.2-2.3-5.2-5.2c0-2.9,2.3-5.2,5.2-5.2
							C237.7,239.5,240,241.8,240,244.7z"/>
						<path id="SvgjsPath3556" class="st28" d="M229.4,254.6c-0.8,0.8-2.3,0.5-3.4-0.6c-1.1-1.1-1.4-2.6-0.6-3.4
							c0.8-0.8,2.3-0.5,3.4,0.6C229.9,252.3,230.1,253.8,229.4,254.6z"/>
						<path id="SvgjsPath3557" class="st29" d="M245.9,241.9c-1.1,1.1-3.9,0.2-6.2-2c-2.3-2.3-3.2-5-2-6.2c1.1-1.1,3.9-0.2,6.2,2
							C246.1,238,247,240.8,245.9,241.9z"/>
					</g>
				</g>
			</g>
			<g id="svga-group-eyesfront-left">
				<path id="SvgjsPath3880" class="st5" d="M192.2,250.5c2.8,31.7,24.5,55.6,48.6,53.5c24.1-2.1,41.3-29.5,38.6-61.1
					s-24.5-55.6-48.6-53.5C206.7,191.5,189.4,218.9,192.2,250.5z M204.1,242.4c0.6-7.2,11.7-11.2,31.1-10.2
					c21.8,1.1,30.3,10,29.7,17.2c-0.7,7.2-10,10.9-32,9C208,256.3,203.6,248.7,204.1,242.4z"/>
				
					<radialGradient id="SvgjsPath3881_1_" cx="-310.4938" cy="847.9101" r="13.57" fx="-300.9525" fy="847.937" gradientTransform="matrix(2.9994 6.240000e-02 -4.980000e-02 2.3994 1212.8557 -1771.3558)" gradientUnits="userSpaceOnUse">
					<stop  offset="0" style="stop-color:#E1AC8F"/>
					<stop  offset="0.7" style="stop-color:#E1AC8F;stop-opacity:0.3"/>
					<stop  offset="1" style="stop-color:#F0C7B1;stop-opacity:0"/>
				</radialGradient>
				<path id="SvgjsPath3881" class="st30" d="M196.9,247.1c1.4,17.8,23.6,30.7,45.8,28.7c22.1-2,40.4-15.5,38.8-33.2
					c-1.6-17.7-20.8-30.4-43-28.4C216.3,216.2,195,222.8,196.9,247.1z M204.1,242.4c0.6-7.2,11.7-11.2,31.1-10.2
					c21.8,1.1,30.3,10,29.7,17.2c-0.7,7.2-10,10.9-32,9C208,256.3,203.6,248.7,204.1,242.4z"/>
				
					<radialGradient id="SvgjsPath3886_1_" cx="-766.831" cy="798.8254" r="19.8163" gradientTransform="matrix(-2.6238 -1.4544 1.0908 -1.968 -2641.4485 740.2021)" gradientUnits="userSpaceOnUse">
					<stop  offset="0.94" style="stop-color:#000000;stop-opacity:0"/>
					<stop  offset="1" style="stop-color:#000000;stop-opacity:0.2"/>
				</radialGradient>
				<path id="SvgjsPath3886" class="st31" d="M204.1,242.4c-0.5,6.4,3.9,13.9,28.8,16c22,1.9,31.4-1.7,32-9s-7.8-16.1-29.7-17.2
					C215.8,231.2,204.7,235.1,204.1,242.4z"/>
				<path id="SvgjsPath3890" class="st15" d="M260.8,234c-2.4-1.5-7.6-3.7-7.6-3.7s5.9,1.4,8.3,2.9c2.3,1.6,4.8,5.4,4.8,5.4
					S263.2,235.5,260.8,234z M218.1,228.5c0,0-6.1-0.1-10.5,2.6c-4,2.5-5.6,6.2-5.6,6.2s3.8-4,6.5-5.8
					C211,229.9,218.1,228.5,218.1,228.5z"/>
				<path id="SvgjsPath3891" class="st32" d="M235.9,232.7c-14.2-0.5-35.9,0.9-30.9,14.3c-7.4-4.5-1.7-20.3,32.2-17.5
					c16.4,1.4,36,9.8,26.9,22.5C267,238.8,249.8,233.2,235.9,232.7z M260.9,255.9l-7,2.2c-12.2,0.2-19-0.6-30.4-1.2
					c-5.2-0.2-10-2.8-16.1-5.7c3.5,3.9,9.4,7,16,7.4c11,0.6,18.5,0.8,30.9,0.9L260.9,255.9z"/>
			</g>
		</g>
	</g>
	<g id="svga-group-eyes-right-move" transform="matrix(1,0,0,1,0,0)">
		<g id="svga-group-eyes-right" transform="matrix(1,0,0,1,0,0)">
			<g id="svga-group-eyesback-right">
				
					<radialGradient id="SvgjsPath3863_1_" cx="-321.4799" cy="679.8375" r="7.8369" gradientTransform="matrix(3 0 0 -3 1318 2284)" gradientUnits="userSpaceOnUse">
					<stop  offset="0" style="stop-color:#FFFFFF"/>
					<stop  offset="0.544" style="stop-color:#FDFEFE"/>
					<stop  offset="0.74" style="stop-color:#F6F8F9"/>
					<stop  offset="0.879" style="stop-color:#EAEFF2"/>
					<stop  offset="0.992" style="stop-color:#D9E3E8"/>
					<stop  offset="1" style="stop-color:#D8E2E7"/>
				</radialGradient>
				<path id="SvgjsPath3863" class="st33" d="M383.9,241.4c0.5,6.4-3.9,13.9-28.8,16c-22,1.9-31.4-1.7-32-9s7.8-16.1,29.7-17.2
					C372.2,230.2,383.4,234.1,383.9,241.4z"/>
			</g>
			<g id="svga-group-eyesiriswrapper-right" transform="matrix(1,0,0,1,-0.5,0.25)">
				<g id="svga-group-eyesiriscontrol-right" transform="matrix(1,0,0,1,0,0)">
					<g id="svga-group-eyesiris-right" transform="matrix(1,0,0,1,0,0)">
						<path id="SvgjsPath3558" class="st23" d="M367,243.7c0,7.6-6.2,13.8-13.8,13.8s-13.8-6.2-13.8-13.8s6.2-13.8,13.8-13.8
							S367,236,367,243.7z"/>
						<path id="SvgjsPath3559" class="st24" d="M345.2,250.1c2-0.2,0.2-0.7,0.2-0.7c-1-0.5-2.9-1.4-2.9-2.1c0-2.4,3.3-3-0.1-3.9
							c-3.5-3.2,2.7-3.1,2.6-3.2c-2.2-5.5,0.7-2.5,1.9-4.1c4.6-6,1.3,0.6,3.8,0c0.9-0.2-1.8-3.5,0.1-3.1c1.2,0.3,1.5,1.3,1.5,1.3
							c0.9-0.2,2.3-1.6,2.3-1.6c1.7,0.5,2.9,3,2.4,2.5c0.9-0.1,2.1-0.5,3-0.8c0,0,0.2-0.6,0.3-0.1c2.1,6.1,7.6,5.7,1.3,7.5
							c0,0-0.4,0,0.9,1c6.2,5-4.8,3.4,1.1,5.7c0.2-0.2-3.5,2.2-3.5,2.9c0,1.1-2.4,4.2-4.5,3c-1.2-0.7-1.3,1.4-2,0.4
							c-1.3-1.8-4-0.1-3-1.8c1.5-1.2-1.5,0.5-2.1,0.5c-1.9,0,2.5-6.4,9-1.6c1.9,1.4-2-3.3,1.5-3.3c0.3,0.1,0.2-1.2,0.2-1.6
							c-1.8-0.3,3.2,0,3.2-2.9c0.3,0.1,1.2-0.8-3.8,0c0,0-0.2-1.7-0.1-2c0.2-1,2.8-0.7,2.1-1.7l-1.8-3.7c-5.9-0.9-2.5-1.5-6.3-0.8
							c-0.2,0.9-7.9,4.6-7.7,6.3c0.2,1.6,4.9,2.2,0.5,5C351.9,259.9,340.4,247,345.2,250.1z"/>
						<path id="SvgjsPath3560" class="st25" d="M353.2,231.6l0.4,10.1l4.2-9.2l-3.5,9.5l7.4-6.9l-6.9,7.4l9.5-3.5l-9.2,4.2l10.1,0.4
							l-10.1,0.4l9.2,4.2l-9.5-3.5l6.9,7.4l-7.4-6.9l3.5,9.5l-4.2-9.2l-0.4,10.1l-0.4-10.1l-4.2,9.2l3.5-9.5l-7.4,6.9l6.9-7.4
							l-9.5,3.5l9.2-4.2l-10.1-0.4l10.1-0.4l-9.2-4.2l9.5,3.5l-6.9-7.4l7.4,6.9l-3.5-9.5l4.2,9.2L353.2,231.6z"/>
						<path id="SvgjsPath3561" class="st26" d="M355.1,234.6l-1.2,7.6l4.6-6.2l-4.1,6.6l6.6-4l-6.3,4.5l7.6-1.2l-7.5,1.8l7.5,1.8
							l-7.6-1.2l6.2,4.6l-6.6-4.1l4,6.6l-4.5-6.3l1.2,7.6l-1.8-7.5l-1.8,7.5l1.2-7.6l-4.6,6.2l4.1-6.6l-6.6,4l6.3-4.5l-7.6,1.2
							l7.5-1.8l-7.5-1.8l7.6,1.2l-6.2-4.6l6.6,4.1l-4-6.6l4.5,6.3l-1.2-7.6l1.8,7.5L355.1,234.6z"/>
						<path id="SvgjsPath3562" class="st27" d="M358.4,243.7c0,2.9-2.3,5.2-5.2,5.2s-5.2-2.3-5.2-5.2c0-2.9,2.3-5.2,5.2-5.2
							S358.4,240.8,358.4,243.7z"/>
						<path id="SvgjsPath3563" class="st28" d="M347.8,253.6c-0.8,0.8-2.3,0.5-3.3-0.6c-1.1-1.1-1.4-2.6-0.6-3.4
							c0.8-0.8,2.3-0.5,3.3,0.6C348.3,251.3,348.6,252.8,347.8,253.6z"/>
						<path id="SvgjsPath3564" class="st29" d="M364.3,240.9c-1.1,1.1-3.9,0.2-6.2-2c-2.3-2.3-3.2-5-2-6.2c1.1-1.1,3.9-0.2,6.2,2
							C364.5,237,365.4,239.8,364.3,240.9z"/>
					</g>
				</g>
			</g>
			<g id="svga-group-eyesfront-right">
				<path id="SvgjsPath3901" class="st5" d="M357.3,188.4c-24.1-2.1-45.8,21.9-48.6,53.5s14.5,59,38.6,61.1
					c24.1,2.1,45.8-21.9,48.6-53.5C398.6,217.9,381.4,190.5,357.3,188.4z M355.2,257.4c-22,1.9-31.4-1.7-32-9s7.8-16.1,29.7-17.2
					c19.4-1,30.5,2.9,31.1,10.2C384.4,247.7,380.1,255.3,355.2,257.4z"/>
				
					<radialGradient id="SvgjsPath3902_1_" cx="-745.7493" cy="858.8128" r="13.5707" fx="-736.2072" fy="858.8397" gradientTransform="matrix(-2.9994 6.240000e-02 4.980000e-02 2.3994 -1930.8557 -1771.3558)" gradientUnits="userSpaceOnUse">
					<stop  offset="0" style="stop-color:#E1AC8F"/>
					<stop  offset="0.7" style="stop-color:#E1AC8F;stop-opacity:0.3"/>
					<stop  offset="1" style="stop-color:#F0C7B1;stop-opacity:0"/>
				</radialGradient>
				<path id="SvgjsPath3902" class="st34" d="M349.6,213.2c-22.1-2-41.4,10.7-43,28.4c-1.6,17.7,16.6,31.2,38.8,33.2
					c22.1,2,44.4-10.9,45.8-28.7C393.1,221.8,371.8,215.2,349.6,213.2z M355.2,257.4c-22,1.9-31.4-1.7-32-9s7.8-16.1,29.7-17.2
					c19.4-1,30.5,2.9,31.1,10.2C384.4,247.7,380.1,255.3,355.2,257.4z"/>
				
					<radialGradient id="SvgjsPath3907_1_" cx="-385.8893" cy="517.8083" r="19.8163" gradientTransform="matrix(2.6238 -1.4544 -1.0908 -1.968 1923.4486 740.2021)" gradientUnits="userSpaceOnUse">
					<stop  offset="0.94" style="stop-color:#000000;stop-opacity:0"/>
					<stop  offset="1" style="stop-color:#000000;stop-opacity:0.2"/>
				</radialGradient>
				<path id="SvgjsPath3907" class="st35" d="M383.9,241.4c0.5,6.4-3.9,13.9-28.8,16c-22,1.9-31.4-1.7-32-9s7.8-16.1,29.7-17.2
					C372.2,230.2,383.4,234.1,383.9,241.4z"/>
				<path id="SvgjsPath3911" class="st15" d="M321.8,237.7c0,0,2.4-3.9,4.8-5.4c2.3-1.6,8.3-2.9,8.3-2.9s-5.2,2.1-7.6,3.7
					C324.9,234.5,321.8,237.7,321.8,237.7z M379.6,230.6c2.7,1.8,6.5,5.8,6.5,5.8s-1.6-3.7-5.6-6.2c-4.3-2.7-10.5-2.6-10.5-2.6
					S377.1,228.9,379.6,230.6z"/>
				<path id="SvgjsPath3912" class="st32" d="M323.9,251c-9.1-12.6,10.5-21.1,26.9-22.5c33.9-2.8,39.6,13,32.2,17.5
					c5.1-13.4-16.7-14.8-30.9-14.3C338.2,232.2,321,237.8,323.9,251z M333.7,258.5c12.4-0.1,19.8-0.2,30.9-0.9
					c6.6-0.4,12.4-3.5,16-7.4c-6.1,2.9-10.9,5.4-16.1,5.7c-11.4,0.5-18.2,1.4-30.4,1.2l-7-2.2L333.7,258.5z"/>
			</g>
		</g>
	</g>
	<g id="svga-group-facehighlight-single">
		
			<radialGradient id="SvgjsPath3280_1_" cx="-341.3257" cy="657.1987" r="31.4619" gradientTransform="matrix(3 0 0 -3 1318 2284)" gradientUnits="userSpaceOnUse">
			<stop  offset="0" style="stop-color:#FFE4D6;stop-opacity:0.5"/>
			<stop  offset="0.9" style="stop-color:#F0C7B1;stop-opacity:0"/>
		</radialGradient>
		<path id="SvgjsPath3280" class="st36" d="M388.4,312.3c0.1,52.1-42.1,94.4-94.2,94.4c-52.1,0.1-94.4-42.1-94.5-94.2
			c-0.1-52.1,42.1-94.5,94.2-94.6C346,217.9,388.3,260.3,388.4,312.3z"/>
		
			<radialGradient id="SvgjsPath3284_1_" cx="-341.3253" cy="703.2402" r="28.3919" gradientTransform="matrix(3 0 0 -3 1318 2284)" gradientUnits="userSpaceOnUse">
			<stop  offset="0" style="stop-color:#FFE4D6;stop-opacity:0.5"/>
			<stop  offset="0.9" style="stop-color:#F0C7B1;stop-opacity:0"/>
		</radialGradient>
		<path id="SvgjsPath3284" class="st37" d="M380.4,174.3c0,47.7-38.6,86.3-86.3,86.3c-47.7,0-86.3-38.6-86.3-86.3S246.3,88,294,88
			C341.7,88,380.4,126.6,380.4,174.3z"/>
	</g>
	<g id="svga-group-eyebrows-left-move" transform="matrix(1,0,0,1,0,0)">
		<g id="svga-group-eyebrows-left-rotate" transform="matrix(1,0,0,1,0,0)">
			<g id="svga-group-eyebrows-left" transform="matrix(1,0,0,1,0,0)">
				<path id="SvgjsPath3594" class="st38" d="M187.4,207.5c16.2,8.2,34.7,10.2,72.8,14.8c1.2,0.2,2.1,0.4,2.9,0.4
					c3.8-0.1,7.1-3.6,6.6-6.7C267.9,204,203.5,209.6,187.4,207.5z"/>
			</g>
		</g>
	</g>
	<g id="svga-group-eyebrows-right-move" transform="matrix(1,0,0,1,0,0)">
		<g id="svga-group-eyebrows-right-rotate" transform="matrix(1,0,0,1,0,0)">
			<g id="svga-group-eyebrows-right" transform="matrix(1,0,0,1,0,0)">
				<path id="SvgjsPath3595" class="st38" d="M400.7,206.5c-16.2,8.2-34.7,10.2-72.8,14.8c-1.2,0.2-2.1,0.4-2.9,0.4
					c-3.8-0.1-7.1-3.6-6.6-6.7C320.1,203,384.5,208.6,400.7,206.5z"/>
			</g>
		</g>
	</g>
	<g id="svga-group-nose-single-move" transform="matrix(1,0,0,1,0,0)">
		<g id="svga-group-nose-single" transform="matrix(1,0,0,1,0,0)">
			<path id="SvgjsPath3590" class="st7" d="M295.7,328.1c-0.8,0.4-2.7,0.4-3.3-0.2c0,0-14.5-5-12.7-9.7c2.9-7.5,29.3-1.8,29.3,0
				C308.9,322.7,295.7,328.1,295.7,328.1z"/>
			<path id="SvgjsPath3591" class="st15" d="M276.1,311.5c0,0,12.5-42.9,13.8-52c2.4,14.9-3.5,48.1-4.1,54.8c-0.8,8.2,8,13.1,8,13.1
				c0.7,0.9-0.1,1.4-1.2,1l-15.3-5.9C273.7,319.5,273.7,316.5,276.1,311.5z M301.3,319.1c2.1,0.5,2.5,1.3,2.4,2.2
				c-0.2,0.9-1.1,2.1-3,1c-2.1-1.2-6-1.8-6-1.8S299.2,318.6,301.3,319.1z"/>
		</g>
	</g>
	<g id="svga-group-mustache-single-move" transform="matrix(1,0,0,1,0,0)">
		<g id="svga-group-mustache-single" transform="matrix(1,0,0,1,0,0)">
			<path id="SvgjsPath3296" class="st38" d="M295.2,90.1L295.2,90.1L295.2,90.1L295.2,90.1z"/>
		</g>
	</g>
	<g id="svga-group-hair-front" transform="matrix(1,0,0,1,0,0)">
		<path id="SvgjsPath3587" class="st2" d="M442.2,166.8c-0.4-7.6-3.5-19-5.7-26c-2.6,4.4-2.8,4.4-4.3,6.7
			c-0.5-2.8-3.8-32.1-14.7-48.8c-1.3,4.4,0.1,9.5-2.5,12.8C409,99.2,400.4,78,380.8,64c2,5.2,0.9,6.7,1.4,8.5
			c-5.8-8.4-12.7-12.8-23.7-19.1c0,3.9,0.4,6.3,0.4,6.3c-4-4.7-13.3-17.7-25.2-25.3c0.6,2-0.6,6.4-0.2,8.6
			c-3.9-8.3-15.8-24.3-27.5-22.4c-3.3-3.3-6.1-8.9-9.1-12.7c-1.9,10-17.6,31.8-33.8,41.7c0.5-4.1-0.2-7.8-1.3-11.9
			c-2.9,6-12.4,17.7-19.3,20.4c0.7-3,0.2-8.8,0.2-8.8c-3.7,4.8-6.8,7.5-11.6,11.7c0.1-2.7,1.4-8.4,2.3-11.2
			c-7.6,3.4-15.1,12.3-20.6,18.8c-0.6-3.7,0.6-11.4,1.9-13.1c-27.2,18-40,32.4-52.4,67.1c-0.8-1.7-1.4-3.8-1.6-9.6
			c-15.5,25.2-24.3,42.6-8,105.5c-3.3-2-5.1-3.4-7.8-6c3.9,26.2,9.6,34.9,29.2,57.2c9.6-11.3,4.5-31.1,2.9-40.5
			c0.2-14.2,4.2-11.7,4.8-18.2c0.3-2.9,1.8-7.8,1.5-10.6c-1.1-11.6,2.6-32.1,8-45.7c8.3-12.1,17.8-20.3,30-27.7
			c19.4-3.8,37.4,4.2,42.9,5.6c10,2.6,49.9,2.6,59.9,0c6.9-1.8,26.2-9.9,46.1-4.6c15,8.6,23.4,16.7,29.6,32.3
			c3.9,12.4,6.2,27.9,5.2,37.8c-0.3,2.9,1,10.1,1.3,12.9c0.2,2.6,3.6,8.5,4.2,11.1c2.6,10.6-2.9,38.9-2.9,38.9
			c-0.1,4,0.2,7.9,1.5,11.7c14.3-8.9,15.2-14.2,17.3-20.9c1.7-5.5,10.6-26.5,10.9-30.4c-1.8,2-5.5,4.5-7.5,5.4
			c1.6-6.3,9.1-18.3,10.5-25.2C442.8,189.4,442.8,179.4,442.2,166.8z"/>
		<path id="SvgjsPath3588" class="st1" d="M442.2,166.8c-0.4-7.6-3.5-19-5.7-26c-2.6,4.4-2.8,4.4-4.3,6.7
			c-0.5-2.8-3.8-32.1-14.7-48.8c-1.3,4.4,0.1,9.5-2.5,12.8C409,99.2,400.4,78,380.8,64c2,5.2,0.9,6.7,1.4,8.5
			c-5.8-8.4-12.7-12.8-23.7-19.1c0,3.9,0.4,6.3,0.4,6.3c-4-4.7-13.3-17.7-25.2-25.3c0.6,2-0.6,6.4-0.2,8.6
			c-3.9-8.3-15.8-24.3-27.5-22.4c-3.3-3.3-6.1-8.9-9.1-12.7c-1.9,10-17.6,31.8-33.8,41.7c0.5-4.1-0.2-7.8-1.3-11.9
			c-2.9,6-12.4,17.7-19.3,20.4c0.7-3,0.2-8.8,0.2-8.8c-3.7,4.8-6.8,7.5-11.6,11.7c0.1-2.7,1.4-8.4,2.3-11.2
			c-7.6,3.4-15.1,12.3-20.6,18.8c-0.6-3.7,0.6-11.4,1.9-13.1c-27.2,18-40,32.4-52.4,67.1c-0.8-1.7-1.4-3.8-1.6-9.6
			c-15.5,25.2-24.3,42.6-8,105.5c-3.3-2-5.1-3.4-7.8-6c3.8,25.5,9.3,34.4,27.6,55.4c-8.8-14.8-19.4-27.5-23.3-45.2
			c4.6,2.3,11.5,6.9,16.1,9.2c-11.5-32.2-23-73.7-6.9-103.6c2.3,9.2,8.1,20.1,12.7,27c-10.1-27.3,12.6-61.5,28.7-82.3
			c0,11.5-2.3,25.3,2.3,36.8c0-16.1,11.5-25.3,18.4-39.1c0,9.2-2.3,16.1,2.3,25.3c2.3-11.5,4.6-23,11.5-32.2
			c4.6,9.2,2.3,18.4,6.9,27.6c0-13.8,6.9-20.7,9.2-32.2c5.1,11.7,9.2,13.8,11.5,23c-2.3-25.3,32.7-27.5,35-52.8
			c2.3,16.1,6.4,27.5,4.1,45.9c9.2-11.5,13.8-25.3,16.1-41.4c16.1,13.8,11.5,32.2,18.4,48.3c4.6-9.2,4.6-20.7,6.9-32.2
			c9.2,16.1,18.4,34.5,25.3,52.9c2.3-11.5,6.6-16.7,0-34.5c16.1,11.5,27.6,32.2,25.3,52.9c2.3-11.5,4.6-23,4.6-34.5
			c2.3,25.3,18.4,48.3,16.1,76c4.6-11.5,9.2-23,9.2-36.8c2.1,23.1,6.1,48.2-0.3,71.7c3.5-8.7,9.5-16.9,9.5-28
			c6.9,25.3-16.1,46-13.8,71.4c0-3.9,6.7-6.2,8.6-9.6c0.2-0.6,0.4-1.3,0.6-1.9c0,0.7-0.2,1.3-0.6,1.9c-3.7,12.4-6.8,24.8-11.5,36.8
			c8.2-6.4,9.1-10.9,10.8-16.4c1.7-5.5,10.6-26.5,10.9-30.4c-1.8,2-5.5,4.5-7.5,5.4c1.6-6.3,9.1-18.3,10.5-25.2
			C442.8,189.4,442.8,179.4,442.2,166.8z"/>
		<path id="SvgjsPath3589" class="st3" d="M436,135.8c-0.9,3.7-1.1,4.5-2.6,8.1c-1.1-12.9-6.8-33.8-16.9-48.4
			c-0.3,5-0.6,7.7-1.3,12.3c-2.7-9.8-14.9-32.2-36.3-46.6c0.3,0.8,0.6,1.6,0.8,2.4v0c0.6,1.8,1.1,3.8,1.7,5.8
			c-8.8-11-16.8-12.8-24.4-18.1c0.4,2.3,0.6,4.5,0.6,4.7c-9.3-12.6-16.2-17.7-24.7-22.5c0.1,1.1,0.3,5.6,0.3,8.4
			c-5.6-11.8-10.7-20.7-27.3-22.3c-1.2-2.3-5.3-9.4-9.5-13.8c-5.3,18.6-19.8,31.6-32.6,42.5c0-4.3-0.7-8.5-1.7-12.6
			c-5.2,9.2-9.2,14.2-19,21.8c0.2-1.8,0.4-7.1,0.2-10.3c-2.7,3.7-7,8.4-11.8,12.5c0,0,2.7-11.3,2.7-11.4c-0.4,0.2-0.7,0.3-1.1,0.6
			c-2.2,0.6-12,6.8-20.5,18c0.8-7.9,2.4-10.8,3-13.1c-25.6,14.6-45.8,37.5-53.9,66.6c-0.4-4.1-0.6-7.6-0.6-8.9
			c-11.8,14.8-17.3,30-18.1,33.8c-4.7,21.3,1.1,56.9,8.1,71.9c-4.4-3.5-0.4,0-7.4-6.3c0,10.8,2.3,18.5,6.3,27.8
			c5.6,13.2,13.5,21.5,24,30.8c-10.8-13.2-25.5-31.5-28.4-55.5c1.9,1.9,3.1,2.7,6.4,5.2h0c0,0,0,0,0,0c1.5,1,0.6,0.6,2.3,1.5
			c-17.3-62.5-4.8-87.2,5.8-106.8c0.3,9.1,1.9,13.1,4.9,18.2c-1.6-4-1.4-2.7-2.6-7.6c8.3-26.6,28-48.3,49.2-66.3
			c0.6-0.5,1.1-0.9,1.7-1.3c-0.7,1.9-1.9,7.9-1.9,11.5c-4.8,6.9-5.7,12.8-6.2,15.3c0.8-2.3,1.6-6.1,6.2-12.3v0
			c6-9.2,16.7-18.3,21.3-21.4c-3,10.1-3.1,14.1-3,21.5c0.4-4.2,0.4-4.4,1.4-10.1c3.9-3,7.8-6.8,11.2-11.4
			c-0.3,5.3,0.1,12.6-2.9,19.2c2.5-3.8,3.5-8.5,3.5-10.8c3-1.9,10.3-5,18.7-19.3c1.8,12.3,0.5,19.1-1.4,24c1.5-2.8,3.5-6.7,3.5-13.3
			c15.6-10.7,26.5-20.2,32.8-38.7c0.2-0.7,0.4-1.4,0.5-2.1c3.5,5,17.5,27.4,14.7,33.4c3.6-3.6-2.8-17.2-5.3-21.8
			c17.6,4.4,19.2,9.3,31.2,34.1c-1.4-4.6-2.6-8.7-3.4-10.9c0.3-4.2,0-6.2-0.2-8.5c12,9.3,31.9,31.2,31.9,47.9c1-6.2,0.6-11.7-4.5-21
			c-0.6-1.1-1.3-2.2-1.9-3.2c-0.2-1.4-0.8-4.4-0.8-4.4c4.1,4.4,13.2,5.4,24,21.6c1.4,2,8,14.7,10.6,19.3c-5.5-15.2-7-17.7-8.9-21.2
			c-0.9-4-0.8-3.7-2.3-7.9c24.3,23.9,33.4,39,36.5,73c0.6-9.1,0.3-18.4-2.3-27.1c0.7-3.2,1.3-6.8,1.6-10.3
			c1.6,3.3,8.1,19.7,11.3,35.5c2.8,14,2.7,22.5,2.1,31.9c2.4-9.8,2.6-18.4,2.2-21.8c0.8-1.3,1.5-2.8,2.1-4.1
			c4.5,24.3,11.2,44.3-8.4,86.4c2.2-1.2,6.3-3.4,8.7-6.3c0,0-6.9,16.4-10.5,26.8c-6.4,16-5.7,14.3-16.3,22.6
			c11.8-4.9,15-11.7,18.9-21.6c7.3-21.2,6.6-14.2,12.1-34.8c-2.5,3.2-4.5,5.8-7.7,8.5C453.8,185.8,442.4,159.2,436,135.8z"/>
	</g>
	<g id="svga-group-glasses-single-move" transform="matrix(1,0,0,1,0,0)">
		<g id="svga-group-glasses-single" transform="matrix(1,0,0,1,0,0)">
			<path id="SvgjsPath3416" class="st39" d="M295.2,90.1L295.2,90.1L295.2,90.1L295.2,90.1z"/>
		</g>
	</g>
	<path id="SvgjsPath3597_1_" class="st40" d="M409.8,249.9c-7.1,4-12.2,6.8-16.5,9.8C367.2,277,364.6,317.7,360,356
		c-13.7-24.1-11.6-28.3-29.6-31.9c-22.1-4.8-29.5-7-37.6,3.7c-6.3-6.4-8.5-9.7-23.7-6.4c-26.9,5.3-28.3,4.6-36.3,21.9
		c-0.6,1.4-6.5,11.5-7.2,12.8c-1.3-9.2,0.1-9.5-3.6-29.7c-4-20.9-5.6-37.3-16-53.7c-10-13.9-31.7-24.3-42.4-27.9
		c0,17.5,1.7,43.7,2,47.1c4,41.1,20.1,105.3,48.7,132.3c23.9,21.6,50.6,20.1,78.5,20.1c14.4,0,41.6,1,58.1-7
		c22.5-8.7,38.1-33.3,47-55.7c15.5-37.8,24-75.7,24-136.7C413.8,248,412.3,248.3,409.8,249.9z M302.1,386.6c0.3-1.6,1.1-3.9,1.5-4.5
		c2.4-5.2,13.7-20.5,15-21.6c-14.9,4.4-32.4,4.9-50.8,0.6c4.4,5.2,14.7,18.7,15.9,25.5c-16.3-7.1-37.5-10.3-35.3-27.7
		c1.2-12.8,15.8-13.3,25.5-14c38.6-0.7,61.9-2.7,63.6,14C339.5,376.3,318.6,379.6,302.1,386.6z"/>
	<path id="SvgjsPath3598_1_" class="st2" d="M421.9,248c0,61.1-8.5,98.9-24,136.7c-8.9,22.4-24.5,47-47,55.7c-16.6,8-43.7,7-58.1,7
		c-27.9,0-54.6,1.5-78.5-20.1c-28.6-27-44.7-91.1-48.7-132.3c-0.3-3.4-2-29.5-2-47.1c2.3,0.8,5.1,1.9,8.1,3.2
		c15.2,68.8,19.1,164.1,95.7,191.1c-2.3-4.6-9.2-13.8-9.2-13.8s13.8,9.2,20.7,13.8c0-2.3-2.3-11.2-2.3-11.2s11,7.9,17.9,10.2
		c0-2.3-2.3-9.4-2.3-9.4l12,7.9l18.3-15.9c0,0-5.8,12.1-8.1,16.7c8.3-2.2,21.8-12.2,21.8-12.2s-2.3,7-2.3,9.3
		c67.2-37.8,67.4-117.9,77.4-185.8C413.5,251,415.9,250.2,421.9,248z M267.7,364.2c0.6,0.8,1.4,1.7,2.3,2.8
		c14.8,9.3,31.5,9,45.6,0.2c1.5-1.9,2.6-3.3,2.9-3.6C303.5,368,286,368.5,267.7,364.2z M294.5,435c-0.9-1.7-2.2-4-2.6-5.9
		c0,0-0.7-2.9-0.7-2.9c0-0.2-0.9-5.9-0.7-5.9c-0.1-3.1-0.6-7.2-0.8-9.5C288,426.5,290.4,430.3,294.5,435z M302.8,376.3
		c0,0,0,0.2-0.1,0.6c-0.7,3.3-6.2,10-6.7,14.1C295.9,384.2,302.5,378.6,302.8,376.3z M350.6,368c3.3,7.5,0.6,12.8-2.9,20.1
		C350.6,377.7,352.2,375.1,350.6,368z M338,345.6c3.3,5,4.6,6,8.6,21.3C342.8,358.5,342.4,356.1,338,345.6z M341.4,339.3
		c4.6,3.8,7.7,7.2,10.9,19.6C348.2,349.6,345.5,344.2,341.4,339.3z M301.7,427.9c1.3-13.7,5.3-21.3,14.4-31.7
		C309.4,406.7,305.2,416.1,301.7,427.9z M316.1,422.7c4.9-7.6,10.3-19.7,20.1-22.4c-3.5,1.7-5.2,3.6-8.5,7.5c0,0-1.7,2-4.3,5.8
		C321.6,416.3,318.4,420.4,316.1,422.7z M325.9,432.5c5.6-8.7,5.2-11.3,10.9-16.7C331.5,423.2,331.8,426.5,325.9,432.5z
		 M321.9,404.3c2.9-9.3,7.4-17.6,16.7-22.4C331.5,387.2,326.1,396.5,321.9,404.3z M298.3,410.6c-2.2-6.7-0.8-12.6,0.6-19.5
		C298.4,400,297.4,404.7,298.3,410.6z M366.2,399.1c-6.6,8.9-12.7,13.1-20.7,16.1C353,410.8,356.3,407.8,366.2,399.1z M376,372.1
		c-3.5,16.8-16.6,27.4-31.7,35.7c15.9-13,21.8-20.4,21.8-20.4C369.4,383.6,373.5,377.8,376,372.1z M362.1,386.4
		c-0.1-14.5,2.4-23.1,10.4-35.7C367.5,363.1,364,376,362.1,386.4z M390.3,327.2c-0.1,6.1,0,17.6-16.1,39.7c0-0.1,11.1-24.3,11-24.3
		C388.3,335.3,389.1,332.5,390.3,327.2z M372.5,339.3c-0.3-12.7,2.9-15.1,8.1-29.4C378,323.4,374.6,325.7,372.5,339.3z M400.1,281.1
		c-2.7,16.1-5.8,20.1-16.7,43.7C388,305.2,392.8,300.1,400.1,281.1z M237.8,388.2c-3.7-7.6-6-12.4-2.9-20.1c-0.6,2.7-1.1,4,0,10.2
		C235,378.2,237.8,388.2,237.8,388.2z M239,366.9c3.5-14.5,6.4-17.8,8.6-21.3C241.5,359.5,244.4,355.2,239,366.9z M233.2,358.8
		c2.6-10.9,5.8-15.1,10.9-19.6C239.4,344.8,236.9,350.9,233.2,358.8z M269.5,396.2c10.1,10.9,13,19.6,14.4,31.7
		C280.6,416,276.4,407.6,269.5,396.2z M249.3,400.3c3.3,0.9,6.3,2.4,9.6,6.5c0,0,3,3.3,8.3,12.4c1.2,2,2.2,3.5,2.2,3.5
		c-3-3-11.7-14.9-11.7-14.9C253.6,402.9,252.3,401.7,249.3,400.3z M246.4,415.8c6.3,5.9,5.7,8.7,10.9,16.7
		C251.6,426.7,251.6,422.9,246.4,415.8z M247,381.8c4.4,2.2,7,4.6,8.5,6.7c0,0,1.1,1.4,2,2.8c3.5,5.5,4.2,7.1,6.1,12.9
		c-1.7-3.2-2.6-4.9-7.3-12.1c-1-1.4-2-2.7-2-2.7C251.6,385.6,249.1,383.5,247,381.8z M286.7,391c1.5,8,0.9,10.2-0.6,15
		C287.1,400.4,287,401.1,286.7,391z M285.6,377.2c2.3,1.6,4.9,3.9,6.6,9c0,0,3.1,7.4,0.9,18.1C293.2,400.9,292.7,384.9,285.6,377.2z
		 M240.1,415.2c-8.9-3-15-8.6-20.7-16.1C227,405.9,231.8,410.2,240.1,415.2z M241.3,407.7c-15-8.3-27.9-18.5-31.7-35.7
		c2.2,5.2,4.8,9.7,9.8,15.3C219.4,387.3,225.7,394.5,241.3,407.7z M213.1,350.8c6.9,10.9,10.5,19.8,10.4,35.7
		C221.4,375,217.7,362.2,213.1,350.8z M211.3,366.9c-8.9-11.9-15.7-24.7-16.1-39.7C198.1,339.9,203,348,211.3,366.9z M205,309.9
		c5.6,15,8.4,17.4,8.1,29.4C211.3,326.2,207.6,324.4,205,309.9z M202.1,324.9c-8.7-19-13.7-26-16.7-43.7
		C193.5,302.2,197.8,306.3,202.1,324.9z"/>
</g>
<path id="SvgjsPath3599_1_" class="st3" d="M-195.4,32.8c-9.2,5.2-15.9,8.8-21.5,12.8c-34,22.7-37.4,75.7-43.3,125.6
	c-17.8-31.5-15.1-36.8-38.6-41.6c-28.8-6.3-38.4-9.1-49,4.9c-8.2-8.3-11.1-12.7-30.8-8.4c-35.1,6.9-36.8,6-47.3,28.5
	c-0.8,1.8-8.5,15-9.4,16.7c-1.7-11.9,0.2-12.3-4.7-38.6c-5.2-27.2-7.4-48.7-20.8-69.9c-13-18.1-41.3-31.7-55.2-36.3
	c0,22.8,2.2,56.9,2.6,61.3c5.2,53.6,26.2,137.2,63.5,172.3c31.2,28.2,65.9,26.2,102.3,26.2c18.8,0,54.2,1.3,75.8-9.2
	c29.3-11.3,49.6-43.3,61.2-72.6c20.2-49.3,31.2-98.6,31.2-178.2C-190,30.3-192.1,30.8-195.4,32.8z M-237.5,243.6
	c-14.3,21.8-46.5,36-59.9,36.8c-4.7,0.5-26.7,4.4-77.6,2.2c-8.8-0.1-33.9-2.6-46.9-9.5c-50.8-21.2-74.1-106.7-84.5-161.1
	c-3.1-14.5-7-52.6-8.8-84.7c19.9,8.7,44.1,23.9,55.1,43.5c9.6,18.3,11.8,39.9,17,62.4c6.6,29.2,3.3,20.2,7,39.1
	c0.1,0.5,0.2,1,0.3,1.4c27.7-43.1,13.9-36.5,57.6-45.5c13.5-3.3,21-4,30.3,7.2c11.6-13.7,18.8-9.8,48.4-3.6
	c23.4,5.2,17.8,8.7,37,37.9c0.8,1.1,2.3,3.6,2.5,4c1.7-6.8,2.6-17.9,4.5-28.4c0.6-3,10.3-49.2,13.8-59.6c9.2-28.9,23.6-36.6,47-51.6
	c3.1-2.2,5.9-3.1,14.3-6.9C-184.5,97.5-196,186-237.5,243.6z M-317.7,154.5c-14.7-0.2-17.5,1.2-54.8-0.1c-11.3,0.2-22.7,0.4-30,7.5
	c-8.8,8-13.3,31.7,17.3,42.1c9.9,3.1,24.4,7.6,26.8,8.6c0-9.7-17.2-30.8-19.9-33.9c27.6,6.9,52.3,3,61.8-0.8
	c-4.2,4.6-20.6,25.2-20.6,34.7c26.2-8.8,41.2-10.9,48-24.4C-282.7,176.7-286.1,154-317.7,154.5z M-335.7,211
	c0.4-2.1,1.5-5.1,1.9-5.9c3.2-6.8,17.8-26.7,19.5-28.2c-19.4,5.8-42.2,6.4-66.2,0.8c5.7,6.8,19.2,24.4,20.8,33.3
	c-21.2-9.2-48.9-13.4-46.1-36.1c1.5-16.6,20.6-17.4,33.2-18.2c50.3-1,80.7-3.5,82.9,18.2C-286.9,197.6-314.2,201.8-335.7,211z"/>
</svg>
