<svg xmlns="http://www.w3.org/2000/svg" viewBox="0 0 107.24 130.69"><path d="M1220.66,980.89" transform="translate(-1.24 -1.65)" fill="#2d294d"/><path d="M105.19,9.86A37.23,37.23,0,0,0,79.84,27.05c-5.58,8.69-9.41,29.08-11,41.37L65.13,99.79c-1.19,10.26,10.45,13.93,14.9,14.46l-3.13,16a27.35,27.35,0,0,1,6.83-1.76l.44-.18a24.22,24.22,0,0,1,5.93-3.58c1.41-1.38,2.79-2.79,4.24-4.14.56-.53,1.19-.91,1.78-1.41L108.48,15.38A27.49,27.49,0,0,1,105.19,9.86Z" transform="translate(-1.24 -1.65)" fill="#e7257d"/><path d="M51.31,5.3l-5.24-.64L43.06,53l-8.67,5L38.18,3.82l-5.24-.63L23.9,57l-7.17-7L25.08,2.25l-5.24-.6L1.49,66.44c-2.68,9.49,17,16.42,15.49,26.24l-6,39.57a25.28,25.28,0,0,1,3-.15,34.46,34.46,0,0,1,3.8.24,35.52,35.52,0,0,1,3.85-.24,32.89,32.89,0,0,1,3.44.18,27.08,27.08,0,0,1,4.49-.51l3-37.23c.84-9.88,19.88-12,21.08-21.83Z" transform="translate(-1.24 -1.65)" fill="#e7257d"/></svg>