<svg xmlns="http://www.w3.org/2000/svg" viewBox="0 0 139.55 36.26"><path d="M671.08,586.64" transform="translate(-4.74 -11.27)" fill="#2d294d"/><text transform="translate(0 27.91) scale(0.78 1)" font-size="33.28" fill="#fff" font-family="CooperBlack, Cooper Black"><tspan letter-spacing="-0.05em">F</tspan><tspan x="20.3" y="0">oodu</tspan><tspan x="104.57" y="0" letter-spacing="-0.01em">r</tspan><tspan x="121.94" y="0">o</tspan></text><path d="M143.47,15.87a9.47,9.47,0,0,0-6.42,4.35c-1.41,2.2-2.4,7.36-2.77,10.47l-.94,7.91c-.31,2.59,2.63,3.53,3.76,3.66l-.81,4.05a7.07,7.07,0,0,1,1.73-.44l.11,0a6.16,6.16,0,0,1,1.51-.9c.35-.35.7-.71,1.07-1.05.14-.14.3-.23.45-.36l3.13-26.28A6.47,6.47,0,0,1,143.47,15.87Z" transform="translate(-4.74 -11.27)" fill="#fff"/><path d="M129.26,14l-1.39-.17-.81,12.75L124.8,28l1-14.32-1.38-.17L122,27.62l-1.88-1.83,2.2-12.58L121,13.05l-4.84,17.08c-.71,2.5,4.48,4.33,4.08,6.91l-1.6,10.43a7.09,7.09,0,0,1,.81,0,6.45,6.45,0,0,1,1,.07,8.28,8.28,0,0,1,1-.07,8.92,8.92,0,0,1,.91,0,7.2,7.2,0,0,1,1.18-.14l.84-9.81c.22-2.6,5.23-3.17,5.59-5.75Z" transform="translate(-4.74 -11.27)" fill="#fff"/></svg>