<svg xmlns="http://www.w3.org/2000/svg" viewBox="0 0 176.32 42.73"><path d="M11.7,17.9c-.72,0-1.16.24-1.33.71A11,11,0,0,0,10,20.66a25.77,25.77,0,0,0-.17,2.78,1.19,1.19,0,0,0,.38,1,2.39,2.39,0,0,0,1.41.29,1.37,1.37,0,0,0,1-.33,2,2,0,0,0,.46-1.09q.36-2.19,1.47-2.19,1.91,0,1.91,5.88a13.33,13.33,0,0,1-.83,5.49,1.52,1.52,0,0,1-1.38,1.07c-.62,0-1-.54-1.06-1.6a10.11,10.11,0,0,0-.2-1.45,2.09,2.09,0,0,0-.45-.81,1.83,1.83,0,0,0-1.5-.62,1.2,1.2,0,0,0-1,.32,2,2,0,0,0-.22,1.23v1.88c0,2.32.19,3.74.57,4.25a1,1,0,0,0,.38.39,7,7,0,0,0,1,.26,1,1,0,0,1,.79.59,2,2,0,0,1,.28,1.07,1.88,1.88,0,0,1-1.41,2,20.42,20.42,0,0,1-5.72.63,14,14,0,0,1-4.46-.48,1.84,1.84,0,0,1-.89-.81A2.55,2.55,0,0,1,0,39.12a2,2,0,0,1,.51-1.43,5,5,0,0,1,.86-.51,2.4,2.4,0,0,0,1-2c.19-1.66.29-5.43.28-11.31a37,37,0,0,0-.2-4.94,2.1,2.1,0,0,0-1-1.57,3.46,3.46,0,0,1-1-.78,1.6,1.6,0,0,1-.24-1A1.91,1.91,0,0,1,.91,14.1a2.4,2.4,0,0,1,1.67-.63,11.8,11.8,0,0,1,1.83.12c1.7.17,3.74.25,6.12.26a48,48,0,0,0,7.67-.4h.4c.37,0,.72.26,1.06.8a9.38,9.38,0,0,1,1.38,5,3.85,3.85,0,0,1-.46,2,1.36,1.36,0,0,1-1.19.74,1.15,1.15,0,0,1-.83-.28,23.66,23.66,0,0,1-1.45-2,3.26,3.26,0,0,0-1.7-1.38A16.56,16.56,0,0,0,11.7,17.9Z" transform="translate(-0.03)" fill="#ffc15c"/><path d="M29.47,21.17a7.38,7.38,0,0,1,5,1.91A10,10,0,0,1,37,26.65a12,12,0,0,1,1,4.8,10.08,10.08,0,0,1-3.12,7.44A9.44,9.44,0,0,1,28,41.81,7.58,7.58,0,0,1,22,39.07a10.38,10.38,0,0,1-2.26-6.94,11.1,11.1,0,0,1,2.76-7.78A9.15,9.15,0,0,1,29.47,21.17Zm-1.25,4.65a1.26,1.26,0,0,0-1.11.66,3.29,3.29,0,0,0-.41,1.74,20.3,20.3,0,0,0,.35,3.3,29.13,29.13,0,0,0,.84,3.7c.32,1.1.85,1.65,1.58,1.65.93,0,1.4-.76,1.4-2.28a24.82,24.82,0,0,0-.35-3.85,19.34,19.34,0,0,0-.86-3.51Q29.15,25.87,28.22,25.82Z" transform="translate(-0.03)" fill="#ffc15c"/><path d="M48.81,21.17a7.38,7.38,0,0,1,5,1.91,10,10,0,0,1,2.49,3.57,12,12,0,0,1,1,4.8,10.08,10.08,0,0,1-3.12,7.44,9.48,9.48,0,0,1-6.82,2.92,7.58,7.58,0,0,1-6.07-2.74A10.38,10.38,0,0,1,39,32.13a11.1,11.1,0,0,1,2.76-7.78A9.09,9.09,0,0,1,48.81,21.17Zm-1.23,4.65a1.26,1.26,0,0,0-1.11.66,3.2,3.2,0,0,0-.41,1.74,20.3,20.3,0,0,0,.35,3.3,29.13,29.13,0,0,0,.84,3.7c.32,1.1.85,1.65,1.58,1.65.93,0,1.4-.76,1.4-2.28a23.67,23.67,0,0,0-.36-3.85A19.31,19.31,0,0,0,49,27.23Q48.48,25.87,47.58,25.82Z" transform="translate(-0.03)" fill="#ffc15c"/><path d="M65,41.27H63.91a14.73,14.73,0,0,0-2.21.12c-.51,0-.87.08-1.06.08a2.35,2.35,0,0,1-1.71-.63,2.13,2.13,0,0,1-.66-1.63,1.79,1.79,0,0,1,.29-1.1,1.93,1.93,0,0,1,1-.63,1.3,1.3,0,0,0,.84-.66,5.56,5.56,0,0,0,.35-1.76c.08-1,.16-3,.23-5.89s.1-5.81.1-8.69a7.81,7.81,0,0,0-.21-2.26,1.65,1.65,0,0,0-1-.9,1.84,1.84,0,0,1-1.08-1.8A1.8,1.8,0,0,1,59.58,14a3.45,3.45,0,0,1,2-.57h1q1.32.06,1.92.06c1.49,0,3.18-.06,5.06-.19h1.49a12.74,12.74,0,0,1,5.68,1,9.94,9.94,0,0,1,4.67,5.28,19.8,19.8,0,0,1,1.4,7.79A20.12,20.12,0,0,1,82.34,32,15.82,15.82,0,0,1,81,36a10.2,10.2,0,0,1-5,4.76,10,10,0,0,1-4,.81l-1.89-.08-1.64-.06A30.57,30.57,0,0,0,65,41.27Zm3.3-21.86V35a3,3,0,0,0,.42,1.8,1.66,1.66,0,0,0,1.41.53q4.59,0,4.58-9a21.41,21.41,0,0,0-1.07-7.66,4.09,4.09,0,0,0-4-3,1.31,1.31,0,0,0-1.06.38A2.16,2.16,0,0,0,68.34,19.41Z" transform="translate(-0.03)" fill="#ffc15c"/><path d="M92.8,22.34V33.26c0,2.34.61,3.51,1.81,3.51a1.46,1.46,0,0,0,.89-.33,1.78,1.78,0,0,0,.61-.82,16,16,0,0,0,.35-4.31,40.09,40.09,0,0,0-.17-4.52,1.88,1.88,0,0,0-.22-.73,2.37,2.37,0,0,0-.6-.54A1.77,1.77,0,0,1,94.58,24c0-.83.51-1.41,1.53-1.73a18.77,18.77,0,0,1,5.76-.93c1,0,1.58.72,1.58,2.16V35.65a1.53,1.53,0,0,0,.91,1.25,1.56,1.56,0,0,1,.77,1.41c0,1.21-1.11,2.15-3.34,2.8a13.22,13.22,0,0,1-3.8.59,1.73,1.73,0,0,1-1-.22,1.22,1.22,0,0,1-.41-.88c0-.83-.25-1.25-.59-1.25a.63.63,0,0,0-.35.11l-1,.82a5.09,5.09,0,0,1-3.41,1.39A4.46,4.46,0,0,1,87,39.43q-1-1.87-1-6.31V29.37a9.48,9.48,0,0,0-.25-2.55,2.35,2.35,0,0,0-.88-1.28,3.21,3.21,0,0,1-.78-.64,1.21,1.21,0,0,1-.16-.67c0-1,.6-1.69,1.8-2a23.23,23.23,0,0,1,6.15-.86C92.5,21.33,92.8,21.66,92.8,22.34Z" transform="translate(-0.03)" fill="#ffc15c"/><path d="M113.3,21.31c.56,0,.89.1,1,.3a7.11,7.11,0,0,1,.33,1.94c0,.59.21.88.48.88s.41-.19.6-.58c.83-1.68,1.93-2.52,3.28-2.52a2.77,2.77,0,0,1,2.33,1.19A4.62,4.62,0,0,1,122,24a5.5,5.5,0,0,1-.06,3.71,5.33,5.33,0,0,1-.89,1.64,3.08,3.08,0,0,1-2.46,1.23,2.36,2.36,0,0,1-1.35-.36,7.33,7.33,0,0,1-1.42-1.47c-.21-.29-.42-.43-.61-.43a.73.73,0,0,0-.57.64,15.88,15.88,0,0,0-.13,2.67,31.94,31.94,0,0,0,.17,4.15,1.72,1.72,0,0,0,.31.84,2.08,2.08,0,0,0,.83.47,2,2,0,0,1,1.42,1.9,2.33,2.33,0,0,1-.46,1.44,2.12,2.12,0,0,1-1.21.82,18.76,18.76,0,0,1-4.42.4A11,11,0,0,1,107,41a2,2,0,0,1-1.28-2,2.42,2.42,0,0,1,.94-1.88,2.4,2.4,0,0,0,.62-.69,2.17,2.17,0,0,0,.24-.86,59.19,59.19,0,0,0,.25-6.79,3.58,3.58,0,0,0-.16-1.3,1.25,1.25,0,0,0-.62-.64,1.76,1.76,0,0,1-1.12-1.63,2.16,2.16,0,0,1,.77-1.66,8.2,8.2,0,0,1,2.57-1.38A12.14,12.14,0,0,1,113.3,21.31Z" transform="translate(-0.03)" fill="#ffc15c"/><path d="M132.45,21.17a7.38,7.38,0,0,1,5,1.91,10,10,0,0,1,2.49,3.57,12,12,0,0,1,1,4.8,10.08,10.08,0,0,1-3.12,7.44A9.48,9.48,0,0,1,131,41.81a7.58,7.58,0,0,1-6.07-2.74,10.38,10.38,0,0,1-2.26-6.94,11.1,11.1,0,0,1,2.76-7.78A9.15,9.15,0,0,1,132.45,21.17Zm-1.25,4.65a1.26,1.26,0,0,0-1.11.66,3.2,3.2,0,0,0-.41,1.74,20.3,20.3,0,0,0,.35,3.3,29.13,29.13,0,0,0,.84,3.7c.32,1.1.85,1.65,1.58,1.65.93,0,1.4-.76,1.4-2.28a24.82,24.82,0,0,0-.35-3.85,20.21,20.21,0,0,0-.86-3.51C132.3,26.32,131.81,25.85,131.2,25.82Z" transform="translate(-0.03)" fill="#ffc15c"/><path d="M175.28,3.5a11.74,11.74,0,0,0-8,5.39c-1.74,2.73-3,9.13-3.44,13l-1.17,9.82c-.38,3.21,3.27,4.37,4.68,4.54l-1,5a7.84,7.84,0,0,1,2.14-.55l.14-.07a7.65,7.65,0,0,1,2-1.1l1.33-1.3c.17-.17.37-.29.55-.44l3.89-32.6A8.77,8.77,0,0,1,175.28,3.5Z" transform="translate(-0.03)" fill="#ffc15c"/><path d="M157.65,1.22,155.94,1l-1,15.81-2.8,1.66L153.37.71l-1.72-.2-3,17.57-2.33-2.27L149.08.2,147.37,0l-6,21.19c-.88,3.1,5.55,5.36,5.06,8.57l-2,12.94c.32,0,.65-.05,1-.05a10.32,10.32,0,0,1,1.24.08,10.36,10.36,0,0,1,1.25-.08,10.69,10.69,0,0,1,1.13.06,8.08,8.08,0,0,1,1.47-.17l1-12.17c.28-3.22,6.5-3.93,6.94-7.14Z" transform="translate(-0.03)" fill="#ffc15c"/></svg>