<svg xmlns="http://www.w3.org/2000/svg" viewBox="0 0 37.5 45.77"><path d="M562.33,580.55" transform="translate(-2.13 -1)" fill="#2d294d"/><path d="M38.54,4.75A12.53,12.53,0,0,0,30,10.53c-1.87,2.91-3.2,9.77-3.69,13.9L25.08,35c-.41,3.44,3.5,4.68,5,4.86L29,45.19a9.12,9.12,0,0,1,2.3-.58l.15-.07a8,8,0,0,1,2-1.2c.48-.46.94-.94,1.42-1.4.19-.18.4-.3.6-.47L39.63,6.56A9.26,9.26,0,0,1,38.54,4.75Z" transform="translate(-2.13 -1)" fill="#fff"/><path d="M19.66,2.31l-1.84-.22L16.74,19l-3,1.78,1.34-19-1.84-.22L10.06,20.36l-2.5-2.43L10.48,1.22,8.65,1,2.22,23.69C1.28,27,8.17,29.44,7.64,32.87L5.52,46.73a9.2,9.2,0,0,1,1.07-.06,9.56,9.56,0,0,1,1.33.1,9.59,9.59,0,0,1,1.34-.1,11.76,11.76,0,0,1,1.21.07A9.53,9.53,0,0,1,12,46.56l1.11-13c.29-3.46,7-4.21,7.42-7.65Z" transform="translate(-2.13 -1)" fill="#fff"/></svg>