<?xml version="1.0" encoding="utf-8"?>
<!-- Generator: Adobe Illustrator 24.3.0, SVG Export Plug-In . SVG Version: 6.00 Build 0)  -->
<svg version="1.1" id="Layer_1" xmlns="http://www.w3.org/2000/svg" xmlns:xlink="http://www.w3.org/1999/xlink" x="0px" y="0px"
	 viewBox="0 0 600 600" style="enable-background:new 0 0 600 600;" xml:space="preserve">
<style type="text/css">
	.st0{fill:#2F294D;}
	.st1{display:none;}
	.st2{display:inline;}
	.st3{fill:#CB8D60;stroke:#9D521B;stroke-width:4.5;stroke-miterlimit:12;}
	.st4{fill:#9D521B;}
	.st5{fill:#0C080C;}
	.st6{fill:#CB8D60;}
	.st7{fill:#DAA47D;}
	.st8{fill:#BC7746;}
	.st9{fill:none;stroke:#9D521B;stroke-width:4.5;stroke-miterlimit:12;}
	.st10{fill:url(#SvgjsPath3296_1_);}
	.st11{fill:#0F0F0F;}
	.st12{fill:#C38253;}
	.st13{opacity:0.5;enable-background:new    ;}
	.st14{fill:#FFFFFF;}
	.st15{opacity:0.1;enable-background:new    ;}
	.st16{fill:#C90433;stroke:#BA002C;stroke-width:2.25;stroke-miterlimit:12;}
	.st17{fill:#D81A47;}
	.st18{fill:#E8335E;}
	.st19{fill:url(#SvgjsPath3366_1_);}
	.st20{fill:#613A07;stroke:#331D00;stroke-width:1.5;stroke-miterlimit:12;}
	.st21{fill:#704813;}
	.st22{fill:#613A07;stroke:#522E00;stroke-width:1.5;stroke-miterlimit:12;}
	.st23{fill:#613A07;stroke:#422600;stroke-width:1.5;stroke-miterlimit:12;}
	.st24{opacity:0.9;enable-background:new    ;}
	.st25{opacity:0.7;fill:#FFFFFF;enable-background:new    ;}
	.st26{opacity:0.9;fill:#FFFFFF;enable-background:new    ;}
	.st27{fill:url(#SvgjsPath3392_1_);}
	.st28{fill:url(#SvgjsPath3397_1_);}
	.st29{fill:url(#SvgjsPath3374_1_);}
	.st30{fill:url(#SvgjsPath3413_1_);}
	.st31{fill:url(#SvgjsPath3418_1_);}
	.st32{fill:url(#SvgjsPath3139_1_);}
	.st33{fill:url(#SvgjsPath3143_1_);}
	.st34{fill:#2A232B;}
	.st35{opacity:0.1;fill:#2A232B;enable-background:new    ;}
	.st36{fill:#1B141C;}
	.st37{fill:#3A353A;}
	.st38{fill:#26120B;}
	.st39{display:none;opacity:0.5;fill:#ECF0F1;enable-background:new    ;}
</style>
<g id="svga-group-backs-single">
	<path id="SvgjsPath3268" class="st0" d="M598.5,600.1h-600V0.1h600V600.1z"/>
</g>
<g id="svga-group-ears-left-move" transform="matrix(1,0,0,1,0,0)" class="st1">
	<g id="svga-group-ears-left" transform="matrix(1,0,0,1,0,0)" class="st2">
		<path id="SvgjsPath3284" class="st3" d="M180.6,229.9c-3.4-5.7-13.8-19.5-24.4-16.1c-6.7,2.2-8,9.2-9.1,15.4
			c-1.4,8.3,1.2,24.6,3.4,30.5c2.2,5.7,8.6,16.7,12.9,20.8c5.2,5.1,11.7,21.5,12.7,23.2c1.6,2.7,3.8,6.7,10.1,6.2
			c7-0.6,11.2-4.3,14.3-4.9C208.1,303.5,189.3,244.6,180.6,229.9z"/>
		<path id="SvgjsPath3285" class="st4" d="M173.7,264.1c-0.3-1.3,0-3.6,0.3-5.8c0.3-2,0.6-3.9,0.4-5.2c-0.7-5-4.3-14.4-6.7-19.5
			c-2.8-5.9-7.2-13.3-12.9-15.2c-2.3-0.8-3.8,0.2-4.7,1.1c-0.6,0.7-0.8,1.5-0.6,1.6c0.2,0.1,0.7-0.6,1.4-1.2c0.6-0.5,1.4-1,2.6-0.9
			c-0.5,2.5-2.9,15.9-1.8,25c0.8,7.2,3.9,12.5,4.4,13.3c0.1,0.8,0.2,1.7,0.4,2.5c2.3,10.5,12.1,22.4,15.6,26.3
			c0.6,0.7,1.3,1.1,1.5,1c0.2-0.2-0.2-0.9-0.9-1.6c-3.4-3.9-13.2-15.7-15.4-25.8c-2.3-10.7,5.7-26.6,7.4-30c0.9,1.6,1.7,3.1,2.3,4.4
			c0.5,1,1,2.2,1.5,3.4c-1,1.8-8.4,14.6-5.7,24.8c1,3.8,5.5,8.6,8.4,10c1.6,0.7,2.2,1.8,3,3.1c0.8,1.5,1.8,3.1,4.5,4.4
			c0.5,0.2,1,0.3,1.5,0.3c0.8,0,1.3-0.3,1.8-0.7c0,0.6,0,1.5,0,2.2c0,1,0.1,1.8,0.3,1.8c0.2,0,0.5-0.8,0.5-1.8c0-1.2,0-2.7-0.2-3.4
			c-0.6-2.1-2.5-4.5-4.4-7C176.2,268.8,174.2,266.2,173.7,264.1z M156,254.8c-5.3-16.4,1.6-30.6,2.8-32.9c2.1,1.9,3.9,4.4,5.4,6.9
			C163.1,230.8,156.2,243.8,156,254.8z M178.9,278.9c-2.5-1.1-3.3-2.6-4.1-4c-0.7-1.3-1.5-2.6-3.3-3.5c-0.4-0.2-0.9-0.5-1.3-0.8
			c-6.1-14.4,0.7-20.7,2.4-22c0.5,1.8,0.9,3.4,1.1,4.7c0.2,1.2-0.1,3.1-0.4,4.9c-0.3,2.3-0.7,4.6-0.3,6.1c0.6,2.3,2.6,4.9,4.6,7.5
			c1.8,2.3,3.6,4.6,4.2,6.5C181.4,278.7,180.6,279.6,178.9,278.9z"/>
	</g>
</g>
<g id="svga-group-ears-right-move" transform="matrix(1,0,0,1,0,0)" class="st1">
	<g id="svga-group-ears-right" transform="matrix(1,0,0,1,0,0)" class="st2">
		<path id="SvgjsPath3286" class="st3" d="M438.9,229.9c3.4-5.7,13.8-19.5,24.4-16.1c6.7,2.2,8,9.2,9.1,15.4
			c1.4,8.3-1.2,24.6-3.4,30.5c-2.2,5.7-8.6,16.7-12.9,20.8c-5.2,5.1-11.7,21.5-12.7,23.2c-1.6,2.7-3.8,6.7-10.1,6.2
			c-7-0.6-11.2-4.3-14.3-4.9C411.4,303.5,430.2,244.6,438.9,229.9z"/>
		<path id="SvgjsPath3287" class="st4" d="M441.3,271.2c-2,2.5-3.8,4.9-4.4,7c-0.2,0.7-0.2,2.2-0.2,3.4c0,1,0.3,1.8,0.5,1.8
			c0.2,0,0.4-0.8,0.3-1.8c0-0.8,0-1.6,0-2.2c0.4,0.4,1,0.7,1.8,0.7c0.4,0,0.9-0.1,1.5-0.3c2.7-1.2,3.6-2.9,4.5-4.4
			c0.7-1.3,1.3-2.4,3-3.1c3-1.3,7.4-6.2,8.4-10c2.7-10.2-4.7-23.1-5.7-24.8c0.5-1.3,1.1-2.4,1.5-3.4c0.6-1.3,1.4-2.8,2.3-4.4
			c1.8,3.4,9.8,19.3,7.4,30c-2.2,10.1-12,22-15.4,25.8c-0.6,0.7-1,1.4-0.9,1.6c0.2,0.2,0.8-0.3,1.5-1c3.4-3.9,13.3-15.8,15.6-26.3
			c0.2-0.8,0.3-1.6,0.4-2.5c0.5-0.8,3.6-6.2,4.4-13.3c1-9.1-1.4-22.5-1.8-25c1.2-0.1,2,0.4,2.6,0.9c0.7,0.6,1.2,1.3,1.4,1.2
			c0.2-0.1,0.1-0.9-0.6-1.6c-0.9-1-2.4-1.9-4.7-1.1c-5.6,1.9-10.1,9.3-12.9,15.2c-2.4,5.1-6.1,14.5-6.7,19.5
			c-0.2,1.3,0.1,3.2,0.4,5.2c0.3,2.2,0.7,4.4,0.3,5.8C445.3,266.2,443.3,268.8,441.3,271.2z M455.3,228.8c1.5-2.5,3.3-5,5.4-6.9
			c1.2,2.3,8.1,16.5,2.8,32.9C463.2,243.8,456.4,230.8,455.3,228.8z M437.8,278.3c0.6-1.9,2.4-4.3,4.2-6.5c2-2.6,4.1-5.2,4.6-7.5
			c0.4-1.5,0-3.9-0.3-6.1c-0.3-1.8-0.6-3.7-0.4-4.9c0.2-1.3,0.6-2.9,1.1-4.7c1.7,1.3,8.4,7.6,2.4,22c-0.5,0.3-0.9,0.6-1.3,0.8
			c-1.9,0.9-2.6,2.2-3.3,3.5c-0.8,1.4-1.6,2.9-4.1,4C438.9,279.6,438,278.7,437.8,278.3z"/>
	</g>
</g>
<g>
	<g id="svga-group-hair-back-move" transform="matrix(1,0,0,1,0,0)">
		<g id="svga-group-hair-back" transform="matrix(1,0,0,1,0,0)">
			<path id="SvgjsPath3454" class="st5" d="M436.1,127L193,113.2c0,0-61.3,446.8-61.3,460.8c0,0,246.5,1.8,351.6,0
				C481.3,554.6,436.1,127,436.1,127z"/>
			<path id="SvgjsPath3455" d="M363.3,356.8c31.9,70.2,6.2,65.9,9.4,96.8c0.9,6.9,2.8,13.7,3.6,18.9c0.7,4.1,1.2,15.7,0.4,5.4
				c-0.5-3.1-0.7-4.9-2.5-11.9c-0.8-3.2-1.8-6.6-2.6-10.3c-4.4-19.1,7-30.8,5.3-52.2C375.6,392.1,374.3,383.5,363.3,356.8z
				 M389.4,437.4c6.2,25.4,5.9,31.1-0.7,65.4c-1.3,6.8-2,11-1.8,10.1c2.3-12.8,9.5-31.7,9.5-53.5c0.2-8.5-4.7-27.2-5.8-35.4
				c0,0.1,0-0.2,0,0.1c-2-27.8,11.9-47.4,9.4-86.2C401.5,384,380.3,401.2,389.4,437.4z M239.8,336.4c0.3,1.3,0.6,2.9,1,4.7
				c0.2,1.8,0.6,3.9,0.7,6.2c1.1,17.8-4.3,35.9-5,56.1c0.3,15.2,4.7,34.9,5.2,46.1c0.3,3.5,0.4,7.9,0.2,12.9c-0.1,5-0.5,10.5-1,16.3
				c-1,11.6-1.2,10-1,34.9c0,17.9-0.5,26.3-0.5,26.3c0-1,0.8-6.8,1.3-15.3c1.4-20.8,0.1-21.6,3.6-47.8c2.4-18.6,2.1-27,1-36.4
				c0,0.1,0,0.1,0,0.2c-2.1-21.2-7.5-25.4-4.9-53.9c1.1-11.8,2.6-23.8,2.2-33.6c-0.1-4.9-0.8-9.3-1.5-12.8c-0.8-3.5-1.8-6.1-2.4-7.7
				C238.5,332.4,239,333.8,239.8,336.4z M214.4,385.3c0.3,18.9,1.1,25.6,0.6,33.6c-0.1,2-0.2,3.7-0.3,5.1c-1.5,24.4,8.1,23.7,9.2,79
				c0.1,5.6,0.3,10.8,0.2,15.1c-1.3,40.7,3.1-25,0.3-54.8c-1.8-14.4-5.1-18.6-5.1-36.5c0,0.5,0,0.1,0,0.3c0-19.4,1.5,9.5-1.5-39.7
				c-1.7-24.9,10.8-46,8.5-75.3C227.4,340.4,214.3,360.9,214.4,385.3z"/>
		</g>
	</g>
	<g id="svga-group-humanbody-single">
		<path id="SvgjsPath3147" class="st6" d="M532,515c-14.7-24.8-32.9-29.3-48-34c-15.4-4.9-47.3-7.8-64.6-11.2
			c-16.8-3.4-56.6-14.1-57-33c-0.5-19.7,10.5-98,10.5-98H246.5c0,0,11,78.2,10.5,98c-0.4,18.8-40.3,29.6-57,33
			c-17.4,3.5-49.2,6.3-64.6,11.2c-15,4.8-33.3,9.2-48,34c-8.9,15.1-14.7,39.4-14.7,66.3h474C546.7,554.4,541,530.1,532,515z"/>
		<path id="SvgjsPath3148" class="st7" d="M362.4,436.8c6.1,26.7,44.4,33.5,64.2,37.4c53.5,10.7,82.5,12.5,103.3,47.7
			c7.1,12,13.3,38.8,14.6,59c4.5,0.7,1.3-42.6-12.5-66c-23.8-40.2-71.1-37-112.6-45.3C402.7,466.4,362.9,455.6,362.4,436.8
			L362.4,436.8z M257.7,436.8c-0.5,18.8-40.3,29.6-57,33c-41.5,8.3-88.8,5-112.6,45.3c-13.8,23.4-17,66.7-12.5,66
			c1.2-20.3,7.5-47,14.6-59c20.8-35.2,49.8-37,103.3-47.7C213.3,470.2,251.6,463.5,257.7,436.8L257.7,436.8z"/>
		<path id="SvgjsPath3149" class="st8" d="M190.8,489.7c0,0,70,0.7,81.8,4.6c5.7,1.9,20.5,13.8,20.5,13.8s-16-7.7-21.2-9.2
			C260,495.6,190.8,489.7,190.8,489.7z M309.6,515.3c5-0.1,19.3-9.3,19.3-9.3s-13.6,5-17.9,5.3c-3.6,0.2-15.6-3-15.6-3
			S305.4,515.4,309.6,515.3z M351.6,497.7c16.5-4.4,72.8-7.9,72.8-7.9s-58.1-1.3-74.5,4.2c-5.5,1.8-18.5,12.6-18.5,12.6
			S346.2,499.1,351.6,497.7z"/>
		<path id="SvgjsPath3150" class="st9" d="M532,515c-23.8-40.2-71.2-37-112.6-45.3c-16.8-3.4-56.6-14.1-57-33
			c-0.5-19.7,10.5-98,10.5-98H246.5c0,0,11,78.2,10.5,98c-0.4,18.8-40.3,29.6-57,33c-17.4,3.5-49.2,6.3-64.6,11.2
			c-15,4.8-33.3,9.2-48,34c-8.9,15.1-14.7,39.4-14.7,66.3h474C546.7,554.4,541,530.1,532,515z"/>
	</g>
	<g id="svga-group-chinshadow-single">
		
			<linearGradient id="SvgjsPath3296_1_" gradientUnits="userSpaceOnUse" x1="-336.088" y1="612.9489" x2="-336.088" y2="641.3882" gradientTransform="matrix(3 0 0 -3 1318 2284)">
			<stop  offset="0" style="stop-color:#BC7746;stop-opacity:0.8"/>
			<stop  offset="0.7" style="stop-color:#9D521B"/>
		</linearGradient>
		<path id="SvgjsPath3296" class="st10" d="M310.1,444.5c26.1,0,40-6.4,50.9-14c0.9-20.7,6.7-65,9.2-83.6
			c-36.2-4.3-84.9-4.3-120.9,0.1c2.5,18.5,8.2,62.2,9.2,83C269.5,437.9,283.4,444.5,310.1,444.5z"/>
	</g>
	<g id="svga-group-clothes-single">
		<path id="SvgjsPath3463" d="M172.1,576c-62.3,0-96.6-0.6-101.8-1.7l0-0.3C66.1,509,104,474.5,186.3,468.5
			c30.4,18.9,79.3,28.5,145.2,28.5c69.9,0,138.3-11.1,164.4-15.8c37.6,19.6,51.7,44.3,51.7,91.4C537.9,573.2,310.3,576,172.1,576
			C172.1,576,172.1,576,172.1,576z"/>
		<path id="SvgjsPath3464" class="st11" d="M547.6,572.5c0,0,0.3-71.7-72.2-85.7c11-1.7,14-4.5,20.4-5.6
			C533.5,500.7,547.5,525.5,547.6,572.5z M430,490.9c-69,8-184.7,14.3-243.7-22.3c-72.5,5.2-120.4,32.9-116.1,105.8
			c0.3,0.1,0.7,0.1,1.2,0.2c3.1-42,16.6-56.6,40.3-72.6c8.3,10.6,13.2,30.9,13.2,45.7c0-21,0.4-30.4-2.4-51.4
			c22.3-12.5,46.9-15.1,68.5-18.6C262.8,512.3,380,508.7,430,490.9z"/>
		<path id="SvgjsPath3465" d="M157.9,474.8c67.1,46,208.7,42.9,289,32.2C467,503.6,258.6,546.6,157.9,474.8z"/>
		<path id="SvgjsPath3466" d="M495.8,480.9c-84.4,15.4-239,31-309.6-12.6C112.1,473.6,65.4,502,69.9,574.1c0,0.1,0,0.3,0,0.4
			c17.7,4.3,470.2-0.9,477.9-1.8C547.8,528.4,536.4,502,495.8,480.9z M70.3,574.1c0-38.1,12.2-66.8,42.3-83c3.9,5.6,7.7,20.5,8.5,22
			c0,0-1.8-17.6-5.4-23.9c9.3-4.9,20.7-10.3,42-14.9c61.2,46.3,228.1,50.2,319.7,25.7c0,0-0.1,0-0.1,0
			c-75.2,20.5-252.8,18.8-318.6-25.9c3.8-1.2,22.5-4,27.2-4.6c102.3,64.2,307.1,13.1,309.5,13.1c37,20.8,50.4,45.2,51.8,89.7
			C378.6,567.1,161.9,576.1,70.3,574.1z"/>
	</g>
	<g id="svga-group-faceshape-wrap" transform="matrix(1,0,0,1,0,0)">
		<g id="svga-group-faceshape-single">
			<path id="SvgjsPath3293" class="st6" d="M310.1,28.8c-82.1,0.1-148.8,66.5-148.7,148.3c0,13,1.7,25.6,4.9,37.6h0
				c0,0.1,28.2,92.8,34.3,123.2c3.4,17,22.1,37.6,40.4,50.1c17,11.6,27.5,27.8,69.2,27.8s52.2-16.2,69.2-27.8
				c18.2-12.5,37-33.1,40.4-50.1c6.1-30.4,34.2-123.1,34.3-123.2h0c3.2-12,4.9-24.6,4.9-37.6C458.9,95.3,392.2,28.9,310.1,28.8z"/>
			<path id="SvgjsPath3294" class="st12" d="M424.3,82.2c18.3,24.9,29.1,55.9,29.1,89.5c0,13-1.7,25.6-4.7,37.6h0
				c0,0.1-27.2,92.8-33,123.2c-3.3,17-21.3,37.6-38.9,50.1c-16.4,11.6-26.5,27.8-66.7,27.8c-40.2,0-50.3-16.2-66.7-27.8
				c-17.6-12.5-35.7-33.1-38.9-50.1c-5.8-30.4-33-123.1-33-123.2l0,0c-3.1-12-4.7-24.6-4.7-37.6c-0.1-33.6,10.8-64.6,29-89.5
				c-21.5,25.7-34.5,58.8-34.4,94.8c0,13,1.7,25.6,4.9,37.6h0c0,0.1,28.2,92.8,34.3,123.2c3.4,17,22.1,37.6,40.4,50.1
				c17,11.6,27.5,27.8,69.2,27.8s52.2-16.2,69.2-27.8c18.2-12.5,37-33.1,40.4-50.1c6.1-30.4,34.2-123.1,34.3-123.2h0
				c3.2-12,4.9-24.6,4.9-37.6C458.8,141,445.9,108,424.3,82.2z"/>
			<path id="SvgjsPath3295" class="st9" d="M310.1,28.8c-82.1,0.1-148.8,66.5-148.7,148.3c0,13,1.7,25.6,4.9,37.6h0
				c0,0.1,28.2,92.8,34.3,123.2c3.4,17,22.1,37.6,40.4,50.1c17,11.6,27.5,27.8,69.2,27.8s52.2-16.2,69.2-27.8
				c18.2-12.5,37-33.1,40.4-50.1c6.1-30.4,34.2-123.1,34.3-123.2h0c3.2-12,4.9-24.6,4.9-37.6C458.9,95.3,392.2,28.9,310.1,28.8z"/>
		</g>
	</g>
	<g id="svga-group-mouth-single-move" transform="matrix(1,0,0,1,0,0)">
		<g id="svga-group-mouth-single" transform="matrix(1,0,0,1,0,0)">
			<path id="SvgjsPath3300" class="st8" d="M309.7,375.3c-10.2,0-18.7-7.7-18.7-7.7c17.7,2.8,39.5-1.6,39.5-1.6
				S322.6,375.3,309.7,375.3z"/>
			<path id="SvgjsPath3301" class="st13" d="M309.7,365.1c-6.6,0.1-21.6-4-27.3-7.2c-3.4-1.9-9.2-8.4-13.2-11.7
				c-1.6-1.3-0.9-3.7,1.1-3.8c5-0.2,11.4,2.4,14.4,2.9c6.3,1,14.2,4.5,24.9,4.5c8,0,16.7-2.8,22.2-3.8c3.3-0.6,11.1-3.4,16.5-3.7
				c2-0.1,2.9,1.9,1.4,3.2c-4.2,3.7-11.1,10.6-14.7,12.5C329.1,361,315.7,365,309.7,365.1z"/>
			<path id="SvgjsPath3302" class="st14" d="M277.9,342.7c0,0,0.7,5.9,1.8,7.6c1.5,2.3,10.4,7.1,14,7.8c2.4,0.4,6.9,1.2,9.3,1.5
				c2.7,0.4,4.1,0,6.8-0.1c2.9-0.1,5.3,0.3,8.2-0.3c2-0.5,7.9-2,9.8-2.8c1.5-0.6,4.4-1.6,5.8-2.4c1.1-0.7,4.6-3.3,5.2-4.4
				c0.9-1.5,1.7-6.7,1.7-6.7L277.9,342.7z"/>
			<path id="SvgjsPath3303" class="st15" d="M290.9,343.7c0,0-1.3,12.9-1.4,13.1c-0.1,0.2-0.4-13.1-0.4-13.1H290.9z M296.3,345.1
				l1.1,13.7l0.7-13.7H296.3z M308.8,347.2l1.4,12.4l0.9-12.6L308.8,347.2z M319.8,344.5c2.4,0.2,3.2,13.3,3.2,13.3l0.3-13.3H319.8z
				 M328.9,342.9c0,0,0.9,12.5,1.1,12.3c0.1-0.2,0.4-12.3,0.4-12.3H328.9z M282.9,342.9l0.7,10.2l0.7-10.2H282.9z M335.4,341.9
				l0.2,10.7l1.1-10.8L335.4,341.9z"/>
			<path id="SvgjsPath3304" class="st16" d="M351,342.2c-3-1-9.2-0.3-12.4-0.7c-4.5-0.6-13.5-1-18.1-0.9c-2.8,0.1-8.4,1.1-11.3,1.2
				c-2.9,0.1-8.7-1.1-11.6-1.2c-4.6,0-13.9,0.5-18.4,1.3c-3.1,0.5-9.5-0.3-12,1.2c-0.6,0.3-0.2,1.8,0,2.4
				c2.1,5.1,10.2,13.4,17.3,18.3c9,6.3,18.5,8.3,26,8.3c9.9,0,21.5-5.5,31.2-13.8c4.3-3.7,9.7-10,10.6-13.5
				C352.8,343,351.8,342.4,351,342.2z M309.6,359.8c-6.1,0-20.2-3-26.1-6.1c-3.6-1.9-9-6.3-12.8-9.1c-1.4-1.1-1.1-1.9,0.8-2
				c4.6-0.2,12.3,2.3,15.1,2.7c5.8,0.8,13.1,3.7,23,3.7c7.4,0,15.4-2.3,20.6-3.2c3.1-0.5,11.8-3.1,16.8-3.4c1.9-0.1,2.3,0.7,0.9,1.8
				c-3.9,3.1-10.6,7.9-14.8,9.9C327.7,356.9,315.1,359.8,309.6,359.8z"/>
			<path id="SvgjsPath3305" class="st17" d="M278,354.4c6.3,1.3,20.6,8.8,32.5,8.4c12.5-0.4,31-11.6,33.4-10.4
				c0.9,2.9-24.1,17.1-33.4,17.3C302.1,369.9,275.3,357.7,278,354.4z M308.8,347.2c7.6-0.1,16.9-1.1,23.1-4.1
				c-7.1-2.5-17,0.3-22.6,0.4c-7.3,0.2-13.5-2.3-20.3,0.1C295.6,345.8,302.2,347.2,308.8,347.2z"/>
			<path id="SvgjsPath3306" class="st18" d="M304.5,366.4c-4.6-1-4.8-1.5-0.4-1c2.7,0.3,5.3,0.3,7.9,0.1c0.3,0,0.7-0.1,1-0.1
				c2.9-0.4,6.1-1.3,9.2-2.6c4.9-1.9,5-1.5,0.1,1.1c-3.6,1.9-6.9,3.2-9.3,3.5l-0.2,0C310.9,367.6,307.9,367.1,304.5,366.4z"/>
			<path id="SvgjsPath3307" class="st4" d="M260.2,346.1c0,0-1.4-3.1-1.2-4.2c0.3-1.6,3.7-4.8,3.7-4.8s-2.1,3.7-2.4,4.8
				C260,343,260.2,346.1,260.2,346.1z M359.3,346.5c0,0,1.5-3.3,1.3-4.6c-0.3-1.7-4-5.2-4-5.2s2.3,4,2.6,5.2
				C359.5,343.1,359.3,346.5,359.3,346.5z"/>
		</g>
	</g>
	<g id="svga-group-eyes-left-move" transform="matrix(1,0,0,1,0,0)">
		<g id="svga-group-eyes-left" transform="matrix(1,0,0,1,0,0)">
			<g id="svga-group-eyesback-left">
				
					<radialGradient id="SvgjsPath3366_1_" cx="-777.5615" cy="669.1411" r="12.3623" gradientTransform="matrix(-2.7444 0.1437 -0.1569 -2.9958 -1782.3125 2355.3611)" gradientUnits="userSpaceOnUse">
					<stop  offset="0" style="stop-color:#FFFFFF"/>
					<stop  offset="0.544" style="stop-color:#FDFEFE"/>
					<stop  offset="0.74" style="stop-color:#F6F8F9"/>
					<stop  offset="0.879" style="stop-color:#EAEFF2"/>
					<stop  offset="0.992" style="stop-color:#D9E3E8"/>
					<stop  offset="1" style="stop-color:#D8E2E7"/>
				</radialGradient>
				<path id="SvgjsPath3366" class="st19" d="M214.7,230.1c1-2.2,5.2-5.3,14.5-7.5c4.2-1,10-0.8,16.1-0.3
					c14.6,1,28.7,10.4,33.1,17.9c0,0,0,0,0,0c0.9,1.5,1.4,2.9,1.4,4.2c0.1,2.6-1.1,4.7-3.2,6.4c0,0,0,0,0,0
					c-5.5,4.5-20.9,5.5-30.1,5.4c-18.4-0.2-23.8-7.3-23.8-7.3c-2.3-3-4.9-6.4-6.6-10c0,0.1,0.1,0.1,0.1,0.1
					c-1.7-3.9-1.6-5.2-1.8-7.7C214.5,230.9,214.6,230.5,214.7,230.1z"/>
			</g>
			<g id="svga-group-eyesiriswrapper-left" transform="matrix(1,0,0,1,-0.75,0.25)">
				<g id="svga-group-eyesiriscontrol-left" transform="matrix(1,0,0,1,0,0)">
					<g id="svga-group-eyesiris-left" transform="matrix(1,0,0,1,0,0)">
						<path id="SvgjsPath3434" class="st20" d="M268.7,239.6c0,11.5-9.3,20.8-20.8,20.8c-11.5,0-20.8-9.3-20.8-20.8
							c0-11.5,9.3-20.8,20.8-20.8C259.4,218.8,268.7,228.1,268.7,239.6z"/>
						<path id="SvgjsPath3435" class="st21" d="M235.8,249.3c3-0.3,0.3-1.1,0.3-1.1c-1.5-0.8-4.3-2-4.3-3.2c0-3.6,4.9-4.5-0.1-5.9
							c-5.2-4.8,4-4.7,4-4.8c-3.4-8.2,1-3.7,2.9-6.1c6.9-9,1.9,0.9,5.7,0c1.4-0.3-2.7-5.3,0.1-4.6c1.9,0.5,2.3,2,2.3,2
							c1.4-0.3,3.5-2.4,3.5-2.4c2.6,0.8,4.4,4.5,3.6,3.8c1.3-0.2,3.1-0.8,4.5-1.2c0,0,0.2-0.8,0.5-0.1c3.2,9.2,11.4,8.6,1.9,11.2
							c0,0-0.6,0,1.3,1.5c9.4,7.5-7.3,5.2,1.6,8.6c0.4-0.4-5.3,3.3-5.3,4.4c0,1.7-3.6,6.3-6.7,4.5c-1.7-1-2,2.1-3,0.7
							c-2-2.8-6-0.1-4.5-2.7c2.2-1.8-2.3,0.7-3.1,0.7c-2.9,0,3.7-9.6,13.5-2.5c2.8,2.1-3-5,2.2-5c0.5,0.2,0.4-1.8,0.4-2.4
							c-2.7-0.5,4.8,0,4.8-4.4c0.5,0.1,1.8-1.2-5.7,0c0,0-0.2-2.6-0.1-3.1c0.4-1.5,4.2-1,3.1-2.6c0,0-2.8-5.6-2.8-5.6
							c-8.9-1.4-3.8-2.3-9.4-1.2c-0.3,1.3-11.9,6.9-11.6,9.4c0.3,2.4,7.3,3.2,0.7,7.6C245.8,264,228.6,244.6,235.8,249.3z"/>
						<path id="SvgjsPath3436" class="st22" d="M247.9,221.4l0.6,15.2l6.4-13.8l-5.3,14.3l11.2-10.3l-10.3,11.2l14.3-5.3l-13.8,6.4
							l15.2,0.6l-15.2,0.6l13.8,6.4l-14.3-5.3l10.3,11.2l-11.2-10.3l5.3,14.3l-6.4-13.8l-0.6,15.2l-0.6-15.2l-6.4,13.8l5.3-14.3
							L235,252.5l10.3-11.2l-14.3,5.3l13.8-6.4l-15.2-0.6l15.2-0.6l-13.8-6.4l14.3,5.3L235,226.8l11.2,10.3l-5.3-14.3l6.4,13.8
							L247.9,221.4z"/>
						<path id="SvgjsPath3437" class="st23" d="M250.6,226l-1.9,11.5l6.9-9.4l-6.1,9.9l9.9-6l-9.4,6.8l11.5-1.8l-11.3,2.7l11.3,2.7
							l-11.5-1.9l9.4,6.9l-9.9-6.1l6,9.9l-6.8-9.4l1.8,11.5l-2.7-11.3l-2.8,11.3l1.9-11.5l-6.9,9.4l6.1-9.9l-9.9,6l9.4-6.8
							l-11.5,1.8l11.3-2.7l-11.3-2.7l11.5,1.9l-9.4-6.9l9.9,6.1l-6-9.9l6.8,9.4l-1.8-11.5l2.7,11.3L250.6,226z"/>
						<path id="SvgjsPath3438" class="st24" d="M255.7,239.6c0,4.3-3.5,7.8-7.8,7.8c-4.3,0-7.8-3.5-7.8-7.8c0-4.3,3.5-7.8,7.8-7.8
							S255.7,235.3,255.7,239.6z"/>
						<path id="SvgjsPath3439" class="st25" d="M239.7,254.5c-1.1,1.1-3.4,0.7-5.1-0.9c-1.6-1.6-2.1-3.9-0.9-5.1
							c1.1-1.1,3.4-0.7,5.1,0.9C240.5,251.1,240.9,253.4,239.7,254.5z"/>
						<path id="SvgjsPath3440" class="st26" d="M264.5,235.5c-1.7,1.7-5.9,0.3-9.3-3.1c-3.4-3.4-4.8-7.6-3.1-9.3s5.9-0.3,9.3,3.1
							C264.9,229.7,266.2,233.8,264.5,235.5z"/>
					</g>
				</g>
			</g>
			<g id="svga-group-eyesfront-left">
				<path id="SvgjsPath3391" class="st6" d="M202.5,241.7c0,33.7,19.7,61.1,44,61.1s44-27.3,44-61.1c0-33.7-19.7-61.1-44-61.1
					S202.5,208,202.5,241.7z M216.2,238.9C216.2,238.9,216.3,238.9,216.2,238.9c-1.7-3.8-1.5-5.1-1.7-7.6c0-0.4,0.1-0.7,0.2-1.1
					c1-2.2,5.2-5.3,14.5-7.5c4.2-1,10-0.8,16.1-0.3c14.6,1,28.7,10.4,33.1,17.9c0,0,0,0,0,0c0.9,1.5,1.4,2.9,1.4,4.2
					c0.1,2.6-1.1,4.7-3.2,6.4c0,0,0,0,0,0c-5.5,4.5-20.9,5.5-30.1,5.4c-18.4-0.2-23.8-7.3-23.8-7.3
					C220.5,245.8,217.9,242.4,216.2,238.9z"/>
				
					<radialGradient id="SvgjsPath3392_1_" cx="-306.1808" cy="841.7819" r="15.234" fx="-294.7583" fy="840.0562" gradientTransform="matrix(2.9994 6.240000e-02 -4.980000e-02 2.3994 1211.9198 -1767.7322)" gradientUnits="userSpaceOnUse">
					<stop  offset="0" style="stop-color:#BC7746"/>
					<stop  offset="0.7" style="stop-color:#BC7746;stop-opacity:0.3"/>
					<stop  offset="1" style="stop-color:#CB8D60;stop-opacity:0"/>
				</radialGradient>
				<path id="SvgjsPath3392" class="st27" d="M205.3,234.6c0.1,20.2,20.7,36.6,46.2,36.5c25.4-0.1,46-16.6,46-36.8
					c-0.1-20.2-20.7-36.6-46.2-36.5C225.9,197.8,205.3,214.3,205.3,234.6z M216.3,238.9c-1.7-3.9-1.6-5.2-1.8-7.7
					c0-0.4,0.1-0.7,0.2-1.1c1-2.2,5.2-5.3,14.5-7.5c4.2-1,10-0.8,16.1-0.3c14.6,1,28.7,10.4,33.1,17.9c0,0,0,0,0,0
					c0.9,1.5,1.4,2.9,1.4,4.2c0.1,2.6-1.1,4.7-3.2,6.4c0,0,0,0,0,0c-5.5,4.5-20.9,5.5-30.1,5.4c-18.4-0.2-23.8-7.3-23.8-7.3
					C220.5,245.8,217.9,242.4,216.3,238.9C216.2,238.9,216.3,238.9,216.3,238.9z"/>
				
					<radialGradient id="SvgjsPath3397_1_" cx="-372.455" cy="657.0128" r="24.0324" gradientTransform="matrix(3.0966 -0.1623 -0.1623 -3.0966 1500.4756 2274.541)" gradientUnits="userSpaceOnUse">
					<stop  offset="0.95" style="stop-color:#000000;stop-opacity:0"/>
					<stop  offset="1" style="stop-color:#000000;stop-opacity:0.3"/>
				</radialGradient>
				<path id="SvgjsPath3397" class="st28" d="M222.8,248.8c-2.3-3-4.9-6.4-6.6-10c0,0.1,0.1,0.1,0.1,0.1c-1.7-3.9-1.6-5.2-1.8-7.7
					c0-0.4,0.1-0.7,0.2-1.1c1-2.2,5.2-5.3,14.5-7.5c4.2-1,10-0.8,16.1-0.3c14.6,1,28.7,10.4,33.1,17.9c0,0,0,0,0,0
					c0.9,1.5,1.4,2.9,1.4,4.2c0.1,2.6-1.1,4.7-3.2,6.4c0,0,0,0,0,0c-5.5,4.5-20.9,5.5-30.1,5.4C228.2,255.9,222.8,248.8,222.8,248.8
					z"/>
				<path id="SvgjsPath3401" class="st4" d="M281.4,232.2c-16.7-13.3-26.6-18.5-47.3-19c14.2-1.4,27.1,3.1,34.7,7.9
					C272.4,223.3,278.9,230.1,281.4,232.2z"/>
				<path id="SvgjsPath3402" d="M246.5,255.8c9.2,0.1,24.6-0.9,30.1-5.3c-8.1,6.2-21,7-28.3,7.2c-4.8,0.1-14.6-0.2-18.9-2.3
					c-2.1-1-5.9-4.3-6.7-6.6C222.8,248.7,228.2,255.7,246.5,255.8z M212.7,221.3c-6.4,0.2-9.8-0.1-9.8-0.1c3.5,2.5,4.2,2.9,5.8,5.8
					c3.3,5.8,7.6,12,7.6,12c-1.7-3.8-1.6-5.2-1.8-7.6c-0.2-2.1,3.8-6,14.7-8.5c4.2-1,10-0.8,16.1-0.3c14.6,1,28.7,10.2,33.1,17.6
					c0.7,0,1.4,0,1.7-0.3c0.3-0.3,0.1-1.2-0.1-1.5c-6.1-10.8-27.2-22.9-44.6-22C223.4,216.9,217.2,221.1,212.7,221.3z"/>
			</g>
		</g>
	</g>
	<g id="svga-group-eyes-right-move" transform="matrix(1,0,0,1,0,0)">
		<g id="svga-group-eyes-right" transform="matrix(1,0,0,1,0,0)">
			<g id="svga-group-eyesback-right">
				
					<radialGradient id="SvgjsPath3374_1_" cx="-291.3185" cy="692.4648" r="12.3623" gradientTransform="matrix(2.7444 0.1437 0.1569 -2.9958 1064.314 2355.3611)" gradientUnits="userSpaceOnUse">
					<stop  offset="0" style="stop-color:#FFFFFF"/>
					<stop  offset="0.544" style="stop-color:#FDFEFE"/>
					<stop  offset="0.74" style="stop-color:#F6F8F9"/>
					<stop  offset="0.879" style="stop-color:#EAEFF2"/>
					<stop  offset="0.992" style="stop-color:#D9E3E8"/>
					<stop  offset="1" style="stop-color:#D8E2E7"/>
				</radialGradient>
				<path id="SvgjsPath3374" class="st29" d="M405.4,230.1c-1-2.2-5.2-5.3-14.5-7.5c-4.2-1-10-0.8-16.1-0.3
					c-14.6,1-28.7,10.4-33.1,17.9c0,0,0,0,0,0c-0.9,1.5-1.4,2.9-1.4,4.2c-0.1,2.6,1.1,4.7,3.2,6.4c0,0,0,0,0,0
					c5.5,4.5,20.9,5.5,30.1,5.4c18.4-0.2,23.8-7.3,23.8-7.3c2.3-3,4.9-6.4,6.6-10c0,0.1-0.1,0.1-0.1,0.1c1.7-3.9,1.6-5.2,1.8-7.7
					C405.6,230.9,405.5,230.5,405.4,230.1z"/>
			</g>
			<g id="svga-group-eyesiriswrapper-right" transform="matrix(1,0,0,1,0.75,0.25)">
				<g id="svga-group-eyesiriscontrol-right" transform="matrix(1,0,0,1,0,0)">
					<g id="svga-group-eyesiris-right" transform="matrix(1,0,0,1,0,0)">
						<path id="SvgjsPath3441" class="st20" d="M393,239.6c0,11.5-9.3,20.8-20.8,20.8s-20.8-9.3-20.8-20.8
							c0-11.5,9.3-20.8,20.8-20.8S393,228.1,393,239.6z"/>
						<path id="SvgjsPath3442" class="st21" d="M360.1,249.3c3-0.3,0.3-1.1,0.3-1.1c-1.5-0.8-4.3-2-4.3-3.2c0-3.6,4.9-4.5-0.1-5.9
							c-5.2-4.8,4-4.7,4-4.8c-3.4-8.2,1-3.7,2.9-6.1c6.9-9,1.9,0.9,5.7,0c1.4-0.3-2.7-5.3,0.1-4.6c1.9,0.5,2.3,2,2.3,2
							c1.4-0.3,3.5-2.4,3.5-2.4c2.6,0.8,4.4,4.5,3.6,3.8c1.3-0.2,3.1-0.8,4.4-1.2c0,0,0.2-0.8,0.5-0.1c3.2,9.2,11.4,8.5,1.9,11.2
							c0,0-0.6,0,1.3,1.5c9.4,7.5-7.3,5.2,1.6,8.6c0.4-0.4-5.3,3.3-5.3,4.4c0,1.7-3.6,6.3-6.7,4.5c-1.7-1-2,2.1-3,0.7
							c-2-2.8-6-0.1-4.5-2.7c2.2-1.8-2.3,0.7-3.1,0.7c-2.9,0,3.7-9.6,13.5-2.5c2.8,2.1-3-5,2.2-5c0.5,0.2,0.4-1.8,0.4-2.4
							c-2.7-0.5,4.8,0,4.8-4.4c0.5,0.1,1.8-1.2-5.7,0c0,0-0.2-2.6-0.1-3.1c0.4-1.5,4.2-1,3.1-2.6c0,0-2.8-5.5-2.8-5.5
							c-8.9-1.4-3.8-2.3-9.4-1.2c-0.3,1.3-11.9,6.9-11.6,9.4c0.3,2.4,7.3,3.2,0.7,7.6C370.2,264,353,244.6,360.1,249.3z"/>
						<path id="SvgjsPath3443" class="st22" d="M372.2,221.4l0.6,15.2l6.4-13.8l-5.3,14.3l11.2-10.3l-10.3,11.2l14.3-5.3l-13.8,6.4
							l15.2,0.6l-15.2,0.6l13.8,6.4l-14.3-5.3l10.3,11.2l-11.2-10.3l5.3,14.3l-6.4-13.8l-0.6,15.2l-0.6-15.2l-6.4,13.8l5.3-14.3
							l-11.2,10.3l10.3-11.2l-14.3,5.3l13.8-6.4l-15.2-0.6l15.2-0.6l-13.8-6.4l14.3,5.3l-10.3-11.2l11.2,10.3l-5.3-14.3l6.4,13.8
							L372.2,221.4z"/>
						<path id="SvgjsPath3444" class="st23" d="M375,226l-1.9,11.5l6.9-9.4l-6.1,9.9l9.9-6l-9.4,6.8l11.5-1.8l-11.3,2.7l11.3,2.7
							l-11.5-1.9l9.4,6.9l-9.9-6.1l6,9.9l-6.8-9.4l1.8,11.5l-2.7-11.3l-2.8,11.3l1.9-11.5l-6.9,9.4l6.1-9.9l-9.9,6l9.4-6.8
							l-11.5,1.8l11.3-2.7l-11.3-2.7l11.5,1.9l-9.4-6.9l9.9,6.1l-6-9.9l6.8,9.4l-1.8-11.5l2.7,11.3L375,226z"/>
						<path id="SvgjsPath3445" class="st24" d="M380,239.6c0,4.3-3.5,7.8-7.8,7.8s-7.8-3.5-7.8-7.8c0-4.3,3.5-7.8,7.8-7.8
							S380,235.3,380,239.6z"/>
						<path id="SvgjsPath3446" class="st25" d="M364,254.5c-1.1,1.1-3.4,0.7-5.1-0.9c-1.6-1.6-2.1-3.9-0.9-5.1
							c1.1-1.1,3.4-0.7,5.1,0.9C364.8,251.1,365.2,253.4,364,254.5z"/>
						<path id="SvgjsPath3447" class="st26" d="M388.9,235.5c-1.7,1.7-5.9,0.3-9.3-3.1c-3.4-3.4-4.8-7.6-3.1-9.3
							c1.7-1.7,5.9-0.3,9.3,3.1C389.2,229.7,390.6,233.8,388.9,235.5z"/>
					</g>
				</g>
			</g>
			<g id="svga-group-eyesfront-right">
				<path id="SvgjsPath3412" class="st6" d="M373.6,180.6c-24.3,0-44,27.3-44,61.1s19.7,61.1,44,61.1s44-27.3,44-61.1
					C417.6,208,397.9,180.6,373.6,180.6z M397.3,248.8c0,0-5.4,7.1-23.8,7.3c-9.2,0.1-24.6-0.9-30.1-5.4c0,0,0,0,0,0
					c-2.1-1.7-3.3-3.8-3.2-6.4c0-1.2,0.6-2.7,1.4-4.2c0,0,0,0,0,0c4.4-7.5,18.5-16.8,33.1-17.9c6-0.4,11.9-0.6,16.1,0.3
					c9.2,2.2,13.5,5.3,14.5,7.5c0.1,0.4,0.2,0.7,0.2,1.1c-0.2,2.5,0,3.8-1.8,7.7c0,0,0,0,0.1-0.1
					C402.2,242.4,399.6,245.8,397.3,248.8z"/>
				
					<radialGradient id="SvgjsPath3413_1_" cx="-752.1132" cy="853.379" r="15.234" fx="-740.6907" fy="851.6533" gradientTransform="matrix(-2.9994 6.240000e-02 4.980000e-02 2.3994 -1929.9198 -1767.7322)" gradientUnits="userSpaceOnUse">
					<stop  offset="0" style="stop-color:#BC7746"/>
					<stop  offset="0.7" style="stop-color:#BC7746;stop-opacity:0.3"/>
					<stop  offset="1" style="stop-color:#CB8D60;stop-opacity:0"/>
				</radialGradient>
				<path id="SvgjsPath3413" class="st30" d="M368.8,197.7c-25.4-0.1-46.1,16.2-46.2,36.5c-0.1,20.2,20.5,36.7,46,36.8
					c25.5,0.1,46.1-16.2,46.2-36.5C414.8,214.3,394.3,197.8,368.8,197.7z M403.9,238.9c-1.7,3.5-4.3,6.9-6.6,10
					c0,0-5.4,7.1-23.8,7.3c-9.2,0.1-24.6-0.9-30.1-5.4c0,0,0,0,0,0c-2.1-1.7-3.3-3.8-3.2-6.4c0-1.2,0.6-2.7,1.4-4.2c0,0,0,0,0,0
					c4.4-7.5,18.5-16.8,33.1-17.9c6-0.4,11.9-0.6,16.1,0.3c9.2,2.2,13.5,5.3,14.5,7.5c0.1,0.4,0.2,0.7,0.2,1.1
					C405.4,233.7,405.6,235.1,403.9,238.9C403.9,238.9,403.9,238.9,403.9,238.9z"/>
				
					<radialGradient id="SvgjsPath3418_1_" cx="-803.3928" cy="679.5993" r="24.0324" gradientTransform="matrix(-3.0966 -0.1623 0.1623 -3.0966 -2218.4756 2274.541)" gradientUnits="userSpaceOnUse">
					<stop  offset="0.95" style="stop-color:#000000;stop-opacity:0"/>
					<stop  offset="1" style="stop-color:#000000;stop-opacity:0.3"/>
				</radialGradient>
				<path id="SvgjsPath3418" class="st31" d="M397.3,248.8c2.3-3,4.9-6.4,6.6-10c0,0.1-0.1,0.1-0.1,0.1c1.7-3.9,1.6-5.2,1.8-7.7
					c0-0.4-0.1-0.7-0.2-1.1c-1-2.2-5.2-5.3-14.5-7.5c-4.2-1-10-0.8-16.1-0.3c-14.6,1-28.7,10.4-33.1,17.9c0,0,0,0,0,0
					c-0.9,1.5-1.4,2.9-1.4,4.2c-0.1,2.6,1.1,4.7,3.2,6.4c0,0,0,0,0,0c5.5,4.5,20.9,5.5,30.1,5.4C392,255.9,397.3,248.8,397.3,248.8z
					"/>
				<path id="SvgjsPath3422" class="st4" d="M338.7,232.2c16.7-13.3,26.6-18.5,47.3-19c-14.2-1.4-27.1,3.1-34.7,7.9
					C347.8,223.3,341.2,230.1,338.7,232.2z"/>
				<path id="SvgjsPath3423" d="M397.3,248.7c-0.8,2.4-4.6,5.6-6.7,6.6c-4.3,2.1-14.1,2.4-18.9,2.3c-7.3-0.1-20.2-0.9-28.3-7.2
					c5.5,4.4,20.9,5.4,30.1,5.3C392,255.7,397.3,248.7,397.3,248.7z M384.6,216.3c-17.4-0.9-38.5,11.2-44.6,22
					c-0.2,0.3-0.3,1.3-0.1,1.5c0.3,0.3,1,0.3,1.7,0.3c4.4-7.4,18.5-16.6,33.1-17.6c6-0.4,11.9-0.6,16.1,0.3
					c10.9,2.5,14.9,6.4,14.7,8.5c-0.2,2.4,0,3.8-1.8,7.6c0,0,4.3-6.2,7.6-12c1.6-2.8,2.2-3.3,5.8-5.8c0,0-3.3,0.3-9.8,0.1
					C402.9,221.1,396.7,216.9,384.6,216.3z"/>
			</g>
		</g>
	</g>
	<g id="svga-group-facehighlight-single">
		
			<radialGradient id="SvgjsPath3139_1_" cx="-335.9821" cy="660.3499" r="32.6054" gradientTransform="matrix(3 0 0 -3 1318 2284)" gradientUnits="userSpaceOnUse">
			<stop  offset="0" style="stop-color:#DAA47D;stop-opacity:0.5"/>
			<stop  offset="0.9" style="stop-color:#CB8D60;stop-opacity:0"/>
		</radialGradient>
		<path id="SvgjsPath3139" class="st32" d="M408.3,302.8c0.1,54.4-44,98.6-98.4,98.7c-54.4,0.1-98.6-44-98.7-98.4
			c-0.1-54.4,44-98.6,98.4-98.7C364,204.3,408.2,248.4,408.3,302.8z"/>
		
			<radialGradient id="SvgjsPath3143_1_" cx="-335.9821" cy="706.0145" r="29.3197" gradientTransform="matrix(3 0 0 -3 1318 2284)" gradientUnits="userSpaceOnUse">
			<stop  offset="0" style="stop-color:#DAA47D;stop-opacity:0.5"/>
			<stop  offset="0.9" style="stop-color:#CB8D60;stop-opacity:0"/>
		</radialGradient>
		<path id="SvgjsPath3143" class="st33" d="M395.6,163.5c0,47.2-38.3,85.5-85.5,85.5s-85.5-38.3-85.5-85.5S262.8,78,310.1,78
			S395.6,116.3,395.6,163.5z"/>
	</g>
	<g id="svga-group-eyebrows-left-move" transform="matrix(1,0,0,1,0,0)">
		<g id="svga-group-eyebrows-left-rotate" transform="matrix(1,0,0,1,0,0)">
			<g id="svga-group-eyebrows-left" transform="matrix(1,0,0,1,0,0)">
				<path id="SvgjsPath3450" class="st34" d="M192.8,217.3c66.7-52.8,112.4-7.3,95.1-8C285.2,209.2,255.1,183.2,192.8,217.3z"/>
			</g>
		</g>
	</g>
	<g id="svga-group-eyebrows-right-move" transform="matrix(1,0,0,1,0,0)">
		<g id="svga-group-eyebrows-right-rotate" transform="matrix(1,0,0,1,0,0)">
			<g id="svga-group-eyebrows-right" transform="matrix(1,0,0,1,0,0)">
				<path id="SvgjsPath3451" class="st34" d="M427.3,217.3c-20.3-16.1-41.1-26.5-67.6-25.1c-34.1,2.3-36.1,22.9-23.9,15.5
					c6.8-4.1,16.4-7.3,26.5-7.7C384.1,198.7,406.8,206.1,427.3,217.3z"/>
			</g>
		</g>
	</g>
	<g id="svga-group-nose-single-move" transform="matrix(1,0,0,1,0,0)">
		<g id="svga-group-nose-single" transform="matrix(1,0,0,1,0,0)">
			<path id="SvgjsPath3452" class="st4" d="M309.5,319.6c-2.1,0-4.4,0-6.3-0.9c-2.1-0.9-3.5-1.3-5.7-2.1c-2.1-0.8-4.6,1.1-6.7,1.3
				c-1.7,0.1-3.6-0.3-4.7-1.7c-3.5-4.5,0.7-7.2,0.7-7.2s-1.4,3.1-0.5,4.5c0.7,1.2,1.8,2.2,3.2,2.5c2.3,0.5,4.4-1.1,6.6-1.3
				c2.5-0.2,4.3-0.2,6.1,1.2c1.8,1.4,3.7,1.7,6,1.8c2.1,0.1,4.3,0.2,6.3-0.6c1.7-0.7,3.2-1.9,4.8-2.9c3.5-1.9,6.2,0.5,9.8,1.5
				c2.9,0.8,6-2,4.9-5.2c-0.6-1.8-0.5-2.9-0.5-2.9s2.8,1.2,2.6,4.3c-0.2,3.8-3.5,6.5-7.3,5.5c-1.9-0.5-3.8-1.9-5.8-1.5
				c-2,0.4-3.5,0.4-5.2,1.5C315.2,319.1,312.5,319.6,309.5,319.6z"/>
			<path id="SvgjsPath3453" class="st12" d="M294.5,296.8c0,0,7.6-10.5,14.4-10.7c6.4-0.1,14.7,9.3,14.7,9.3s-7.7-3.2-15.4-2.7
				C301.5,293.2,294.5,296.8,294.5,296.8z"/>
		</g>
	</g>
	<g id="svga-group-hair-front" transform="matrix(1,0,0,1,0,0)">
		<path id="SvgjsPath3457" class="st35" d="M433.5,88.8c-11.6-8.5-250.4,1.6-259.1,14.7c-7.6,11.4-14.5,491.7-13.2,491.9
			c33.6,2.7,134.2,2.2,206.5,0.8c-49.8-2-158.9-6.4-160.6-6.5c-3.7-32.5,2.1-61.6,5.4-77.6c0.7-3.6,1.3-6.4,1.6-8.5l0-0.4
			c0.9-9.5-0.9-17.7-2.8-26.3c-2.6-11.7-5.3-23.9-1.3-41.4c5.6-24.4,1.6-41.2-1.6-54.7c-1.2-5.3-2.3-9.9-2.6-14.1
			c-0.8-10.4,3.8-16.5,9-23.5c8.2-11,12.9-33.1-0.6-52c-10.8-15.1-8.6-19.6-4.9-27.6c3.7-8.1,8.8-19.1,2.9-40.4
			c-4.4-15.7-10.4-37.2,31.5-63.4c13.6-8.5,27.4-13.8,39.5-18.4c15.4-5.9,36.2-23,42.4-33.9c2.8,26.2,20.3,52.1,31.8,64
			c15.7,16.3,28.2,29.2,21.7,75.9c-2.7,19.7,1.3,29,4.9,39.8c1.6,4.7,3.9,9.7,5.3,16.2c2.3,10.7-0.1,20.9-3.4,31.6
			c-2.9,9.4-3.1,19.1-2.9,30.1c2.1-6.4,9.2-18.3,10.3-26c3-20.4,6.5-132.3,6.3-145c21,19.4,25.4,48,20.8,66.2
			c-2.2,8.5-7,39.4-7.7,49.3c-1.5,20,0.8,15.4-0.2,28.5c-0.9,12.8-5.5,19.4-13.5,32.9c-18.6,31.7-11,50-3.6,67.7
			c2.7,6.6,5.6,13.4,7,21.1c2.9,14.8-2.8,35.9-8.2,56.4c-5.2,19.7-10.6,40-9,56.6c0.4,3.9,4.4,15.3,6.3,23.1
			c27-0.7,47.2-1.5,53.4-2.2C466.6,590.8,455.9,105.3,433.5,88.8z"/>
		<path id="SvgjsPath3458" class="st34" d="M480.8,174.5c-0.9-31-7.5-57.5-19.6-78.9c-3-15.6-9.2-35.4-30.1-50.8
			c-11-8.1-33.4-16.8-54.5-21.1c-28.5-26.3-30.2-2.9-60.3-15.1c-7.1-2.9-12-4.8-23.2,2.7c-15.4-3.9-32.6-4.2-43.5-2.1
			c-11.9,2.3-27.5,10.1-39,19.4c-19.5,5.3-33.3,13.9-41.2,25.8c-7.1,10.6-10.4,22.3-10,34.9c-3.6,7.5-5.8,15.4-6.9,25.2
			c-6.6,9.2-13.6,20.9-18.7,30.8c-4.4,8.7-12,49-7.8,66.6c-29.3,52.1-9.6,76,2.4,119.2c-8.8,20.5-8.7,39.2,0.2,60.7
			c-10,39.5-21.2,45.2-11.1,142.4c5.5,52.9,3.2,54.4,3.2,68.7l0.2-0.2c27.4-0.2,40.5-9.1,55.9-7.2c2.3,0.1,23.5,2,24.2,2.1
			c194.6,15.6,178.8-3.3,286.4-5.1c-2-19.8-4.3-74.3-0.9-96c5.1-32,0.2-69.6-9.1-96.8c10.5-19.8,9.5-29.9,2.8-50
			c13.5-39.6,19.3-59.7,10.9-97.1C500.6,225.7,495.2,199.6,480.8,174.5z M418.7,299.4c-0.9,13,2.2,26,1.2,39
			c-1.1,14.9-6.7,23-14.5,36.1c-23.5,40.1-1.2,54.5,4.3,83.7c6,31.3-20.2,81.4-17.1,113.6c0.6,6,4.1,21,5.4,26.6
			c-49.4,5.6-169.4,0.2-197.4-1.8c-6.4-43.4,4.5-82.5,6.2-94.2c2-20.7-11.3-36.6-4-68.7c7.3-32.2-3.2-50.3-4.4-66.7
			c-2.4-32.2,36.7-33.1,9.7-71.9c-24.2-34.8,8.2-29.8-3-70.2c-4.4-15.9-11.8-42.5,34.6-71.6c37-23.1,72-22.1,86.5-50.5
			c15.1,79.3,70.1,55.6,57.7,145.3c-3.6,26.3,3.7,31.5,8.4,53.5c4.8,22.5-10,40.7-9.7,63.2c6-18.3,21.7-35.5,22.2-54.6
			c0.4-15.2-5.9-29.8-5.8-45c0.1-12.1,3.7-24,5.6-35.8c9.1-56.4-38.3-58.2-49.9-101.6l0.4-0.2c27.4,42.3,49.1,55.1,64,82.5
			C439.2,246.7,420.8,267.9,418.7,299.4z"/>
		<path id="SvgjsPath3459" class="st36" d="M416.1,595.7c-6,0.9-11.3,1.7-17.4,2.4c-6.2-30.2-7.4-33.9,5-76.2
			c18.5-62.8,11.6-65.3,1.6-94.7c-12.7-37.2,10.7-47.4,18.7-72.4c4.5-14.2,2.8-28.6,1.2-43.1c-3.6-34,15.4-54.3,4.9-87
			c-11.6-36-40.2-48-75.9-100.4c-1.1-4.7-1.8-9.6-2.4-14.6c31.6,50,87.3,75.6,88.3,113.4c0.7,26.6-14.3,82.3-7.8,118.7
			c3.9,22.2-17.1,36.6-22,58.6c-7.3,29.3,22,53.8,12.2,80.6C408,516.2,405.2,555.4,416.1,595.7z M183,168.4
			c-22,26.9,2.4,61.1-12.2,92.8c-14.7,26.9,14.7,61.1-2.4,92.8c-7.3,17.1,10.1,34.3,4.9,48.9c-23.8,65.7-11.8,128.3-10.1,192.5
			c5.5-1.1,9.2-1.3,13.3-1.2c1.7-36.2-10.8-63.5-11.6-79.7c-0.9-17.2,7.2-28.2,10.2-42.6c4.2-20.5-0.9-45.5,6.5-64.9
			c4.6-13.2-3.2-27-4.9-39.7c-2.2-16.7,6.9-32.1,6.9-42.8c-1.5-18-10.8-27.8-9.4-42.8c0.8-9,4.4-16.9,7.8-25.2
			c10-25-1.1-29.8-2.5-51.4c-2.8-43.2,70.8-89.7,128.1-101.6C258.5,99.4,209.7,132.8,183,168.4z M179.1,114.6
			c-21.9,22.2-20.5,48.5-22.7,80c-1.8,24.9-31.6,47-26.8,71.1c9.6,47.7,23,79.2,12.1,131c-2.7,12.9,3.1,28.2,3.1,40.4
			c-7.7,22.9-8.7,46.4-8.7,71.8c-0.2,25.3,1,50.8,6.3,77.2c0.9,5.3,0.5,10.3-0.4,15.2c2.7-0.4,5.3-0.9,8.4-1.7
			c7.4-37.1-7.5-96.8-3.5-116.8c4.3-22.6,11.2-26,9.3-51c-1-12-3.1-27.7-3.2-38.9c-0.5-35.2,18.1-50.8,5.9-81.4
			c-2.5-6.2-5.2-12.3-7.6-18.5c-12.8-32.5,4-49.8,14.2-75.1c5.7-14,5.5-19.2,3.8-36.1c-2.1-20.9-4.9-50.8,50.3-86.1
			c32-20.5,61.4-21.6,85.2-21.4C253.8,63.5,210.4,82.9,179.1,114.6z M303.2,42.7c-17.2-4-34.8-6.6-52.6-5.1
			c-44.5,3.6-90.1,30.6-94.3,78.6C177.4,55.7,236.6,28.8,303.2,42.7z M375.6,172.6c-14.4-16.2-50.7-49.9-43.7-89.3
			c-0.6,6.4-3.2,15.1-5.1,19.1c13.8,65.6,59.6,61.2,63.6,114.8C392.1,207.6,382.4,180.2,375.6,172.6z M314.6,109.6
			c0.1,0,0.2,0.1,0.3,0.1C314.8,109.7,314.7,109.7,314.6,109.6c-41.8,26.2-112.5,30-124.3,88.1c-3.1,15.2,12.3,44.1,0,66
			c-9.7,17.2,9.8,41.5,9.8,56.2s-9.8,26.9-12.2,44c-2.4,12.2,4.9,22,7.3,34.2c2.4,14.7-7.3,29.3-4.9,41.5c10.2,81.8-18.6,60,2,156
			c2.3,0.2,5,0.4,8,0.6c-2.3-12.4-4.1-30.9-2-55.6c3.8-44.1,9.9-29.1,1.2-66.6c-7.1-30.5-0.6-34.4,0.8-53.8c1.2-18-4.4-34.1-6.7-45
			c-7.8-36.9,23.7-42.3,16.3-64.1c-2.1-6.1-6.2-11.4-9.7-16.7c-18.5-29.2,3.5-34,2-56.8c-1.1-17.4-17.1-40.9,14.3-70.6
			c42.4-40.1,95.6-29.2,113-70C325.7,100.7,319,106.9,314.6,109.6z M451.8,490.9c2.4-22-2.8-43.1-10.1-65.1
			c-4.9-24.4,16.1-38.2,19.8-61.3c4.4-27.6-16.4-50.4,0.1-90.2c18.7-45.1,8.8-87.5-20.7-107.1c-35.8-24.6-57.1-51-75.6-90.8
			c16.5,85.7,71.7,92.7,86.1,138.3c9.7,30.5-9.5,55-7.2,88.7c1,14.6,7.2,28.4,5.2,43.2c-3.6,26.6-29.6,42.3-23.9,75.6
			c2.5,14.8,8.3,28.6,9.6,43.7c2,23.2-2.3,46.7-0.4,70.9c1.7,20.3,5.2,15.4,0.1,56c5-0.7,17.4-0.9,22.5-1
			C450.5,558.4,445.6,523.8,451.8,490.9z M344.9,47.4c25.3,8.1,30.5,33.9,61.9,59.9c13.2,11,38.1,23.3,58.6,45.9
			C433.8,109.8,372.6,47.4,344.9,47.4z M354.6,37.1c24.7-0.2,40.4,3.3,65.5,17.2c16.6,9.2,28.8,21.5,37.7,35.3
			C449.9,64.7,401.6,23.5,354.6,37.1z M479.3,346c11.6-40,15.5-63.2,11-89.8C479.3,285.4,464.6,302.5,479.3,346z M152,119.2
			c-12.5,21-18.7,48.8-20.1,57.9c-1.5,10-5,20.1-3.4,30.1C155.2,160.8,149.1,160.3,152,119.2z M136.6,586.2
			c-25.8-113.9,13.6-156.6-4.4-189.5c-14.3,47.5-19.3,50-12.2,145.8c1.9,26.1,1.7,46.7,1.1,60c6.1-0.1,10.5-0.4,15.1-1.1
			C137.1,596.5,137.8,591.5,136.6,586.2z M129.1,334.4c-4.6,15.9-3.2,32.7,1.2,48.8C134.4,363.8,133.5,350.9,129.1,334.4z
			 M484.4,464.1c-0.6-29.3-3.9-47.8-8.1-61.4c-7.6,13.9-16.8,27.3-14.4,43.5c0.9,6,2.8,11.6,4.1,17.5c4.3,20.3-4.8,32.8-1.4,65.2
			c1.3,12.1,6.2,23.4,4.8,63.4c10.7,0.3,13.1,0,16.9,0C474.8,502.3,484.9,491.4,484.4,464.1z"/>
		<path id="SvgjsPath3460" class="st37" d="M166.3,117.2c6.7-12.1,13.9-23.5,23.2-33.8c44.2-48.8,106.6-30.6,116.9-31
			c-6,0.2-42.4-7.1-77.5,6.8C193.6,73.1,178.5,97,166.3,117.2z M266.3,64.5c22.5-0.1,47,7.7,49.5,8.9c-3.3-1.5-28.9-10.6-48.4-10.6
			c-17.9,0-34.9,7.2-50.8,14.9C232.4,70.8,248.9,64.6,266.3,64.5z M296.6,86.3c0.6-0.1,16.9-1.9,17.2-1.3c-0.1-0.2-3.3,0-3.6,0
			c-60.8,0.1-121,32.3-137.1,81.2C192.5,115.7,256.5,91.4,296.6,86.3z M275.2,98.8c-11.9,3.4-23.9,8-34.5,14.3
			c4.2-2.5,9.1-4.4,13.6-6.2c35.1-14,54.2-11.4,58.1-11.2C299.9,94.7,287.3,95.3,275.2,98.8z M202,167.1
			c18.7-25.8,75.3-40.8,104.4-56.5C273.8,126.7,224.3,136.3,202,167.1z M123.9,247.6c-4.7,15.9,3.5,41.6,8.9,57.4
			c-3.5-10.4-10.5-41.2-6-56c6.2-20.3,19.7-37.5,25.3-58.1C144.5,214,129.1,230,123.9,247.6z M186.3,357.5c-0.6,2-1.6,4.4-1.7,6.5
			c0.1-1.6,1.3-3.7,1.9-5.2c11.7-31.1,13.7-39.3-1.6-70.4C193.9,311.4,196.9,318.6,186.3,357.5z M157.8,438.4c0,0.4,0.2,7.6,0.4,8
			c-0.3-0.6,0-2.3,0-3c0.6-32.7,16.8-44.3,3.8-79.3C171.9,398.1,158.1,400.9,157.8,438.4z M187,477.4c-1.5,12.5-7.9,31-8.3,55.5
			c-0.1,3.2,0.6,6.3,0.5,9.5c0.1-3.8-0.2-7.5,0.1-11.3c1.2-17.8,5.2-27.1,7.5-40.1c4.9-26.1,0.4-29.9-1-56.9
			C185.8,450.8,188.6,464.8,187,477.4z M165.3,305.9c4.9,18.7,3.7,20.7,4.1,31.2c-0.1-4,2.3-9.1-2.5-31.8c-12-56.3,9-36.3,4.1-92
			C173.4,270.4,151,251.2,165.3,305.9z M373.3,169.4c37.8,47.4,6.6,91.1,20.9,115.8c-11-18.9,8.8-56-5-93.7
			c-8.5-23.4-31.3-37.4-43.8-63.2c-6.2-12.9-11.5-25.9-12.3-40.3C334.4,128.6,365.6,159.7,373.3,169.4z M381.7,144.1
			c6.3,6.9,13.3,13.7,21.1,18.9c-3-2-5.7-4.8-8.4-7.3c-38.7-37.4-39.8-67.4-42.1-85C355.3,105,360.4,121,381.7,144.1z M394.5,111.3
			c23.3,31.2,101.1,72.9,84.6,129.8c0,0-5.1,16.2-5.1,16.2c12.2-29,13.3-50.8-8.9-81.8c-20.5-28.6-52-42.1-72.4-67.9
			c-3.3-4.1-6-8.6-9-12.9C387,100.4,390.5,105.9,394.5,111.3z M458.6,113.3c-10.3-35.9-51.4-64-95.3-65.1
			C410.4,51.8,451.3,87.8,458.6,113.3z M315.4,104.1c9.9-8.5,16.9-14.8,20.3-48C333.1,74.8,329,92.4,315.4,104.1z M466.6,365.8
			c-0.7,18.6-8.4,27.3-13.5,39.6c-11.5,27.7,2.4,46.9,4.9,69.9c0,0.2,0.7,7.5,0.6,7.6c0.1,0,0-0.9,0-0.9
			c-0.5-30.3-15.2-46.6-2.7-76.2c10.3-24.3,18.7-29.7,5.5-79.6C463.2,335.8,467.1,350.6,466.6,365.8z M418,432.8
			c10.2,27.9,7.6,26.3,8.8,32.2c-0.1-0.4-0.2-6.7-1.8-13.9c-3.7-16.7-11.6-31.1-9.7-50.8c1.9-19.1,15.8-32.2,17-49.6
			c0.4-5.5-0.3-10.6-1.3-16C437.4,379.2,398.3,378.7,418,432.8z M435.2,269.4c-0.6,2.9-0.9,6.2-1.9,9c2.4-7,3.8-14.6,5.4-21.8
			c8.1-37.2-0.2-49.2-23.2-79C435.5,207,446.2,216,435.2,269.4z"/>
		<path id="SvgjsPath3461" d="M492.4,201.1c-3-9.9-6.9-18.7-11.4-26.6c-0.7-23.9-5.1-53.4-19.6-78.9c-3.2-16.6-9.6-35.8-30.2-50.9
			c-10.8-8-32.9-16.7-54.4-21.1c-15.5-14.3-21.7-14.4-35.4-12.1c-27.1,4.5-27.9-14.3-48.2-0.3c-15.1-3.8-32.5-4.3-43.6-2.2
			c-12.1,2.3-27.6,10.1-38.9,19.4c0,0,0,0,0,0c-17.6,4.7-32.8,13-41.4,25.9c-8.1,12.2-10.4,24.4-10,34.9c-4.1,8.4-6,16.8-6.8,25.1
			c-7.5,10.5-14.5,22.6-18.5,30.5c-4.7,9.2-12.3,49.2-8,67c-4.2,7.5-8,14.7-10.3,21.8c-2.3,6.9-3.7,13.7-4.5,20.8
			c-1.4,12.9,0.9,26.6,4.9,38.8c5.2,15.7,9.4,27.5,12.3,37.8c-9.5,22.1-8.1,40.9,0.2,60.8c-1.9,7.3-4.3,15.5-7.4,25
			c-17.7,54.7,0,119.4,0,168.8c0,4.6-0.2,10.9-0.4,16.9c0,0.2,0,0.3,0,0.5c0.2,0,0.3,0,0.5,0c9.9-0.1,15.1-0.6,23.4-2.3
			c0.2,0,0.4-0.1,0.7-0.1c2.8-0.6,6-1.4,9.9-2.3c10.1-2.4,14.3-2.9,21.4-2.5c0.2,0,0.4,0,0.6,0c5.2,0.3,12,1.1,23.7,2.1
			c0.2,0,0.3,0,0.5,0.1c7.9,0.6,18,1.3,31.3,2c15,0.6,29.9,1.7,44.9,2.5c24.5,1.3,48.9,2.1,73.4,1.2c15.6-0.5,31.5-1.5,47.4-3.4
			c0.3,0,0.6-0.1,0.9-0.1c7.1-0.9,14.2-1.9,21.3-3.2c5-0.9,9.3-1.6,13.1-2.2c0.4,0,0.8-0.1,1.1-0.1c14.7-2.1,21.1-1.7,33.4-1.6
			c0.4,0,0.9,0,1.4,0c4.6,0,10.1,0,17.1-0.1c0.5,0,0.9,0,1.4,0c0-0.2-0.1-0.4-0.1-0.6c-2.8-32.2-3.8-77.4-0.9-95.6
			c4.4-27.5,1.6-56.1-5-83c-1.3-5.1-2.6-9.6-4.1-13.6c2.9-5.4,5.4-10.8,6.7-16.6c3-12.3-0.1-22.4-3.9-33.4
			c7.2-21,14.4-45.2,14.8-58.3c0.4-15.8-1.8-29.7-3.9-38.8C496.4,238.6,498.8,222.7,492.4,201.1z M131.9,177.1
			c1.4-9.1,7.6-36.9,20.1-57.9c-1.2,17.5,0.6,35.2-6.4,54.4c-4.3,11.7-10.9,22.8-17.1,33.5C126.9,197.2,130.4,187.1,131.9,177.1z
			 M127.9,339.3c0.3-1.7,0.8-3.3,1.2-4.9c4.4,16.5,5.3,29.4,1.2,48.8C126.7,369.8,124.7,354.6,127.9,339.3z M342.5,601
			c-26,0.5-52.3-0.6-78.3-1.9c-15.6-0.8-31.2-1.3-46.7-1.9c-6.6-0.2-12-0.5-16.6-0.8c-6.6-43,4.8-84.4,6.2-93.9
			c2-20.8-11.3-36.6-4-68.7c7.4-32.4-3.2-50.3-4.4-66.8c-1.9-25.6,22-30.3,19-52.7c-2-15.5-18.7-25.3-18.7-41.3
			c2.2-15.3,12.5-20.4,7.9-42.5c-3-14.6-19.4-44.2,33.1-77c36.6-22.9,72.1-22.4,86.2-50c3.2,17.3,8.9,33.9,21.9,49.5
			c9.3,11,20.6,20.6,28.2,33.1c16.2,26.9,7.2,57.9,6.4,71.6c-0.9,15.6,6.4,29,9.5,43.9c3.2,15.2-2.7,29.3-6.8,43.7
			c-2,6.8-2.8,12.8-2.8,17.9c-0.1,1,0,2,0,2.9c0.2-0.5,0.3-1,0.5-1.5c7.1-20,21.7-35.7,22.2-54.5c0.4-15.2-5.9-29.8-5.8-45
			c0.1-12.1,3.7-23.8,5.6-35.7c8.4-51.9-31.2-57.8-46.5-92.2c-1.3-3-2.4-6.2-3.3-9.6c2.5,3.9,5.1,7.7,7.8,11.5
			c22.8,32.3,42.7,46.2,56.2,71c19.9,36.5,1.5,57.6-0.6,89.1c-0.9,13,2.2,25.9,1.2,39c-1.1,14.9-6.9,23.2-14.4,36
			c-20.7,35.4-6.2,49.9,2.8,77.4c0,0,0,0,0,0c0,0,0,0,0,0.1c0.1,0.7,1,4,1.4,6.4c6,31.3-20.2,81.2-17.1,113.6
			c0.5,4.8,2.8,15.6,5.3,26.3C385.6,599.5,370.6,600.4,342.5,601z M484.4,464.1c0.6,28.5-9.2,33.6,1.5,125.1
			c0.1,0.9,0.2,1.9,0.4,3.1c-1.2,0-2.3,0-3.5,0c-4.5,0.1-9,0-13.5-0.1c0.2-6.6,0.3-14.1,0-22.5c-0.9-28.4-3.1-24.9-4.8-40.9
			c-3.4-32.5,5.7-44.9,1.4-65.2c-1.2-5.9-3.2-11.5-4.1-17.5c-2.4-16.2,6.7-29.7,14.4-43.5C480.5,416.3,483.8,434.8,484.4,464.1z
			 M476.4,383.7c-0.7,2.3-1.6,4.5-2.5,6.7c-0.3,0.8-0.7,1.6-1.1,2.4c-4.7,10.4-10.8,20.1-14.6,30.9c-6.7,19.1,0.4,32.6,2.4,40.6
			c3.7,15.1-0.8,30.9-0.9,46.2c-0.1,26.9,8.4,30.2,8.2,81.6c-11.1-0.3-22.2-0.8-33.1,0.7c5-40.6,1.5-35.7-0.1-56
			c-2-24.2,2.4-47.6,0.4-70.9c-1.3-15.1-7.1-28.9-9.6-43.7c-5.7-33.3,20.3-49.1,23.9-75.6c0.3-2.3,0.4-4.7,0.4-7
			c-0.2-12.2-4.7-24-5.6-36.2c-2.3-33.7,16.8-58.2,7.2-88.7c-14.7-46.6-72.1-52.9-87.2-143.8c8.5,62.2,35.1,82.2,60.4,109.9
			c48.9,53.7,8.9,74.1,13.2,126c1.1,13.6,7,27.6,3.7,41.3c-6.4,22.7-25.6,41.1-23.4,67.1c1.3,15.5,8.4,29.9,11,45.2
			c5.3,30.6-2.7,48.1,4.8,91.8c2.1,12,1.2,26.4-0.3,40.9c-14.9,2.2-23.8,3.8-34.9,5.1c-1.2-6-2.4-12.2-3.5-18.1
			c-3.6-19.5,3.1-39.6,8.5-58.1c18.5-62.8,11.6-65.3,1.6-94.7c-12.7-37.2,10.7-47.4,18.7-72.4c4.5-14.2,2.8-28.6,1.2-43.1
			c-3.6-34,15.4-54.3,4.9-87c-9.1-28.3-33.4-47.4-52.1-69.2c-8.6-9.9-16.4-20.4-23.7-31.2c-3.7-15.8-3.8-34.4-4.8-48
			c0.5,14.3-0.1,29.7,2.3,44.3c0.1,0.9,0.3,1.7,0.4,2.6c1.4,7.5,3.7,14.8,7.5,21.6c11,19.7,33.7,34.5,39.8,54.3
			c6.5,24.4-5.6,44.6-4.3,67.6c0.9,15.2,7.6,29.8,7.2,45.1c-0.4,15.1-12.5,30.9-19.1,49c1.8-18.1,13.6-35.3,12.2-54.1
			c-1.1-14.9-8.7-28.5-9-43.5c-0.3-14.4,11.7-44.7-4-74.1c-13.8-25.8-40-34.9-51.8-71.8c-1.6-5-2.9-10.1-4-15.2
			c1.9-4,3.3-8.6,4.3-13.8c0.5-3,1-6.2,1.2-9.6c-0.8,9.1-2.8,16.5-5.7,22.5c-0.2,0.4-0.4,0.8-0.6,1.2c-17.8,34.2-68,25.2-109.4,64.5
			c-31.4,29.8-15.4,53.2-14.3,70.6c0.2,2.9,0,7.3-0.5,9.3c-5,16.6-16.5,23.7-1.5,47.4c3.5,5.3,7.6,10.6,9.7,16.7
			c7.4,21.8-24.1,27.2-16.3,64.1c2.3,10.8,7.9,27,6.7,45c-1.3,19.4-7.8,23.3-0.8,53.8c8.7,37.5,2.5,22.5-1.2,66.6
			c-2.1,24.7-0.3,43.2,2,55.6c-11.8-0.8-17.9-1.8-23.3-2c0.9-11.9,0.5-29.2-4.4-52.6c-1.6-7.5-3.9-15-4.7-22.7
			c-2.4-21.2,9-32.5,11.7-50.4c3.2-21,0.9-44.7,6.5-58.5c6.2-15.1-0.2-26-2.6-39.1c-5.3-30,15-30.7,0.7-67.9
			c-6.7-17.4-6-23.3-0.8-37c3-7.8,5.9-15.3,7.1-23.6c3-20.8-23.9-39,9.8-79.4c30-35.9,81.9-55,107.7-59.6
			c-58.7,9.5-131.4,56.7-128.7,101.7c1.8,29.8,12.7,20.2,2.5,51.4c-2.8,8.5-7,16.2-7.8,25.2c-1.3,15,7.9,24.8,9.4,42.8
			c0,10.7-9,26-6.9,42.8c1.6,12.7,9.5,26.5,4.9,39.7c-7.4,19.4-2.3,44.4-6.5,64.9c-3,14.5-11,25.4-10.2,42.6
			c0.4,7.4,2.4,14.6,4.3,21.7c6.9,26.3,7.9,45.2,7.3,58c-6.8-0.3-12.7,0.7-28.1,4.6c-1.1,0.3-2.1,0.5-3,0.7
			c7.2-32.1-1.8-83.6-1.2-107.9c0.4-13.9,8.7-29.5,11.1-42c2.8-14.5-2.9-40.9-1.3-61.2c1.7-21,6.4-28.8,9.7-43.6
			c7.1-31.3-11.8-46.1-15.3-68.5c-3.7-23.3,16.5-45.7,20.9-70.5c4.5-25.8-15.6-49.3,18.9-85.6C231.4,74.7,280,75,306.2,74.4
			c-24.9-0.2-57.1-1.2-92.5,21.4c-55.2,35.3-52.4,65.2-50.3,86.1c1.7,16.9,1.9,22.1-3.8,36.1c-5.2,12.9-12.1,23.8-16,35.6
			c-3.6,11.3-4.4,23.6,1.8,39.5c2.4,6.2,5.2,12.3,7.6,18.5c1.1,2.8,2.2,5.7,2.8,8.6c0.2,0.8,0.9,4.4,1.1,4.7
			c2.2,25.3-10.2,38.5-9.8,68.1c0.1,11.2,2.2,26.9,3.2,38.9c0.4,5.4,0.6,10.1,0.3,13.3c-1.1,11.9-6.9,23.3-9.6,37.7
			c-3.9,20,10.9,79.7,3.5,116.8c-8.4,2-14,2.6-23.6,2.8c0.6-13.3,0.8-33.9-1.1-60c-3.3-44.1-7.4-82.4,4.5-120.9
			c2.7-8.6,5-16.1,7.1-22.8c0.7-2.1,1.3-4.2,1.8-6.2c6.7-23.7,8.1-39.1-0.3-68.8c-0.1-0.6-0.3-1.1-0.5-1.7c-1.1-4-2.5-8.2-4-12.8
			c-11.1-33.4-17.5-52.9-0.5-88c0.6-1.3,1.3-2.7,2.1-4.1c0.4-0.8,0.8-1.6,1.3-2.4c9.2-17.2,20.3-34.9,23-54.7
			c2.3-16.9,0.4-32.9,2.5-48.7c0.1-1.2,0.3-2.5,0.6-3.7c0.6-3.4,1.4-6.8,2.6-10.2c0.4-1.1,0.8-2.3,1.3-3.4c2.3-6,5.7-11.9,10.6-17.9
			c18.8-23.2,49.6-36.1,78.8-38.5c26.9-2.2,53.2,4.6,78.8,12.2C303.4,41.4,276.7,34,249,36c-18.2,1.3-36.9,6.7-53.1,16.1
			c-9.2,5.3-17.6,11.8-24.6,19.6c-4,4.4-7.1,8.7-9.6,13c1.3-11.4,5.7-22.4,13.5-30.9c6.2-6.9,15.5-12.3,26.4-16.5
			c1-0.4,2.1-0.8,3.2-1.1c32.7-11.4,78.3-11.7,102.1-3.9c6.1,2,11.9,4.4,17.7,7c-5.4-2.9-10.9-5.4-16.6-7.7
			c-7.6-3-18.1-5.4-29.9-6.9c-0.1,0-0.2,0-0.3,0c-18.3-2.2-39.9-2-59.5,2c6.2-3.6,12.7-6.6,18.3-8.6c18.3-6.1,33.6-6.8,50.1-5.1
			c1.2,0.1,2.4,0.3,3.6,0.5c0.7,0.1,1.5,0.2,2.2,0.3c10.6,1.6,21.8,4.8,28.5,13.3c-4.7-7.1-14.3-12.1-25.4-15.2
			c8.7-5,12.3-3.4,25.8,2.6c6.2,2.8,12.4,3.4,19.1,2.5c13.1-1.8,16.5-4.5,30.5,5.5c-20.3-3.4-39.3-2.5-47.1,6.9
			c-0.3,0.4-0.7,0.9-1,1.3c9-10.9,31.1-9.9,53.6-4c1.7,0.4,3.4,0.9,5.2,1.4c20,5.9,39.6,15.3,49.9,23.5c15.5,12.2,22.2,25,26.3,38
			c-9-13.8-21.2-26.1-37.7-35.3c-9-5-16.8-8.6-24.3-11.3c-0.2-0.1-0.4-0.1-0.6-0.2c-14.1-4.9-27.2-6.1-45.3-5.6
			c7.3,0.3,14.3,0.7,21.5,1.7c26.4,3.6,47.7,17.3,66.4,35.1c9.3,8.9,19.9,25.7,28,46.3c5.9,15.1,10.6,32.3,12.6,50
			c-2.8-4.4-5.8-8.6-9-12.4c-2.6-21.6-8.9-42.1-31.4-62.2c-9-8.1-19.1-13.6-29.9-18.9c10.4,6,20.4,12.5,28.6,21.3
			c16.2,17.3,24.2,37.9,28.6,55.1c-20.5-22.6-45.4-34.9-58.6-45.9c-21.7-18-34-38.3-45.7-49.2c-5-4.6-10.5-8-16.6-10.9
			c4.6,2.4,8.8,4.9,12.8,8.3c4,3.4,7.5,7.4,10.8,11.5c0.5,0.6,0.9,1.2,1.4,1.8c15.4,19.5,26,35.5,55,55.3
			c16.8,11.5,31.8,24.3,43.3,40.1c0.9,1.2,1.8,2.5,2.6,3.8c3.4,5,6.4,10.3,9,15.9c0.6,1.2,1.1,2.4,1.6,3.6c0.4,0.9,0.8,1.9,1.1,2.8
			c3.7,9.4,6.7,19.7,7.5,29.8c0.2,8.1-0.5,14.4-2,20.5c-0.1,0.5-0.3,1.1-0.4,1.6c-2,7.1-5.2,14.1-9.5,23.6c-25,54.8-9,73.3-2.6,94.3
			c0.3,1.1,0.6,2.1,0.9,3.2C477.5,369.3,478.1,375.9,476.4,383.7z M479.3,346c-3.5-10.4-7-21.8-6.1-36.7c1.2-20.7,10.7-36,17.1-53.1
			C494.8,282.8,490.9,306,479.3,346z"/>
	</g>
	<g id="svga-group-glasses-single-move" transform="matrix(1,0,0,1,0,0)">
		<g id="svga-group-glasses-single" transform="matrix(1,0,0,1,0,0)">
			<path id="SvgjsPath3271" class="st38" d="M310.1,71L310.1,71L310.1,71L310.1,71z"/>
		</g>
	</g>
</g>
<rect id="svga-credit-rect" y="555" class="st39" width="600" height="45"/>
</svg>
