<svg xmlns="http://www.w3.org/2000/svg" viewBox="0 0 198.28 157.1"><path d="M226.13,416.43" transform="translate(0 0)" fill="#2d294d"/><polyline points="174.9 105.58 194.43 105.58 194.43 3.75 45.93 3.75 45.93 20.62" fill="#4ec8f4"/><polyline points="67.73 122.45 174.9 122.45 174.9 20.62 26.4 20.62 26.4 92.92" fill="#eaecef"/><polyline points="60.27 103.81 85.52 103.81 85.52 78.12 41 78.12 41 92.14" fill="#9d9a9a"/><ellipse cx="34.8" cy="122.45" rx="31.93" ry="30.9" fill="#00a651"/><path d="M31.32,134.73a4,4,0,0,1-2.74-1.1l-10.7-10.34a3.68,3.68,0,0,1-.11-5.19l.11-.11a4,4,0,0,1,5.48,0l7.93,7.68,14.93-14.38a4,4,0,0,1,5.48,0,3.68,3.68,0,0,1,.11,5.19l-.11.11L34.06,133.65A3.93,3.93,0,0,1,31.32,134.73Z" transform="translate(0 0)" fill="#2d294d"/><rect x="26.4" y="34.99" width="148.5" height="25.17" fill="#ffdbab"/><path d="M130.7,77.59A17.89,17.89,0,0,0,119.88,74c-9.71,0-17.57,7.61-17.57,17s7.86,17,17.57,17a17.91,17.91,0,0,0,10.85-3.63" transform="translate(0 0)" fill="#e7257d"/><ellipse cx="142.93" cy="90.96" rx="17.57" ry="17" fill="#fcc244"/><path d="M147.3,51.29a3.81,3.81,0,0,1-.75-.07,4.68,4.68,0,0,1-.73-.21,4.27,4.27,0,0,1-.67-.35,2.91,2.91,0,0,1-.58-.47,3.35,3.35,0,0,1-.49-.57,4.94,4.94,0,0,1-.35-.64,3.35,3.35,0,0,1-.22-.7,3.42,3.42,0,0,1,0-1.47,3.55,3.55,0,0,1,.22-.7,5.84,5.84,0,0,1,.35-.65,3.71,3.71,0,0,1,.49-.56,2.91,2.91,0,0,1,.58-.47,4.22,4.22,0,0,1,.67-.34,3.9,3.9,0,0,1,3,0,4.12,4.12,0,0,1,.66.34,3.29,3.29,0,0,1,.59.47,3.64,3.64,0,0,1,.48.56,3.72,3.72,0,0,1,.36.65,3.55,3.55,0,0,1,.22.7,3.61,3.61,0,0,1-.58,2.81,3.79,3.79,0,0,1-1.07,1,4.17,4.17,0,0,1-.66.35,4.68,4.68,0,0,1-.73.21A4.15,4.15,0,0,1,147.3,51.29Z" transform="translate(0 0)" fill="#2d294d"/><path d="M194.43,0H45.93a3.82,3.82,0,0,0-3.87,3.75h0V16.88H26.4a3.8,3.8,0,0,0-3.87,3.73h0V90.29C9.34,95.4,0,107.9,0,122.46c0,19.1,16.06,34.64,35.8,34.64,18.44,0,33.66-13.55,35.6-30.89H174.88a3.81,3.81,0,0,0,3.87-3.75h0V109.29h15.66a3.81,3.81,0,0,0,3.87-3.75h0V3.75A3.81,3.81,0,0,0,194.43,0ZM171,24.37v6.92H30.27V24.42ZM30.27,51.29H131.55a3.75,3.75,0,1,0,.39-7.49H30.27V38.71H171V56.38H30.27Zm5.53,98.28c-15.47,0-28-12.18-28-27.15S20.33,95.29,35.8,95.29s28.08,12.19,28.08,27.16S51.27,149.6,35.8,149.6ZM45.88,89.2V81.87H82.66v18.19H63.1A36,36,0,0,0,45.88,89.2ZM171,118.7H71.4a33.75,33.75,0,0,0-3.28-11.14h18.4a3.82,3.82,0,0,0,3.88-3.75V78.12a3.82,3.82,0,0,0-3.88-3.75H42a3.82,3.82,0,0,0-3.87,3.75v9.76c-.77,0-1.54-.07-2.32-.07a37.91,37.91,0,0,0-5.53.41V63.91H171Zm19.53-16.87h-11.8V20.62a3.8,3.8,0,0,0-3.86-3.74H49.81V7.5H190.56Z" transform="translate(0 0)" fill="#2d294d"/><path d="M142.93,70.21a21.92,21.92,0,0,0-11,3,21.82,21.82,0,0,0-11-3c-11.83,0-21.45,9.31-21.45,20.75s9.62,20.76,21.45,20.76a21.82,21.82,0,0,0,11-3,21.92,21.92,0,0,0,11,3c11.82,0,21.44-9.31,21.44-20.76S154.75,70.21,142.93,70.21ZM107.15,91a13.5,13.5,0,0,1,13.73-13.26,14.07,14.07,0,0,1,4.89.86,20.16,20.16,0,0,0,0,24.79,14.07,14.07,0,0,1-4.89.86A13.5,13.5,0,0,1,107.15,91Zm35.78,13.25A13.26,13.26,0,1,1,156.63,91,13.5,13.5,0,0,1,142.93,104.22Z" transform="translate(0 0)" fill="#2d294d"/></svg>